%TF.GenerationSoftware,KiCad,Pcbnew,9.0.1*%
%TF.CreationDate,2025-04-26T02:16:23+02:00*%
%TF.ProjectId,view_screen,76696577-5f73-4637-9265-656e2e6b6963,0.1.0*%
%TF.SameCoordinates,Original*%
%TF.FileFunction,Profile,NP*%
%FSLAX46Y46*%
G04 Gerber Fmt 4.6, Leading zero omitted, Abs format (unit mm)*
G04 Created by KiCad (PCBNEW 9.0.1) date 2025-04-26 02:16:23*
%MOMM*%
%LPD*%
G01*
G04 APERTURE LIST*
%TA.AperFunction,Profile*%
%ADD10C,0.050000*%
%TD*%
%TA.AperFunction,Profile*%
%ADD11C,0.200000*%
%TD*%
G04 APERTURE END LIST*
D10*
X78983946Y-97305549D02*
G75*
G02*
X97493261Y-78962095I21020004J-2700001D01*
G01*
X97494519Y-78963170D02*
G75*
G02*
X98061684Y-79382196I69981J-498630D01*
G01*
X93003948Y-114505550D02*
G75*
G02*
X93503948Y-114005548I499952J50D01*
G01*
X93010941Y-119285549D02*
G75*
G02*
X92281730Y-119741215I-506941J-51D01*
G01*
X106503945Y-114005551D02*
G75*
G02*
X107003949Y-114505549I-45J-500049D01*
G01*
X107723340Y-119731704D02*
G75*
G02*
X107008042Y-119285549I-218540J446104D01*
G01*
X121013948Y-102705556D02*
G75*
G02*
X107723339Y-119731702I-21009998J2700006D01*
G01*
X101944511Y-79390812D02*
G75*
G02*
X102511734Y-78971776I497189J-79588D01*
G01*
X93003948Y-114505550D02*
X93010941Y-119285549D01*
X107003945Y-114505549D02*
X107008060Y-119285549D01*
X102511739Y-78971742D02*
G75*
G02*
X121013941Y-97305550I-2507799J-21033808D01*
G01*
X101944510Y-79390812D02*
G75*
G02*
X98062345Y-79382040I-1940010J479112D01*
G01*
X92281715Y-119741246D02*
G75*
G02*
X78983941Y-102705556I7722215J19735686D01*
G01*
D11*
X104050000Y-100000000D02*
G75*
G02*
X95950000Y-100000000I-4050000J0D01*
G01*
X95950000Y-100000000D02*
G75*
G02*
X104050000Y-100000000I4050000J0D01*
G01*
D10*
X93503948Y-114005550D02*
X106503945Y-114005551D01*
X121013944Y-97305549D02*
G75*
G02*
X121012540Y-102705375I-21013944J-2694451D01*
G01*
X78985350Y-102705375D02*
G75*
G02*
X78983947Y-97305549I21014650J2705375D01*
G01*
%TO.C,REF\u002A\u002A*%
X103325126Y-92432233D02*
X108274874Y-87482486D01*
X103325126Y-93139340D02*
X106860660Y-96674874D01*
X107567767Y-96674874D02*
X112517514Y-91725126D01*
X108981981Y-87482486D02*
X112517514Y-91018019D01*
X103325126Y-93139340D02*
G75*
G02*
X103325125Y-92432232I353551J353554D01*
G01*
X107567767Y-96674874D02*
G75*
G02*
X106860660Y-96674874I-353553J353554D01*
G01*
X108274874Y-87482486D02*
G75*
G02*
X108981981Y-87482486I353553J-353554D01*
G01*
X112517514Y-91018019D02*
G75*
G02*
X112517515Y-91725127I-353553J-353554D01*
G01*
%TD*%
M02*
