%TF.GenerationSoftware,KiCad,Pcbnew,9.0.1*%
%TF.CreationDate,2025-04-26T02:16:23+02:00*%
%TF.ProjectId,view_screen,76696577-5f73-4637-9265-656e2e6b6963,0.1.0*%
%TF.SameCoordinates,Original*%
%TF.FileFunction,Soldermask,Bot*%
%TF.FilePolarity,Negative*%
%FSLAX46Y46*%
G04 Gerber Fmt 4.6, Leading zero omitted, Abs format (unit mm)*
G04 Created by KiCad (PCBNEW 9.0.1) date 2025-04-26 02:16:23*
%MOMM*%
%LPD*%
G01*
G04 APERTURE LIST*
G04 Aperture macros list*
%AMRoundRect*
0 Rectangle with rounded corners*
0 $1 Rounding radius*
0 $2 $3 $4 $5 $6 $7 $8 $9 X,Y pos of 4 corners*
0 Add a 4 corners polygon primitive as box body*
4,1,4,$2,$3,$4,$5,$6,$7,$8,$9,$2,$3,0*
0 Add four circle primitives for the rounded corners*
1,1,$1+$1,$2,$3*
1,1,$1+$1,$4,$5*
1,1,$1+$1,$6,$7*
1,1,$1+$1,$8,$9*
0 Add four rect primitives between the rounded corners*
20,1,$1+$1,$2,$3,$4,$5,0*
20,1,$1+$1,$4,$5,$6,$7,0*
20,1,$1+$1,$6,$7,$8,$9,0*
20,1,$1+$1,$8,$9,$2,$3,0*%
%AMRotRect*
0 Rectangle, with rotation*
0 The origin of the aperture is its center*
0 $1 length*
0 $2 width*
0 $3 Rotation angle, in degrees counterclockwise*
0 Add horizontal line*
21,1,$1,$2,0,0,$3*%
G04 Aperture macros list end*
%ADD10C,2.400000*%
%ADD11RoundRect,0.087500X0.087500X-0.912500X0.087500X0.912500X-0.087500X0.912500X-0.087500X-0.912500X0*%
%ADD12RoundRect,0.150000X0.583790X-0.163846X-0.433790X0.423654X-0.583790X0.163846X0.433790X-0.423654X0*%
%ADD13RoundRect,0.200000X-0.264360X-0.213866X0.122010X-0.317393X0.264360X0.213866X-0.122010X0.317393X0*%
%ADD14RoundRect,0.200000X0.335876X0.053033X0.053033X0.335876X-0.335876X-0.053033X-0.053033X-0.335876X0*%
%ADD15RoundRect,0.200000X0.264360X0.213866X-0.122010X0.317393X-0.264360X-0.213866X0.122010X-0.317393X0*%
%ADD16RoundRect,0.225000X-0.333843X0.040915X-0.075733X-0.327703X0.333843X-0.040915X0.075733X0.327703X0*%
%ADD17RoundRect,1.000000X-0.469843X0.171019X-0.469850X0.171001X0.469843X-0.171019X0.469850X-0.171001X0*%
%ADD18RoundRect,1.000000X-0.171001X0.469850X-0.171019X0.469843X0.171001X-0.469850X0.171019X-0.469843X0*%
%ADD19RotRect,0.300000X1.800000X135.000000*%
%ADD20RotRect,1.200000X1.075000X135.000000*%
%ADD21RoundRect,1.000000X-0.086814X0.492406X-0.086834X0.492402X0.086814X-0.492406X0.086834X-0.492402X0*%
%ADD22RoundRect,1.000000X-0.433008X0.250009X-0.433018X0.249991X0.433008X-0.250009X0.433018X-0.249991X0*%
%ADD23RoundRect,1.000000X-0.321386X0.383029X-0.321401X0.383016X0.321386X-0.383029X0.321401X-0.383016X0*%
%ADD24RoundRect,1.000000X-0.492402X0.086834X-0.492406X0.086814X0.492402X-0.086834X0.492406X-0.086814X0*%
%ADD25RoundRect,1.000000X-0.249991X0.433018X-0.250009X0.433008X0.249991X-0.433018X0.250009X-0.433008X0*%
%ADD26RoundRect,1.000000X-0.383016X0.321401X-0.383029X0.321386X0.383016X-0.321401X0.383029X-0.321386X0*%
G04 APERTURE END LIST*
D10*
%TO.C,H1*%
X94000000Y-100000000D03*
%TD*%
D11*
%TO.C,J2*%
X103850000Y-110900000D03*
X103150000Y-110900000D03*
X102450000Y-110900000D03*
X101750000Y-110900000D03*
X101050000Y-110900000D03*
X100350000Y-110900000D03*
X99650000Y-110900000D03*
X98950000Y-110900000D03*
X98250000Y-110900000D03*
X97550000Y-110900000D03*
X96850000Y-110900000D03*
X96150000Y-110900000D03*
%TD*%
D12*
%TO.C,Q1*%
X116286491Y-108416385D03*
X115336491Y-110061833D03*
X114187693Y-108301609D03*
%TD*%
D13*
%TO.C,R1*%
X116311487Y-103532587D03*
X117905265Y-103959639D03*
%TD*%
D14*
%TO.C,R2*%
X112883363Y-112883363D03*
X111716637Y-111716637D03*
%TD*%
D15*
%TO.C,R3*%
X117504167Y-105489058D03*
X115910389Y-105062006D03*
%TD*%
D16*
%TO.C,C2*%
X108855478Y-114065157D03*
X109744522Y-115334843D03*
%TD*%
%TO.C,C1*%
X110155478Y-113165157D03*
X111044522Y-114434843D03*
%TD*%
D17*
%TO.C,TP3*%
X82100000Y-93500000D03*
%TD*%
D18*
%TO.C,TP6*%
X93500000Y-82000000D03*
%TD*%
D19*
%TO.C,J6*%
X114860660Y-87610660D03*
X114507107Y-87257106D03*
X114153553Y-86903553D03*
X113800000Y-86550000D03*
X113446446Y-86196446D03*
X113092893Y-85842893D03*
X112739340Y-85489339D03*
X112385786Y-85135786D03*
D20*
X114613173Y-89590559D03*
X110405887Y-85383273D03*
%TD*%
D21*
%TO.C,TP5*%
X96600000Y-81200000D03*
%TD*%
D22*
%TO.C,TP2*%
X83500000Y-90500000D03*
%TD*%
D23*
%TO.C,TP8*%
X87750000Y-85500000D03*
%TD*%
D24*
%TO.C,TP4*%
X81250000Y-96750000D03*
%TD*%
D25*
%TO.C,TP7*%
X90500000Y-83500000D03*
%TD*%
D26*
%TO.C,TP1*%
X85500000Y-87750000D03*
%TD*%
M02*
