%TF.GenerationSoftware,KiCad,Pcbnew,9.0.1*%
%TF.CreationDate,2025-04-26T02:16:23+02:00*%
%TF.ProjectId,view_screen,76696577-5f73-4637-9265-656e2e6b6963,0.1.0*%
%TF.SameCoordinates,Original*%
%TF.FileFunction,Copper,L4,Bot*%
%TF.FilePolarity,Positive*%
%FSLAX46Y46*%
G04 Gerber Fmt 4.6, Leading zero omitted, Abs format (unit mm)*
G04 Created by KiCad (PCBNEW 9.0.1) date 2025-04-26 02:16:23*
%MOMM*%
%LPD*%
G01*
G04 APERTURE LIST*
G04 Aperture macros list*
%AMRoundRect*
0 Rectangle with rounded corners*
0 $1 Rounding radius*
0 $2 $3 $4 $5 $6 $7 $8 $9 X,Y pos of 4 corners*
0 Add a 4 corners polygon primitive as box body*
4,1,4,$2,$3,$4,$5,$6,$7,$8,$9,$2,$3,0*
0 Add four circle primitives for the rounded corners*
1,1,$1+$1,$2,$3*
1,1,$1+$1,$4,$5*
1,1,$1+$1,$6,$7*
1,1,$1+$1,$8,$9*
0 Add four rect primitives between the rounded corners*
20,1,$1+$1,$2,$3,$4,$5,0*
20,1,$1+$1,$4,$5,$6,$7,0*
20,1,$1+$1,$6,$7,$8,$9,0*
20,1,$1+$1,$8,$9,$2,$3,0*%
%AMRotRect*
0 Rectangle, with rotation*
0 The origin of the aperture is its center*
0 $1 length*
0 $2 width*
0 $3 Rotation angle, in degrees counterclockwise*
0 Add horizontal line*
21,1,$1,$2,0,0,$3*%
G04 Aperture macros list end*
%TA.AperFunction,ComponentPad*%
%ADD10C,2.400000*%
%TD*%
%TA.AperFunction,SMDPad,CuDef*%
%ADD11RoundRect,0.087500X0.087500X-0.912500X0.087500X0.912500X-0.087500X0.912500X-0.087500X-0.912500X0*%
%TD*%
%TA.AperFunction,SMDPad,CuDef*%
%ADD12RoundRect,0.150000X0.583790X-0.163846X-0.433790X0.423654X-0.583790X0.163846X0.433790X-0.423654X0*%
%TD*%
%TA.AperFunction,SMDPad,CuDef*%
%ADD13RoundRect,0.200000X-0.264360X-0.213866X0.122010X-0.317393X0.264360X0.213866X-0.122010X0.317393X0*%
%TD*%
%TA.AperFunction,SMDPad,CuDef*%
%ADD14RoundRect,0.200000X0.335876X0.053033X0.053033X0.335876X-0.335876X-0.053033X-0.053033X-0.335876X0*%
%TD*%
%TA.AperFunction,SMDPad,CuDef*%
%ADD15RoundRect,0.200000X0.264360X0.213866X-0.122010X0.317393X-0.264360X-0.213866X0.122010X-0.317393X0*%
%TD*%
%TA.AperFunction,SMDPad,CuDef*%
%ADD16RoundRect,0.225000X-0.333843X0.040915X-0.075733X-0.327703X0.333843X-0.040915X0.075733X0.327703X0*%
%TD*%
%TA.AperFunction,SMDPad,CuDef*%
%ADD17RoundRect,1.000000X-0.469843X0.171019X-0.469850X0.171001X0.469843X-0.171019X0.469850X-0.171001X0*%
%TD*%
%TA.AperFunction,SMDPad,CuDef*%
%ADD18RoundRect,1.000000X-0.171001X0.469850X-0.171019X0.469843X0.171001X-0.469850X0.171019X-0.469843X0*%
%TD*%
%TA.AperFunction,SMDPad,CuDef*%
%ADD19RotRect,0.300000X1.800000X135.000000*%
%TD*%
%TA.AperFunction,SMDPad,CuDef*%
%ADD20RotRect,1.200000X1.075000X135.000000*%
%TD*%
%TA.AperFunction,SMDPad,CuDef*%
%ADD21RoundRect,1.000000X-0.086814X0.492406X-0.086834X0.492402X0.086814X-0.492406X0.086834X-0.492402X0*%
%TD*%
%TA.AperFunction,SMDPad,CuDef*%
%ADD22RoundRect,1.000000X-0.433008X0.250009X-0.433018X0.249991X0.433008X-0.250009X0.433018X-0.249991X0*%
%TD*%
%TA.AperFunction,SMDPad,CuDef*%
%ADD23RoundRect,1.000000X-0.321386X0.383029X-0.321401X0.383016X0.321386X-0.383029X0.321401X-0.383016X0*%
%TD*%
%TA.AperFunction,SMDPad,CuDef*%
%ADD24RoundRect,1.000000X-0.492402X0.086834X-0.492406X0.086814X0.492402X-0.086834X0.492406X-0.086814X0*%
%TD*%
%TA.AperFunction,SMDPad,CuDef*%
%ADD25RoundRect,1.000000X-0.249991X0.433018X-0.250009X0.433008X0.249991X-0.433018X0.250009X-0.433008X0*%
%TD*%
%TA.AperFunction,SMDPad,CuDef*%
%ADD26RoundRect,1.000000X-0.383016X0.321401X-0.383029X0.321386X0.383016X-0.321401X0.383029X-0.321386X0*%
%TD*%
%TA.AperFunction,ViaPad*%
%ADD27C,0.500000*%
%TD*%
%TA.AperFunction,Conductor*%
%ADD28C,0.400000*%
%TD*%
%TA.AperFunction,Conductor*%
%ADD29C,0.250000*%
%TD*%
%TA.AperFunction,Conductor*%
%ADD30C,0.200000*%
%TD*%
G04 APERTURE END LIST*
D10*
%TO.P,H1,1,1*%
%TO.N,unconnected-(H1-Pad1)*%
X94000000Y-100000000D03*
%TD*%
D11*
%TO.P,J2,1,Pin_1*%
%TO.N,GND*%
X103850000Y-110900000D03*
%TO.P,J2,2,Pin_2*%
%TO.N,/LEDK*%
X103150000Y-110900000D03*
%TO.P,J2,3,Pin_3*%
%TO.N,/LEDA*%
X102450000Y-110900000D03*
%TO.P,J2,4,Pin_4*%
%TO.N,/VDD*%
X101750000Y-110900000D03*
%TO.P,J2,5,Pin_5*%
%TO.N,GND*%
X101050000Y-110900000D03*
%TO.P,J2,6,Pin_6*%
X100350000Y-110900000D03*
%TO.P,J2,7,Pin_7*%
%TO.N,/DC*%
X99650000Y-110900000D03*
%TO.P,J2,8,Pin_8*%
%TO.N,/nCS*%
X98950000Y-110900000D03*
%TO.P,J2,9,Pin_9*%
%TO.N,/SCK*%
X98250000Y-110900000D03*
%TO.P,J2,10,Pin_10*%
%TO.N,/MOSI*%
X97550000Y-110900000D03*
%TO.P,J2,11,Pin_11*%
%TO.N,/nRESET*%
X96850000Y-110900000D03*
%TO.P,J2,12,Pin_12*%
%TO.N,GND*%
X96150000Y-110900000D03*
%TD*%
D12*
%TO.P,Q1,1,G*%
%TO.N,Net-(Q1-G)*%
X116286491Y-108416385D03*
%TO.P,Q1,2,S*%
%TO.N,GND*%
X115336491Y-110061833D03*
%TO.P,Q1,3,D*%
%TO.N,/LEDK*%
X114187693Y-108301609D03*
%TD*%
D13*
%TO.P,R1,1*%
%TO.N,/BACKLIGHT_EN*%
X116311487Y-103532587D03*
%TO.P,R1,2*%
%TO.N,Net-(Q1-G)*%
X117905265Y-103959639D03*
%TD*%
D14*
%TO.P,R2,1*%
%TO.N,/VDD*%
X112883363Y-112883363D03*
%TO.P,R2,2*%
%TO.N,/LEDA*%
X111716637Y-111716637D03*
%TD*%
D15*
%TO.P,R3,1*%
%TO.N,Net-(Q1-G)*%
X117504167Y-105489058D03*
%TO.P,R3,2*%
%TO.N,GND*%
X115910389Y-105062006D03*
%TD*%
D16*
%TO.P,C2,1*%
%TO.N,/VDD*%
X108855478Y-114065157D03*
%TO.P,C2,2*%
%TO.N,GND*%
X109744522Y-115334843D03*
%TD*%
%TO.P,C1,1*%
%TO.N,/VDD*%
X110155478Y-113165157D03*
%TO.P,C1,2*%
%TO.N,GND*%
X111044522Y-114434843D03*
%TD*%
D17*
%TO.P,TP3,1,1*%
%TO.N,/MOSI*%
X82100000Y-93500000D03*
%TD*%
D18*
%TO.P,TP6,1,1*%
%TO.N,/VDD*%
X93500000Y-82000000D03*
%TD*%
D19*
%TO.P,J6,1,Pin_1*%
%TO.N,/DC*%
X114860660Y-87610660D03*
%TO.P,J6,2,Pin_2*%
%TO.N,/nCS*%
X114507107Y-87257106D03*
%TO.P,J6,3,Pin_3*%
%TO.N,/BACKLIGHT_EN*%
X114153553Y-86903553D03*
%TO.P,J6,4,Pin_4*%
%TO.N,/MOSI*%
X113800000Y-86550000D03*
%TO.P,J6,5,Pin_5*%
%TO.N,/SCK*%
X113446446Y-86196446D03*
%TO.P,J6,6,Pin_6*%
%TO.N,/nRESET*%
X113092893Y-85842893D03*
%TO.P,J6,7,Pin_7*%
%TO.N,GND*%
X112739340Y-85489339D03*
%TO.P,J6,8,Pin_8*%
%TO.N,/VDD*%
X112385786Y-85135786D03*
D20*
%TO.P,J6,9*%
%TO.N,N/C*%
X114613173Y-89590559D03*
X110405887Y-85383273D03*
%TD*%
D21*
%TO.P,TP5,1,1*%
%TO.N,GND*%
X96600000Y-81200000D03*
%TD*%
D22*
%TO.P,TP2,1,1*%
%TO.N,/SCK*%
X83500000Y-90500000D03*
%TD*%
D23*
%TO.P,TP8,1,1*%
%TO.N,/DC*%
X87750000Y-85500000D03*
%TD*%
D24*
%TO.P,TP4,1,1*%
%TO.N,/nRESET*%
X81250000Y-96750000D03*
%TD*%
D25*
%TO.P,TP7,1,1*%
%TO.N,/BACKLIGHT_EN*%
X90500000Y-83500000D03*
%TD*%
D26*
%TO.P,TP1,1,1*%
%TO.N,/nCS*%
X85500000Y-87750000D03*
%TD*%
D27*
%TO.N,GND*%
X111400000Y-114900000D03*
X109250000Y-86250000D03*
X116059510Y-110512936D03*
X115400000Y-104900000D03*
X101050000Y-112150000D03*
X109750000Y-86750000D03*
X96900000Y-82700000D03*
X96150000Y-112150000D03*
X100350000Y-112150000D03*
X104400000Y-110900000D03*
X110100000Y-115800000D03*
%TO.N,/VDD*%
X101750000Y-112150000D03*
X101750000Y-109200000D03*
X94000000Y-83400000D03*
X111750000Y-84500000D03*
X101750000Y-108600000D03*
%TO.N,/DC*%
X99650000Y-112150000D03*
X88700000Y-86600000D03*
%TO.N,/BACKLIGHT_EN*%
X114250000Y-92000000D03*
X117250000Y-93000000D03*
X91200000Y-84800000D03*
%TO.N,/nRESET*%
X96850000Y-112150000D03*
X112750000Y-98000000D03*
X110500000Y-87500000D03*
X82750000Y-97000000D03*
%TO.N,/MOSI*%
X113700000Y-96900000D03*
X112000000Y-88750000D03*
X97550000Y-112150000D03*
X83500000Y-94000000D03*
%TO.N,/SCK*%
X84800000Y-91250000D03*
X114500000Y-95500000D03*
X98250000Y-112150000D03*
X111250000Y-88000000D03*
%TO.N,/nCS*%
X86600000Y-88750000D03*
X98950000Y-112150000D03*
%TD*%
D28*
%TO.N,GND*%
X109744522Y-115334843D02*
X110144522Y-115334843D01*
D29*
X112739340Y-85489339D02*
X111478679Y-86750000D01*
D28*
X100350000Y-112150000D02*
X100350000Y-110900000D01*
X111400000Y-114900000D02*
X111400000Y-114790321D01*
X101050000Y-112150000D02*
X101050000Y-110900000D01*
D29*
X109750000Y-86750000D02*
X109250000Y-86250000D01*
D28*
X110100000Y-115690321D02*
X109744522Y-115334843D01*
X111400000Y-114790321D02*
X111044522Y-114434843D01*
X110144522Y-115334843D02*
X111044522Y-114434843D01*
X110100000Y-115800000D02*
X110100000Y-115690321D01*
D29*
X111478679Y-86750000D02*
X109750000Y-86750000D01*
D28*
X96150000Y-112150000D02*
X96150000Y-110900000D01*
%TO.N,/VDD*%
X108855478Y-114065157D02*
X109255478Y-114065157D01*
X107690321Y-112900000D02*
X108855478Y-114065157D01*
X102500000Y-112900000D02*
X107690321Y-112900000D01*
D29*
X112385786Y-85135786D02*
X111750000Y-84500000D01*
D28*
X110155478Y-113165157D02*
X112601569Y-113165157D01*
X101750000Y-112150000D02*
X101750000Y-108600000D01*
X101750000Y-112150000D02*
X102500000Y-112900000D01*
X112601569Y-113165157D02*
X112883363Y-112883363D01*
X109255478Y-114065157D02*
X110155478Y-113165157D01*
D29*
%TO.N,/DC*%
X99650000Y-110900000D02*
X99650000Y-108600000D01*
X99650000Y-108600000D02*
X100250000Y-108000000D01*
X100250000Y-108000000D02*
X110250000Y-108000000D01*
X116250000Y-89000000D02*
X116250000Y-92000000D01*
X116250000Y-102000000D02*
X116250000Y-92000000D01*
X114860660Y-87610660D02*
X116250000Y-89000000D01*
X99650000Y-112150000D02*
X99650000Y-110900000D01*
X110250000Y-108000000D02*
X116250000Y-102000000D01*
%TO.N,/BACKLIGHT_EN*%
X117250000Y-102594074D02*
X116311487Y-103532587D01*
X117250000Y-93000000D02*
X117250000Y-102594074D01*
X112800000Y-88257106D02*
X112800000Y-89936396D01*
X114153553Y-86903553D02*
X112800000Y-88257106D01*
X112800000Y-89936396D02*
X114056802Y-91193198D01*
X114056802Y-91193198D02*
X114250000Y-91386396D01*
X114250000Y-91386396D02*
X114250000Y-92000000D01*
%TO.N,/nRESET*%
X113092893Y-85842893D02*
X111685786Y-87250000D01*
X96850000Y-112150000D02*
X96850000Y-110900000D01*
X96850000Y-110900000D02*
X96850000Y-107900000D01*
X112750000Y-102500000D02*
X112750000Y-98000000D01*
X111685786Y-87250000D02*
X110750000Y-87250000D01*
X109250000Y-106000000D02*
X112750000Y-102500000D01*
X96850000Y-107900000D02*
X98750000Y-106000000D01*
X110750000Y-87250000D02*
X110500000Y-87500000D01*
X98750000Y-106000000D02*
X109250000Y-106000000D01*
%TO.N,/MOSI*%
X109663604Y-106450000D02*
X113356802Y-102756802D01*
X113800000Y-86550000D02*
X112000000Y-88350000D01*
X97550000Y-112150000D02*
X97550000Y-110900000D01*
X113700000Y-102413604D02*
X113356802Y-102756802D01*
X112000000Y-88350000D02*
X112000000Y-88750000D01*
X97550000Y-108200000D02*
X99300000Y-106450000D01*
X97550000Y-110900000D02*
X97550000Y-108200000D01*
X99300000Y-106450000D02*
X109663604Y-106450000D01*
X113700000Y-96900000D02*
X113700000Y-102413604D01*
%TO.N,/SCK*%
X98250000Y-108500000D02*
X99750000Y-107000000D01*
X98250000Y-112150000D02*
X98250000Y-110900000D01*
X114500000Y-102250000D02*
X114500000Y-95500000D01*
X99750000Y-107000000D02*
X109750000Y-107000000D01*
X111642892Y-88000000D02*
X111250000Y-88000000D01*
X113446446Y-86196446D02*
X111642892Y-88000000D01*
X98250000Y-110900000D02*
X98250000Y-108500000D01*
X109750000Y-107000000D02*
X114500000Y-102250000D01*
%TO.N,/nCS*%
X98950000Y-108550000D02*
X99950000Y-107550000D01*
X110063604Y-107550000D02*
X115500000Y-102113604D01*
X98950000Y-110900000D02*
X98950000Y-108550000D01*
X113250000Y-89750000D02*
X115500000Y-92000000D01*
X115500000Y-102113604D02*
X115500000Y-92000000D01*
X114507107Y-87257106D02*
X113250000Y-88514213D01*
X113250000Y-88514213D02*
X113250000Y-89750000D01*
X98950000Y-112150000D02*
X98950000Y-110900000D01*
X99950000Y-107550000D02*
X110063604Y-107550000D01*
%TO.N,/LEDA*%
X109091637Y-112225000D02*
X109600000Y-111716637D01*
X102450000Y-110900000D02*
X102450000Y-111783363D01*
X102891637Y-112225000D02*
X109091637Y-112225000D01*
X102450000Y-111783363D02*
X102891637Y-112225000D01*
X109600000Y-111716637D02*
X111716637Y-111716637D01*
%TO.N,/LEDK*%
X103150000Y-110600000D02*
X103150000Y-109600000D01*
X103150000Y-109600000D02*
X103475010Y-109274990D01*
X103475010Y-109274990D02*
X113214312Y-109274990D01*
X113214312Y-109274990D02*
X114187693Y-108301609D01*
D30*
%TO.N,Net-(Q1-G)*%
X116221894Y-108238901D02*
X117504167Y-105489057D01*
X117367358Y-105113182D02*
X117905263Y-103959640D01*
%TD*%
%TA.AperFunction,Conductor*%
%TO.N,GND*%
G36*
X97628280Y-79065669D02*
G01*
X97650475Y-79071299D01*
X97697257Y-79083166D01*
X97727451Y-79095147D01*
X97728597Y-79095783D01*
X97789662Y-79129701D01*
X97815792Y-79149007D01*
X97867093Y-79198314D01*
X97887420Y-79223661D01*
X97924410Y-79284452D01*
X97937580Y-79314154D01*
X97960251Y-79390671D01*
X97963856Y-79406538D01*
X97966759Y-79424667D01*
X97967470Y-79426256D01*
X97974915Y-79448070D01*
X97996559Y-79537555D01*
X97996563Y-79537569D01*
X97997551Y-79541652D01*
X97999072Y-79545567D01*
X97999073Y-79545568D01*
X98097376Y-79798496D01*
X98097380Y-79798505D01*
X98098896Y-79802405D01*
X98100916Y-79806070D01*
X98100920Y-79806078D01*
X98231921Y-80043730D01*
X98233946Y-80047403D01*
X98400314Y-80272314D01*
X98403225Y-80275316D01*
X98403230Y-80275322D01*
X98471251Y-80345474D01*
X98595056Y-80473158D01*
X98814728Y-80646383D01*
X99055445Y-80788926D01*
X99312948Y-80898265D01*
X99582684Y-80972465D01*
X99859880Y-81010216D01*
X100139635Y-81010848D01*
X100416999Y-80974351D01*
X100687067Y-80901370D01*
X100945061Y-80793196D01*
X101186420Y-80651743D01*
X101406873Y-80479512D01*
X101602521Y-80279550D01*
X101769903Y-80055393D01*
X101906059Y-79811008D01*
X102008581Y-79550715D01*
X102032449Y-79453946D01*
X102039435Y-79433629D01*
X102039489Y-79433290D01*
X102039491Y-79433288D01*
X102042258Y-79415998D01*
X102044347Y-79405719D01*
X102045210Y-79402225D01*
X102046725Y-79396646D01*
X102068618Y-79322751D01*
X102081782Y-79293060D01*
X102118784Y-79232250D01*
X102139102Y-79206914D01*
X102190420Y-79157593D01*
X102216550Y-79138290D01*
X102278765Y-79103737D01*
X102308963Y-79091757D01*
X102377958Y-79074259D01*
X102410209Y-79070402D01*
X102489875Y-79071218D01*
X102506095Y-79072434D01*
X102524428Y-79075010D01*
X102524428Y-79075009D01*
X102542632Y-79077567D01*
X102542630Y-79077575D01*
X102542693Y-79077574D01*
X103388974Y-79196857D01*
X103394201Y-79197709D01*
X104274533Y-79360402D01*
X104279767Y-79361485D01*
X105152318Y-79561619D01*
X105157525Y-79562931D01*
X106020742Y-79800149D01*
X106025856Y-79801673D01*
X106779155Y-80043730D01*
X106878122Y-80075531D01*
X106883210Y-80077286D01*
X107723065Y-80387313D01*
X107728007Y-80389259D01*
X108553814Y-80734853D01*
X108558701Y-80737021D01*
X109057658Y-80971353D01*
X109369010Y-81117577D01*
X109373832Y-81119969D01*
X109464950Y-81167613D01*
X110167117Y-81534765D01*
X110171808Y-81537346D01*
X110186520Y-81545858D01*
X110946663Y-81985648D01*
X110951263Y-81988442D01*
X111706268Y-82469427D01*
X111710745Y-82472416D01*
X112444486Y-82985184D01*
X112448831Y-82988360D01*
X112939989Y-83363811D01*
X113160035Y-83532018D01*
X113164240Y-83535377D01*
X113851570Y-84108908D01*
X113855628Y-84112444D01*
X113859697Y-84116145D01*
X114517850Y-84714817D01*
X114521725Y-84718497D01*
X114825080Y-85019091D01*
X115157602Y-85348587D01*
X115161344Y-85352456D01*
X115769755Y-86009152D01*
X115773327Y-86013178D01*
X116353093Y-86695206D01*
X116356491Y-86699380D01*
X116904567Y-87402936D01*
X116906635Y-87405590D01*
X116909847Y-87409901D01*
X117427740Y-88136733D01*
X117429314Y-88138941D01*
X117432337Y-88143381D01*
X117619223Y-88430902D01*
X117920203Y-88893954D01*
X117923039Y-88898528D01*
X118378396Y-89669235D01*
X118381035Y-89673927D01*
X118563811Y-90015831D01*
X118724410Y-90316251D01*
X118803075Y-90463402D01*
X118805506Y-90468195D01*
X118868234Y-90598647D01*
X119193426Y-91274934D01*
X119195655Y-91279833D01*
X119548785Y-92102442D01*
X119550802Y-92107432D01*
X119868472Y-92944358D01*
X119870274Y-92949430D01*
X120151909Y-93799147D01*
X120153493Y-93804291D01*
X120398588Y-94665288D01*
X120399950Y-94670495D01*
X120608044Y-95541139D01*
X120609183Y-95546399D01*
X120779904Y-96425137D01*
X120780818Y-96430441D01*
X120913893Y-97315919D01*
X120914541Y-97320904D01*
X120997957Y-98081251D01*
X120998375Y-98085832D01*
X121054003Y-98849014D01*
X121054253Y-98853607D01*
X121081985Y-99618276D01*
X121082068Y-99622876D01*
X121081869Y-100388072D01*
X121081784Y-100392671D01*
X121053654Y-101157353D01*
X121053401Y-101161946D01*
X120997376Y-101925100D01*
X120996955Y-101929681D01*
X120912974Y-102691516D01*
X120907307Y-102735694D01*
X120907229Y-102735684D01*
X120907197Y-102740040D01*
X120786391Y-103548189D01*
X120785519Y-103553300D01*
X120623049Y-104400194D01*
X120621968Y-104405265D01*
X120424787Y-105244780D01*
X120423498Y-105249802D01*
X120191946Y-106080495D01*
X120190451Y-106085460D01*
X119924928Y-106905894D01*
X119923231Y-106910793D01*
X119624165Y-107719648D01*
X119622267Y-107724473D01*
X119290185Y-108520319D01*
X119288090Y-108525062D01*
X118923550Y-109306564D01*
X118921262Y-109311217D01*
X118524871Y-110077077D01*
X118522393Y-110081632D01*
X118094844Y-110830505D01*
X118092182Y-110834954D01*
X117634155Y-111565654D01*
X117631311Y-111569989D01*
X117143646Y-112281174D01*
X117140627Y-112285389D01*
X116624083Y-112975953D01*
X116620892Y-112980040D01*
X116076403Y-113648730D01*
X116073047Y-113652683D01*
X115501498Y-114298420D01*
X115497983Y-114302231D01*
X114900332Y-114923926D01*
X114896662Y-114927589D01*
X114273965Y-115524145D01*
X114270148Y-115527654D01*
X113623428Y-116098093D01*
X113619470Y-116101442D01*
X112949816Y-116644802D01*
X112945723Y-116647985D01*
X112254316Y-117163308D01*
X112250096Y-117166321D01*
X111538040Y-117652785D01*
X111533700Y-117655621D01*
X110802232Y-118112379D01*
X110797778Y-118115034D01*
X110048162Y-118541298D01*
X110043603Y-118543768D01*
X109277072Y-118938837D01*
X109272416Y-118941117D01*
X108490259Y-119304325D01*
X108485512Y-119306411D01*
X107722356Y-119623312D01*
X107706156Y-119628210D01*
X107687524Y-119637338D01*
X107678001Y-119641524D01*
X107677546Y-119641702D01*
X107670172Y-119644326D01*
X107587774Y-119670791D01*
X107551926Y-119676798D01*
X107474370Y-119678450D01*
X107438297Y-119673974D01*
X107363486Y-119653414D01*
X107330194Y-119638828D01*
X107286406Y-119611516D01*
X107264369Y-119597770D01*
X107236628Y-119574288D01*
X107185263Y-119516149D01*
X107165377Y-119485723D01*
X107132744Y-119415337D01*
X107122372Y-119380501D01*
X107109877Y-119294720D01*
X107108561Y-119276543D01*
X107108564Y-119242312D01*
X107108522Y-119241997D01*
X107105697Y-115961044D01*
X109293047Y-115961044D01*
X109300761Y-115972061D01*
X109304908Y-115977356D01*
X109340439Y-116018034D01*
X109453894Y-116096141D01*
X109584754Y-116139119D01*
X109722426Y-116143490D01*
X109855750Y-116108897D01*
X109903048Y-116082826D01*
X109908753Y-116079270D01*
X109940253Y-116057213D01*
X109940253Y-116057212D01*
X109682146Y-115688596D01*
X109682145Y-115688595D01*
X109293048Y-115961043D01*
X109293047Y-115961044D01*
X107105697Y-115961044D01*
X107104448Y-114510085D01*
X107104447Y-114489780D01*
X107104443Y-114437881D01*
X107074323Y-114305961D01*
X107074322Y-114305958D01*
X107015607Y-114184051D01*
X106931237Y-114078258D01*
X106825441Y-113993888D01*
X106703531Y-113935174D01*
X106571611Y-113905055D01*
X106540306Y-113905053D01*
X106540297Y-113905051D01*
X106503938Y-113905050D01*
X106461524Y-113905048D01*
X106461508Y-113905050D01*
X93529345Y-113905050D01*
X93503958Y-113905048D01*
X93436295Y-113905043D01*
X93304357Y-113935147D01*
X93182431Y-113993858D01*
X93076629Y-114078231D01*
X92992256Y-114184032D01*
X92933545Y-114305963D01*
X92903442Y-114437897D01*
X92903444Y-114470696D01*
X92903398Y-114471003D01*
X92903425Y-114489780D01*
X92903447Y-114505499D01*
X92903448Y-114505560D01*
X92903451Y-114532489D01*
X92903455Y-114532497D01*
X92903453Y-114548538D01*
X92903511Y-114548979D01*
X92910427Y-119276349D01*
X92909113Y-119294679D01*
X92896211Y-119383330D01*
X92885855Y-119418142D01*
X92852040Y-119491144D01*
X92832185Y-119521556D01*
X92778950Y-119581882D01*
X92751246Y-119605366D01*
X92683020Y-119647999D01*
X92649768Y-119662605D01*
X92608571Y-119673974D01*
X92572213Y-119684007D01*
X92536176Y-119688522D01*
X92455740Y-119686913D01*
X92419911Y-119680960D01*
X92334262Y-119653594D01*
X92317367Y-119646816D01*
X92298519Y-119637621D01*
X92282639Y-119632834D01*
X92275411Y-119629833D01*
X91925861Y-119484697D01*
X91519050Y-119315786D01*
X91514303Y-119313699D01*
X91189666Y-119162961D01*
X90731705Y-118950318D01*
X90727079Y-118948053D01*
X90257713Y-118706161D01*
X89960076Y-118552771D01*
X89955517Y-118550301D01*
X89205466Y-118123816D01*
X89201012Y-118121161D01*
X88469130Y-117664168D01*
X88464789Y-117661332D01*
X87752308Y-117174596D01*
X87748115Y-117171603D01*
X87056284Y-116655980D01*
X87052191Y-116652797D01*
X86382150Y-116109135D01*
X86378192Y-116105785D01*
X85731104Y-115535030D01*
X85727286Y-115531521D01*
X85723250Y-115527654D01*
X85104210Y-114934605D01*
X85100588Y-114930990D01*
X84502576Y-114308919D01*
X84499060Y-114305107D01*
X84437699Y-114235781D01*
X83927179Y-113658989D01*
X83923834Y-113655049D01*
X83921907Y-113652683D01*
X83379033Y-112985962D01*
X83375852Y-112981888D01*
X83363826Y-112965810D01*
X82859005Y-112290900D01*
X82856005Y-112286711D01*
X82852208Y-112281174D01*
X82769287Y-112160242D01*
X96325000Y-112160242D01*
X96345167Y-112192040D01*
X96348777Y-112208880D01*
X96360957Y-112293593D01*
X96360957Y-112293594D01*
X96360958Y-112293596D01*
X96417938Y-112418364D01*
X96421223Y-112425558D01*
X96516226Y-112535197D01*
X96625569Y-112605468D01*
X96638268Y-112613629D01*
X96717860Y-112636999D01*
X96777463Y-112654500D01*
X96777464Y-112654500D01*
X96922537Y-112654500D01*
X97007230Y-112629632D01*
X97061732Y-112613629D01*
X97131879Y-112568547D01*
X97199999Y-112548545D01*
X97268116Y-112568544D01*
X97305755Y-112592734D01*
X97338268Y-112613629D01*
X97477463Y-112654500D01*
X97477464Y-112654500D01*
X97622537Y-112654500D01*
X97707230Y-112629632D01*
X97761732Y-112613629D01*
X97831879Y-112568547D01*
X97899999Y-112548545D01*
X97968116Y-112568544D01*
X98005755Y-112592734D01*
X98038268Y-112613629D01*
X98177463Y-112654500D01*
X98177464Y-112654500D01*
X98322537Y-112654500D01*
X98407230Y-112629632D01*
X98461732Y-112613629D01*
X98531879Y-112568547D01*
X98599999Y-112548545D01*
X98668116Y-112568544D01*
X98705755Y-112592734D01*
X98738268Y-112613629D01*
X98877463Y-112654500D01*
X98877464Y-112654500D01*
X99022537Y-112654500D01*
X99107230Y-112629632D01*
X99161732Y-112613629D01*
X99231879Y-112568547D01*
X99299999Y-112548545D01*
X99368116Y-112568544D01*
X99405755Y-112592734D01*
X99438268Y-112613629D01*
X99577463Y-112654500D01*
X99577464Y-112654500D01*
X99722537Y-112654500D01*
X99763407Y-112642499D01*
X99861732Y-112613629D01*
X99983775Y-112535196D01*
X100078777Y-112425558D01*
X100139042Y-112293596D01*
X100151222Y-112208878D01*
X100175000Y-112156812D01*
X100175000Y-111075000D01*
X100525000Y-111075000D01*
X100525000Y-112147747D01*
X100527250Y-112147451D01*
X100646750Y-112091728D01*
X100716942Y-112081067D01*
X100753250Y-112091728D01*
X100872749Y-112147451D01*
X100875000Y-112147747D01*
X100875000Y-111075000D01*
X100525000Y-111075000D01*
X100175000Y-111075000D01*
X100175000Y-109652251D01*
X100171987Y-109652649D01*
X100169423Y-109652250D01*
X100524999Y-109652250D01*
X100525000Y-110725000D01*
X100875000Y-110725000D01*
X100875000Y-109652250D01*
X100872750Y-109652547D01*
X100753249Y-109708271D01*
X100683057Y-109718932D01*
X100646751Y-109708271D01*
X100527249Y-109652547D01*
X100524999Y-109652250D01*
X100169423Y-109652250D01*
X100101835Y-109641733D01*
X100048720Y-109594622D01*
X100029499Y-109527732D01*
X100029499Y-109294580D01*
X100029499Y-108809380D01*
X100049501Y-108741263D01*
X100066395Y-108720298D01*
X100370291Y-108416402D01*
X100432601Y-108382379D01*
X100459384Y-108379500D01*
X101126603Y-108379500D01*
X101194724Y-108399502D01*
X101241217Y-108453158D01*
X101251320Y-108523431D01*
X101250941Y-108526073D01*
X101240311Y-108600003D01*
X101260957Y-108743593D01*
X101260957Y-108743594D01*
X101260958Y-108743596D01*
X101284114Y-108794300D01*
X101295500Y-108846642D01*
X101295500Y-108953357D01*
X101284114Y-109005698D01*
X101260957Y-109056404D01*
X101240311Y-109199999D01*
X101260957Y-109343593D01*
X101260957Y-109343594D01*
X101260958Y-109343596D01*
X101284114Y-109394300D01*
X101295500Y-109446642D01*
X101295500Y-109533342D01*
X101275498Y-109601463D01*
X101252562Y-109628088D01*
X101224999Y-109652251D01*
X101224999Y-112160242D01*
X101245167Y-112192040D01*
X101248777Y-112208880D01*
X101260957Y-112293593D01*
X101260957Y-112293594D01*
X101260958Y-112293596D01*
X101321223Y-112425558D01*
X101416225Y-112535196D01*
X101538268Y-112613629D01*
X101553563Y-112618119D01*
X101607160Y-112649920D01*
X102155556Y-113198316D01*
X102164972Y-113208851D01*
X102187369Y-113236936D01*
X102215341Y-113256007D01*
X102235021Y-113269424D01*
X102238841Y-113272134D01*
X102273701Y-113297862D01*
X102290197Y-113310037D01*
X102294674Y-113312296D01*
X102300570Y-113314114D01*
X102300572Y-113314116D01*
X102355679Y-113331114D01*
X102360140Y-113332582D01*
X102420376Y-113353659D01*
X102425323Y-113354500D01*
X102431495Y-113354500D01*
X102489158Y-113354500D01*
X102493868Y-113354587D01*
X102551462Y-113356743D01*
X102551464Y-113356742D01*
X102557631Y-113356973D01*
X102576422Y-113354500D01*
X107449871Y-113354500D01*
X107517992Y-113374502D01*
X107538966Y-113391405D01*
X108007318Y-113859757D01*
X108041344Y-113922069D01*
X108044160Y-113952850D01*
X108040188Y-114077936D01*
X108074818Y-114211398D01*
X108100919Y-114258752D01*
X108102545Y-114261702D01*
X108133537Y-114305963D01*
X108411337Y-114702703D01*
X108411341Y-114702709D01*
X108413268Y-114705460D01*
X108451054Y-114748719D01*
X108564625Y-114826907D01*
X108695624Y-114869931D01*
X108833438Y-114874307D01*
X108833438Y-114874306D01*
X108833439Y-114874307D01*
X108852925Y-114869251D01*
X108923885Y-114871502D01*
X108982364Y-114911761D01*
X109009794Y-114977244D01*
X108997467Y-115047163D01*
X108988355Y-115062660D01*
X108977084Y-115079031D01*
X108934106Y-115209892D01*
X108929735Y-115347566D01*
X108964328Y-115480890D01*
X108990399Y-115528189D01*
X108993957Y-115533898D01*
X109001670Y-115544914D01*
X109001671Y-115544914D01*
X109212604Y-115397218D01*
X110098274Y-115397218D01*
X110356384Y-115765837D01*
X110387874Y-115743788D01*
X110393178Y-115739634D01*
X110433852Y-115704107D01*
X110511960Y-115590651D01*
X110554937Y-115459793D01*
X110559883Y-115304013D01*
X110562943Y-115304110D01*
X110564287Y-115261688D01*
X110604542Y-115203207D01*
X110670023Y-115175772D01*
X110739942Y-115188095D01*
X110753290Y-115195942D01*
X110884754Y-115239119D01*
X111022426Y-115243490D01*
X111155750Y-115208897D01*
X111203048Y-115182826D01*
X111208753Y-115179270D01*
X111240253Y-115157213D01*
X111240253Y-115157212D01*
X110982146Y-114788596D01*
X110982145Y-114788595D01*
X110574292Y-115074176D01*
X110568278Y-115086309D01*
X110507363Y-115122775D01*
X110504737Y-115122879D01*
X110336701Y-115240539D01*
X110308409Y-115250080D01*
X110098274Y-115397218D01*
X109212604Y-115397218D01*
X109806898Y-114981090D01*
X110214744Y-114695511D01*
X110220755Y-114683384D01*
X110281667Y-114646912D01*
X110284300Y-114646807D01*
X110452339Y-114529146D01*
X110480635Y-114519603D01*
X110512604Y-114497218D01*
X111398274Y-114497218D01*
X111656384Y-114865837D01*
X111687874Y-114843788D01*
X111693178Y-114839634D01*
X111733852Y-114804107D01*
X111811960Y-114690651D01*
X111854937Y-114559793D01*
X111859308Y-114422119D01*
X111824715Y-114288795D01*
X111798641Y-114241492D01*
X111795083Y-114235781D01*
X111787372Y-114224770D01*
X111787371Y-114224769D01*
X111398274Y-114497218D01*
X110512604Y-114497218D01*
X111106899Y-114081090D01*
X111495995Y-113808640D01*
X111497152Y-113802080D01*
X111479809Y-113750652D01*
X111497095Y-113681792D01*
X111548865Y-113633209D01*
X111605710Y-113619657D01*
X112568960Y-113619657D01*
X112583063Y-113620449D01*
X112596636Y-113621977D01*
X112604700Y-113622886D01*
X112645263Y-113634572D01*
X112694851Y-113658452D01*
X112830330Y-113678872D01*
X112965809Y-113658452D01*
X113089251Y-113599006D01*
X113112997Y-113579332D01*
X113579331Y-113112997D01*
X113599006Y-113089251D01*
X113658452Y-112965809D01*
X113678872Y-112830330D01*
X113658452Y-112694851D01*
X113599006Y-112571409D01*
X113579332Y-112547663D01*
X113219063Y-112187395D01*
X113195317Y-112167720D01*
X113195316Y-112167719D01*
X113071876Y-112108274D01*
X112994124Y-112096555D01*
X112936396Y-112087854D01*
X112936395Y-112087854D01*
X112800915Y-112108274D01*
X112677476Y-112167719D01*
X112677474Y-112167720D01*
X112677475Y-112167720D01*
X112653729Y-112187394D01*
X112651655Y-112189467D01*
X112651644Y-112189478D01*
X112189473Y-112651650D01*
X112189462Y-112651661D01*
X112187395Y-112653729D01*
X112185522Y-112655989D01*
X112185517Y-112655995D01*
X112178016Y-112665048D01*
X112119151Y-112704740D01*
X112080994Y-112710657D01*
X111896510Y-112710657D01*
X111828389Y-112690655D01*
X111781896Y-112636999D01*
X111771792Y-112566725D01*
X111801286Y-112502145D01*
X111841841Y-112471135D01*
X111922525Y-112432280D01*
X111946271Y-112412606D01*
X112412605Y-111946271D01*
X112432280Y-111922525D01*
X112491726Y-111799083D01*
X112512146Y-111663604D01*
X112491726Y-111528125D01*
X112432280Y-111404683D01*
X112412606Y-111380937D01*
X112052337Y-111020669D01*
X112028591Y-111000994D01*
X112028590Y-111000993D01*
X111905150Y-110941548D01*
X111769670Y-110921128D01*
X111634189Y-110941548D01*
X111510750Y-111000993D01*
X111510748Y-111000994D01*
X111510749Y-111000994D01*
X111487003Y-111020668D01*
X111484929Y-111022741D01*
X111484918Y-111022752D01*
X111207440Y-111300232D01*
X111145127Y-111334257D01*
X111118344Y-111337137D01*
X109652426Y-111337137D01*
X109626568Y-111334455D01*
X109615899Y-111332217D01*
X109584204Y-111336169D01*
X109568618Y-111337137D01*
X109568557Y-111337137D01*
X109547850Y-111340591D01*
X109542708Y-111341340D01*
X109482247Y-111348878D01*
X109482137Y-111348913D01*
X109428583Y-111377895D01*
X109423955Y-111380278D01*
X109369217Y-111407038D01*
X109369127Y-111407105D01*
X109327879Y-111451910D01*
X109324277Y-111455664D01*
X108971348Y-111808595D01*
X108909036Y-111842620D01*
X108882252Y-111845500D01*
X104405000Y-111845500D01*
X104336879Y-111825498D01*
X104290386Y-111771842D01*
X104279000Y-111719500D01*
X104279000Y-111075000D01*
X103801000Y-111075000D01*
X103732879Y-111054998D01*
X103686386Y-111001342D01*
X103675000Y-110949000D01*
X103675000Y-110851000D01*
X103695002Y-110782879D01*
X103748658Y-110736386D01*
X103801000Y-110725000D01*
X104279000Y-110725000D01*
X104279000Y-110668609D01*
X115279461Y-110668609D01*
X115279462Y-110668610D01*
X115595812Y-110851255D01*
X115685240Y-110885584D01*
X115813037Y-110892282D01*
X115936649Y-110859159D01*
X116043980Y-110789458D01*
X116058251Y-110771835D01*
X116058250Y-110771834D01*
X115429461Y-110408802D01*
X115429460Y-110408803D01*
X115279461Y-110668609D01*
X104279000Y-110668609D01*
X104279000Y-109951607D01*
X104278461Y-109943397D01*
X104278111Y-109940740D01*
X114345905Y-109940740D01*
X114379027Y-110064357D01*
X114448727Y-110171684D01*
X114523167Y-110231965D01*
X114839520Y-110414611D01*
X114839521Y-110414610D01*
X114989521Y-110154803D01*
X114989520Y-110154802D01*
X114667461Y-109968861D01*
X115683459Y-109968861D01*
X115683460Y-109968862D01*
X116312249Y-110331893D01*
X116320378Y-110310719D01*
X116327076Y-110182925D01*
X116293954Y-110059308D01*
X116224254Y-109951981D01*
X116149814Y-109891700D01*
X115833460Y-109709053D01*
X115833459Y-109709054D01*
X115683459Y-109968861D01*
X114667461Y-109968861D01*
X114360731Y-109791770D01*
X114360730Y-109791771D01*
X114352603Y-109812943D01*
X114345905Y-109940740D01*
X104278111Y-109940740D01*
X104272452Y-109897750D01*
X104242604Y-109833740D01*
X104231943Y-109763548D01*
X104260923Y-109698735D01*
X104320343Y-109659879D01*
X104356799Y-109654490D01*
X113161886Y-109654490D01*
X113187743Y-109657171D01*
X113198412Y-109659409D01*
X113230108Y-109655458D01*
X113245694Y-109654490D01*
X113245752Y-109654490D01*
X113245755Y-109654490D01*
X113266506Y-109651026D01*
X113271555Y-109650290D01*
X113324095Y-109643742D01*
X113324100Y-109643739D01*
X113332094Y-109642743D01*
X113332154Y-109642724D01*
X113339238Y-109638890D01*
X113339239Y-109638890D01*
X113385723Y-109613732D01*
X113390355Y-109611349D01*
X113445119Y-109584577D01*
X113445166Y-109584542D01*
X113474746Y-109552410D01*
X113486442Y-109539703D01*
X113490025Y-109535969D01*
X114053657Y-108972337D01*
X114115967Y-108938313D01*
X114186782Y-108943378D01*
X114205748Y-108952314D01*
X114446802Y-109091487D01*
X114536334Y-109125855D01*
X114537250Y-109125903D01*
X114540128Y-109126054D01*
X114607109Y-109149592D01*
X114650731Y-109205607D01*
X114657144Y-109276313D01*
X114631454Y-109331179D01*
X114614730Y-109351829D01*
X114614730Y-109351830D01*
X115243519Y-109714862D01*
X115243520Y-109714861D01*
X115393519Y-109455055D01*
X115393518Y-109455054D01*
X115077169Y-109272410D01*
X114987741Y-109238081D01*
X114984282Y-109237900D01*
X114917302Y-109214360D01*
X114873681Y-109158344D01*
X114867269Y-109087638D01*
X114892956Y-109032780D01*
X114955872Y-108955083D01*
X114957471Y-108952315D01*
X115137707Y-108640136D01*
X115172076Y-108550604D01*
X115172076Y-108550603D01*
X115173315Y-108547376D01*
X115216402Y-108490948D01*
X115283155Y-108466772D01*
X115352382Y-108482524D01*
X115396619Y-108523908D01*
X115398352Y-108526576D01*
X115472879Y-108586927D01*
X115472880Y-108586928D01*
X115472882Y-108586929D01*
X116545600Y-109206263D01*
X116635132Y-109240631D01*
X116677784Y-109242866D01*
X116763088Y-109247337D01*
X116763088Y-109247336D01*
X116763090Y-109247337D01*
X116886856Y-109214174D01*
X116886858Y-109214173D01*
X116994317Y-109144390D01*
X117009326Y-109125855D01*
X117054671Y-109069858D01*
X117236505Y-108754912D01*
X117270874Y-108665380D01*
X117277579Y-108537422D01*
X117244416Y-108413656D01*
X117235224Y-108399502D01*
X117174629Y-108306192D01*
X117100102Y-108245841D01*
X116813794Y-108080541D01*
X116764801Y-108029158D01*
X116751365Y-107959445D01*
X116762597Y-107918176D01*
X117500283Y-106336202D01*
X117547198Y-106282920D01*
X117605054Y-106263808D01*
X117728456Y-106254561D01*
X117836813Y-106212033D01*
X117855992Y-106204507D01*
X117855992Y-106204506D01*
X117855994Y-106204506D01*
X117963112Y-106119082D01*
X118040293Y-106005879D01*
X118051020Y-105976968D01*
X118221710Y-105339943D01*
X118226876Y-105309541D01*
X118216637Y-105172913D01*
X118216636Y-105172910D01*
X118166583Y-105045376D01*
X118069698Y-104923887D01*
X118042864Y-104858157D01*
X118055826Y-104788354D01*
X118104468Y-104736639D01*
X118122177Y-104728037D01*
X118129553Y-104725142D01*
X118129554Y-104725142D01*
X118196080Y-104699032D01*
X118257090Y-104675088D01*
X118257090Y-104675087D01*
X118257092Y-104675087D01*
X118364210Y-104589663D01*
X118441391Y-104476460D01*
X118452118Y-104447549D01*
X118622808Y-103810524D01*
X118627974Y-103780122D01*
X118617735Y-103643494D01*
X118582525Y-103553780D01*
X118567681Y-103515957D01*
X118482254Y-103408836D01*
X118369053Y-103331657D01*
X118342899Y-103321952D01*
X118342880Y-103321946D01*
X118340142Y-103320930D01*
X118337315Y-103320172D01*
X118337304Y-103320169D01*
X117850848Y-103189824D01*
X117850837Y-103189821D01*
X117848006Y-103189063D01*
X117845104Y-103188569D01*
X117845100Y-103188569D01*
X117817605Y-103183897D01*
X117817604Y-103183897D01*
X117783447Y-103186456D01*
X117680973Y-103194136D01*
X117553439Y-103244189D01*
X117446318Y-103329616D01*
X117369139Y-103442817D01*
X117359434Y-103468971D01*
X117359425Y-103468996D01*
X117358412Y-103471729D01*
X117357656Y-103474549D01*
X117357651Y-103474566D01*
X117188483Y-104105911D01*
X117188479Y-104105926D01*
X117187722Y-104108754D01*
X117187229Y-104111651D01*
X117187228Y-104111659D01*
X117182556Y-104139154D01*
X117192795Y-104275786D01*
X117249788Y-104421002D01*
X117246637Y-104422238D01*
X117261622Y-104458947D01*
X117250472Y-104525023D01*
X117136530Y-104769374D01*
X117100897Y-104814633D01*
X117045221Y-104859034D01*
X116968041Y-104972236D01*
X116958336Y-104998390D01*
X116958327Y-104998415D01*
X116957314Y-105001148D01*
X116956558Y-105003968D01*
X116956553Y-105003985D01*
X116787385Y-105635330D01*
X116787381Y-105635345D01*
X116786624Y-105638173D01*
X116781458Y-105668575D01*
X116783094Y-105690401D01*
X116791697Y-105805205D01*
X116848690Y-105950421D01*
X116845539Y-105951657D01*
X116860524Y-105988366D01*
X116849374Y-106054442D01*
X116152464Y-107548972D01*
X116105547Y-107602257D01*
X116037269Y-107621718D01*
X115993115Y-107613353D01*
X115937849Y-107592138D01*
X115809893Y-107585432D01*
X115686123Y-107618596D01*
X115578664Y-107688379D01*
X115518309Y-107762914D01*
X115336476Y-108077857D01*
X115300867Y-108170619D01*
X115257780Y-108227046D01*
X115191026Y-108251221D01*
X115121799Y-108235468D01*
X115077563Y-108194084D01*
X115075832Y-108191418D01*
X115075830Y-108191416D01*
X115001304Y-108131066D01*
X114505322Y-107844711D01*
X113928584Y-107511731D01*
X113863562Y-107486771D01*
X113839050Y-107477362D01*
X113711095Y-107470656D01*
X113587325Y-107503820D01*
X113479866Y-107573603D01*
X113419511Y-107648138D01*
X113237679Y-107963080D01*
X113203309Y-108052615D01*
X113196604Y-108180569D01*
X113229767Y-108304337D01*
X113299554Y-108411800D01*
X113324107Y-108431683D01*
X113364459Y-108490098D01*
X113366823Y-108561055D01*
X113333908Y-108618698D01*
X113094023Y-108858585D01*
X113031711Y-108892610D01*
X113004927Y-108895490D01*
X103527436Y-108895490D01*
X103501578Y-108892808D01*
X103490909Y-108890570D01*
X103459214Y-108894522D01*
X103443628Y-108895490D01*
X103443567Y-108895490D01*
X103422860Y-108898944D01*
X103417718Y-108899693D01*
X103357257Y-108907231D01*
X103357147Y-108907266D01*
X103303593Y-108936248D01*
X103298965Y-108938631D01*
X103244227Y-108965391D01*
X103244137Y-108965458D01*
X103202878Y-109010275D01*
X103199275Y-109014029D01*
X102918724Y-109294580D01*
X102898550Y-109310964D01*
X102889419Y-109316930D01*
X102869792Y-109342146D01*
X102859463Y-109353842D01*
X102859418Y-109353886D01*
X102847212Y-109370981D01*
X102844105Y-109375148D01*
X102806691Y-109423218D01*
X102806638Y-109423322D01*
X102789259Y-109481695D01*
X102787672Y-109486650D01*
X102767885Y-109544289D01*
X102765257Y-109562321D01*
X102765008Y-109563157D01*
X102726393Y-109622734D01*
X102661699Y-109651976D01*
X102627807Y-109652112D01*
X102581668Y-109646038D01*
X102581657Y-109646037D01*
X102577576Y-109645500D01*
X102330500Y-109645500D01*
X102262379Y-109625498D01*
X102215886Y-109571842D01*
X102204500Y-109519500D01*
X102204500Y-109446642D01*
X102215886Y-109394300D01*
X102239042Y-109343596D01*
X102259688Y-109200000D01*
X102239042Y-109056404D01*
X102215884Y-109005694D01*
X102204500Y-108953361D01*
X102204500Y-108846637D01*
X102215886Y-108794300D01*
X102239042Y-108743596D01*
X102253917Y-108640137D01*
X102259688Y-108600003D01*
X102257808Y-108586929D01*
X102248679Y-108523431D01*
X102258783Y-108453158D01*
X102305276Y-108399502D01*
X102373397Y-108379500D01*
X110197574Y-108379500D01*
X110223431Y-108382181D01*
X110234100Y-108384419D01*
X110265796Y-108380468D01*
X110281382Y-108379500D01*
X110281440Y-108379500D01*
X110281443Y-108379500D01*
X110302194Y-108376036D01*
X110307243Y-108375300D01*
X110359783Y-108368752D01*
X110359788Y-108368749D01*
X110367782Y-108367753D01*
X110367842Y-108367734D01*
X110374926Y-108363900D01*
X110374927Y-108363900D01*
X110421411Y-108338742D01*
X110426043Y-108336359D01*
X110480807Y-108309587D01*
X110480854Y-108309552D01*
X110522130Y-108264714D01*
X110525713Y-108260979D01*
X112954889Y-105831803D01*
X115967082Y-105831803D01*
X115970627Y-105832578D01*
X115998086Y-105837243D01*
X116134564Y-105827015D01*
X116261963Y-105777017D01*
X116368963Y-105691684D01*
X116446058Y-105578607D01*
X116455751Y-105552485D01*
X116457536Y-105546883D01*
X116476363Y-105476617D01*
X116089993Y-105373090D01*
X115967082Y-105831803D01*
X112954889Y-105831803D01*
X113545133Y-105241559D01*
X115188184Y-105241559D01*
X115198412Y-105378039D01*
X115248410Y-105505434D01*
X115333743Y-105612437D01*
X115446820Y-105689531D01*
X115472903Y-105699209D01*
X115476393Y-105700320D01*
X115599303Y-105241610D01*
X115212932Y-105138083D01*
X115194106Y-105208344D01*
X115192849Y-105214099D01*
X115188184Y-105241559D01*
X113545133Y-105241559D01*
X115440406Y-103346286D01*
X115502716Y-103312262D01*
X115573531Y-103317327D01*
X115630367Y-103359874D01*
X115655178Y-103426394D01*
X115651206Y-103467994D01*
X115594705Y-103678859D01*
X115594701Y-103678874D01*
X115593944Y-103681702D01*
X115593451Y-103684599D01*
X115593450Y-103684607D01*
X115588778Y-103712102D01*
X115599017Y-103848734D01*
X115649070Y-103976268D01*
X115746282Y-104098167D01*
X115773116Y-104163897D01*
X115760154Y-104233700D01*
X115711512Y-104285415D01*
X115693803Y-104294018D01*
X115558814Y-104346995D01*
X115451814Y-104432327D01*
X115374719Y-104545404D01*
X115365025Y-104571529D01*
X115363242Y-104577124D01*
X115344413Y-104647393D01*
X115730784Y-104750920D01*
X115730786Y-104750921D01*
X116607844Y-104985926D01*
X116626673Y-104915660D01*
X116627926Y-104909924D01*
X116632593Y-104882452D01*
X116622365Y-104745972D01*
X116572366Y-104618575D01*
X116475433Y-104497026D01*
X116448598Y-104431296D01*
X116461559Y-104361493D01*
X116510202Y-104309778D01*
X116527911Y-104301175D01*
X116535770Y-104298090D01*
X116535776Y-104298090D01*
X116663314Y-104248035D01*
X116770432Y-104162611D01*
X116847613Y-104049408D01*
X116858340Y-104020497D01*
X117029030Y-103383472D01*
X117029526Y-103380548D01*
X117029832Y-103379151D01*
X117063836Y-103316930D01*
X117481276Y-102899490D01*
X117501457Y-102883103D01*
X117510582Y-102877142D01*
X117530202Y-102851932D01*
X117540553Y-102840215D01*
X117540553Y-102840214D01*
X117540581Y-102840187D01*
X117552811Y-102823056D01*
X117555871Y-102818953D01*
X117588375Y-102777193D01*
X117588376Y-102777188D01*
X117593327Y-102770828D01*
X117593351Y-102770783D01*
X117595651Y-102763055D01*
X117595653Y-102763053D01*
X117610750Y-102712339D01*
X117612305Y-102707483D01*
X117629500Y-102657401D01*
X117629500Y-102657397D01*
X117632113Y-102649787D01*
X117632125Y-102649705D01*
X117629607Y-102588848D01*
X117629499Y-102583639D01*
X117629499Y-97999999D01*
X117629499Y-93379418D01*
X117649501Y-93311301D01*
X117660272Y-93296913D01*
X117678777Y-93275558D01*
X117739042Y-93143596D01*
X117759688Y-93000000D01*
X117739042Y-92856404D01*
X117678777Y-92724442D01*
X117583775Y-92614804D01*
X117583774Y-92614803D01*
X117583773Y-92614802D01*
X117461733Y-92536371D01*
X117322537Y-92495500D01*
X117322536Y-92495500D01*
X117177464Y-92495500D01*
X117177463Y-92495500D01*
X117038266Y-92536371D01*
X116916226Y-92614802D01*
X116850723Y-92690396D01*
X116790996Y-92728780D01*
X116719999Y-92728779D01*
X116660274Y-92690394D01*
X116630781Y-92625813D01*
X116629499Y-92607896D01*
X116629500Y-91968557D01*
X116629500Y-91968556D01*
X116629500Y-89052421D01*
X116632182Y-89026562D01*
X116634418Y-89015898D01*
X116630468Y-88984209D01*
X116629500Y-88968624D01*
X116629500Y-88968554D01*
X116626044Y-88947851D01*
X116625296Y-88942727D01*
X116618752Y-88890217D01*
X116618751Y-88890215D01*
X116617756Y-88882230D01*
X116617730Y-88882150D01*
X116588734Y-88828568D01*
X116586351Y-88823939D01*
X116559592Y-88769203D01*
X116559545Y-88769140D01*
X116553619Y-88763685D01*
X116553619Y-88763684D01*
X116514713Y-88727868D01*
X116510957Y-88724263D01*
X115504126Y-87717432D01*
X115470100Y-87655120D01*
X115475165Y-87584305D01*
X115504124Y-87539243D01*
X115800804Y-87242564D01*
X115842856Y-87179631D01*
X115862608Y-87080330D01*
X115849409Y-87013977D01*
X115842856Y-86981027D01*
X115800808Y-86918098D01*
X115553224Y-86670516D01*
X115510538Y-86641993D01*
X115475777Y-86607231D01*
X115447253Y-86564542D01*
X115199668Y-86316959D01*
X115156981Y-86288435D01*
X115122219Y-86253673D01*
X115093699Y-86210989D01*
X114846117Y-85963409D01*
X114846115Y-85963407D01*
X114803430Y-85934885D01*
X114768668Y-85900123D01*
X114740146Y-85857436D01*
X114492564Y-85609856D01*
X114449875Y-85581331D01*
X114415114Y-85546569D01*
X114386592Y-85503882D01*
X114139010Y-85256302D01*
X114139008Y-85256300D01*
X114096323Y-85227778D01*
X114061561Y-85193016D01*
X114033039Y-85150329D01*
X113785457Y-84902749D01*
X113785455Y-84902747D01*
X113741685Y-84873500D01*
X113706922Y-84838737D01*
X113679096Y-84797092D01*
X113431586Y-84549583D01*
X113389942Y-84521757D01*
X113355179Y-84486994D01*
X113325932Y-84443222D01*
X113078350Y-84195642D01*
X113078348Y-84195640D01*
X113015418Y-84153590D01*
X112965766Y-84143714D01*
X112916116Y-84133838D01*
X112916115Y-84133838D01*
X112816813Y-84153589D01*
X112753884Y-84195637D01*
X112461540Y-84487981D01*
X112399228Y-84522006D01*
X112328412Y-84516941D01*
X112271577Y-84474394D01*
X112247728Y-84416819D01*
X112239042Y-84356404D01*
X112178777Y-84224442D01*
X112083775Y-84114804D01*
X112083774Y-84114803D01*
X112083773Y-84114802D01*
X111961733Y-84036371D01*
X111822537Y-83995500D01*
X111822536Y-83995500D01*
X111677464Y-83995500D01*
X111677463Y-83995500D01*
X111538266Y-84036371D01*
X111416226Y-84114802D01*
X111321223Y-84224441D01*
X111260957Y-84356406D01*
X111240311Y-84500000D01*
X111260957Y-84643593D01*
X111260957Y-84643594D01*
X111260958Y-84643596D01*
X111321223Y-84775558D01*
X111394996Y-84860697D01*
X111416226Y-84885197D01*
X111507096Y-84943596D01*
X111538268Y-84963629D01*
X111639398Y-84993323D01*
X111680532Y-85005401D01*
X111740258Y-85043784D01*
X111769751Y-85108365D01*
X111759648Y-85178639D01*
X111734129Y-85215392D01*
X111627171Y-85322350D01*
X111564859Y-85356376D01*
X111494044Y-85351311D01*
X111437208Y-85308764D01*
X111433327Y-85303281D01*
X111407905Y-85265234D01*
X110523926Y-84381257D01*
X110460994Y-84339205D01*
X110361693Y-84319453D01*
X110361692Y-84319453D01*
X110262390Y-84339204D01*
X110199461Y-84381252D01*
X109403869Y-85176846D01*
X109361819Y-85239776D01*
X109342067Y-85339078D01*
X109342067Y-85339079D01*
X109361819Y-85438380D01*
X109403869Y-85501312D01*
X110287848Y-86385289D01*
X110350780Y-86427341D01*
X110450081Y-86447093D01*
X110532907Y-86430617D01*
X110549383Y-86427341D01*
X110612312Y-86385293D01*
X110612311Y-86385293D01*
X110612315Y-86385291D01*
X111226372Y-85771231D01*
X111288683Y-85737207D01*
X111359499Y-85742271D01*
X111416335Y-85784818D01*
X111420232Y-85790325D01*
X111445638Y-85828348D01*
X111693223Y-86075931D01*
X111736996Y-86105180D01*
X111771758Y-86139942D01*
X111799584Y-86181587D01*
X111919448Y-86301451D01*
X111953474Y-86363763D01*
X111948409Y-86434578D01*
X111919449Y-86479641D01*
X111565497Y-86833595D01*
X111503185Y-86867620D01*
X111476401Y-86870500D01*
X110802422Y-86870500D01*
X110776564Y-86867818D01*
X110765900Y-86865581D01*
X110738191Y-86869035D01*
X110734209Y-86869532D01*
X110718626Y-86870500D01*
X110718553Y-86870500D01*
X110697825Y-86873958D01*
X110692677Y-86874708D01*
X110632252Y-86882239D01*
X110632132Y-86882278D01*
X110578567Y-86911265D01*
X110573942Y-86913646D01*
X110519222Y-86940398D01*
X110519127Y-86940468D01*
X110505897Y-86954840D01*
X110445043Y-86991409D01*
X110438559Y-86992241D01*
X110288266Y-87036371D01*
X110166226Y-87114802D01*
X110071223Y-87224441D01*
X110010957Y-87356406D01*
X109990311Y-87500000D01*
X110010957Y-87643593D01*
X110071223Y-87775558D01*
X110166226Y-87885197D01*
X110213408Y-87915519D01*
X110288268Y-87963629D01*
X110369602Y-87987510D01*
X110427463Y-88004500D01*
X110427464Y-88004500D01*
X110572535Y-88004500D01*
X110572536Y-88004500D01*
X110594615Y-87998017D01*
X110665611Y-87998017D01*
X110725337Y-88036400D01*
X110754830Y-88100980D01*
X110760957Y-88143593D01*
X110760957Y-88143594D01*
X110760958Y-88143596D01*
X110821223Y-88275558D01*
X110911289Y-88379500D01*
X110916226Y-88385197D01*
X110998717Y-88438211D01*
X111038268Y-88463629D01*
X111119602Y-88487510D01*
X111177463Y-88504500D01*
X111177464Y-88504500D01*
X111322534Y-88504500D01*
X111322536Y-88504500D01*
X111346444Y-88497480D01*
X111417438Y-88497480D01*
X111477165Y-88535863D01*
X111506658Y-88600443D01*
X111506658Y-88636308D01*
X111490311Y-88749999D01*
X111510957Y-88893593D01*
X111510957Y-88893594D01*
X111510958Y-88893596D01*
X111566811Y-89015898D01*
X111571223Y-89025558D01*
X111666226Y-89135197D01*
X111739986Y-89182600D01*
X111788268Y-89213629D01*
X111843305Y-89229789D01*
X111927463Y-89254500D01*
X111927464Y-89254500D01*
X112072537Y-89254500D01*
X112107334Y-89244282D01*
X112211732Y-89213629D01*
X112226380Y-89204215D01*
X112294498Y-89184213D01*
X112362619Y-89204214D01*
X112409113Y-89257869D01*
X112420500Y-89310213D01*
X112420500Y-89883970D01*
X112417818Y-89909827D01*
X112415581Y-89920495D01*
X112419532Y-89952189D01*
X112420500Y-89967776D01*
X112420500Y-89967844D01*
X112423955Y-89988555D01*
X112424705Y-89993700D01*
X112432241Y-90054147D01*
X112432276Y-90054257D01*
X112461255Y-90107806D01*
X112463638Y-90112435D01*
X112490406Y-90167189D01*
X112490461Y-90167262D01*
X112535284Y-90208526D01*
X112539041Y-90212131D01*
X113833594Y-91506684D01*
X113867620Y-91568996D01*
X113870499Y-91595779D01*
X113870499Y-91620578D01*
X113850497Y-91688699D01*
X113839725Y-91703089D01*
X113821223Y-91724441D01*
X113760957Y-91856406D01*
X113740311Y-92000000D01*
X113760957Y-92143593D01*
X113760957Y-92143594D01*
X113760958Y-92143596D01*
X113821223Y-92275558D01*
X113895405Y-92361169D01*
X113916226Y-92385197D01*
X113917398Y-92385950D01*
X114038268Y-92463629D01*
X114108515Y-92484255D01*
X114177463Y-92504500D01*
X114177464Y-92504500D01*
X114322537Y-92504500D01*
X114391485Y-92484255D01*
X114461732Y-92463629D01*
X114583775Y-92385196D01*
X114678777Y-92275558D01*
X114739042Y-92143596D01*
X114749461Y-92071128D01*
X114778953Y-92006550D01*
X114838680Y-91968166D01*
X114909676Y-91968166D01*
X114963273Y-91999967D01*
X115083594Y-92120288D01*
X115117620Y-92182600D01*
X115120499Y-92209383D01*
X115120499Y-95107883D01*
X115100497Y-95176004D01*
X115046841Y-95222497D01*
X114976567Y-95232601D01*
X114911987Y-95203107D01*
X114899281Y-95190402D01*
X114833775Y-95114804D01*
X114823006Y-95107883D01*
X114711733Y-95036371D01*
X114572537Y-94995500D01*
X114572536Y-94995500D01*
X114427464Y-94995500D01*
X114427463Y-94995500D01*
X114288266Y-95036371D01*
X114166226Y-95114802D01*
X114071223Y-95224441D01*
X114010957Y-95356406D01*
X113990311Y-95500000D01*
X114010957Y-95643593D01*
X114010957Y-95643594D01*
X114010958Y-95643596D01*
X114036859Y-95700311D01*
X114071223Y-95775558D01*
X114089723Y-95796908D01*
X114119217Y-95861488D01*
X114120500Y-95879422D01*
X114120500Y-96339786D01*
X114100498Y-96407907D01*
X114046842Y-96454400D01*
X113976568Y-96464504D01*
X113926380Y-96445784D01*
X113911733Y-96436371D01*
X113772537Y-96395500D01*
X113772536Y-96395500D01*
X113627464Y-96395500D01*
X113627463Y-96395500D01*
X113488266Y-96436371D01*
X113366226Y-96514802D01*
X113271223Y-96624441D01*
X113210957Y-96756406D01*
X113190311Y-96899999D01*
X113210957Y-97043593D01*
X113210957Y-97043594D01*
X113210958Y-97043596D01*
X113271223Y-97175557D01*
X113271223Y-97175558D01*
X113289723Y-97196908D01*
X113319217Y-97261488D01*
X113320500Y-97279422D01*
X113320500Y-97550180D01*
X113300498Y-97618301D01*
X113246842Y-97664794D01*
X113176568Y-97674898D01*
X113111988Y-97645404D01*
X113099277Y-97632694D01*
X113083774Y-97614803D01*
X112961733Y-97536371D01*
X112822537Y-97495500D01*
X112822536Y-97495500D01*
X112677464Y-97495500D01*
X112677463Y-97495500D01*
X112538266Y-97536371D01*
X112416226Y-97614802D01*
X112321223Y-97724441D01*
X112260957Y-97856406D01*
X112240311Y-97999999D01*
X112260957Y-98143593D01*
X112321223Y-98275558D01*
X112339723Y-98296908D01*
X112369217Y-98361488D01*
X112370500Y-98379422D01*
X112370500Y-102290616D01*
X112350498Y-102358737D01*
X112333595Y-102379711D01*
X109129711Y-105583595D01*
X109067399Y-105617621D01*
X109040616Y-105620500D01*
X98802426Y-105620500D01*
X98776568Y-105617818D01*
X98765899Y-105615580D01*
X98734204Y-105619532D01*
X98718618Y-105620500D01*
X98718557Y-105620500D01*
X98697850Y-105623954D01*
X98692708Y-105624703D01*
X98632247Y-105632241D01*
X98632137Y-105632276D01*
X98578583Y-105661258D01*
X98573955Y-105663641D01*
X98519217Y-105690401D01*
X98519127Y-105690468D01*
X98477868Y-105735285D01*
X98474265Y-105739039D01*
X96618724Y-107594580D01*
X96598550Y-107610964D01*
X96589419Y-107616930D01*
X96569792Y-107642146D01*
X96559463Y-107653842D01*
X96559418Y-107653886D01*
X96547212Y-107670981D01*
X96544105Y-107675148D01*
X96506691Y-107723218D01*
X96506638Y-107723322D01*
X96489259Y-107781695D01*
X96487672Y-107786650D01*
X96467888Y-107844281D01*
X96467875Y-107844370D01*
X96470392Y-107905213D01*
X96470500Y-107910420D01*
X96470500Y-109527732D01*
X96450498Y-109595853D01*
X96396842Y-109642346D01*
X96328012Y-109652648D01*
X96325000Y-109652250D01*
X96325000Y-112160242D01*
X82769287Y-112160242D01*
X82750636Y-112133041D01*
X82368060Y-111575093D01*
X82365216Y-111570757D01*
X82054473Y-111075000D01*
X95721000Y-111075000D01*
X95721000Y-111848392D01*
X95721538Y-111856602D01*
X95727547Y-111902249D01*
X95778444Y-112011399D01*
X95863600Y-112096555D01*
X95972747Y-112147451D01*
X95975000Y-112147747D01*
X95975000Y-111075000D01*
X95721000Y-111075000D01*
X82054473Y-111075000D01*
X81906970Y-110839675D01*
X81904307Y-110835226D01*
X81841380Y-110725000D01*
X95721000Y-110725000D01*
X95975000Y-110725000D01*
X95975000Y-109652250D01*
X95972750Y-109652547D01*
X95863600Y-109703444D01*
X95778444Y-109788600D01*
X95727547Y-109897750D01*
X95721538Y-109943397D01*
X95721000Y-109951607D01*
X95721000Y-110725000D01*
X81841380Y-110725000D01*
X81476524Y-110085901D01*
X81474046Y-110081346D01*
X81462640Y-110059308D01*
X81096491Y-109351829D01*
X81077452Y-109315041D01*
X81075164Y-109310388D01*
X80710429Y-108528403D01*
X80708335Y-108523659D01*
X80522334Y-108077858D01*
X80376096Y-107727361D01*
X80374213Y-107722574D01*
X80074990Y-106913197D01*
X80073320Y-106908375D01*
X79807666Y-106087414D01*
X79806171Y-106082448D01*
X79574529Y-105251281D01*
X79573241Y-105246259D01*
X79375990Y-104406254D01*
X79374913Y-104401210D01*
X79212384Y-103553751D01*
X79211523Y-103548698D01*
X79090691Y-102740069D01*
X79090661Y-102735712D01*
X79090587Y-102735722D01*
X79085027Y-102692544D01*
X79084641Y-102689046D01*
X79035823Y-102246139D01*
X79000940Y-101929657D01*
X79000520Y-101925080D01*
X78975728Y-101587335D01*
X78944500Y-101161921D01*
X78944249Y-101157354D01*
X78931498Y-100810699D01*
X78916121Y-100392650D01*
X78916037Y-100388073D01*
X78915937Y-100003094D01*
X78915936Y-100000000D01*
X92540515Y-100000000D01*
X92560420Y-100240223D01*
X92560420Y-100240226D01*
X92560421Y-100240227D01*
X92619592Y-100473889D01*
X92716420Y-100694637D01*
X92716421Y-100694638D01*
X92848261Y-100896434D01*
X92848264Y-100896437D01*
X93011517Y-101073778D01*
X93201733Y-101221830D01*
X93201737Y-101221832D01*
X93413732Y-101336557D01*
X93641718Y-101414825D01*
X93879477Y-101454500D01*
X93879480Y-101454500D01*
X94120520Y-101454500D01*
X94120523Y-101454500D01*
X94358282Y-101414825D01*
X94586268Y-101336557D01*
X94798263Y-101221832D01*
X94814515Y-101209183D01*
X94988482Y-101073778D01*
X95151739Y-100896434D01*
X95283579Y-100694638D01*
X95380406Y-100473894D01*
X95439580Y-100240223D01*
X95459485Y-100000000D01*
X95844495Y-100000000D01*
X95864505Y-100407311D01*
X95864956Y-100410352D01*
X95864958Y-100410371D01*
X95923887Y-100807632D01*
X95924342Y-100810699D01*
X95925094Y-100813701D01*
X96022679Y-101203284D01*
X96022683Y-101203298D01*
X96023430Y-101206279D01*
X96024468Y-101209181D01*
X96024469Y-101209183D01*
X96159773Y-101587335D01*
X96159776Y-101587343D01*
X96160814Y-101590243D01*
X96162133Y-101593033D01*
X96162134Y-101593034D01*
X96321356Y-101929681D01*
X96335172Y-101958891D01*
X96336751Y-101961525D01*
X96336754Y-101961531D01*
X96465720Y-102176698D01*
X96544824Y-102308675D01*
X96787751Y-102636224D01*
X97061614Y-102938386D01*
X97363776Y-103212249D01*
X97691325Y-103455176D01*
X98041109Y-103664828D01*
X98409757Y-103839186D01*
X98793721Y-103976570D01*
X99189301Y-104075658D01*
X99592689Y-104135495D01*
X100000000Y-104155505D01*
X100407311Y-104135495D01*
X100810699Y-104075658D01*
X101206279Y-103976570D01*
X101590243Y-103839186D01*
X101958891Y-103664828D01*
X102308675Y-103455176D01*
X102636224Y-103212249D01*
X102938386Y-102938386D01*
X103212249Y-102636224D01*
X103455176Y-102308675D01*
X103664828Y-101958891D01*
X103839186Y-101590243D01*
X103976570Y-101206279D01*
X104075658Y-100810699D01*
X104135495Y-100407311D01*
X104155505Y-100000000D01*
X104135495Y-99592689D01*
X104075658Y-99189301D01*
X103976570Y-98793721D01*
X103839186Y-98409757D01*
X103664828Y-98041109D01*
X103455176Y-97691325D01*
X103212249Y-97363776D01*
X102938386Y-97061614D01*
X102636224Y-96787751D01*
X102308675Y-96544824D01*
X102244490Y-96506353D01*
X101961531Y-96336754D01*
X101961525Y-96336751D01*
X101958891Y-96335172D01*
X101785354Y-96253095D01*
X101593034Y-96162134D01*
X101593033Y-96162133D01*
X101590243Y-96160814D01*
X101587343Y-96159776D01*
X101587335Y-96159773D01*
X101209183Y-96024469D01*
X101209181Y-96024468D01*
X101206279Y-96023430D01*
X101203298Y-96022683D01*
X101203284Y-96022679D01*
X100813701Y-95925094D01*
X100810699Y-95924342D01*
X100807632Y-95923887D01*
X100410371Y-95864958D01*
X100410352Y-95864956D01*
X100407311Y-95864505D01*
X100404225Y-95864353D01*
X100404221Y-95864353D01*
X100003094Y-95844647D01*
X100000000Y-95844495D01*
X99996906Y-95844647D01*
X99595778Y-95864353D01*
X99595772Y-95864353D01*
X99592689Y-95864505D01*
X99589649Y-95864955D01*
X99589628Y-95864958D01*
X99192367Y-95923887D01*
X99192363Y-95923887D01*
X99189301Y-95924342D01*
X99186302Y-95925093D01*
X99186298Y-95925094D01*
X98796715Y-96022679D01*
X98796695Y-96022684D01*
X98793721Y-96023430D01*
X98790823Y-96024466D01*
X98790816Y-96024469D01*
X98412664Y-96159773D01*
X98412648Y-96159779D01*
X98409757Y-96160814D01*
X98406973Y-96162130D01*
X98406965Y-96162134D01*
X98043890Y-96333856D01*
X98043878Y-96333861D01*
X98041109Y-96335172D01*
X98038482Y-96336746D01*
X98038468Y-96336754D01*
X97693975Y-96543235D01*
X97693965Y-96543241D01*
X97691325Y-96544824D01*
X97688849Y-96546660D01*
X97688839Y-96546667D01*
X97404977Y-96757194D01*
X97363776Y-96787751D01*
X97361489Y-96789823D01*
X97361479Y-96789832D01*
X97063898Y-97059543D01*
X97063888Y-97059552D01*
X97061614Y-97061614D01*
X97059552Y-97063888D01*
X97059543Y-97063898D01*
X96789832Y-97361479D01*
X96789823Y-97361489D01*
X96787751Y-97363776D01*
X96785907Y-97366262D01*
X96785904Y-97366266D01*
X96546667Y-97688839D01*
X96546660Y-97688849D01*
X96544824Y-97691325D01*
X96543241Y-97693965D01*
X96543235Y-97693975D01*
X96336754Y-98038468D01*
X96336746Y-98038482D01*
X96335172Y-98041109D01*
X96333861Y-98043878D01*
X96333856Y-98043890D01*
X96162134Y-98406965D01*
X96162130Y-98406973D01*
X96160814Y-98409757D01*
X96159779Y-98412648D01*
X96159773Y-98412664D01*
X96024469Y-98790816D01*
X96023430Y-98793721D01*
X96022684Y-98796695D01*
X96022679Y-98796715D01*
X95925094Y-99186298D01*
X95924342Y-99189301D01*
X95923887Y-99192363D01*
X95923887Y-99192367D01*
X95864958Y-99589628D01*
X95864955Y-99589649D01*
X95864505Y-99592689D01*
X95864353Y-99595772D01*
X95864353Y-99595778D01*
X95863022Y-99622875D01*
X95844495Y-100000000D01*
X95459485Y-100000000D01*
X95439580Y-99759777D01*
X95380406Y-99526106D01*
X95283579Y-99305362D01*
X95151739Y-99103566D01*
X95109846Y-99058058D01*
X94988482Y-98926221D01*
X94798266Y-98778169D01*
X94586267Y-98663442D01*
X94358284Y-98585175D01*
X94263178Y-98569305D01*
X94120523Y-98545500D01*
X93879477Y-98545500D01*
X93760597Y-98565337D01*
X93641715Y-98585175D01*
X93413732Y-98663442D01*
X93201733Y-98778169D01*
X93011517Y-98926221D01*
X92848264Y-99103562D01*
X92716420Y-99305362D01*
X92619592Y-99526110D01*
X92595088Y-99622876D01*
X92560420Y-99759777D01*
X92540515Y-100000000D01*
X78915936Y-100000000D01*
X78915838Y-99622842D01*
X78915920Y-99618310D01*
X78943650Y-98853602D01*
X78943900Y-98849014D01*
X78949063Y-98778169D01*
X78999526Y-98085774D01*
X78999940Y-98081251D01*
X79083358Y-97320807D01*
X79083996Y-97315902D01*
X79185353Y-96641192D01*
X79498216Y-96641192D01*
X79514530Y-96866417D01*
X79556320Y-97028843D01*
X79570797Y-97085110D01*
X79665209Y-97290239D01*
X79761253Y-97427404D01*
X79794733Y-97475219D01*
X79935715Y-97614802D01*
X79955199Y-97634093D01*
X80087009Y-97724441D01*
X80141458Y-97761763D01*
X80347515Y-97854122D01*
X80347516Y-97854122D01*
X80347520Y-97854124D01*
X80476298Y-97887428D01*
X81588018Y-98083453D01*
X81720421Y-98096204D01*
X81945646Y-98079890D01*
X82164337Y-98023623D01*
X82369467Y-97929211D01*
X82554444Y-97799689D01*
X82713320Y-97639221D01*
X82776042Y-97547715D01*
X82831052Y-97502838D01*
X82844472Y-97498059D01*
X82961732Y-97463629D01*
X83083775Y-97385196D01*
X83178777Y-97275558D01*
X83239042Y-97143596D01*
X83259688Y-97000000D01*
X83239042Y-96856404D01*
X83178777Y-96724442D01*
X83083775Y-96614804D01*
X83083774Y-96614803D01*
X83001792Y-96562116D01*
X82955300Y-96508460D01*
X82947888Y-96487515D01*
X82929203Y-96414890D01*
X82834791Y-96209761D01*
X82705269Y-96024784D01*
X82705268Y-96024783D01*
X82705266Y-96024780D01*
X82544802Y-95865908D01*
X82542755Y-95864505D01*
X82358542Y-95738237D01*
X82358543Y-95738237D01*
X82358541Y-95738236D01*
X82152484Y-95645877D01*
X82026078Y-95613186D01*
X82026066Y-95613183D01*
X82023702Y-95612572D01*
X82021294Y-95612147D01*
X82021283Y-95612145D01*
X80914408Y-95416974D01*
X80914389Y-95416971D01*
X80911982Y-95416547D01*
X80892255Y-95414647D01*
X80779578Y-95403795D01*
X80554354Y-95420110D01*
X80335662Y-95476377D01*
X80130530Y-95570790D01*
X79945558Y-95700308D01*
X79786680Y-95860778D01*
X79659007Y-96047041D01*
X79566649Y-96253095D01*
X79533960Y-96379492D01*
X79533954Y-96379517D01*
X79533344Y-96381878D01*
X79532917Y-96384294D01*
X79532915Y-96384308D01*
X79511396Y-96506353D01*
X79511393Y-96506370D01*
X79510967Y-96508790D01*
X79510730Y-96511250D01*
X79510730Y-96511251D01*
X79498216Y-96641192D01*
X79185353Y-96641192D01*
X79217074Y-96430032D01*
X79217987Y-96424733D01*
X79315025Y-95925094D01*
X79388738Y-95545554D01*
X79389875Y-95540305D01*
X79399506Y-95500000D01*
X79598017Y-94669221D01*
X79599366Y-94664061D01*
X79844534Y-93802606D01*
X79846102Y-93797515D01*
X80006562Y-93313288D01*
X80370681Y-93313288D01*
X80388117Y-93538428D01*
X80445474Y-93756836D01*
X80540907Y-93961493D01*
X80669772Y-94143593D01*
X80671349Y-94145821D01*
X80832610Y-94303896D01*
X81019500Y-94430636D01*
X81105949Y-94470032D01*
X81140540Y-94485796D01*
X82201331Y-94871891D01*
X82329508Y-94907439D01*
X82554144Y-94930483D01*
X82779284Y-94913047D01*
X82997692Y-94855690D01*
X83202350Y-94760257D01*
X83386678Y-94629815D01*
X83472465Y-94542298D01*
X83534436Y-94507653D01*
X83562446Y-94504500D01*
X83572537Y-94504500D01*
X83633352Y-94486643D01*
X83711732Y-94463629D01*
X83833775Y-94385196D01*
X83928777Y-94275558D01*
X83989042Y-94143596D01*
X84009688Y-94000000D01*
X83989042Y-93856404D01*
X83928777Y-93724442D01*
X83849956Y-93633478D01*
X83820464Y-93568899D01*
X83819561Y-93560724D01*
X83811883Y-93461572D01*
X83754526Y-93243164D01*
X83659093Y-93038507D01*
X83528651Y-92854179D01*
X83458884Y-92785790D01*
X103074395Y-92785790D01*
X103089542Y-92920251D01*
X103089542Y-92920253D01*
X103089543Y-92920254D01*
X103134231Y-93047979D01*
X103159787Y-93088654D01*
X103206219Y-93162557D01*
X103254058Y-93210401D01*
X103290818Y-93247162D01*
X103290824Y-93247166D01*
X106815303Y-96771646D01*
X106815309Y-96771649D01*
X106837440Y-96793780D01*
X106952018Y-96865775D01*
X107079745Y-96910468D01*
X107214214Y-96925619D01*
X107348683Y-96910468D01*
X107476409Y-96865775D01*
X107590988Y-96793781D01*
X107590990Y-96793778D01*
X107590996Y-96793775D01*
X107638831Y-96745938D01*
X107638831Y-96745939D01*
X107657872Y-96726897D01*
X107657872Y-96726896D01*
X107675593Y-96709175D01*
X112551646Y-91833121D01*
X112551762Y-91833058D01*
X112588603Y-91796217D01*
X112588604Y-91796218D01*
X112636450Y-91748374D01*
X112708449Y-91633788D01*
X112753143Y-91506054D01*
X112768291Y-91371576D01*
X112753133Y-91237100D01*
X112708429Y-91109369D01*
X112708428Y-91109366D01*
X112636422Y-90994791D01*
X112593887Y-90952264D01*
X109067088Y-87425465D01*
X109053042Y-87411418D01*
X109005203Y-87363578D01*
X108890625Y-87291584D01*
X108805472Y-87261788D01*
X108762897Y-87246891D01*
X108628428Y-87231740D01*
X108628427Y-87231740D01*
X108493955Y-87246891D01*
X108366232Y-87291583D01*
X108251651Y-87363579D01*
X108215066Y-87400166D01*
X103255380Y-92359849D01*
X103254063Y-92361166D01*
X103229377Y-92385854D01*
X103229306Y-92385950D01*
X103206233Y-92409023D01*
X103134241Y-92523600D01*
X103089548Y-92651322D01*
X103074395Y-92785790D01*
X83458884Y-92785790D01*
X83367391Y-92696105D01*
X83367389Y-92696103D01*
X83180499Y-92569363D01*
X83061714Y-92515231D01*
X83061709Y-92515229D01*
X83059460Y-92514204D01*
X82920503Y-92463628D01*
X82001012Y-92128961D01*
X82000994Y-92128955D01*
X81998669Y-92128109D01*
X81996275Y-92127445D01*
X81870489Y-92092560D01*
X81645858Y-92069517D01*
X81645856Y-92069517D01*
X81420716Y-92086953D01*
X81202308Y-92144310D01*
X80997650Y-92239743D01*
X80813321Y-92370185D01*
X80655249Y-92531443D01*
X80528505Y-92718341D01*
X80474371Y-92837127D01*
X80474358Y-92837156D01*
X80473347Y-92839377D01*
X80472506Y-92841686D01*
X80472505Y-92841690D01*
X80430116Y-92958156D01*
X80430111Y-92958170D01*
X80429273Y-92960474D01*
X80428620Y-92962825D01*
X80428613Y-92962850D01*
X80393723Y-93088654D01*
X80374551Y-93275558D01*
X80370681Y-93313288D01*
X80006562Y-93313288D01*
X80127836Y-92947315D01*
X80129609Y-92942326D01*
X80447393Y-92104942D01*
X80449368Y-92100051D01*
X80802643Y-91276956D01*
X80804845Y-91272114D01*
X81192923Y-90464912D01*
X81195329Y-90460167D01*
X81312699Y-90240578D01*
X81807451Y-90240578D01*
X81826010Y-90465628D01*
X81884455Y-90683748D01*
X81928430Y-90776837D01*
X81980908Y-90887927D01*
X82112268Y-91071602D01*
X82274314Y-91228871D01*
X82383935Y-91304211D01*
X83361565Y-91868645D01*
X83481622Y-91925911D01*
X83698844Y-91987612D01*
X83923591Y-92009536D01*
X84148641Y-91990977D01*
X84366761Y-91932531D01*
X84570940Y-91836080D01*
X84652130Y-91778013D01*
X84719175Y-91754655D01*
X84725428Y-91754500D01*
X84872537Y-91754500D01*
X84913408Y-91742499D01*
X85011732Y-91713629D01*
X85133775Y-91635196D01*
X85228777Y-91525558D01*
X85289042Y-91393596D01*
X85309688Y-91250000D01*
X85289042Y-91106404D01*
X85228777Y-90974442D01*
X85212794Y-90955997D01*
X85183302Y-90891417D01*
X85182615Y-90861253D01*
X85192549Y-90759421D01*
X85173989Y-90534372D01*
X85115544Y-90316251D01*
X85019092Y-90112073D01*
X84887732Y-89928398D01*
X84725686Y-89771129D01*
X84709861Y-89760253D01*
X84618112Y-89697196D01*
X84616065Y-89695789D01*
X84613918Y-89694549D01*
X84613911Y-89694545D01*
X83640578Y-89132592D01*
X83640572Y-89132589D01*
X83638435Y-89131355D01*
X83636210Y-89130293D01*
X83636203Y-89130290D01*
X83518376Y-89074088D01*
X83301158Y-89012388D01*
X83151324Y-88997771D01*
X83076409Y-88990464D01*
X83076408Y-88990464D01*
X82851360Y-89009022D01*
X82633235Y-89067470D01*
X82429061Y-89163919D01*
X82245384Y-89295281D01*
X82088117Y-89457324D01*
X82053721Y-89507372D01*
X82012776Y-89566948D01*
X82011546Y-89569077D01*
X82011533Y-89569099D01*
X81949585Y-89676398D01*
X81949578Y-89676409D01*
X81948342Y-89678552D01*
X81947274Y-89680789D01*
X81947275Y-89680789D01*
X81891075Y-89798611D01*
X81829375Y-90015828D01*
X81807451Y-90240578D01*
X81312699Y-90240578D01*
X81617537Y-89670253D01*
X81620140Y-89665624D01*
X82075681Y-88894489D01*
X82078496Y-88889948D01*
X82566573Y-88138941D01*
X82569552Y-88134565D01*
X83074737Y-87425465D01*
X83857411Y-87425465D01*
X83877092Y-87650421D01*
X83936623Y-87868246D01*
X84034093Y-88071941D01*
X84166367Y-88254960D01*
X84261241Y-88348191D01*
X84368523Y-88438211D01*
X85118445Y-89067470D01*
X85126005Y-89073813D01*
X85128019Y-89075249D01*
X85128026Y-89075255D01*
X85191159Y-89120288D01*
X85234295Y-89151057D01*
X85437502Y-89249541D01*
X85655028Y-89310159D01*
X85879881Y-89330961D01*
X86104837Y-89311280D01*
X86322662Y-89251748D01*
X86353422Y-89237028D01*
X86423501Y-89225666D01*
X86443297Y-89229786D01*
X86527464Y-89254500D01*
X86527465Y-89254500D01*
X86672537Y-89254500D01*
X86713408Y-89242499D01*
X86811732Y-89213629D01*
X86933775Y-89135196D01*
X87028777Y-89025558D01*
X87089042Y-88893596D01*
X87109688Y-88750000D01*
X87089042Y-88606404D01*
X87075354Y-88576432D01*
X87065252Y-88506161D01*
X87068594Y-88490269D01*
X87083101Y-88438211D01*
X87121787Y-88299388D01*
X87142589Y-88074535D01*
X87122908Y-87849579D01*
X87063377Y-87631754D01*
X86965907Y-87428059D01*
X86833633Y-87245040D01*
X86738759Y-87151809D01*
X86633370Y-87063377D01*
X85875888Y-86427775D01*
X85875881Y-86427770D01*
X85873995Y-86426187D01*
X85871984Y-86424752D01*
X85871973Y-86424744D01*
X85765708Y-86348945D01*
X85765707Y-86348944D01*
X85765705Y-86348943D01*
X85562498Y-86250459D01*
X85532655Y-86242142D01*
X85344971Y-86189840D01*
X85120122Y-86169039D01*
X85120120Y-86169039D01*
X85120119Y-86169039D01*
X84895162Y-86188719D01*
X84895163Y-86188720D01*
X84677337Y-86248252D01*
X84579866Y-86294892D01*
X84473643Y-86345722D01*
X84469184Y-86348945D01*
X84290623Y-86477996D01*
X84199129Y-86571102D01*
X84197393Y-86572869D01*
X84195814Y-86574750D01*
X84195802Y-86574764D01*
X84116153Y-86669687D01*
X84116141Y-86669701D01*
X84114558Y-86671589D01*
X84113129Y-86673591D01*
X84113113Y-86673613D01*
X84037314Y-86779880D01*
X83938831Y-86983084D01*
X83878212Y-87200612D01*
X83858710Y-87411421D01*
X83857411Y-87425465D01*
X83074737Y-87425465D01*
X83089234Y-87405117D01*
X83092443Y-87400812D01*
X83642795Y-86694233D01*
X83646157Y-86690102D01*
X84226196Y-86007656D01*
X84229715Y-86003691D01*
X84838386Y-85346620D01*
X84842079Y-85342800D01*
X85066771Y-85120122D01*
X86169039Y-85120122D01*
X86189840Y-85344971D01*
X86250459Y-85562499D01*
X86348941Y-85765702D01*
X86414373Y-85857436D01*
X86426185Y-85873995D01*
X86427767Y-85875881D01*
X86427773Y-85875888D01*
X87059261Y-86628464D01*
X87151809Y-86738758D01*
X87153524Y-86740503D01*
X87153532Y-86740512D01*
X87156560Y-86743593D01*
X87245040Y-86833633D01*
X87428059Y-86965907D01*
X87631754Y-87063377D01*
X87849579Y-87122908D01*
X88074535Y-87142589D01*
X88299388Y-87121787D01*
X88463189Y-87076140D01*
X88532510Y-87076619D01*
X88627463Y-87104500D01*
X88627464Y-87104500D01*
X88772537Y-87104500D01*
X88813408Y-87092499D01*
X88911732Y-87063629D01*
X89033775Y-86985196D01*
X89128777Y-86875558D01*
X89189042Y-86743596D01*
X89209688Y-86600000D01*
X89194184Y-86492165D01*
X89204287Y-86421891D01*
X89205244Y-86419845D01*
X89251748Y-86322662D01*
X89311280Y-86104837D01*
X89330961Y-85879881D01*
X89310159Y-85655028D01*
X89249541Y-85437502D01*
X89151057Y-85234295D01*
X89073815Y-85126005D01*
X88348191Y-84261242D01*
X88346474Y-84259494D01*
X88346467Y-84259487D01*
X88254960Y-84166367D01*
X88237280Y-84153589D01*
X88071941Y-84034093D01*
X87868246Y-83936623D01*
X87650421Y-83877092D01*
X87425465Y-83857411D01*
X87425462Y-83857411D01*
X87425460Y-83857411D01*
X87200612Y-83878212D01*
X86983084Y-83938831D01*
X86779881Y-84037313D01*
X86673600Y-84113122D01*
X86673590Y-84113129D01*
X86671589Y-84114557D01*
X86669702Y-84116139D01*
X86669696Y-84116145D01*
X86574753Y-84195812D01*
X86574739Y-84195824D01*
X86572870Y-84197393D01*
X86571128Y-84199105D01*
X86477994Y-84290626D01*
X86430453Y-84356406D01*
X86345722Y-84473643D01*
X86299045Y-84571189D01*
X86248252Y-84677337D01*
X86221408Y-84775558D01*
X86188720Y-84895163D01*
X86169440Y-85115544D01*
X86169039Y-85120122D01*
X85066771Y-85120122D01*
X85478258Y-84712322D01*
X85482118Y-84708657D01*
X86144625Y-84105938D01*
X86148648Y-84102433D01*
X86836305Y-83528544D01*
X86840434Y-83525246D01*
X87427508Y-83076408D01*
X88990464Y-83076408D01*
X89012388Y-83301158D01*
X89074089Y-83518379D01*
X89093509Y-83559093D01*
X89131354Y-83638435D01*
X89695789Y-84616064D01*
X89771129Y-84725686D01*
X89928398Y-84887732D01*
X90112073Y-85019092D01*
X90301054Y-85108365D01*
X90316251Y-85115544D01*
X90534371Y-85173989D01*
X90552930Y-85175519D01*
X90759421Y-85192549D01*
X90818536Y-85186782D01*
X90888277Y-85200076D01*
X90898885Y-85206185D01*
X90976864Y-85256300D01*
X90988268Y-85263629D01*
X91127463Y-85304500D01*
X91127464Y-85304500D01*
X91272537Y-85304500D01*
X91313408Y-85292499D01*
X91411732Y-85263629D01*
X91533775Y-85185196D01*
X91628777Y-85075558D01*
X91689042Y-84943596D01*
X91703801Y-84840945D01*
X91712267Y-84782068D01*
X91714098Y-84782331D01*
X91720722Y-84736239D01*
X91732847Y-84715284D01*
X91836080Y-84570940D01*
X91932531Y-84366761D01*
X91990977Y-84148641D01*
X92009536Y-83923591D01*
X91987612Y-83698844D01*
X91925911Y-83481622D01*
X91868646Y-83361565D01*
X91304211Y-82383936D01*
X91228871Y-82274314D01*
X91071602Y-82112268D01*
X90887927Y-81980908D01*
X90867285Y-81971157D01*
X90683748Y-81884455D01*
X90465628Y-81826010D01*
X90257724Y-81808864D01*
X90240579Y-81807451D01*
X90240578Y-81807451D01*
X90015828Y-81829375D01*
X89798611Y-81891075D01*
X89680782Y-81947276D01*
X89680754Y-81947290D01*
X89678552Y-81948341D01*
X89676439Y-81949560D01*
X89676418Y-81949572D01*
X89569078Y-82011546D01*
X89569063Y-82011555D01*
X89566949Y-82012776D01*
X89564929Y-82014163D01*
X89564904Y-82014180D01*
X89457328Y-82088113D01*
X89295281Y-82245384D01*
X89163919Y-82429061D01*
X89067470Y-82633235D01*
X89009022Y-82851360D01*
X88990464Y-83076408D01*
X87427508Y-83076408D01*
X87551978Y-82981246D01*
X87556260Y-82978115D01*
X88290367Y-82465011D01*
X88294782Y-82462062D01*
X89050150Y-81980767D01*
X89054725Y-81977988D01*
X89829915Y-81529416D01*
X89834566Y-81526855D01*
X90628231Y-81111783D01*
X90633015Y-81109410D01*
X91443710Y-80728599D01*
X91448562Y-80726446D01*
X92274717Y-80380630D01*
X92279702Y-80378667D01*
X92432697Y-80322176D01*
X92503528Y-80317345D01*
X92565727Y-80351576D01*
X92599547Y-80413999D01*
X92594249Y-80484798D01*
X92551515Y-80541493D01*
X92547060Y-80544658D01*
X92531446Y-80555246D01*
X92370185Y-80713321D01*
X92305211Y-80805137D01*
X92239743Y-80897650D01*
X92144310Y-81102308D01*
X92086953Y-81320716D01*
X92070377Y-81534758D01*
X92069517Y-81545858D01*
X92092560Y-81770489D01*
X92127443Y-81896277D01*
X92127447Y-81896292D01*
X92128107Y-81898669D01*
X92205851Y-82112268D01*
X92509680Y-82947030D01*
X92514204Y-82959458D01*
X92515227Y-82961703D01*
X92515232Y-82961715D01*
X92569361Y-83080493D01*
X92569363Y-83080496D01*
X92569364Y-83080498D01*
X92696105Y-83267391D01*
X92854179Y-83428651D01*
X93038507Y-83559093D01*
X93243164Y-83654526D01*
X93461572Y-83711883D01*
X93561249Y-83719602D01*
X93627620Y-83744803D01*
X93646740Y-83762709D01*
X93666225Y-83785196D01*
X93666226Y-83785197D01*
X93788266Y-83863628D01*
X93788268Y-83863629D01*
X93869602Y-83887510D01*
X93927463Y-83904500D01*
X93927464Y-83904500D01*
X94072537Y-83904500D01*
X94113408Y-83892499D01*
X94211732Y-83863629D01*
X94333775Y-83785196D01*
X94428777Y-83675558D01*
X94489042Y-83543596D01*
X94494741Y-83503956D01*
X94502879Y-83447360D01*
X94532372Y-83382779D01*
X94539395Y-83375311D01*
X94629814Y-83286679D01*
X94643463Y-83267392D01*
X94760257Y-83102350D01*
X94855690Y-82897692D01*
X94913047Y-82679284D01*
X94930483Y-82454144D01*
X94907439Y-82229508D01*
X94871893Y-82101331D01*
X94714135Y-81667896D01*
X95409157Y-81667896D01*
X95462631Y-81971157D01*
X95463678Y-81975978D01*
X95496351Y-82102319D01*
X95588673Y-82308292D01*
X95716296Y-82494481D01*
X95875108Y-82654886D01*
X96060009Y-82784355D01*
X96265059Y-82878729D01*
X96483664Y-82934974D01*
X96650128Y-82947030D01*
X96393964Y-81494247D01*
X95409157Y-81667896D01*
X94714135Y-81667896D01*
X94618825Y-81406034D01*
X96894247Y-81406034D01*
X97150411Y-82858817D01*
X97302714Y-82790553D01*
X97488901Y-82662931D01*
X97649306Y-82504119D01*
X97778775Y-82319218D01*
X97873150Y-82114167D01*
X97929393Y-81895565D01*
X97945702Y-81670428D01*
X97933194Y-81540532D01*
X97932530Y-81535655D01*
X97879054Y-81232385D01*
X96894247Y-81406034D01*
X94618825Y-81406034D01*
X94485796Y-81040542D01*
X94430636Y-80919502D01*
X94303895Y-80732609D01*
X94145821Y-80571349D01*
X93961493Y-80440907D01*
X93756836Y-80345474D01*
X93538428Y-80288117D01*
X93313288Y-80270681D01*
X93300968Y-80271944D01*
X93231164Y-80258997D01*
X93179440Y-80210365D01*
X93162219Y-80141488D01*
X93184969Y-80074235D01*
X93240468Y-80029958D01*
X93249545Y-80026651D01*
X93977652Y-79792626D01*
X93982708Y-79791120D01*
X94846304Y-79553724D01*
X94851497Y-79552415D01*
X95724481Y-79352107D01*
X95729684Y-79351030D01*
X95962445Y-79307995D01*
X96033064Y-79315279D01*
X96088537Y-79359587D01*
X96111249Y-79426853D01*
X96093989Y-79495719D01*
X96042237Y-79544322D01*
X96036887Y-79546873D01*
X95897286Y-79609446D01*
X95711098Y-79737068D01*
X95550693Y-79895880D01*
X95421224Y-80080781D01*
X95326849Y-80285832D01*
X95270606Y-80504434D01*
X95254297Y-80729571D01*
X95266805Y-80859467D01*
X95267469Y-80864344D01*
X95320944Y-81167613D01*
X96305752Y-80993965D01*
X97790841Y-80732102D01*
X97737366Y-80428831D01*
X97736324Y-80424030D01*
X97703648Y-80297680D01*
X97611326Y-80091707D01*
X97483703Y-79905518D01*
X97324891Y-79745113D01*
X97139990Y-79615644D01*
X96934940Y-79521270D01*
X96716335Y-79465025D01*
X96544196Y-79452557D01*
X96477698Y-79427686D01*
X96435203Y-79370811D01*
X96430203Y-79299991D01*
X96464284Y-79237710D01*
X96526628Y-79203741D01*
X96530361Y-79202991D01*
X96610400Y-79188193D01*
X96615669Y-79187335D01*
X97460583Y-79068174D01*
X97470030Y-79068091D01*
X97500409Y-79063829D01*
X97516636Y-79062612D01*
X97596022Y-79061807D01*
X97628280Y-79065669D01*
G37*
%TD.AperFunction*%
%TD*%
M02*
