%TF.GenerationSoftware,KiCad,Pcbnew,9.0.1*%
%TF.CreationDate,2025-04-26T02:16:23+02:00*%
%TF.ProjectId,view_screen,76696577-5f73-4637-9265-656e2e6b6963,0.1.0*%
%TF.SameCoordinates,Original*%
%TF.FileFunction,Copper,L3,Inr*%
%TF.FilePolarity,Positive*%
%FSLAX46Y46*%
G04 Gerber Fmt 4.6, Leading zero omitted, Abs format (unit mm)*
G04 Created by KiCad (PCBNEW 9.0.1) date 2025-04-26 02:16:23*
%MOMM*%
%LPD*%
G01*
G04 APERTURE LIST*
%TA.AperFunction,ComponentPad*%
%ADD10C,2.400000*%
%TD*%
%TA.AperFunction,ViaPad*%
%ADD11C,0.500000*%
%TD*%
%TA.AperFunction,Conductor*%
%ADD12C,0.250000*%
%TD*%
G04 APERTURE END LIST*
D10*
%TO.N,unconnected-(H1-Pad1)*%
%TO.C,H1*%
X94000000Y-100000000D03*
%TD*%
D11*
%TO.N,GND*%
X111400000Y-114900000D03*
X109250000Y-86250000D03*
X116059510Y-110512936D03*
X115400000Y-104900000D03*
X101050000Y-112150000D03*
X109750000Y-86750000D03*
X96900000Y-82700000D03*
X96150000Y-112150000D03*
X100350000Y-112150000D03*
X104400000Y-110900000D03*
X110100000Y-115800000D03*
%TO.N,/VDD*%
X101750000Y-112150000D03*
X101750000Y-109200000D03*
X94000000Y-83400000D03*
X111750000Y-84500000D03*
X101750000Y-108600000D03*
%TO.N,/DC*%
X99650000Y-112150000D03*
X88700000Y-86600000D03*
%TO.N,/BACKLIGHT_EN*%
X114250000Y-92000000D03*
X117250000Y-93000000D03*
X91200000Y-84800000D03*
%TO.N,/nRESET*%
X96850000Y-112150000D03*
X112750000Y-98000000D03*
X110500000Y-87500000D03*
X82750000Y-97000000D03*
%TO.N,/MOSI*%
X113700000Y-96900000D03*
X112000000Y-88750000D03*
X97550000Y-112150000D03*
X83500000Y-94000000D03*
%TO.N,/SCK*%
X84800000Y-91250000D03*
X114500000Y-95500000D03*
X98250000Y-112150000D03*
X111250000Y-88000000D03*
%TO.N,/nCS*%
X86600000Y-88750000D03*
X98950000Y-112150000D03*
%TD*%
D12*
%TO.N,/BACKLIGHT_EN*%
X110800000Y-84800000D02*
X91200000Y-84800000D01*
X114250000Y-92000000D02*
X114250000Y-88250000D01*
X114250000Y-88250000D02*
X110800000Y-84800000D01*
%TO.N,/nRESET*%
X112425000Y-87425000D02*
X113250000Y-88250000D01*
X110500000Y-87500000D02*
X110575000Y-87425000D01*
X113250000Y-94750000D02*
X112750000Y-95250000D01*
X112750000Y-95250000D02*
X112750000Y-98000000D01*
X113250000Y-88250000D02*
X113250000Y-94750000D01*
X110575000Y-87425000D02*
X112425000Y-87425000D01*
%TD*%
%TA.AperFunction,Conductor*%
%TO.N,GND*%
G36*
X97628280Y-79065669D02*
G01*
X97650475Y-79071299D01*
X97697257Y-79083166D01*
X97727451Y-79095147D01*
X97728597Y-79095783D01*
X97789662Y-79129701D01*
X97815792Y-79149007D01*
X97867093Y-79198314D01*
X97887420Y-79223661D01*
X97924410Y-79284452D01*
X97937580Y-79314154D01*
X97960251Y-79390671D01*
X97963856Y-79406538D01*
X97966759Y-79424667D01*
X97967470Y-79426256D01*
X97974915Y-79448070D01*
X97996559Y-79537555D01*
X97996563Y-79537569D01*
X97997551Y-79541652D01*
X97999072Y-79545567D01*
X97999073Y-79545568D01*
X98097376Y-79798496D01*
X98097380Y-79798505D01*
X98098896Y-79802405D01*
X98100916Y-79806070D01*
X98100920Y-79806078D01*
X98231921Y-80043730D01*
X98233946Y-80047403D01*
X98400314Y-80272314D01*
X98403225Y-80275316D01*
X98403230Y-80275322D01*
X98500090Y-80375216D01*
X98595056Y-80473158D01*
X98814728Y-80646383D01*
X99055445Y-80788926D01*
X99312948Y-80898265D01*
X99582684Y-80972465D01*
X99859880Y-81010216D01*
X100139635Y-81010848D01*
X100416999Y-80974351D01*
X100687067Y-80901370D01*
X100945061Y-80793196D01*
X101186420Y-80651743D01*
X101406873Y-80479512D01*
X101602521Y-80279550D01*
X101769903Y-80055393D01*
X101906059Y-79811008D01*
X102008581Y-79550715D01*
X102032449Y-79453946D01*
X102039435Y-79433629D01*
X102039489Y-79433290D01*
X102039491Y-79433288D01*
X102042258Y-79415998D01*
X102044347Y-79405719D01*
X102045210Y-79402225D01*
X102046725Y-79396646D01*
X102068618Y-79322751D01*
X102081782Y-79293060D01*
X102118784Y-79232250D01*
X102139102Y-79206914D01*
X102190420Y-79157593D01*
X102216550Y-79138290D01*
X102278765Y-79103737D01*
X102308963Y-79091757D01*
X102377958Y-79074259D01*
X102410209Y-79070402D01*
X102489875Y-79071218D01*
X102506095Y-79072434D01*
X102524428Y-79075010D01*
X102524428Y-79075009D01*
X102542632Y-79077567D01*
X102542630Y-79077575D01*
X102542693Y-79077574D01*
X103388974Y-79196857D01*
X103394201Y-79197709D01*
X104274533Y-79360402D01*
X104279767Y-79361485D01*
X105152318Y-79561619D01*
X105157525Y-79562931D01*
X106020742Y-79800149D01*
X106025856Y-79801673D01*
X106557765Y-79972591D01*
X106878122Y-80075531D01*
X106883210Y-80077286D01*
X107723065Y-80387313D01*
X107728007Y-80389259D01*
X108553814Y-80734853D01*
X108558701Y-80737021D01*
X108898548Y-80896628D01*
X109369010Y-81117577D01*
X109373832Y-81119969D01*
X109711467Y-81296512D01*
X110167117Y-81534765D01*
X110171808Y-81537346D01*
X110530589Y-81744923D01*
X110946663Y-81985648D01*
X110951263Y-81988442D01*
X111706268Y-82469427D01*
X111710745Y-82472416D01*
X112444486Y-82985184D01*
X112448831Y-82988360D01*
X112799481Y-83256404D01*
X113160035Y-83532018D01*
X113164240Y-83535377D01*
X113851570Y-84108908D01*
X113855628Y-84112444D01*
X113968358Y-84214986D01*
X114517850Y-84714817D01*
X114521725Y-84718497D01*
X114700237Y-84895384D01*
X115157602Y-85348587D01*
X115161344Y-85352456D01*
X115769755Y-86009152D01*
X115773327Y-86013178D01*
X116353093Y-86695206D01*
X116356491Y-86699380D01*
X116904567Y-87402936D01*
X116906635Y-87405590D01*
X116909847Y-87409901D01*
X117427740Y-88136733D01*
X117429314Y-88138941D01*
X117432337Y-88143381D01*
X117535715Y-88302426D01*
X117920203Y-88893954D01*
X117923039Y-88898528D01*
X118378396Y-89669235D01*
X118381035Y-89673927D01*
X118803075Y-90463402D01*
X118805510Y-90468202D01*
X119193426Y-91274934D01*
X119195655Y-91279833D01*
X119548785Y-92102442D01*
X119550802Y-92107432D01*
X119868472Y-92944358D01*
X119870274Y-92949430D01*
X119940914Y-93162557D01*
X120054249Y-93504500D01*
X120151909Y-93799147D01*
X120153493Y-93804291D01*
X120398588Y-94665288D01*
X120399950Y-94670495D01*
X120608044Y-95541139D01*
X120609183Y-95546399D01*
X120779904Y-96425137D01*
X120780818Y-96430441D01*
X120913893Y-97315919D01*
X120914541Y-97320904D01*
X120997957Y-98081251D01*
X120998375Y-98085832D01*
X121054003Y-98849014D01*
X121054253Y-98853607D01*
X121081985Y-99618276D01*
X121082068Y-99622876D01*
X121081869Y-100388072D01*
X121081784Y-100392671D01*
X121053654Y-101157353D01*
X121053401Y-101161946D01*
X120997376Y-101925100D01*
X120996955Y-101929681D01*
X120912974Y-102691516D01*
X120907307Y-102735694D01*
X120907229Y-102735684D01*
X120907197Y-102740040D01*
X120786391Y-103548189D01*
X120785519Y-103553300D01*
X120623049Y-104400194D01*
X120621968Y-104405265D01*
X120424787Y-105244780D01*
X120423498Y-105249802D01*
X120191946Y-106080495D01*
X120190451Y-106085460D01*
X119924928Y-106905894D01*
X119923231Y-106910793D01*
X119624165Y-107719648D01*
X119622267Y-107724473D01*
X119290185Y-108520319D01*
X119288090Y-108525062D01*
X118923550Y-109306564D01*
X118921262Y-109311217D01*
X118524871Y-110077077D01*
X118522393Y-110081632D01*
X118094844Y-110830505D01*
X118092182Y-110834954D01*
X117634155Y-111565654D01*
X117631311Y-111569989D01*
X117143646Y-112281174D01*
X117140627Y-112285389D01*
X116624083Y-112975953D01*
X116620892Y-112980040D01*
X116076403Y-113648730D01*
X116073047Y-113652683D01*
X115501498Y-114298420D01*
X115497983Y-114302231D01*
X114900332Y-114923926D01*
X114896662Y-114927589D01*
X114273965Y-115524145D01*
X114270148Y-115527654D01*
X113623428Y-116098093D01*
X113619470Y-116101442D01*
X112949816Y-116644802D01*
X112945723Y-116647985D01*
X112254316Y-117163308D01*
X112250096Y-117166321D01*
X111538040Y-117652785D01*
X111533700Y-117655621D01*
X110802232Y-118112379D01*
X110797778Y-118115034D01*
X110048162Y-118541298D01*
X110043603Y-118543768D01*
X109277072Y-118938837D01*
X109272416Y-118941117D01*
X108490259Y-119304325D01*
X108485512Y-119306411D01*
X107722356Y-119623312D01*
X107706156Y-119628210D01*
X107687524Y-119637338D01*
X107678001Y-119641524D01*
X107677546Y-119641702D01*
X107670172Y-119644326D01*
X107587774Y-119670791D01*
X107551926Y-119676798D01*
X107474370Y-119678450D01*
X107438297Y-119673974D01*
X107363486Y-119653414D01*
X107330194Y-119638828D01*
X107286406Y-119611516D01*
X107264369Y-119597770D01*
X107236628Y-119574288D01*
X107185263Y-119516149D01*
X107165377Y-119485723D01*
X107132744Y-119415337D01*
X107122372Y-119380501D01*
X107109877Y-119294720D01*
X107108561Y-119276543D01*
X107108564Y-119242312D01*
X107108522Y-119241997D01*
X107104448Y-114510085D01*
X107104447Y-114489780D01*
X107104443Y-114437881D01*
X107074323Y-114305961D01*
X107074322Y-114305958D01*
X107015607Y-114184051D01*
X106931237Y-114078258D01*
X106825441Y-113993888D01*
X106703531Y-113935174D01*
X106571611Y-113905055D01*
X106540306Y-113905053D01*
X106540297Y-113905051D01*
X106503938Y-113905050D01*
X106461524Y-113905048D01*
X106461508Y-113905050D01*
X93529345Y-113905050D01*
X93503958Y-113905048D01*
X93436295Y-113905043D01*
X93304357Y-113935147D01*
X93182431Y-113993858D01*
X93076629Y-114078231D01*
X92992256Y-114184032D01*
X92933545Y-114305963D01*
X92903442Y-114437897D01*
X92903444Y-114470696D01*
X92903398Y-114471003D01*
X92903425Y-114489780D01*
X92903447Y-114505499D01*
X92903448Y-114505560D01*
X92903451Y-114532489D01*
X92903455Y-114532497D01*
X92903453Y-114548538D01*
X92903511Y-114548979D01*
X92910427Y-119276349D01*
X92909113Y-119294679D01*
X92896211Y-119383330D01*
X92885855Y-119418142D01*
X92852040Y-119491144D01*
X92832185Y-119521556D01*
X92778950Y-119581882D01*
X92751246Y-119605366D01*
X92683020Y-119647999D01*
X92649768Y-119662605D01*
X92608571Y-119673974D01*
X92572213Y-119684007D01*
X92536176Y-119688522D01*
X92455740Y-119686913D01*
X92419911Y-119680960D01*
X92334262Y-119653594D01*
X92317367Y-119646816D01*
X92298519Y-119637621D01*
X92282639Y-119632834D01*
X92275411Y-119629833D01*
X91925861Y-119484697D01*
X91519050Y-119315786D01*
X91514303Y-119313699D01*
X91189666Y-119162961D01*
X90731705Y-118950318D01*
X90727079Y-118948053D01*
X90257713Y-118706161D01*
X89960076Y-118552771D01*
X89955517Y-118550301D01*
X89205466Y-118123816D01*
X89201012Y-118121161D01*
X88469130Y-117664168D01*
X88464789Y-117661332D01*
X87752308Y-117174596D01*
X87748115Y-117171603D01*
X87056284Y-116655980D01*
X87052191Y-116652797D01*
X86382150Y-116109135D01*
X86378192Y-116105785D01*
X85731104Y-115535030D01*
X85727286Y-115531521D01*
X85723250Y-115527654D01*
X85104210Y-114934605D01*
X85100588Y-114930990D01*
X84502576Y-114308919D01*
X84499060Y-114305107D01*
X84370234Y-114159558D01*
X83927179Y-113658989D01*
X83923834Y-113655049D01*
X83921907Y-113652683D01*
X83379033Y-112985962D01*
X83375852Y-112981888D01*
X83371413Y-112975953D01*
X82859005Y-112290900D01*
X82856005Y-112286711D01*
X82852208Y-112281174D01*
X82762264Y-112150000D01*
X96340311Y-112150000D01*
X96360957Y-112293593D01*
X96421223Y-112425558D01*
X96516226Y-112535197D01*
X96536996Y-112548545D01*
X96638268Y-112613629D01*
X96719602Y-112637510D01*
X96777463Y-112654500D01*
X96777464Y-112654500D01*
X96922537Y-112654500D01*
X96992133Y-112634064D01*
X97061732Y-112613629D01*
X97131879Y-112568547D01*
X97199999Y-112548545D01*
X97268116Y-112568544D01*
X97338266Y-112613628D01*
X97338268Y-112613629D01*
X97477463Y-112654500D01*
X97477464Y-112654500D01*
X97622537Y-112654500D01*
X97692133Y-112634064D01*
X97761732Y-112613629D01*
X97831879Y-112568547D01*
X97899999Y-112548545D01*
X97968116Y-112568544D01*
X98038266Y-112613628D01*
X98038268Y-112613629D01*
X98177463Y-112654500D01*
X98177464Y-112654500D01*
X98322537Y-112654500D01*
X98392134Y-112634064D01*
X98461732Y-112613629D01*
X98531879Y-112568547D01*
X98599999Y-112548545D01*
X98668116Y-112568544D01*
X98738266Y-112613628D01*
X98738268Y-112613629D01*
X98877463Y-112654500D01*
X98877464Y-112654500D01*
X99022537Y-112654500D01*
X99092134Y-112634064D01*
X99161732Y-112613629D01*
X99231879Y-112568547D01*
X99299999Y-112548545D01*
X99368116Y-112568544D01*
X99438266Y-112613628D01*
X99438268Y-112613629D01*
X99577463Y-112654500D01*
X99577464Y-112654500D01*
X99722537Y-112654500D01*
X99763407Y-112642499D01*
X99861732Y-112613629D01*
X99983775Y-112535196D01*
X100078777Y-112425558D01*
X100139042Y-112293596D01*
X100159688Y-112150000D01*
X101240311Y-112150000D01*
X101260957Y-112293593D01*
X101321223Y-112425558D01*
X101416226Y-112535197D01*
X101436996Y-112548545D01*
X101538268Y-112613629D01*
X101619602Y-112637510D01*
X101677463Y-112654500D01*
X101677464Y-112654500D01*
X101822537Y-112654500D01*
X101863407Y-112642499D01*
X101961732Y-112613629D01*
X102083775Y-112535196D01*
X102178777Y-112425558D01*
X102239042Y-112293596D01*
X102259688Y-112150000D01*
X102239042Y-112006404D01*
X102178777Y-111874442D01*
X102083775Y-111764804D01*
X102083774Y-111764803D01*
X102083773Y-111764802D01*
X101961733Y-111686371D01*
X101822537Y-111645500D01*
X101822536Y-111645500D01*
X101677464Y-111645500D01*
X101677463Y-111645500D01*
X101538266Y-111686371D01*
X101416226Y-111764802D01*
X101321223Y-111874441D01*
X101260957Y-112006406D01*
X101240311Y-112150000D01*
X100159688Y-112150000D01*
X100139042Y-112006404D01*
X100078777Y-111874442D01*
X99983775Y-111764804D01*
X99983774Y-111764803D01*
X99983773Y-111764802D01*
X99861733Y-111686371D01*
X99722537Y-111645500D01*
X99722536Y-111645500D01*
X99577464Y-111645500D01*
X99577463Y-111645500D01*
X99438268Y-111686370D01*
X99368121Y-111731452D01*
X99300000Y-111751454D01*
X99231879Y-111731452D01*
X99161731Y-111686370D01*
X99022537Y-111645500D01*
X99022536Y-111645500D01*
X98877464Y-111645500D01*
X98877463Y-111645500D01*
X98738266Y-111686371D01*
X98668119Y-111731452D01*
X98599998Y-111751454D01*
X98531879Y-111731452D01*
X98491467Y-111705480D01*
X98461731Y-111686370D01*
X98322537Y-111645500D01*
X98322536Y-111645500D01*
X98177464Y-111645500D01*
X98177463Y-111645500D01*
X98038268Y-111686370D01*
X97968121Y-111731452D01*
X97900000Y-111751454D01*
X97831879Y-111731452D01*
X97761731Y-111686370D01*
X97622537Y-111645500D01*
X97622536Y-111645500D01*
X97477464Y-111645500D01*
X97477463Y-111645500D01*
X97338268Y-111686370D01*
X97268121Y-111731452D01*
X97200000Y-111751454D01*
X97131879Y-111731452D01*
X97061731Y-111686370D01*
X96922537Y-111645500D01*
X96922536Y-111645500D01*
X96777464Y-111645500D01*
X96777463Y-111645500D01*
X96638266Y-111686371D01*
X96516226Y-111764802D01*
X96421223Y-111874441D01*
X96360957Y-112006406D01*
X96340311Y-112150000D01*
X82762264Y-112150000D01*
X82663803Y-112006404D01*
X82368060Y-111575093D01*
X82365216Y-111570757D01*
X81906970Y-110839675D01*
X81904307Y-110835226D01*
X81476524Y-110085901D01*
X81474046Y-110081346D01*
X81257860Y-109663629D01*
X81077452Y-109315041D01*
X81075164Y-109310388D01*
X81023676Y-109199999D01*
X101240311Y-109199999D01*
X101260957Y-109343593D01*
X101321223Y-109475558D01*
X101416226Y-109585197D01*
X101538266Y-109663628D01*
X101538268Y-109663629D01*
X101619602Y-109687510D01*
X101677463Y-109704500D01*
X101677464Y-109704500D01*
X101822537Y-109704500D01*
X101863407Y-109692499D01*
X101961732Y-109663629D01*
X102083775Y-109585196D01*
X102178777Y-109475558D01*
X102239042Y-109343596D01*
X102259688Y-109200000D01*
X102239042Y-109056404D01*
X102191517Y-108952339D01*
X102181413Y-108882069D01*
X102191516Y-108847662D01*
X102239042Y-108743596D01*
X102259688Y-108600000D01*
X102239042Y-108456404D01*
X102178777Y-108324442D01*
X102083775Y-108214804D01*
X102083774Y-108214803D01*
X102083773Y-108214802D01*
X101961733Y-108136371D01*
X101822537Y-108095500D01*
X101822536Y-108095500D01*
X101677464Y-108095500D01*
X101677463Y-108095500D01*
X101538266Y-108136371D01*
X101416226Y-108214802D01*
X101321223Y-108324441D01*
X101260957Y-108456406D01*
X101240311Y-108600000D01*
X101260957Y-108743593D01*
X101308481Y-108847657D01*
X101318584Y-108917931D01*
X101308481Y-108952340D01*
X101260957Y-109056404D01*
X101240311Y-109199999D01*
X81023676Y-109199999D01*
X80710429Y-108528403D01*
X80708335Y-108523659D01*
X80376101Y-107727372D01*
X80374213Y-107722574D01*
X80074990Y-106913197D01*
X80073320Y-106908375D01*
X79807666Y-106087414D01*
X79806171Y-106082448D01*
X79574529Y-105251281D01*
X79573241Y-105246259D01*
X79375990Y-104406254D01*
X79374913Y-104401210D01*
X79212384Y-103553751D01*
X79211523Y-103548698D01*
X79090691Y-102740069D01*
X79090661Y-102735712D01*
X79090587Y-102735722D01*
X79085027Y-102692544D01*
X79084641Y-102689046D01*
X79004162Y-101958891D01*
X79000940Y-101929657D01*
X79000520Y-101925080D01*
X78975728Y-101587335D01*
X78944500Y-101161921D01*
X78944249Y-101157354D01*
X78931498Y-100810699D01*
X78916121Y-100392650D01*
X78916037Y-100388073D01*
X78915937Y-100003094D01*
X78915936Y-100000000D01*
X92540515Y-100000000D01*
X92560420Y-100240223D01*
X92560420Y-100240226D01*
X92560421Y-100240227D01*
X92619592Y-100473889D01*
X92716420Y-100694637D01*
X92716421Y-100694638D01*
X92848261Y-100896434D01*
X92848264Y-100896437D01*
X93011517Y-101073778D01*
X93201733Y-101221830D01*
X93201737Y-101221832D01*
X93413732Y-101336557D01*
X93641718Y-101414825D01*
X93879477Y-101454500D01*
X93879480Y-101454500D01*
X94120520Y-101454500D01*
X94120523Y-101454500D01*
X94358282Y-101414825D01*
X94586268Y-101336557D01*
X94798263Y-101221832D01*
X94814515Y-101209183D01*
X94988482Y-101073778D01*
X95151739Y-100896434D01*
X95283579Y-100694638D01*
X95380406Y-100473894D01*
X95439580Y-100240223D01*
X95459485Y-100000000D01*
X95844495Y-100000000D01*
X95864505Y-100407311D01*
X95864956Y-100410352D01*
X95864958Y-100410371D01*
X95923887Y-100807632D01*
X95924342Y-100810699D01*
X95925094Y-100813701D01*
X96022679Y-101203284D01*
X96022683Y-101203298D01*
X96023430Y-101206279D01*
X96024468Y-101209181D01*
X96024469Y-101209183D01*
X96159773Y-101587335D01*
X96159776Y-101587343D01*
X96160814Y-101590243D01*
X96162133Y-101593033D01*
X96162134Y-101593034D01*
X96321356Y-101929681D01*
X96335172Y-101958891D01*
X96544824Y-102308675D01*
X96787751Y-102636224D01*
X97061614Y-102938386D01*
X97363776Y-103212249D01*
X97691325Y-103455176D01*
X98041109Y-103664828D01*
X98409757Y-103839186D01*
X98793721Y-103976570D01*
X99189301Y-104075658D01*
X99592689Y-104135495D01*
X100000000Y-104155505D01*
X100407311Y-104135495D01*
X100810699Y-104075658D01*
X101206279Y-103976570D01*
X101590243Y-103839186D01*
X101958891Y-103664828D01*
X102308675Y-103455176D01*
X102636224Y-103212249D01*
X102938386Y-102938386D01*
X103212249Y-102636224D01*
X103455176Y-102308675D01*
X103664828Y-101958891D01*
X103839186Y-101590243D01*
X103976570Y-101206279D01*
X104075658Y-100810699D01*
X104135495Y-100407311D01*
X104155505Y-100000000D01*
X104135495Y-99592689D01*
X104075658Y-99189301D01*
X103976570Y-98793721D01*
X103839186Y-98409757D01*
X103664828Y-98041109D01*
X103455176Y-97691325D01*
X103212249Y-97363776D01*
X102938386Y-97061614D01*
X102636224Y-96787751D01*
X102308675Y-96544824D01*
X102108315Y-96424733D01*
X101961531Y-96336754D01*
X101961525Y-96336751D01*
X101958891Y-96335172D01*
X101590243Y-96160814D01*
X101587343Y-96159776D01*
X101587335Y-96159773D01*
X101209183Y-96024469D01*
X101209181Y-96024468D01*
X101206279Y-96023430D01*
X101203298Y-96022683D01*
X101203284Y-96022679D01*
X100813701Y-95925094D01*
X100810699Y-95924342D01*
X100807632Y-95923887D01*
X100410371Y-95864958D01*
X100410352Y-95864956D01*
X100407311Y-95864505D01*
X100404225Y-95864353D01*
X100404221Y-95864353D01*
X100003094Y-95844647D01*
X100000000Y-95844495D01*
X99996906Y-95844647D01*
X99595778Y-95864353D01*
X99595772Y-95864353D01*
X99592689Y-95864505D01*
X99589649Y-95864955D01*
X99589628Y-95864958D01*
X99192367Y-95923887D01*
X99192363Y-95923887D01*
X99189301Y-95924342D01*
X99186302Y-95925093D01*
X99186298Y-95925094D01*
X98796715Y-96022679D01*
X98796695Y-96022684D01*
X98793721Y-96023430D01*
X98790823Y-96024466D01*
X98790816Y-96024469D01*
X98412664Y-96159773D01*
X98412648Y-96159779D01*
X98409757Y-96160814D01*
X98406973Y-96162130D01*
X98406965Y-96162134D01*
X98043890Y-96333856D01*
X98043878Y-96333861D01*
X98041109Y-96335172D01*
X98038482Y-96336746D01*
X98038468Y-96336754D01*
X97693975Y-96543235D01*
X97693965Y-96543241D01*
X97691325Y-96544824D01*
X97688849Y-96546660D01*
X97688839Y-96546667D01*
X97404977Y-96757194D01*
X97363776Y-96787751D01*
X97361489Y-96789823D01*
X97361479Y-96789832D01*
X97063898Y-97059543D01*
X97063888Y-97059552D01*
X97061614Y-97061614D01*
X97059552Y-97063888D01*
X97059543Y-97063898D01*
X96789832Y-97361479D01*
X96789823Y-97361489D01*
X96787751Y-97363776D01*
X96785907Y-97366262D01*
X96785904Y-97366266D01*
X96546667Y-97688839D01*
X96546660Y-97688849D01*
X96544824Y-97691325D01*
X96543241Y-97693965D01*
X96543235Y-97693975D01*
X96336754Y-98038468D01*
X96336746Y-98038482D01*
X96335172Y-98041109D01*
X96333861Y-98043878D01*
X96333856Y-98043890D01*
X96162134Y-98406965D01*
X96162130Y-98406973D01*
X96160814Y-98409757D01*
X96159779Y-98412648D01*
X96159773Y-98412664D01*
X96024469Y-98790816D01*
X96023430Y-98793721D01*
X96022684Y-98796695D01*
X96022679Y-98796715D01*
X95925094Y-99186298D01*
X95924342Y-99189301D01*
X95923887Y-99192363D01*
X95923887Y-99192367D01*
X95864958Y-99589628D01*
X95864955Y-99589649D01*
X95864505Y-99592689D01*
X95864353Y-99595772D01*
X95864353Y-99595778D01*
X95863022Y-99622875D01*
X95844495Y-100000000D01*
X95459485Y-100000000D01*
X95439580Y-99759777D01*
X95380406Y-99526106D01*
X95283579Y-99305362D01*
X95151739Y-99103566D01*
X95109846Y-99058058D01*
X94988482Y-98926221D01*
X94798266Y-98778169D01*
X94586267Y-98663442D01*
X94358284Y-98585175D01*
X94263178Y-98569305D01*
X94120523Y-98545500D01*
X93879477Y-98545500D01*
X93760597Y-98565337D01*
X93641715Y-98585175D01*
X93413732Y-98663442D01*
X93201733Y-98778169D01*
X93011517Y-98926221D01*
X92848264Y-99103562D01*
X92716420Y-99305362D01*
X92619592Y-99526110D01*
X92595088Y-99622876D01*
X92560420Y-99759777D01*
X92540515Y-100000000D01*
X78915936Y-100000000D01*
X78915838Y-99622842D01*
X78915920Y-99618310D01*
X78943650Y-98853602D01*
X78943900Y-98849014D01*
X78949063Y-98778169D01*
X78999526Y-98085774D01*
X78999940Y-98081251D01*
X79083358Y-97320807D01*
X79083996Y-97315902D01*
X79131452Y-97000000D01*
X82240311Y-97000000D01*
X82260957Y-97143593D01*
X82260957Y-97143594D01*
X82260958Y-97143596D01*
X82321223Y-97275558D01*
X82397664Y-97363776D01*
X82416226Y-97385197D01*
X82446262Y-97404500D01*
X82538268Y-97463629D01*
X82619602Y-97487510D01*
X82677463Y-97504500D01*
X82677464Y-97504500D01*
X82822537Y-97504500D01*
X82863408Y-97492499D01*
X82961732Y-97463629D01*
X83083775Y-97385196D01*
X83178777Y-97275558D01*
X83239042Y-97143596D01*
X83259688Y-97000000D01*
X83239042Y-96856404D01*
X83178777Y-96724442D01*
X83083775Y-96614804D01*
X83083774Y-96614803D01*
X83083773Y-96614802D01*
X82961733Y-96536371D01*
X82822537Y-96495500D01*
X82822536Y-96495500D01*
X82677464Y-96495500D01*
X82677463Y-96495500D01*
X82538266Y-96536371D01*
X82416226Y-96614802D01*
X82321223Y-96724441D01*
X82260957Y-96856406D01*
X82240311Y-97000000D01*
X79131452Y-97000000D01*
X79217074Y-96430032D01*
X79217987Y-96424733D01*
X79307541Y-95963629D01*
X79388738Y-95545554D01*
X79389875Y-95540305D01*
X79421682Y-95407193D01*
X79598017Y-94669221D01*
X79599366Y-94664061D01*
X79788356Y-94000000D01*
X82990311Y-94000000D01*
X83010957Y-94143593D01*
X83071223Y-94275558D01*
X83166226Y-94385197D01*
X83288266Y-94463628D01*
X83288268Y-94463629D01*
X83369602Y-94487510D01*
X83427463Y-94504500D01*
X83427464Y-94504500D01*
X83572537Y-94504500D01*
X83613407Y-94492499D01*
X83711732Y-94463629D01*
X83833775Y-94385196D01*
X83928777Y-94275558D01*
X83989042Y-94143596D01*
X84009688Y-94000000D01*
X83989042Y-93856404D01*
X83928777Y-93724442D01*
X83833775Y-93614804D01*
X83833774Y-93614803D01*
X83833773Y-93614802D01*
X83711733Y-93536371D01*
X83572537Y-93495500D01*
X83572536Y-93495500D01*
X83427464Y-93495500D01*
X83427463Y-93495500D01*
X83288266Y-93536371D01*
X83166226Y-93614802D01*
X83071223Y-93724441D01*
X83010957Y-93856406D01*
X82990311Y-94000000D01*
X79788356Y-94000000D01*
X79844534Y-93802606D01*
X79846102Y-93797515D01*
X80127836Y-92947315D01*
X80129609Y-92942326D01*
X80447393Y-92104942D01*
X80449368Y-92100051D01*
X80802643Y-91276956D01*
X80804845Y-91272114D01*
X80815477Y-91249999D01*
X84290311Y-91249999D01*
X84310957Y-91393593D01*
X84310957Y-91393594D01*
X84310958Y-91393596D01*
X84362316Y-91506054D01*
X84371223Y-91525558D01*
X84466226Y-91635197D01*
X84588266Y-91713628D01*
X84588268Y-91713629D01*
X84669602Y-91737510D01*
X84727463Y-91754500D01*
X84727464Y-91754500D01*
X84872537Y-91754500D01*
X84927239Y-91738438D01*
X85011732Y-91713629D01*
X85133775Y-91635196D01*
X85228777Y-91525558D01*
X85289042Y-91393596D01*
X85309688Y-91250000D01*
X85289042Y-91106404D01*
X85228777Y-90974442D01*
X85133775Y-90864804D01*
X85133774Y-90864803D01*
X85133773Y-90864802D01*
X85011733Y-90786371D01*
X84872537Y-90745500D01*
X84872536Y-90745500D01*
X84727464Y-90745500D01*
X84727463Y-90745500D01*
X84588266Y-90786371D01*
X84466226Y-90864802D01*
X84371223Y-90974441D01*
X84310957Y-91106406D01*
X84290311Y-91249999D01*
X80815477Y-91249999D01*
X81192923Y-90464912D01*
X81195329Y-90460167D01*
X81617537Y-89670253D01*
X81620140Y-89665624D01*
X82075681Y-88894489D01*
X82078496Y-88889948D01*
X82169448Y-88750000D01*
X86090311Y-88750000D01*
X86110957Y-88893593D01*
X86110957Y-88893594D01*
X86110958Y-88893596D01*
X86171222Y-89025558D01*
X86171223Y-89025558D01*
X86266226Y-89135197D01*
X86388266Y-89213628D01*
X86388268Y-89213629D01*
X86469602Y-89237510D01*
X86527463Y-89254500D01*
X86527464Y-89254500D01*
X86672537Y-89254500D01*
X86713408Y-89242499D01*
X86811732Y-89213629D01*
X86933775Y-89135196D01*
X87028777Y-89025558D01*
X87089042Y-88893596D01*
X87109688Y-88750000D01*
X87089042Y-88606404D01*
X87028777Y-88474442D01*
X86933775Y-88364804D01*
X86933774Y-88364803D01*
X86933773Y-88364802D01*
X86811733Y-88286371D01*
X86672537Y-88245500D01*
X86672536Y-88245500D01*
X86527464Y-88245500D01*
X86527463Y-88245500D01*
X86388266Y-88286371D01*
X86266226Y-88364802D01*
X86171223Y-88474441D01*
X86110957Y-88606406D01*
X86090311Y-88750000D01*
X82169448Y-88750000D01*
X82566573Y-88138941D01*
X82569552Y-88134565D01*
X83089234Y-87405117D01*
X83092443Y-87400812D01*
X83642795Y-86694233D01*
X83646157Y-86690102D01*
X83722739Y-86599999D01*
X88190311Y-86599999D01*
X88210957Y-86743593D01*
X88271223Y-86875558D01*
X88366226Y-86985197D01*
X88460059Y-87045500D01*
X88488268Y-87063629D01*
X88569602Y-87087510D01*
X88627463Y-87104500D01*
X88627464Y-87104500D01*
X88772537Y-87104500D01*
X88813408Y-87092499D01*
X88911732Y-87063629D01*
X89033775Y-86985196D01*
X89128777Y-86875558D01*
X89189042Y-86743596D01*
X89209688Y-86600000D01*
X89189042Y-86456404D01*
X89128777Y-86324442D01*
X89033775Y-86214804D01*
X89033774Y-86214803D01*
X89033773Y-86214802D01*
X88911733Y-86136371D01*
X88772537Y-86095500D01*
X88772536Y-86095500D01*
X88627464Y-86095500D01*
X88627463Y-86095500D01*
X88488266Y-86136371D01*
X88366226Y-86214802D01*
X88271223Y-86324441D01*
X88210957Y-86456406D01*
X88190311Y-86599999D01*
X83722739Y-86599999D01*
X84226196Y-86007656D01*
X84229715Y-86003691D01*
X84838386Y-85346620D01*
X84842079Y-85342800D01*
X85389787Y-84800000D01*
X90690311Y-84800000D01*
X90710957Y-84943593D01*
X90710957Y-84943594D01*
X90710958Y-84943596D01*
X90771223Y-85075558D01*
X90861289Y-85179500D01*
X90866226Y-85185197D01*
X90988266Y-85263628D01*
X90988268Y-85263629D01*
X91069602Y-85287510D01*
X91127463Y-85304500D01*
X91127464Y-85304500D01*
X91272537Y-85304500D01*
X91342134Y-85284064D01*
X91411732Y-85263629D01*
X91511515Y-85199501D01*
X91579634Y-85179500D01*
X110590616Y-85179500D01*
X110658737Y-85199502D01*
X110679711Y-85216405D01*
X112293711Y-86830405D01*
X112327737Y-86892717D01*
X112322672Y-86963532D01*
X112280125Y-87020368D01*
X112213605Y-87045179D01*
X112204616Y-87045500D01*
X110760937Y-87045500D01*
X110725439Y-87040396D01*
X110711732Y-87036371D01*
X110645224Y-87016843D01*
X110572537Y-86995500D01*
X110572536Y-86995500D01*
X110427464Y-86995500D01*
X110427463Y-86995500D01*
X110288266Y-87036371D01*
X110166226Y-87114802D01*
X110071223Y-87224441D01*
X110010957Y-87356406D01*
X109990311Y-87500000D01*
X110010957Y-87643593D01*
X110071223Y-87775558D01*
X110166226Y-87885197D01*
X110213408Y-87915519D01*
X110288268Y-87963629D01*
X110369602Y-87987510D01*
X110427463Y-88004500D01*
X110427464Y-88004500D01*
X110572535Y-88004500D01*
X110572536Y-88004500D01*
X110594615Y-87998017D01*
X110665611Y-87998017D01*
X110725337Y-88036400D01*
X110754830Y-88100980D01*
X110760957Y-88143593D01*
X110760957Y-88143594D01*
X110760958Y-88143596D01*
X110821223Y-88275558D01*
X110898553Y-88364802D01*
X110916226Y-88385197D01*
X111038266Y-88463628D01*
X111038268Y-88463629D01*
X111119602Y-88487510D01*
X111177463Y-88504500D01*
X111177464Y-88504500D01*
X111322534Y-88504500D01*
X111322536Y-88504500D01*
X111346444Y-88497480D01*
X111417438Y-88497480D01*
X111477165Y-88535863D01*
X111506658Y-88600443D01*
X111506658Y-88636308D01*
X111490311Y-88749999D01*
X111510957Y-88893593D01*
X111510957Y-88893594D01*
X111510958Y-88893596D01*
X111571222Y-89025558D01*
X111571223Y-89025558D01*
X111666226Y-89135197D01*
X111788266Y-89213628D01*
X111788268Y-89213629D01*
X111869602Y-89237510D01*
X111927463Y-89254500D01*
X111927464Y-89254500D01*
X112072537Y-89254500D01*
X112113408Y-89242499D01*
X112211732Y-89213629D01*
X112333775Y-89135196D01*
X112428777Y-89025558D01*
X112489042Y-88893596D01*
X112509688Y-88750000D01*
X112489042Y-88606404D01*
X112428777Y-88474442D01*
X112333775Y-88364804D01*
X112333774Y-88364803D01*
X112333773Y-88364802D01*
X112211733Y-88286371D01*
X112072537Y-88245500D01*
X112072536Y-88245500D01*
X111927464Y-88245500D01*
X111903554Y-88252520D01*
X111832557Y-88252518D01*
X111772832Y-88214134D01*
X111743340Y-88149552D01*
X111743340Y-88113695D01*
X111759688Y-88000000D01*
X111756506Y-87977868D01*
X111752274Y-87948432D01*
X111762377Y-87878158D01*
X111808870Y-87824502D01*
X111876990Y-87804500D01*
X112215616Y-87804500D01*
X112283737Y-87824502D01*
X112304711Y-87841405D01*
X112833595Y-88370289D01*
X112867621Y-88432601D01*
X112870500Y-88459384D01*
X112870500Y-90929968D01*
X112850498Y-90998089D01*
X112796842Y-91044582D01*
X112726568Y-91054686D01*
X112661988Y-91025192D01*
X112637819Y-90997014D01*
X112636421Y-90994790D01*
X112593887Y-90952264D01*
X109053045Y-87411421D01*
X109005201Y-87363577D01*
X108890625Y-87291584D01*
X108805472Y-87261788D01*
X108762897Y-87246891D01*
X108628428Y-87231740D01*
X108628427Y-87231740D01*
X108493955Y-87246891D01*
X108366232Y-87291583D01*
X108251651Y-87363579D01*
X108215066Y-87400166D01*
X103255380Y-92359849D01*
X103254063Y-92361166D01*
X103229377Y-92385854D01*
X103229306Y-92385950D01*
X103206233Y-92409023D01*
X103134241Y-92523600D01*
X103089548Y-92651322D01*
X103074395Y-92785790D01*
X103089542Y-92920251D01*
X103089542Y-92920253D01*
X103089543Y-92920254D01*
X103134231Y-93047979D01*
X103150973Y-93074626D01*
X103206219Y-93162557D01*
X103254058Y-93210401D01*
X103290818Y-93247162D01*
X103290824Y-93247166D01*
X106815303Y-96771646D01*
X106815309Y-96771649D01*
X106837440Y-96793780D01*
X106952018Y-96865775D01*
X107079745Y-96910468D01*
X107214214Y-96925619D01*
X107348683Y-96910468D01*
X107476409Y-96865775D01*
X107590988Y-96793781D01*
X107590990Y-96793778D01*
X107590996Y-96793775D01*
X107638831Y-96745938D01*
X107638831Y-96745939D01*
X107657872Y-96726897D01*
X107657872Y-96726896D01*
X107675593Y-96709175D01*
X112551646Y-91833121D01*
X112551762Y-91833058D01*
X112588603Y-91796217D01*
X112588604Y-91796218D01*
X112636450Y-91748374D01*
X112637813Y-91746203D01*
X112644801Y-91740022D01*
X112646489Y-91738335D01*
X112646592Y-91738438D01*
X112690989Y-91699167D01*
X112761156Y-91688346D01*
X112826035Y-91717177D01*
X112865027Y-91776508D01*
X112870500Y-91813240D01*
X112870500Y-94540614D01*
X112850498Y-94608735D01*
X112833595Y-94629710D01*
X112518721Y-94944583D01*
X112498547Y-94960966D01*
X112489419Y-94966930D01*
X112469792Y-94992146D01*
X112459463Y-95003842D01*
X112459418Y-95003886D01*
X112447212Y-95020981D01*
X112444105Y-95025148D01*
X112406691Y-95073218D01*
X112406638Y-95073322D01*
X112389259Y-95131695D01*
X112387672Y-95136650D01*
X112367888Y-95194281D01*
X112367875Y-95194370D01*
X112370392Y-95255213D01*
X112370500Y-95260420D01*
X112370500Y-97620577D01*
X112350498Y-97688698D01*
X112339726Y-97703088D01*
X112321223Y-97724441D01*
X112260957Y-97856406D01*
X112240311Y-97999999D01*
X112260957Y-98143593D01*
X112321223Y-98275558D01*
X112416226Y-98385197D01*
X112538266Y-98463628D01*
X112538268Y-98463629D01*
X112619602Y-98487510D01*
X112677463Y-98504500D01*
X112677464Y-98504500D01*
X112822537Y-98504500D01*
X112863408Y-98492499D01*
X112961732Y-98463629D01*
X113083775Y-98385196D01*
X113178777Y-98275558D01*
X113239042Y-98143596D01*
X113259688Y-98000000D01*
X113239042Y-97856404D01*
X113178777Y-97724442D01*
X113160274Y-97703088D01*
X113130782Y-97638507D01*
X113129500Y-97620577D01*
X113129500Y-97349819D01*
X113149502Y-97281698D01*
X113203158Y-97235205D01*
X113273432Y-97225101D01*
X113338012Y-97254595D01*
X113350718Y-97267300D01*
X113366225Y-97285196D01*
X113417818Y-97318353D01*
X113484922Y-97361479D01*
X113488268Y-97363629D01*
X113561720Y-97385196D01*
X113627463Y-97404500D01*
X113627464Y-97404500D01*
X113772537Y-97404500D01*
X113813408Y-97392499D01*
X113911732Y-97363629D01*
X114033775Y-97285196D01*
X114128777Y-97175558D01*
X114189042Y-97043596D01*
X114209688Y-96900000D01*
X114189042Y-96756404D01*
X114128777Y-96624442D01*
X114033775Y-96514804D01*
X114033774Y-96514803D01*
X114033773Y-96514802D01*
X113911733Y-96436371D01*
X113772537Y-96395500D01*
X113772536Y-96395500D01*
X113627464Y-96395500D01*
X113627463Y-96395500D01*
X113488266Y-96436371D01*
X113366225Y-96514803D01*
X113350723Y-96532694D01*
X113290997Y-96571077D01*
X113220000Y-96571076D01*
X113160275Y-96532691D01*
X113130782Y-96468110D01*
X113129500Y-96450180D01*
X113129500Y-95500000D01*
X113990311Y-95500000D01*
X114010957Y-95643593D01*
X114010957Y-95643594D01*
X114010958Y-95643596D01*
X114071223Y-95775558D01*
X114148164Y-95864353D01*
X114166226Y-95885197D01*
X114288266Y-95963628D01*
X114288268Y-95963629D01*
X114367584Y-95986918D01*
X114427463Y-96004500D01*
X114427464Y-96004500D01*
X114572537Y-96004500D01*
X114613408Y-95992499D01*
X114711732Y-95963629D01*
X114833775Y-95885196D01*
X114928777Y-95775558D01*
X114989042Y-95643596D01*
X115009688Y-95500000D01*
X114989042Y-95356404D01*
X114928777Y-95224442D01*
X114833775Y-95114804D01*
X114833774Y-95114803D01*
X114833773Y-95114802D01*
X114711733Y-95036371D01*
X114572537Y-94995500D01*
X114572536Y-94995500D01*
X114427464Y-94995500D01*
X114427463Y-94995500D01*
X114288266Y-95036371D01*
X114166226Y-95114802D01*
X114071223Y-95224441D01*
X114010957Y-95356406D01*
X113990311Y-95500000D01*
X113129500Y-95500000D01*
X113129500Y-95459382D01*
X113149502Y-95391261D01*
X113166400Y-95370292D01*
X113481276Y-95055416D01*
X113501457Y-95039029D01*
X113510582Y-95033068D01*
X113530202Y-95007858D01*
X113540553Y-94996141D01*
X113540553Y-94996140D01*
X113540581Y-94996113D01*
X113552811Y-94978982D01*
X113555871Y-94974879D01*
X113588375Y-94933119D01*
X113588376Y-94933114D01*
X113593327Y-94926754D01*
X113593351Y-94926709D01*
X113595651Y-94918981D01*
X113595653Y-94918979D01*
X113610750Y-94868265D01*
X113612305Y-94863409D01*
X113629500Y-94813327D01*
X113629500Y-94813324D01*
X113632113Y-94805714D01*
X113632124Y-94805633D01*
X113631791Y-94797591D01*
X113631792Y-94797590D01*
X113629608Y-94744775D01*
X113629500Y-94739569D01*
X113629500Y-92999999D01*
X116740311Y-92999999D01*
X116760957Y-93143593D01*
X116760957Y-93143594D01*
X116760958Y-93143596D01*
X116791467Y-93210401D01*
X116821223Y-93275558D01*
X116916226Y-93385197D01*
X116982570Y-93427834D01*
X117038268Y-93463629D01*
X117119602Y-93487510D01*
X117177463Y-93504500D01*
X117177464Y-93504500D01*
X117322537Y-93504500D01*
X117363408Y-93492499D01*
X117461732Y-93463629D01*
X117583775Y-93385196D01*
X117678777Y-93275558D01*
X117739042Y-93143596D01*
X117759688Y-93000000D01*
X117739042Y-92856404D01*
X117678777Y-92724442D01*
X117583775Y-92614804D01*
X117583774Y-92614803D01*
X117583773Y-92614802D01*
X117461733Y-92536371D01*
X117322537Y-92495500D01*
X117322536Y-92495500D01*
X117177464Y-92495500D01*
X117177463Y-92495500D01*
X117038266Y-92536371D01*
X116916226Y-92614802D01*
X116821223Y-92724441D01*
X116760957Y-92856406D01*
X116740311Y-92999999D01*
X113629500Y-92999999D01*
X113629500Y-92392116D01*
X113649502Y-92323995D01*
X113703158Y-92277502D01*
X113773432Y-92267398D01*
X113838012Y-92296892D01*
X113850718Y-92309597D01*
X113916225Y-92385196D01*
X114038268Y-92463629D01*
X114108515Y-92484255D01*
X114177463Y-92504500D01*
X114177464Y-92504500D01*
X114322537Y-92504500D01*
X114391485Y-92484255D01*
X114461732Y-92463629D01*
X114583775Y-92385196D01*
X114678777Y-92275558D01*
X114739042Y-92143596D01*
X114759688Y-92000000D01*
X114739042Y-91856404D01*
X114678777Y-91724442D01*
X114678776Y-91724441D01*
X114678776Y-91724440D01*
X114660275Y-91703089D01*
X114630782Y-91638508D01*
X114629499Y-91620576D01*
X114629499Y-90179831D01*
X114629499Y-88302416D01*
X114632181Y-88276572D01*
X114634419Y-88265900D01*
X114630468Y-88234204D01*
X114629500Y-88218618D01*
X114629500Y-88218558D01*
X114628762Y-88214134D01*
X114626040Y-88197823D01*
X114625294Y-88192700D01*
X114619915Y-88149552D01*
X114618752Y-88140218D01*
X114618751Y-88140217D01*
X114617756Y-88132228D01*
X114617732Y-88132155D01*
X114613900Y-88125074D01*
X114613900Y-88125073D01*
X114588746Y-88078593D01*
X114586362Y-88073961D01*
X114559593Y-88019204D01*
X114559545Y-88019140D01*
X114553619Y-88013685D01*
X114553619Y-88013684D01*
X114514713Y-87977868D01*
X114510957Y-87974263D01*
X111755214Y-85218520D01*
X111721188Y-85156208D01*
X111726253Y-85085393D01*
X111768800Y-85028557D01*
X111808812Y-85008529D01*
X111822534Y-85004500D01*
X111822536Y-85004500D01*
X111961732Y-84963629D01*
X112083775Y-84885196D01*
X112178777Y-84775558D01*
X112239042Y-84643596D01*
X112259688Y-84500000D01*
X112239042Y-84356404D01*
X112178777Y-84224442D01*
X112083775Y-84114804D01*
X112083774Y-84114803D01*
X112083773Y-84114802D01*
X111961733Y-84036371D01*
X111822537Y-83995500D01*
X111822536Y-83995500D01*
X111677464Y-83995500D01*
X111677463Y-83995500D01*
X111538266Y-84036371D01*
X111416226Y-84114802D01*
X111321223Y-84224441D01*
X111260957Y-84356406D01*
X111250463Y-84429390D01*
X111220969Y-84493970D01*
X111161242Y-84532353D01*
X111090246Y-84532352D01*
X111052528Y-84513999D01*
X111029033Y-84497223D01*
X111024863Y-84494114D01*
X110999981Y-84474749D01*
X110983119Y-84461625D01*
X110983117Y-84461624D01*
X110976767Y-84456682D01*
X110976692Y-84456643D01*
X110918311Y-84439262D01*
X110913353Y-84437673D01*
X110855722Y-84417888D01*
X110855630Y-84417875D01*
X110794786Y-84420392D01*
X110789579Y-84420500D01*
X91579635Y-84420500D01*
X91511515Y-84400498D01*
X91442904Y-84356404D01*
X91411731Y-84336370D01*
X91272537Y-84295500D01*
X91272536Y-84295500D01*
X91127464Y-84295500D01*
X91127463Y-84295500D01*
X90988266Y-84336371D01*
X90866226Y-84414802D01*
X90771223Y-84524441D01*
X90710957Y-84656406D01*
X90690311Y-84800000D01*
X85389787Y-84800000D01*
X85478258Y-84712322D01*
X85482118Y-84708657D01*
X86144625Y-84105938D01*
X86148648Y-84102433D01*
X86836305Y-83528544D01*
X86840434Y-83525246D01*
X87004255Y-83399999D01*
X93490311Y-83399999D01*
X93510957Y-83543593D01*
X93571223Y-83675558D01*
X93666226Y-83785197D01*
X93788266Y-83863628D01*
X93788268Y-83863629D01*
X93869602Y-83887510D01*
X93927463Y-83904500D01*
X93927464Y-83904500D01*
X94072537Y-83904500D01*
X94113408Y-83892499D01*
X94211732Y-83863629D01*
X94333775Y-83785196D01*
X94428777Y-83675558D01*
X94489042Y-83543596D01*
X94509688Y-83400000D01*
X94489042Y-83256404D01*
X94428777Y-83124442D01*
X94333775Y-83014804D01*
X94333774Y-83014803D01*
X94333773Y-83014802D01*
X94211733Y-82936371D01*
X94072537Y-82895500D01*
X94072536Y-82895500D01*
X93927464Y-82895500D01*
X93927463Y-82895500D01*
X93788266Y-82936371D01*
X93666226Y-83014802D01*
X93571223Y-83124441D01*
X93510957Y-83256406D01*
X93490311Y-83399999D01*
X87004255Y-83399999D01*
X87551978Y-82981246D01*
X87556260Y-82978115D01*
X88290367Y-82465011D01*
X88294782Y-82462062D01*
X89050150Y-81980767D01*
X89054725Y-81977988D01*
X89829915Y-81529416D01*
X89834566Y-81526855D01*
X90628231Y-81111783D01*
X90633015Y-81109410D01*
X91443710Y-80728599D01*
X91448562Y-80726446D01*
X92274717Y-80380630D01*
X92279702Y-80378667D01*
X93119874Y-80068449D01*
X93124955Y-80066696D01*
X93149668Y-80058753D01*
X93977652Y-79792626D01*
X93982708Y-79791120D01*
X94846304Y-79553724D01*
X94851497Y-79552415D01*
X95724481Y-79352107D01*
X95729684Y-79351030D01*
X96610400Y-79188193D01*
X96615669Y-79187335D01*
X97460583Y-79068174D01*
X97470030Y-79068091D01*
X97500409Y-79063829D01*
X97516636Y-79062612D01*
X97596022Y-79061807D01*
X97628280Y-79065669D01*
G37*
%TD.AperFunction*%
%TD*%
M02*
