M48
; DRILL file {KiCad 9.0.1} date 2025-04-26T02:16:23+0200
; FORMAT={-:-/ absolute / inch / decimal}
; #@! TF.CreationDate,2025-04-26T02:16:23+02:00
; #@! TF.GenerationSoftware,Kicad,Pcbnew,9.0.1
; #@! TF.FileFunction,Plated,1,4,PTH
FMAT,2
INCH
; #@! TA.AperFunction,Plated,PTH,ViaDrill
T1C0.0118
; #@! TA.AperFunction,Plated,PTH,ComponentDrill
T2C0.0630
%
G90
G05
T1
X3.2579Y-3.8189
X3.2874Y-3.7008
X3.3386Y-3.5925
X3.4094Y-3.4941
X3.4921Y-3.4094
X3.5906Y-3.3386
X3.7008Y-3.2835
X3.7854Y-4.4154
X3.813Y-4.4154
X3.815Y-3.2559
X3.8406Y-4.4154
X3.8681Y-4.4154
X3.8957Y-4.4154
X3.9232Y-4.4154
X3.9508Y-4.4154
X3.9783Y-4.4154
X4.0059Y-4.2756
X4.0059Y-4.2992
X4.0059Y-4.4154
X4.1102Y-4.3661
X4.3012Y-3.3957
X4.3209Y-3.4154
X4.3346Y-4.5591
X4.3504Y-3.4449
X4.3799Y-3.4646
X4.3858Y-4.5236
X4.3996Y-3.3268
X4.4094Y-3.4941
X4.439Y-3.8583
X4.4764Y-3.815
X4.498Y-3.622
X4.5079Y-3.7598
X4.5433Y-4.1299
X4.5693Y-4.3509
X4.6161Y-3.6614
T2
X3.7008Y-3.937
M30
