%TF.GenerationSoftware,KiCad,Pcbnew,9.0.1*%
%TF.CreationDate,2025-04-26T02:16:23+02:00*%
%TF.ProjectId,view_screen,76696577-5f73-4637-9265-656e2e6b6963,0.1.0*%
%TF.SameCoordinates,Original*%
%TF.FileFunction,Legend,Bot*%
%TF.FilePolarity,Positive*%
%FSLAX46Y46*%
G04 Gerber Fmt 4.6, Leading zero omitted, Abs format (unit mm)*
G04 Created by KiCad (PCBNEW 9.0.1) date 2025-04-26 02:16:23*
%MOMM*%
%LPD*%
G01*
G04 APERTURE LIST*
G04 Aperture macros list*
%AMRoundRect*
0 Rectangle with rounded corners*
0 $1 Rounding radius*
0 $2 $3 $4 $5 $6 $7 $8 $9 X,Y pos of 4 corners*
0 Add a 4 corners polygon primitive as box body*
4,1,4,$2,$3,$4,$5,$6,$7,$8,$9,$2,$3,0*
0 Add four circle primitives for the rounded corners*
1,1,$1+$1,$2,$3*
1,1,$1+$1,$4,$5*
1,1,$1+$1,$6,$7*
1,1,$1+$1,$8,$9*
0 Add four rect primitives between the rounded corners*
20,1,$1+$1,$2,$3,$4,$5,0*
20,1,$1+$1,$4,$5,$6,$7,0*
20,1,$1+$1,$6,$7,$8,$9,0*
20,1,$1+$1,$8,$9,$2,$3,0*%
%AMRotRect*
0 Rectangle, with rotation*
0 The origin of the aperture is its center*
0 $1 length*
0 $2 width*
0 $3 Rotation angle, in degrees counterclockwise*
0 Add horizontal line*
21,1,$1,$2,0,0,$3*%
G04 Aperture macros list end*
%ADD10C,0.120000*%
%ADD11C,0.270000*%
%ADD12C,0.150000*%
%ADD13C,2.400000*%
%ADD14RoundRect,0.087500X0.087500X-0.912500X0.087500X0.912500X-0.087500X0.912500X-0.087500X-0.912500X0*%
%ADD15RoundRect,0.150000X0.583790X-0.163846X-0.433790X0.423654X-0.583790X0.163846X0.433790X-0.423654X0*%
%ADD16RoundRect,0.200000X-0.264360X-0.213866X0.122010X-0.317393X0.264360X0.213866X-0.122010X0.317393X0*%
%ADD17RoundRect,0.200000X0.335876X0.053033X0.053033X0.335876X-0.335876X-0.053033X-0.053033X-0.335876X0*%
%ADD18RoundRect,0.200000X0.264360X0.213866X-0.122010X0.317393X-0.264360X-0.213866X0.122010X-0.317393X0*%
%ADD19RoundRect,0.225000X-0.333843X0.040915X-0.075733X-0.327703X0.333843X-0.040915X0.075733X0.327703X0*%
%ADD20RoundRect,1.000000X-0.469843X0.171019X-0.469850X0.171001X0.469843X-0.171019X0.469850X-0.171001X0*%
%ADD21RoundRect,1.000000X-0.171001X0.469850X-0.171019X0.469843X0.171001X-0.469850X0.171019X-0.469843X0*%
%ADD22RotRect,0.300000X1.800000X135.000000*%
%ADD23RotRect,1.200000X1.075000X135.000000*%
%ADD24RoundRect,1.000000X-0.086814X0.492406X-0.086834X0.492402X0.086814X-0.492406X0.086834X-0.492402X0*%
%ADD25RoundRect,1.000000X-0.433008X0.250009X-0.433018X0.249991X0.433008X-0.250009X0.433018X-0.249991X0*%
%ADD26RoundRect,1.000000X-0.321386X0.383029X-0.321401X0.383016X0.321386X-0.383029X0.321401X-0.383016X0*%
%ADD27RoundRect,1.000000X-0.492402X0.086834X-0.492406X0.086814X0.492402X-0.086834X0.492406X-0.086814X0*%
%ADD28RoundRect,1.000000X-0.249991X0.433018X-0.250009X0.433008X0.249991X-0.433018X0.250009X-0.433008X0*%
%ADD29RoundRect,1.000000X-0.383016X0.321401X-0.383029X0.321386X0.383016X-0.321401X0.383029X-0.321386X0*%
G04 APERTURE END LIST*
D10*
X94557095Y-95598321D02*
G75*
G02*
X93937823Y-103500000I5442905J-4401679D01*
G01*
D11*
X81709034Y-107074270D02*
X81874171Y-106943219D01*
X81874171Y-106943219D02*
X82187402Y-106829213D01*
X82187402Y-106829213D02*
X82335496Y-106846256D01*
X82335496Y-106846256D02*
X82420943Y-106886101D01*
X82420943Y-106886101D02*
X82529192Y-106988592D01*
X82529192Y-106988592D02*
X82574795Y-107113884D01*
X82574795Y-107113884D02*
X82557751Y-107261978D01*
X82557751Y-107261978D02*
X82517906Y-107347426D01*
X82517906Y-107347426D02*
X82415415Y-107455674D01*
X82415415Y-107455674D02*
X82187632Y-107609526D01*
X82187632Y-107609526D02*
X82085141Y-107717775D01*
X82085141Y-107717775D02*
X82045296Y-107803222D01*
X82045296Y-107803222D02*
X82028253Y-107951316D01*
X82028253Y-107951316D02*
X82073855Y-108076608D01*
X82073855Y-108076608D02*
X82182104Y-108179099D01*
X82182104Y-108179099D02*
X82267552Y-108218944D01*
X82267552Y-108218944D02*
X82415646Y-108235988D01*
X82415646Y-108235988D02*
X82728876Y-108121981D01*
X82728876Y-108121981D02*
X82894014Y-107990931D01*
X83001802Y-106532795D02*
X83321021Y-107409842D01*
X83275418Y-107284549D02*
X83360866Y-107324394D01*
X83360866Y-107324394D02*
X83508959Y-107341438D01*
X83508959Y-107341438D02*
X83696898Y-107273034D01*
X83696898Y-107273034D02*
X83799389Y-107164785D01*
X83799389Y-107164785D02*
X83816432Y-107016691D01*
X83816432Y-107016691D02*
X83565618Y-106327583D01*
X83816432Y-107016691D02*
X83924681Y-107119182D01*
X83924681Y-107119182D02*
X84072775Y-107136226D01*
X84072775Y-107136226D02*
X84260713Y-107067822D01*
X84260713Y-107067822D02*
X84363204Y-106959573D01*
X84363204Y-106959573D02*
X84380248Y-106811479D01*
X84380248Y-106811479D02*
X84129433Y-106122371D01*
X85319711Y-105689146D02*
X85570526Y-106378253D01*
X85570526Y-106378253D02*
X85553482Y-106526347D01*
X85553482Y-106526347D02*
X85450991Y-106634596D01*
X85450991Y-106634596D02*
X85200406Y-106725801D01*
X85200406Y-106725801D02*
X85052313Y-106708758D01*
X85342512Y-105751792D02*
X85194418Y-105734748D01*
X85194418Y-105734748D02*
X84881188Y-105848755D01*
X84881188Y-105848755D02*
X84778697Y-105957004D01*
X84778697Y-105957004D02*
X84761653Y-106105098D01*
X84761653Y-106105098D02*
X84807256Y-106230390D01*
X84807256Y-106230390D02*
X84915505Y-106332881D01*
X84915505Y-106332881D02*
X85063598Y-106349924D01*
X85063598Y-106349924D02*
X85376829Y-106235918D01*
X85376829Y-106235918D02*
X85524923Y-106252961D01*
X85946173Y-105461132D02*
X86265392Y-106338178D01*
X86174186Y-106087594D02*
X86282435Y-106190085D01*
X86282435Y-106190085D02*
X86367883Y-106229930D01*
X86367883Y-106229930D02*
X86515976Y-106246973D01*
X86515976Y-106246973D02*
X86641269Y-106201370D01*
X86891854Y-106110165D02*
X87393023Y-105927754D01*
X87239402Y-106480284D02*
X86828977Y-105352653D01*
X86828977Y-105352653D02*
X86846021Y-105204559D01*
X86846021Y-105204559D02*
X86948512Y-105096310D01*
X86948512Y-105096310D02*
X87073804Y-105050708D01*
X87512328Y-104891098D02*
X87991156Y-106206668D01*
X88264082Y-104617482D02*
X87973882Y-105574448D01*
X88742910Y-105933052D02*
X87717540Y-105454914D01*
X89147116Y-105289317D02*
X88827897Y-104412270D01*
X89101513Y-105164024D02*
X89186961Y-105203869D01*
X89186961Y-105203869D02*
X89335055Y-105220913D01*
X89335055Y-105220913D02*
X89522993Y-105152509D01*
X89522993Y-105152509D02*
X89625484Y-105044260D01*
X89625484Y-105044260D02*
X89642528Y-104896166D01*
X89642528Y-104896166D02*
X89391713Y-104207058D01*
X90206113Y-103910640D02*
X90103622Y-104018889D01*
X90103622Y-104018889D02*
X90063778Y-104104337D01*
X90063778Y-104104337D02*
X90046734Y-104252431D01*
X90046734Y-104252431D02*
X90183542Y-104628308D01*
X90183542Y-104628308D02*
X90291791Y-104730799D01*
X90291791Y-104730799D02*
X90377238Y-104770643D01*
X90377238Y-104770643D02*
X90525332Y-104787687D01*
X90525332Y-104787687D02*
X90713271Y-104719283D01*
X90713271Y-104719283D02*
X90815762Y-104611034D01*
X90815762Y-104611034D02*
X90855607Y-104525587D01*
X90855607Y-104525587D02*
X90872650Y-104377493D01*
X90872650Y-104377493D02*
X90735842Y-104001616D01*
X90735842Y-104001616D02*
X90627593Y-103899125D01*
X90627593Y-103899125D02*
X90542146Y-103859280D01*
X90542146Y-103859280D02*
X90394052Y-103842236D01*
X90394052Y-103842236D02*
X90206113Y-103910640D01*
X91208452Y-103545819D02*
X91687281Y-104861389D01*
X91504870Y-104360219D02*
X91652964Y-104377263D01*
X91652964Y-104377263D02*
X91903548Y-104286057D01*
X91903548Y-104286057D02*
X92006039Y-104177808D01*
X92006039Y-104177808D02*
X92045884Y-104092361D01*
X92045884Y-104092361D02*
X92062928Y-103944267D01*
X92062928Y-103944267D02*
X91926120Y-103568390D01*
X91926120Y-103568390D02*
X91817871Y-103465899D01*
X91817871Y-103465899D02*
X91732423Y-103426054D01*
X91732423Y-103426054D02*
X91584330Y-103409011D01*
X91584330Y-103409011D02*
X91333745Y-103500216D01*
X91333745Y-103500216D02*
X91231254Y-103608465D01*
X80977992Y-104870828D02*
X81456820Y-106186398D01*
X81456820Y-106186398D02*
X81770051Y-106072391D01*
X81770051Y-106072391D02*
X81935188Y-105941341D01*
X81935188Y-105941341D02*
X82014878Y-105770446D01*
X82014878Y-105770446D02*
X82031921Y-105622352D01*
X82031921Y-105622352D02*
X82003362Y-105348966D01*
X82003362Y-105348966D02*
X81934958Y-105161028D01*
X81934958Y-105161028D02*
X81781106Y-104933244D01*
X81781106Y-104933244D02*
X81672858Y-104830753D01*
X81672858Y-104830753D02*
X81501963Y-104751064D01*
X81501963Y-104751064D02*
X81291223Y-104756821D01*
X81291223Y-104756821D02*
X80977992Y-104870828D01*
X82817532Y-104272235D02*
X82669439Y-104255192D01*
X82669439Y-104255192D02*
X82418854Y-104346397D01*
X82418854Y-104346397D02*
X82316363Y-104454646D01*
X82316363Y-104454646D02*
X82299319Y-104602740D01*
X82299319Y-104602740D02*
X82481730Y-105103909D01*
X82481730Y-105103909D02*
X82589979Y-105206400D01*
X82589979Y-105206400D02*
X82738073Y-105223444D01*
X82738073Y-105223444D02*
X82988657Y-105132238D01*
X82988657Y-105132238D02*
X83091148Y-105023989D01*
X83091148Y-105023989D02*
X83108192Y-104875896D01*
X83108192Y-104875896D02*
X83062589Y-104750603D01*
X83062589Y-104750603D02*
X82390525Y-104853324D01*
X83615119Y-104904225D02*
X83609131Y-103913172D01*
X83609131Y-103913172D02*
X84241581Y-104676211D01*
X84423532Y-103616754D02*
X84902360Y-104932324D01*
X85175286Y-103343138D02*
X84885086Y-104300104D01*
X85654114Y-104658708D02*
X84628744Y-104180570D01*
X85739101Y-103137926D02*
X86058320Y-104014972D01*
X86217930Y-104453496D02*
X86132482Y-104413651D01*
X86132482Y-104413651D02*
X86172327Y-104328203D01*
X86172327Y-104328203D02*
X86257774Y-104368048D01*
X86257774Y-104368048D02*
X86217930Y-104453496D01*
X86217930Y-104453496D02*
X86172327Y-104328203D01*
X86496844Y-103855363D02*
X86998013Y-103672952D01*
X86844392Y-104225482D02*
X86433968Y-103097851D01*
X86433968Y-103097851D02*
X86451011Y-102949757D01*
X86451011Y-102949757D02*
X86553502Y-102841508D01*
X86553502Y-102841508D02*
X86678794Y-102795906D01*
X88313583Y-103194124D02*
X88307595Y-102203071D01*
X88307595Y-102203071D02*
X88940045Y-102966110D01*
X89851409Y-103131017D02*
X89976701Y-103085415D01*
X89976701Y-103085415D02*
X90079192Y-102977166D01*
X90079192Y-102977166D02*
X90119037Y-102891718D01*
X90119037Y-102891718D02*
X90136080Y-102743625D01*
X90136080Y-102743625D02*
X90107521Y-102470239D01*
X90107521Y-102470239D02*
X89993514Y-102157008D01*
X89993514Y-102157008D02*
X89839663Y-101929224D01*
X89839663Y-101929224D02*
X89731414Y-101826733D01*
X89731414Y-101826733D02*
X89645967Y-101786889D01*
X89645967Y-101786889D02*
X89497873Y-101769845D01*
X89497873Y-101769845D02*
X89372580Y-101815448D01*
X89372580Y-101815448D02*
X89270089Y-101923697D01*
X89270089Y-101923697D02*
X89230245Y-102009144D01*
X89230245Y-102009144D02*
X89213201Y-102157238D01*
X89213201Y-102157238D02*
X89241760Y-102430624D01*
X89241760Y-102430624D02*
X89355767Y-102743855D01*
X89355767Y-102743855D02*
X89509619Y-102971638D01*
X89509619Y-102971638D02*
X89617867Y-103074129D01*
X89617867Y-103074129D02*
X89703315Y-103113974D01*
X89703315Y-103113974D02*
X89851409Y-103131017D01*
X90420522Y-101575919D02*
X90460366Y-101490471D01*
X90460366Y-101490471D02*
X90374919Y-101450626D01*
X90374919Y-101450626D02*
X90335074Y-101536074D01*
X90335074Y-101536074D02*
X90420522Y-101575919D01*
X90420522Y-101575919D02*
X90374919Y-101450626D01*
X91690489Y-100971798D02*
X90938735Y-101245414D01*
X91314612Y-101108606D02*
X91793440Y-102424176D01*
X91793440Y-102424176D02*
X91599744Y-102281840D01*
X91599744Y-102281840D02*
X91428849Y-102202150D01*
X91428849Y-102202150D02*
X91280755Y-102185107D01*
D10*
X96363855Y-108747618D02*
X96363855Y-108290475D01*
X96363855Y-108519047D02*
X95563855Y-108519047D01*
X95563855Y-108519047D02*
X95678140Y-108442856D01*
X95678140Y-108442856D02*
X95754331Y-108366666D01*
X95754331Y-108366666D02*
X95792426Y-108290475D01*
X95640045Y-109052380D02*
X95601950Y-109090476D01*
X95601950Y-109090476D02*
X95563855Y-109166666D01*
X95563855Y-109166666D02*
X95563855Y-109357142D01*
X95563855Y-109357142D02*
X95601950Y-109433333D01*
X95601950Y-109433333D02*
X95640045Y-109471428D01*
X95640045Y-109471428D02*
X95716236Y-109509523D01*
X95716236Y-109509523D02*
X95792426Y-109509523D01*
X95792426Y-109509523D02*
X95906712Y-109471428D01*
X95906712Y-109471428D02*
X96363855Y-109014285D01*
X96363855Y-109014285D02*
X96363855Y-109509523D01*
X104363855Y-109728571D02*
X104363855Y-109271428D01*
X104363855Y-109500000D02*
X103563855Y-109500000D01*
X103563855Y-109500000D02*
X103678140Y-109423809D01*
X103678140Y-109423809D02*
X103754331Y-109347619D01*
X103754331Y-109347619D02*
X103792426Y-109271428D01*
D12*
X84361578Y-93801272D02*
X84019558Y-94740965D01*
X84019558Y-94740965D02*
X84243294Y-94822398D01*
X84243294Y-94822398D02*
X84393823Y-94826511D01*
X84393823Y-94826511D02*
X84515891Y-94769590D01*
X84515891Y-94769590D02*
X84593211Y-94696382D01*
X84593211Y-94696382D02*
X84703105Y-94533680D01*
X84703105Y-94533680D02*
X84751965Y-94399438D01*
X84751965Y-94399438D02*
X84772365Y-94204162D01*
X84772365Y-94204162D02*
X84760191Y-94098381D01*
X84760191Y-94098381D02*
X84703270Y-93976313D01*
X84703270Y-93976313D02*
X84585315Y-93882706D01*
X84585315Y-93882706D02*
X84361578Y-93801272D01*
X85639014Y-93911495D02*
X85150414Y-95253913D01*
X86196216Y-94469026D02*
X85854196Y-95408719D01*
X85854196Y-95408719D02*
X86411727Y-94851516D01*
X86411727Y-94851516D02*
X86480658Y-95636732D01*
X86480658Y-95636732D02*
X86822678Y-94697040D01*
X87107119Y-95864746D02*
X87286109Y-95929892D01*
X87286109Y-95929892D02*
X87391890Y-95917718D01*
X87391890Y-95917718D02*
X87513958Y-95860797D01*
X87513958Y-95860797D02*
X87623852Y-95698095D01*
X87623852Y-95698095D02*
X87737858Y-95384864D01*
X87737858Y-95384864D02*
X87758258Y-95189588D01*
X87758258Y-95189588D02*
X87701337Y-95067520D01*
X87701337Y-95067520D02*
X87628129Y-94990200D01*
X87628129Y-94990200D02*
X87449140Y-94925053D01*
X87449140Y-94925053D02*
X87343358Y-94937227D01*
X87343358Y-94937227D02*
X87221291Y-94994148D01*
X87221291Y-94994148D02*
X87111397Y-95156850D01*
X87111397Y-95156850D02*
X86997390Y-95470081D01*
X86997390Y-95470081D02*
X86976990Y-95665357D01*
X86976990Y-95665357D02*
X87033912Y-95787425D01*
X87033912Y-95787425D02*
X87107119Y-95864746D01*
X88193556Y-95246674D02*
X88344085Y-95250786D01*
X88344085Y-95250786D02*
X88567821Y-95332220D01*
X88567821Y-95332220D02*
X88641029Y-95409540D01*
X88641029Y-95409540D02*
X88669490Y-95470574D01*
X88669490Y-95470574D02*
X88681664Y-95576355D01*
X88681664Y-95576355D02*
X88649090Y-95665850D01*
X88649090Y-95665850D02*
X88571770Y-95739058D01*
X88571770Y-95739058D02*
X88510736Y-95767518D01*
X88510736Y-95767518D02*
X88404955Y-95779692D01*
X88404955Y-95779692D02*
X88209679Y-95759293D01*
X88209679Y-95759293D02*
X88103898Y-95771467D01*
X88103898Y-95771467D02*
X88042864Y-95799927D01*
X88042864Y-95799927D02*
X87965543Y-95873135D01*
X87965543Y-95873135D02*
X87932970Y-95962630D01*
X87932970Y-95962630D02*
X87945144Y-96068411D01*
X87945144Y-96068411D02*
X87973604Y-96129445D01*
X87973604Y-96129445D02*
X88046812Y-96206766D01*
X88046812Y-96206766D02*
X88270548Y-96288199D01*
X88270548Y-96288199D02*
X88421077Y-96292312D01*
X89149536Y-95543946D02*
X88807516Y-96483639D01*
X94152674Y-83871614D02*
X94413261Y-84587571D01*
X94640945Y-84099299D02*
X93924989Y-84359886D01*
X95328770Y-85014479D02*
X93986352Y-85503080D01*
X94287573Y-86052221D02*
X94499300Y-86633935D01*
X94499300Y-86633935D02*
X94743271Y-86190411D01*
X94743271Y-86190411D02*
X94792131Y-86324653D01*
X94792131Y-86324653D02*
X94869452Y-86397861D01*
X94869452Y-86397861D02*
X94930486Y-86426321D01*
X94930486Y-86426321D02*
X95036267Y-86438495D01*
X95036267Y-86438495D02*
X95260003Y-86357062D01*
X95260003Y-86357062D02*
X95333211Y-86279741D01*
X95333211Y-86279741D02*
X95361672Y-86218707D01*
X95361672Y-86218707D02*
X95373846Y-86112926D01*
X95373846Y-86112926D02*
X95276126Y-85844442D01*
X95276126Y-85844442D02*
X95198805Y-85771235D01*
X95198805Y-85771235D02*
X95137771Y-85742774D01*
X94597020Y-86902419D02*
X95650719Y-86873630D01*
X95650719Y-86873630D02*
X94825033Y-87528881D01*
X94906467Y-87752617D02*
X95118193Y-88334332D01*
X95118193Y-88334332D02*
X95362165Y-87890807D01*
X95362165Y-87890807D02*
X95411025Y-88025049D01*
X95411025Y-88025049D02*
X95488346Y-88098257D01*
X95488346Y-88098257D02*
X95549379Y-88126718D01*
X95549379Y-88126718D02*
X95655161Y-88138892D01*
X95655161Y-88138892D02*
X95878897Y-88057458D01*
X95878897Y-88057458D02*
X95952105Y-87980138D01*
X95952105Y-87980138D02*
X95980565Y-87919104D01*
X95980565Y-87919104D02*
X95992739Y-87813322D01*
X95992739Y-87813322D02*
X95895019Y-87544839D01*
X95895019Y-87544839D02*
X95817699Y-87471631D01*
X95817699Y-87471631D02*
X95756665Y-87443170D01*
X96987438Y-83108518D02*
X97119741Y-83858848D01*
X97947210Y-84438247D02*
X96540342Y-84686316D01*
X96896021Y-85880795D02*
X96832588Y-85795273D01*
X96832588Y-85795273D02*
X96807781Y-85654586D01*
X96807781Y-85654586D02*
X96829870Y-85505630D01*
X96829870Y-85505630D02*
X96907123Y-85395301D01*
X96907123Y-85395301D02*
X96992645Y-85331867D01*
X96992645Y-85331867D02*
X97171959Y-85251896D01*
X97171959Y-85251896D02*
X97312646Y-85227089D01*
X97312646Y-85227089D02*
X97508497Y-85240909D01*
X97508497Y-85240909D02*
X97610557Y-85271266D01*
X97610557Y-85271266D02*
X97720886Y-85348520D01*
X97720886Y-85348520D02*
X97792589Y-85480938D01*
X97792589Y-85480938D02*
X97809127Y-85574729D01*
X97809127Y-85574729D02*
X97787038Y-85723685D01*
X97787038Y-85723685D02*
X97748411Y-85778849D01*
X97748411Y-85778849D02*
X97420142Y-85836732D01*
X97420142Y-85836732D02*
X97387066Y-85649149D01*
X97916623Y-86184372D02*
X96931815Y-86358020D01*
X96931815Y-86358020D02*
X98015851Y-86747119D01*
X98015851Y-86747119D02*
X97031043Y-86920767D01*
X98098540Y-87216075D02*
X97113733Y-87389723D01*
X97113733Y-87389723D02*
X97155077Y-87624201D01*
X97155077Y-87624201D02*
X97226780Y-87756619D01*
X97226780Y-87756619D02*
X97337109Y-87833872D01*
X97337109Y-87833872D02*
X97439169Y-87864230D01*
X97439169Y-87864230D02*
X97635021Y-87878050D01*
X97635021Y-87878050D02*
X97775707Y-87853243D01*
X97775707Y-87853243D02*
X97955021Y-87773272D01*
X97955021Y-87773272D02*
X98040543Y-87709838D01*
X98040543Y-87709838D02*
X98117796Y-87599509D01*
X98117796Y-87599509D02*
X98139885Y-87450553D01*
X98139885Y-87450553D02*
X98098540Y-87216075D01*
X86118066Y-91623808D02*
X86100636Y-91558759D01*
X86100636Y-91558759D02*
X86000728Y-91446091D01*
X86000728Y-91446091D02*
X85918249Y-91398472D01*
X85918249Y-91398472D02*
X85770722Y-91368283D01*
X85770722Y-91368283D02*
X85640624Y-91403142D01*
X85640624Y-91403142D02*
X85551766Y-91461811D01*
X85551766Y-91461811D02*
X85415288Y-91602959D01*
X85415288Y-91602959D02*
X85343860Y-91726677D01*
X85343860Y-91726677D02*
X85289861Y-91915444D01*
X85289861Y-91915444D02*
X85283481Y-92021732D01*
X85283481Y-92021732D02*
X85318341Y-92151829D01*
X85318341Y-92151829D02*
X85418249Y-92264497D01*
X85418249Y-92264497D02*
X85500728Y-92312116D01*
X85500728Y-92312116D02*
X85648255Y-92342306D01*
X85648255Y-92342306D02*
X85713304Y-92324876D01*
X86909702Y-91585987D02*
X86195416Y-92823166D01*
X87296576Y-92249235D02*
X87444103Y-92279424D01*
X87444103Y-92279424D02*
X87650300Y-92398472D01*
X87650300Y-92398472D02*
X87708969Y-92487330D01*
X87708969Y-92487330D02*
X87726399Y-92552379D01*
X87726399Y-92552379D02*
X87720019Y-92658667D01*
X87720019Y-92658667D02*
X87672400Y-92741146D01*
X87672400Y-92741146D02*
X87583542Y-92799815D01*
X87583542Y-92799815D02*
X87518493Y-92817245D01*
X87518493Y-92817245D02*
X87412205Y-92810865D01*
X87412205Y-92810865D02*
X87223438Y-92756866D01*
X87223438Y-92756866D02*
X87117150Y-92750486D01*
X87117150Y-92750486D02*
X87052101Y-92767916D01*
X87052101Y-92767916D02*
X86963243Y-92826585D01*
X86963243Y-92826585D02*
X86915624Y-92909064D01*
X86915624Y-92909064D02*
X86909244Y-93015352D01*
X86909244Y-93015352D02*
X86926674Y-93080401D01*
X86926674Y-93080401D02*
X86985343Y-93169259D01*
X86985343Y-93169259D02*
X87191539Y-93288307D01*
X87191539Y-93288307D02*
X87339067Y-93318496D01*
X88633664Y-93076189D02*
X88616234Y-93011140D01*
X88616234Y-93011140D02*
X88516325Y-92898472D01*
X88516325Y-92898472D02*
X88433847Y-92850853D01*
X88433847Y-92850853D02*
X88286319Y-92820664D01*
X88286319Y-92820664D02*
X88156222Y-92855523D01*
X88156222Y-92855523D02*
X88067363Y-92914192D01*
X88067363Y-92914192D02*
X87930886Y-93055340D01*
X87930886Y-93055340D02*
X87859457Y-93179058D01*
X87859457Y-93179058D02*
X87805459Y-93367825D01*
X87805459Y-93367825D02*
X87799079Y-93474113D01*
X87799079Y-93474113D02*
X87833938Y-93604210D01*
X87833938Y-93604210D02*
X87933847Y-93716878D01*
X87933847Y-93716878D02*
X88016325Y-93764497D01*
X88016325Y-93764497D02*
X88163853Y-93794687D01*
X88163853Y-93794687D02*
X88228902Y-93777257D01*
X89052436Y-93207996D02*
X88552436Y-94074021D01*
X89547308Y-93493710D02*
X88890440Y-93774296D01*
X89047308Y-94359735D02*
X88838151Y-93579150D01*
X89388145Y-86759739D02*
X88622100Y-87402526D01*
X88622100Y-87402526D02*
X89383537Y-87198741D01*
X89383537Y-87198741D02*
X89050625Y-87913223D01*
X89050625Y-87913223D02*
X89816670Y-87270435D01*
X90531152Y-87603347D02*
X89436803Y-88521615D01*
X90734938Y-88364784D02*
X89968893Y-89007572D01*
X89968893Y-89007572D02*
X90121938Y-89189963D01*
X90121938Y-89189963D02*
X90250243Y-89268789D01*
X90250243Y-89268789D02*
X90384417Y-89280528D01*
X90384417Y-89280528D02*
X90487983Y-89255789D01*
X90487983Y-89255789D02*
X90664505Y-89169831D01*
X90664505Y-89169831D02*
X90773940Y-89078004D01*
X90773940Y-89078004D02*
X90889244Y-88919090D01*
X90889244Y-88919090D02*
X90931592Y-88821394D01*
X90931592Y-88821394D02*
X90943331Y-88687220D01*
X90943331Y-88687220D02*
X90887982Y-88547176D01*
X90887982Y-88547176D02*
X90734938Y-88364784D01*
X91672076Y-89629786D02*
X91677945Y-89562699D01*
X91677945Y-89562699D02*
X91622597Y-89422655D01*
X91622597Y-89422655D02*
X91561379Y-89349699D01*
X91561379Y-89349699D02*
X91433074Y-89270873D01*
X91433074Y-89270873D02*
X91298899Y-89259134D01*
X91298899Y-89259134D02*
X91195334Y-89283873D01*
X91195334Y-89283873D02*
X91018812Y-89369831D01*
X91018812Y-89369831D02*
X90909377Y-89461658D01*
X90909377Y-89461658D02*
X90794072Y-89620572D01*
X90794072Y-89620572D02*
X90751725Y-89718268D01*
X90751725Y-89718268D02*
X90739986Y-89852442D01*
X90739986Y-89852442D02*
X90795334Y-89992486D01*
X90795334Y-89992486D02*
X90856552Y-90065443D01*
X90856552Y-90065443D02*
X90984857Y-90144269D01*
X90984857Y-90144269D02*
X91051945Y-90150138D01*
X84053944Y-96757058D02*
X83642985Y-97168131D01*
X83491197Y-96657831D02*
X83317548Y-97642638D01*
X83317548Y-97642638D02*
X83692713Y-97708790D01*
X83692713Y-97708790D02*
X83794774Y-97678432D01*
X83794774Y-97678432D02*
X83849938Y-97639806D01*
X83849938Y-97639806D02*
X83913372Y-97554283D01*
X83913372Y-97554283D02*
X83938178Y-97413597D01*
X83938178Y-97413597D02*
X83907821Y-97311536D01*
X83907821Y-97311536D02*
X83869194Y-97256372D01*
X83869194Y-97256372D02*
X83783672Y-97192938D01*
X83783672Y-97192938D02*
X83408507Y-97126787D01*
X84768365Y-96544554D02*
X84520296Y-97951422D01*
X85298151Y-97653396D02*
X85413917Y-96996858D01*
X85314689Y-97559605D02*
X85353316Y-97614770D01*
X85353316Y-97614770D02*
X85438838Y-97678203D01*
X85438838Y-97678203D02*
X85579525Y-97703010D01*
X85579525Y-97703010D02*
X85681585Y-97672653D01*
X85681585Y-97672653D02*
X85745019Y-97587130D01*
X85745019Y-97587130D02*
X85835977Y-97071279D01*
X86867681Y-97253196D02*
X86456722Y-97664269D01*
X86304933Y-97153968D02*
X86131285Y-98138776D01*
X86131285Y-98138776D02*
X86506450Y-98204928D01*
X86506450Y-98204928D02*
X86608510Y-98174570D01*
X86608510Y-98174570D02*
X86663675Y-98135943D01*
X86663675Y-98135943D02*
X86727108Y-98050421D01*
X86727108Y-98050421D02*
X86751915Y-97909734D01*
X86751915Y-97909734D02*
X86721557Y-97807674D01*
X86721557Y-97807674D02*
X86682931Y-97752510D01*
X86682931Y-97752510D02*
X86597408Y-97689076D01*
X86597408Y-97689076D02*
X86222244Y-97622924D01*
X87198782Y-97843468D02*
X87527052Y-97901351D01*
X87758697Y-97410306D02*
X87289741Y-97327616D01*
X87289741Y-97327616D02*
X87116093Y-98312424D01*
X87116093Y-98312424D02*
X87585049Y-98395114D01*
X88125593Y-97523353D02*
X88274549Y-97501265D01*
X88274549Y-97501265D02*
X88509027Y-97542609D01*
X88509027Y-97542609D02*
X88594549Y-97606043D01*
X88594549Y-97606043D02*
X88633176Y-97661207D01*
X88633176Y-97661207D02*
X88663533Y-97763268D01*
X88663533Y-97763268D02*
X88646996Y-97857059D01*
X88646996Y-97857059D02*
X88583562Y-97942581D01*
X88583562Y-97942581D02*
X88528397Y-97981208D01*
X88528397Y-97981208D02*
X88426337Y-98011565D01*
X88426337Y-98011565D02*
X88230486Y-98025385D01*
X88230486Y-98025385D02*
X88128426Y-98055743D01*
X88128426Y-98055743D02*
X88073261Y-98094370D01*
X88073261Y-98094370D02*
X88009828Y-98179892D01*
X88009828Y-98179892D02*
X87993290Y-98273683D01*
X87993290Y-98273683D02*
X88023647Y-98375743D01*
X88023647Y-98375743D02*
X88062274Y-98430908D01*
X88062274Y-98430908D02*
X88147796Y-98494341D01*
X88147796Y-98494341D02*
X88382274Y-98535686D01*
X88382274Y-98535686D02*
X88531230Y-98513597D01*
X89027711Y-98165958D02*
X89355980Y-98223840D01*
X89587626Y-97732796D02*
X89118670Y-97650106D01*
X89118670Y-97650106D02*
X88945022Y-98634914D01*
X88945022Y-98634914D02*
X89413978Y-98717603D01*
X89695351Y-98767217D02*
X90258099Y-98866445D01*
X90150373Y-97832023D02*
X89976725Y-98816831D01*
X91599776Y-85773491D02*
X91712444Y-85873400D01*
X91712444Y-85873400D02*
X91777492Y-85890830D01*
X91777492Y-85890830D02*
X91883781Y-85884450D01*
X91883781Y-85884450D02*
X92007499Y-85813021D01*
X92007499Y-85813021D02*
X92066168Y-85724163D01*
X92066168Y-85724163D02*
X92083597Y-85659114D01*
X92083597Y-85659114D02*
X92077218Y-85552826D01*
X92077218Y-85552826D02*
X91886741Y-85222911D01*
X91886741Y-85222911D02*
X91020716Y-85722911D01*
X91020716Y-85722911D02*
X91187383Y-86011587D01*
X91187383Y-86011587D02*
X91276241Y-86070256D01*
X91276241Y-86070256D02*
X91341290Y-86087685D01*
X91341290Y-86087685D02*
X91447578Y-86081306D01*
X91447578Y-86081306D02*
X91530057Y-86033687D01*
X91530057Y-86033687D02*
X91588726Y-85944828D01*
X91588726Y-85944828D02*
X91606156Y-85879779D01*
X91606156Y-85879779D02*
X91599776Y-85773491D01*
X91599776Y-85773491D02*
X91433109Y-85484816D01*
X92794464Y-86128467D02*
X91557285Y-86842752D01*
X92575966Y-87464303D02*
X92688634Y-87564211D01*
X92688634Y-87564211D02*
X92753683Y-87581641D01*
X92753683Y-87581641D02*
X92859971Y-87575261D01*
X92859971Y-87575261D02*
X92983689Y-87503833D01*
X92983689Y-87503833D02*
X93042358Y-87414974D01*
X93042358Y-87414974D02*
X93059788Y-87349926D01*
X93059788Y-87349926D02*
X93053408Y-87243637D01*
X93053408Y-87243637D02*
X92862932Y-86913723D01*
X92862932Y-86913723D02*
X91996907Y-87413723D01*
X91996907Y-87413723D02*
X92163573Y-87702398D01*
X92163573Y-87702398D02*
X92252432Y-87761067D01*
X92252432Y-87761067D02*
X92317480Y-87778497D01*
X92317480Y-87778497D02*
X92423769Y-87772117D01*
X92423769Y-87772117D02*
X92506247Y-87724498D01*
X92506247Y-87724498D02*
X92564916Y-87635640D01*
X92564916Y-87635640D02*
X92582346Y-87570591D01*
X92582346Y-87570591D02*
X92575966Y-87464303D01*
X92575966Y-87464303D02*
X92409300Y-87175628D01*
X93577218Y-88150902D02*
X93123585Y-88412807D01*
X93123585Y-88412807D02*
X93017297Y-88419187D01*
X93017297Y-88419187D02*
X92928439Y-88360518D01*
X92928439Y-88360518D02*
X92833201Y-88195560D01*
X92833201Y-88195560D02*
X92826821Y-88089272D01*
X93535978Y-88174712D02*
X93529599Y-88068424D01*
X93529599Y-88068424D02*
X93410551Y-87862227D01*
X93410551Y-87862227D02*
X93321693Y-87803558D01*
X93321693Y-87803558D02*
X93215405Y-87809938D01*
X93215405Y-87809938D02*
X93132926Y-87857557D01*
X93132926Y-87857557D02*
X93074257Y-87946415D01*
X93074257Y-87946415D02*
X93080637Y-88052703D01*
X93080637Y-88052703D02*
X93199684Y-88258900D01*
X93199684Y-88258900D02*
X93206064Y-88365188D01*
X93988359Y-88958259D02*
X93981980Y-88851970D01*
X93981980Y-88851970D02*
X93886742Y-88687013D01*
X93886742Y-88687013D02*
X93797883Y-88628344D01*
X93797883Y-88628344D02*
X93732834Y-88610914D01*
X93732834Y-88610914D02*
X93626546Y-88617294D01*
X93626546Y-88617294D02*
X93379110Y-88760151D01*
X93379110Y-88760151D02*
X93320441Y-88849010D01*
X93320441Y-88849010D02*
X93303012Y-88914058D01*
X93303012Y-88914058D02*
X93309391Y-89020347D01*
X93309391Y-89020347D02*
X93404629Y-89185304D01*
X93404629Y-89185304D02*
X93493488Y-89243973D01*
X94243884Y-89305603D02*
X93377859Y-89805603D01*
X93961589Y-89578558D02*
X94434361Y-89635517D01*
X93857010Y-89968851D02*
X93996449Y-89448460D01*
X94720075Y-90130389D02*
X94631217Y-90071720D01*
X94631217Y-90071720D02*
X94524929Y-90078100D01*
X94524929Y-90078100D02*
X93782621Y-90506671D01*
X94910551Y-90460304D02*
X94333201Y-90793637D01*
X94044526Y-90960304D02*
X94061956Y-90895255D01*
X94061956Y-90895255D02*
X94127005Y-90912685D01*
X94127005Y-90912685D02*
X94109575Y-90977734D01*
X94109575Y-90977734D02*
X94044526Y-90960304D01*
X94044526Y-90960304D02*
X94127005Y-90912685D01*
X94785582Y-91577184D02*
X95486650Y-91172422D01*
X95486650Y-91172422D02*
X95545319Y-91083563D01*
X95545319Y-91083563D02*
X95562749Y-91018515D01*
X95562749Y-91018515D02*
X95556369Y-90912226D01*
X95556369Y-90912226D02*
X95484941Y-90788509D01*
X95484941Y-90788509D02*
X95396082Y-90729839D01*
X95321693Y-91267660D02*
X95315313Y-91161372D01*
X95315313Y-91161372D02*
X95220075Y-90996415D01*
X95220075Y-90996415D02*
X95131217Y-90937745D01*
X95131217Y-90937745D02*
X95066168Y-90920316D01*
X95066168Y-90920316D02*
X94959880Y-90926695D01*
X94959880Y-90926695D02*
X94712444Y-91069553D01*
X94712444Y-91069553D02*
X94653775Y-91158411D01*
X94653775Y-91158411D02*
X94636345Y-91223460D01*
X94636345Y-91223460D02*
X94642725Y-91329748D01*
X94642725Y-91329748D02*
X94737963Y-91494705D01*
X94737963Y-91494705D02*
X94826821Y-91553374D01*
X95601027Y-91656244D02*
X94735002Y-92156244D01*
X95815313Y-92027397D02*
X95361681Y-92289302D01*
X95361681Y-92289302D02*
X95255393Y-92295682D01*
X95255393Y-92295682D02*
X95166534Y-92237013D01*
X95166534Y-92237013D02*
X95095106Y-92113295D01*
X95095106Y-92113295D02*
X95088726Y-92007007D01*
X95088726Y-92007007D02*
X95106156Y-91941958D01*
X95404630Y-92649406D02*
X95595106Y-92979320D01*
X95187383Y-92939790D02*
X95929691Y-92511219D01*
X95929691Y-92511219D02*
X96035979Y-92504839D01*
X96035979Y-92504839D02*
X96124837Y-92563508D01*
X96124837Y-92563508D02*
X96172456Y-92645987D01*
X87448237Y-88950700D02*
X87588281Y-89006049D01*
X87588281Y-89006049D02*
X87770672Y-89159094D01*
X87770672Y-89159094D02*
X87813020Y-89256790D01*
X87813020Y-89256790D02*
X87818889Y-89323877D01*
X87818889Y-89323877D02*
X87794150Y-89427443D01*
X87794150Y-89427443D02*
X87732932Y-89500399D01*
X87732932Y-89500399D02*
X87635236Y-89542747D01*
X87635236Y-89542747D02*
X87568148Y-89548616D01*
X87568148Y-89548616D02*
X87464583Y-89523877D01*
X87464583Y-89523877D02*
X87288061Y-89437919D01*
X87288061Y-89437919D02*
X87184495Y-89413180D01*
X87184495Y-89413180D02*
X87117408Y-89419049D01*
X87117408Y-89419049D02*
X87019712Y-89461397D01*
X87019712Y-89461397D02*
X86958494Y-89534353D01*
X86958494Y-89534353D02*
X86933754Y-89637919D01*
X86933754Y-89637919D02*
X86939624Y-89705006D01*
X86939624Y-89705006D02*
X86981971Y-89802702D01*
X86981971Y-89802702D02*
X87164363Y-89955747D01*
X87164363Y-89955747D02*
X87304407Y-90011096D01*
X88641544Y-89454706D02*
X87723276Y-90549056D01*
X88545931Y-90679885D02*
X88974456Y-90169189D01*
X88607149Y-90606928D02*
X88613019Y-90674015D01*
X88613019Y-90674015D02*
X88655366Y-90771712D01*
X88655366Y-90771712D02*
X88764801Y-90863538D01*
X88764801Y-90863538D02*
X88868367Y-90888278D01*
X88868367Y-90888278D02*
X88966063Y-90845930D01*
X88966063Y-90845930D02*
X89302761Y-90444669D01*
X90044066Y-91191022D02*
X90038197Y-91123935D01*
X90038197Y-91123935D02*
X89959371Y-90995630D01*
X89959371Y-90995630D02*
X89886414Y-90934412D01*
X89886414Y-90934412D02*
X89746370Y-90879063D01*
X89746370Y-90879063D02*
X89612196Y-90890802D01*
X89612196Y-90890802D02*
X89514500Y-90933150D01*
X89514500Y-90933150D02*
X89355586Y-91048454D01*
X89355586Y-91048454D02*
X89263759Y-91157889D01*
X89263759Y-91157889D02*
X89177801Y-91334411D01*
X89177801Y-91334411D02*
X89153062Y-91437977D01*
X89153062Y-91437977D02*
X89164801Y-91572151D01*
X89164801Y-91572151D02*
X89243627Y-91700456D01*
X89243627Y-91700456D02*
X89316583Y-91761674D01*
X89316583Y-91761674D02*
X89456627Y-91817023D01*
X89456627Y-91817023D02*
X89523714Y-91811153D01*
X90366501Y-91399415D02*
X90506545Y-91454764D01*
X90506545Y-91454764D02*
X90688937Y-91607808D01*
X90688937Y-91607808D02*
X90731285Y-91705505D01*
X90731285Y-91705505D02*
X90737154Y-91772592D01*
X90737154Y-91772592D02*
X90712414Y-91876157D01*
X90712414Y-91876157D02*
X90651196Y-91949114D01*
X90651196Y-91949114D02*
X90553500Y-91991462D01*
X90553500Y-91991462D02*
X90486413Y-91997331D01*
X90486413Y-91997331D02*
X90382848Y-91972592D01*
X90382848Y-91972592D02*
X90206325Y-91886634D01*
X90206325Y-91886634D02*
X90102760Y-91861895D01*
X90102760Y-91861895D02*
X90035673Y-91867764D01*
X90035673Y-91867764D02*
X89937976Y-91910112D01*
X89937976Y-91910112D02*
X89876759Y-91983068D01*
X89876759Y-91983068D02*
X89852019Y-92086634D01*
X89852019Y-92086634D02*
X89857888Y-92153721D01*
X89857888Y-92153721D02*
X89900236Y-92251417D01*
X89900236Y-92251417D02*
X90082628Y-92404462D01*
X90082628Y-92404462D02*
X90222671Y-92459810D01*
%TO.C,J2*%
X94300000Y-110900000D02*
X94300000Y-117400000D01*
X94300000Y-110900000D02*
X95500000Y-110900000D01*
X105700000Y-110900000D02*
X104500000Y-110900000D01*
X105700000Y-110900000D02*
X105700000Y-113900000D01*
X106400000Y-115400000D02*
X105700000Y-113900000D01*
X106400000Y-117400000D02*
X106400000Y-115400000D01*
%TD*%
%LPC*%
D13*
%TO.C,H1*%
X94000000Y-100000000D03*
%TD*%
D14*
%TO.C,J2*%
X103850000Y-110900000D03*
X103150000Y-110900000D03*
X102450000Y-110900000D03*
X101750000Y-110900000D03*
X101050000Y-110900000D03*
X100350000Y-110900000D03*
X99650000Y-110900000D03*
X98950000Y-110900000D03*
X98250000Y-110900000D03*
X97550000Y-110900000D03*
X96850000Y-110900000D03*
X96150000Y-110900000D03*
%TD*%
D15*
%TO.C,Q1*%
X116286491Y-108416385D03*
X115336491Y-110061833D03*
X114187693Y-108301609D03*
%TD*%
D16*
%TO.C,R1*%
X116311487Y-103532587D03*
X117905265Y-103959639D03*
%TD*%
D17*
%TO.C,R2*%
X112883363Y-112883363D03*
X111716637Y-111716637D03*
%TD*%
D18*
%TO.C,R3*%
X117504167Y-105489058D03*
X115910389Y-105062006D03*
%TD*%
D19*
%TO.C,C2*%
X108855478Y-114065157D03*
X109744522Y-115334843D03*
%TD*%
%TO.C,C1*%
X110155478Y-113165157D03*
X111044522Y-114434843D03*
%TD*%
D20*
%TO.C,TP3*%
X82100000Y-93500000D03*
%TD*%
D21*
%TO.C,TP6*%
X93500000Y-82000000D03*
%TD*%
D22*
%TO.C,J6*%
X114860660Y-87610660D03*
X114507107Y-87257106D03*
X114153553Y-86903553D03*
X113800000Y-86550000D03*
X113446446Y-86196446D03*
X113092893Y-85842893D03*
X112739340Y-85489339D03*
X112385786Y-85135786D03*
D23*
X114613173Y-89590559D03*
X110405887Y-85383273D03*
%TD*%
D24*
%TO.C,TP5*%
X96600000Y-81200000D03*
%TD*%
D25*
%TO.C,TP2*%
X83500000Y-90500000D03*
%TD*%
D26*
%TO.C,TP8*%
X87750000Y-85500000D03*
%TD*%
D27*
%TO.C,TP4*%
X81250000Y-96750000D03*
%TD*%
D28*
%TO.C,TP7*%
X90500000Y-83500000D03*
%TD*%
D29*
%TO.C,TP1*%
X85500000Y-87750000D03*
%TD*%
%LPD*%
M02*
