%TF.GenerationSoftware,KiCad,Pcbnew,9.0.1*%
%TF.CreationDate,2025-04-25T15:08:37+02:00*%
%TF.ProjectId,view_base,76696577-5f62-4617-9365-2e6b69636164,0.1.0*%
%TF.SameCoordinates,Original*%
%TF.FileFunction,Legend,Bot*%
%TF.FilePolarity,Positive*%
%FSLAX46Y46*%
G04 Gerber Fmt 4.6, Leading zero omitted, Abs format (unit mm)*
G04 Created by KiCad (PCBNEW 9.0.1) date 2025-04-25 15:08:37*
%MOMM*%
%LPD*%
G01*
G04 APERTURE LIST*
G04 Aperture macros list*
%AMRoundRect*
0 Rectangle with rounded corners*
0 $1 Rounding radius*
0 $2 $3 $4 $5 $6 $7 $8 $9 X,Y pos of 4 corners*
0 Add a 4 corners polygon primitive as box body*
4,1,4,$2,$3,$4,$5,$6,$7,$8,$9,$2,$3,0*
0 Add four circle primitives for the rounded corners*
1,1,$1+$1,$2,$3*
1,1,$1+$1,$4,$5*
1,1,$1+$1,$6,$7*
1,1,$1+$1,$8,$9*
0 Add four rect primitives between the rounded corners*
20,1,$1+$1,$2,$3,$4,$5,0*
20,1,$1+$1,$4,$5,$6,$7,0*
20,1,$1+$1,$6,$7,$8,$9,0*
20,1,$1+$1,$8,$9,$2,$3,0*%
%AMHorizOval*
0 Thick line with rounded ends*
0 $1 width*
0 $2 $3 position (X,Y) of the first rounded end (center of the circle)*
0 $4 $5 position (X,Y) of the second rounded end (center of the circle)*
0 Add line between two ends*
20,1,$1,$2,$3,$4,$5,0*
0 Add two circle primitives to create the rounded ends*
1,1,$1,$2,$3*
1,1,$1,$4,$5*%
%AMRotRect*
0 Rectangle, with rotation*
0 The origin of the aperture is its center*
0 $1 length*
0 $2 width*
0 $3 Rotation angle, in degrees counterclockwise*
0 Add horizontal line*
21,1,$1,$2,0,0,$3*%
G04 Aperture macros list end*
%ADD10C,0.120000*%
%ADD11C,1.000000*%
%ADD12C,0.150000*%
%ADD13C,0.300000*%
%ADD14C,2.400000*%
%ADD15C,3.500000*%
%ADD16O,1.000000X1.800000*%
%ADD17O,1.000000X2.200000*%
%ADD18O,2.500000X1.250000*%
%ADD19HorizOval,1.250000X-0.441942X0.441942X0.441942X-0.441942X0*%
%ADD20R,0.700000X1.600000*%
%ADD21RotRect,2.100000X2.999999X45.000000*%
%ADD22RotRect,0.800000X1.600000X45.000000*%
%ADD23C,2.000000*%
%ADD24RoundRect,0.250000X0.362500X1.425000X-0.362500X1.425000X-0.362500X-1.425000X0.362500X-1.425000X0*%
%ADD25R,0.650000X1.050000*%
%ADD26RoundRect,0.150000X-0.150000X-0.625000X0.150000X-0.625000X0.150000X0.625000X-0.150000X0.625000X0*%
%ADD27RoundRect,0.250000X-0.350000X-0.650000X0.350000X-0.650000X0.350000X0.650000X-0.350000X0.650000X0*%
%ADD28RoundRect,0.250000X-0.362500X-1.425000X0.362500X-1.425000X0.362500X1.425000X-0.362500X1.425000X0*%
%ADD29RotRect,0.300000X1.800000X315.000000*%
%ADD30RotRect,1.200000X1.075000X315.000000*%
G04 APERTURE END LIST*
D10*
X124000000Y-96300000D02*
X124000000Y-94500000D01*
X124000000Y-103700000D02*
X124000000Y-105500000D01*
X126000000Y-96300000D02*
X126000000Y-94500000D01*
X128000000Y-105500000D02*
X128000000Y-103700000D01*
X124000000Y-105500000D02*
X128000000Y-105500000D01*
X124000000Y-94500000D02*
X128000000Y-94500000D01*
X128000000Y-94500000D02*
X128000000Y-96300000D01*
X126000000Y-105500000D02*
X126000000Y-103700000D01*
D11*
X136000000Y-94000000D02*
X136000000Y-92500000D01*
X142000000Y-93500000D02*
X131000000Y-82500000D01*
D10*
X164000000Y-96300000D02*
X164000000Y-94500000D01*
X164000000Y-94500000D02*
X168000000Y-94500000D01*
D11*
X134000000Y-96000000D02*
X136000000Y-94000000D01*
D10*
X168000000Y-94500000D02*
X168000000Y-96300000D01*
D11*
X136000000Y-92500000D02*
X128500000Y-85000000D01*
X158000000Y-96000000D02*
X155500000Y-93500000D01*
X154750000Y-103000000D02*
X154750000Y-108750000D01*
D10*
X166000000Y-96300000D02*
X166000000Y-94500000D01*
D11*
X154750000Y-108750000D02*
X159500000Y-113500000D01*
D10*
X164000000Y-103700000D02*
X164000000Y-105500000D01*
X168000000Y-105500000D02*
X168000000Y-103700000D01*
D11*
X131000000Y-82500000D02*
X131000000Y-80000000D01*
D10*
X166000000Y-105500000D02*
X166000000Y-103700000D01*
D11*
X143250000Y-102750000D02*
X131000000Y-115000000D01*
X128500000Y-85000000D02*
X126000000Y-85000000D01*
D10*
X164000000Y-105500000D02*
X168000000Y-105500000D01*
D12*
X124928571Y-95431009D02*
X124785714Y-95478628D01*
X124785714Y-95478628D02*
X124738095Y-95526247D01*
X124738095Y-95526247D02*
X124690476Y-95621485D01*
X124690476Y-95621485D02*
X124690476Y-95764342D01*
X124690476Y-95764342D02*
X124738095Y-95859580D01*
X124738095Y-95859580D02*
X124785714Y-95907200D01*
X124785714Y-95907200D02*
X124880952Y-95954819D01*
X124880952Y-95954819D02*
X125261904Y-95954819D01*
X125261904Y-95954819D02*
X125261904Y-94954819D01*
X125261904Y-94954819D02*
X124928571Y-94954819D01*
X124928571Y-94954819D02*
X124833333Y-95002438D01*
X124833333Y-95002438D02*
X124785714Y-95050057D01*
X124785714Y-95050057D02*
X124738095Y-95145295D01*
X124738095Y-95145295D02*
X124738095Y-95240533D01*
X124738095Y-95240533D02*
X124785714Y-95335771D01*
X124785714Y-95335771D02*
X124833333Y-95383390D01*
X124833333Y-95383390D02*
X124928571Y-95431009D01*
X124928571Y-95431009D02*
X125261904Y-95431009D01*
X126928571Y-95431009D02*
X126785714Y-95478628D01*
X126785714Y-95478628D02*
X126738095Y-95526247D01*
X126738095Y-95526247D02*
X126690476Y-95621485D01*
X126690476Y-95621485D02*
X126690476Y-95764342D01*
X126690476Y-95764342D02*
X126738095Y-95859580D01*
X126738095Y-95859580D02*
X126785714Y-95907200D01*
X126785714Y-95907200D02*
X126880952Y-95954819D01*
X126880952Y-95954819D02*
X127261904Y-95954819D01*
X127261904Y-95954819D02*
X127261904Y-94954819D01*
X127261904Y-94954819D02*
X126928571Y-94954819D01*
X126928571Y-94954819D02*
X126833333Y-95002438D01*
X126833333Y-95002438D02*
X126785714Y-95050057D01*
X126785714Y-95050057D02*
X126738095Y-95145295D01*
X126738095Y-95145295D02*
X126738095Y-95240533D01*
X126738095Y-95240533D02*
X126785714Y-95335771D01*
X126785714Y-95335771D02*
X126833333Y-95383390D01*
X126833333Y-95383390D02*
X126928571Y-95431009D01*
X126928571Y-95431009D02*
X127261904Y-95431009D01*
X125380951Y-104573866D02*
X124619047Y-104573866D01*
X127380951Y-104573866D02*
X126619047Y-104573866D01*
X126999999Y-104954819D02*
X126999999Y-104192914D01*
D13*
X174666666Y-112909638D02*
X174666666Y-110909638D01*
X174666666Y-110909638D02*
X173999999Y-112338209D01*
X173999999Y-112338209D02*
X173333333Y-110909638D01*
X173333333Y-110909638D02*
X173333333Y-112909638D01*
X172095238Y-112909638D02*
X172285714Y-112814400D01*
X172285714Y-112814400D02*
X172380952Y-112719161D01*
X172380952Y-112719161D02*
X172476190Y-112528685D01*
X172476190Y-112528685D02*
X172476190Y-111957257D01*
X172476190Y-111957257D02*
X172380952Y-111766780D01*
X172380952Y-111766780D02*
X172285714Y-111671542D01*
X172285714Y-111671542D02*
X172095238Y-111576304D01*
X172095238Y-111576304D02*
X171809523Y-111576304D01*
X171809523Y-111576304D02*
X171619047Y-111671542D01*
X171619047Y-111671542D02*
X171523809Y-111766780D01*
X171523809Y-111766780D02*
X171428571Y-111957257D01*
X171428571Y-111957257D02*
X171428571Y-112528685D01*
X171428571Y-112528685D02*
X171523809Y-112719161D01*
X171523809Y-112719161D02*
X171619047Y-112814400D01*
X171619047Y-112814400D02*
X171809523Y-112909638D01*
X171809523Y-112909638D02*
X172095238Y-112909638D01*
X170857142Y-111576304D02*
X170095238Y-111576304D01*
X170571428Y-110909638D02*
X170571428Y-112623923D01*
X170571428Y-112623923D02*
X170476190Y-112814400D01*
X170476190Y-112814400D02*
X170285714Y-112909638D01*
X170285714Y-112909638D02*
X170095238Y-112909638D01*
X169142857Y-112909638D02*
X169333333Y-112814400D01*
X169333333Y-112814400D02*
X169428571Y-112719161D01*
X169428571Y-112719161D02*
X169523809Y-112528685D01*
X169523809Y-112528685D02*
X169523809Y-111957257D01*
X169523809Y-111957257D02*
X169428571Y-111766780D01*
X169428571Y-111766780D02*
X169333333Y-111671542D01*
X169333333Y-111671542D02*
X169142857Y-111576304D01*
X169142857Y-111576304D02*
X168857142Y-111576304D01*
X168857142Y-111576304D02*
X168666666Y-111671542D01*
X168666666Y-111671542D02*
X168571428Y-111766780D01*
X168571428Y-111766780D02*
X168476190Y-111957257D01*
X168476190Y-111957257D02*
X168476190Y-112528685D01*
X168476190Y-112528685D02*
X168571428Y-112719161D01*
X168571428Y-112719161D02*
X168666666Y-112814400D01*
X168666666Y-112814400D02*
X168857142Y-112909638D01*
X168857142Y-112909638D02*
X169142857Y-112909638D01*
X167619047Y-112909638D02*
X167619047Y-111576304D01*
X167619047Y-111957257D02*
X167523809Y-111766780D01*
X167523809Y-111766780D02*
X167428571Y-111671542D01*
X167428571Y-111671542D02*
X167238095Y-111576304D01*
X167238095Y-111576304D02*
X167047618Y-111576304D01*
X134904762Y-122909638D02*
X134904762Y-120909638D01*
X134904762Y-120909638D02*
X134428572Y-120909638D01*
X134428572Y-120909638D02*
X134142857Y-121004876D01*
X134142857Y-121004876D02*
X133952381Y-121195352D01*
X133952381Y-121195352D02*
X133857143Y-121385828D01*
X133857143Y-121385828D02*
X133761905Y-121766780D01*
X133761905Y-121766780D02*
X133761905Y-122052495D01*
X133761905Y-122052495D02*
X133857143Y-122433447D01*
X133857143Y-122433447D02*
X133952381Y-122623923D01*
X133952381Y-122623923D02*
X134142857Y-122814400D01*
X134142857Y-122814400D02*
X134428572Y-122909638D01*
X134428572Y-122909638D02*
X134904762Y-122909638D01*
X132904762Y-122909638D02*
X132904762Y-121576304D01*
X132904762Y-120909638D02*
X133000000Y-121004876D01*
X133000000Y-121004876D02*
X132904762Y-121100114D01*
X132904762Y-121100114D02*
X132809524Y-121004876D01*
X132809524Y-121004876D02*
X132904762Y-120909638D01*
X132904762Y-120909638D02*
X132904762Y-121100114D01*
X132047619Y-122814400D02*
X131857143Y-122909638D01*
X131857143Y-122909638D02*
X131476191Y-122909638D01*
X131476191Y-122909638D02*
X131285714Y-122814400D01*
X131285714Y-122814400D02*
X131190476Y-122623923D01*
X131190476Y-122623923D02*
X131190476Y-122528685D01*
X131190476Y-122528685D02*
X131285714Y-122338209D01*
X131285714Y-122338209D02*
X131476191Y-122242971D01*
X131476191Y-122242971D02*
X131761905Y-122242971D01*
X131761905Y-122242971D02*
X131952381Y-122147733D01*
X131952381Y-122147733D02*
X132047619Y-121957257D01*
X132047619Y-121957257D02*
X132047619Y-121862019D01*
X132047619Y-121862019D02*
X131952381Y-121671542D01*
X131952381Y-121671542D02*
X131761905Y-121576304D01*
X131761905Y-121576304D02*
X131476191Y-121576304D01*
X131476191Y-121576304D02*
X131285714Y-121671542D01*
X130333333Y-121576304D02*
X130333333Y-123576304D01*
X130333333Y-121671542D02*
X130142857Y-121576304D01*
X130142857Y-121576304D02*
X129761904Y-121576304D01*
X129761904Y-121576304D02*
X129571428Y-121671542D01*
X129571428Y-121671542D02*
X129476190Y-121766780D01*
X129476190Y-121766780D02*
X129380952Y-121957257D01*
X129380952Y-121957257D02*
X129380952Y-122528685D01*
X129380952Y-122528685D02*
X129476190Y-122719161D01*
X129476190Y-122719161D02*
X129571428Y-122814400D01*
X129571428Y-122814400D02*
X129761904Y-122909638D01*
X129761904Y-122909638D02*
X130142857Y-122909638D01*
X130142857Y-122909638D02*
X130333333Y-122814400D01*
X128238095Y-122909638D02*
X128428571Y-122814400D01*
X128428571Y-122814400D02*
X128523809Y-122623923D01*
X128523809Y-122623923D02*
X128523809Y-120909638D01*
X126619047Y-122909638D02*
X126619047Y-121862019D01*
X126619047Y-121862019D02*
X126714285Y-121671542D01*
X126714285Y-121671542D02*
X126904761Y-121576304D01*
X126904761Y-121576304D02*
X127285714Y-121576304D01*
X127285714Y-121576304D02*
X127476190Y-121671542D01*
X126619047Y-122814400D02*
X126809523Y-122909638D01*
X126809523Y-122909638D02*
X127285714Y-122909638D01*
X127285714Y-122909638D02*
X127476190Y-122814400D01*
X127476190Y-122814400D02*
X127571428Y-122623923D01*
X127571428Y-122623923D02*
X127571428Y-122433447D01*
X127571428Y-122433447D02*
X127476190Y-122242971D01*
X127476190Y-122242971D02*
X127285714Y-122147733D01*
X127285714Y-122147733D02*
X126809523Y-122147733D01*
X126809523Y-122147733D02*
X126619047Y-122052495D01*
X125857142Y-121576304D02*
X125380952Y-122909638D01*
X124904761Y-121576304D02*
X125380952Y-122909638D01*
X125380952Y-122909638D02*
X125571428Y-123385828D01*
X125571428Y-123385828D02*
X125666666Y-123481066D01*
X125666666Y-123481066D02*
X125857142Y-123576304D01*
D12*
X164263220Y-67569819D02*
X164263220Y-66569819D01*
X164263220Y-66569819D02*
X164025125Y-66569819D01*
X164025125Y-66569819D02*
X163882268Y-66617438D01*
X163882268Y-66617438D02*
X163787030Y-66712676D01*
X163787030Y-66712676D02*
X163739411Y-66807914D01*
X163739411Y-66807914D02*
X163691792Y-66998390D01*
X163691792Y-66998390D02*
X163691792Y-67141247D01*
X163691792Y-67141247D02*
X163739411Y-67331723D01*
X163739411Y-67331723D02*
X163787030Y-67426961D01*
X163787030Y-67426961D02*
X163882268Y-67522200D01*
X163882268Y-67522200D02*
X164025125Y-67569819D01*
X164025125Y-67569819D02*
X164263220Y-67569819D01*
X110785713Y-131407200D02*
X110642856Y-131454819D01*
X110642856Y-131454819D02*
X110404761Y-131454819D01*
X110404761Y-131454819D02*
X110309523Y-131407200D01*
X110309523Y-131407200D02*
X110261904Y-131359580D01*
X110261904Y-131359580D02*
X110214285Y-131264342D01*
X110214285Y-131264342D02*
X110214285Y-131169104D01*
X110214285Y-131169104D02*
X110261904Y-131073866D01*
X110261904Y-131073866D02*
X110309523Y-131026247D01*
X110309523Y-131026247D02*
X110404761Y-130978628D01*
X110404761Y-130978628D02*
X110595237Y-130931009D01*
X110595237Y-130931009D02*
X110690475Y-130883390D01*
X110690475Y-130883390D02*
X110738094Y-130835771D01*
X110738094Y-130835771D02*
X110785713Y-130740533D01*
X110785713Y-130740533D02*
X110785713Y-130645295D01*
X110785713Y-130645295D02*
X110738094Y-130550057D01*
X110738094Y-130550057D02*
X110690475Y-130502438D01*
X110690475Y-130502438D02*
X110595237Y-130454819D01*
X110595237Y-130454819D02*
X110357142Y-130454819D01*
X110357142Y-130454819D02*
X110214285Y-130502438D01*
X110190476Y-125359580D02*
X110238095Y-125407200D01*
X110238095Y-125407200D02*
X110380952Y-125454819D01*
X110380952Y-125454819D02*
X110476190Y-125454819D01*
X110476190Y-125454819D02*
X110619047Y-125407200D01*
X110619047Y-125407200D02*
X110714285Y-125311961D01*
X110714285Y-125311961D02*
X110761904Y-125216723D01*
X110761904Y-125216723D02*
X110809523Y-125026247D01*
X110809523Y-125026247D02*
X110809523Y-124883390D01*
X110809523Y-124883390D02*
X110761904Y-124692914D01*
X110761904Y-124692914D02*
X110714285Y-124597676D01*
X110714285Y-124597676D02*
X110619047Y-124502438D01*
X110619047Y-124502438D02*
X110476190Y-124454819D01*
X110476190Y-124454819D02*
X110380952Y-124454819D01*
X110380952Y-124454819D02*
X110238095Y-124502438D01*
X110238095Y-124502438D02*
X110190476Y-124550057D01*
X169539411Y-66617438D02*
X169634649Y-66569819D01*
X169634649Y-66569819D02*
X169777506Y-66569819D01*
X169777506Y-66569819D02*
X169920363Y-66617438D01*
X169920363Y-66617438D02*
X170015601Y-66712676D01*
X170015601Y-66712676D02*
X170063220Y-66807914D01*
X170063220Y-66807914D02*
X170110839Y-66998390D01*
X170110839Y-66998390D02*
X170110839Y-67141247D01*
X170110839Y-67141247D02*
X170063220Y-67331723D01*
X170063220Y-67331723D02*
X170015601Y-67426961D01*
X170015601Y-67426961D02*
X169920363Y-67522200D01*
X169920363Y-67522200D02*
X169777506Y-67569819D01*
X169777506Y-67569819D02*
X169682268Y-67569819D01*
X169682268Y-67569819D02*
X169539411Y-67522200D01*
X169539411Y-67522200D02*
X169491792Y-67474580D01*
X169491792Y-67474580D02*
X169491792Y-67141247D01*
X169491792Y-67141247D02*
X169682268Y-67141247D01*
X161739411Y-66617438D02*
X161834649Y-66569819D01*
X161834649Y-66569819D02*
X161977506Y-66569819D01*
X161977506Y-66569819D02*
X162120363Y-66617438D01*
X162120363Y-66617438D02*
X162215601Y-66712676D01*
X162215601Y-66712676D02*
X162263220Y-66807914D01*
X162263220Y-66807914D02*
X162310839Y-66998390D01*
X162310839Y-66998390D02*
X162310839Y-67141247D01*
X162310839Y-67141247D02*
X162263220Y-67331723D01*
X162263220Y-67331723D02*
X162215601Y-67426961D01*
X162215601Y-67426961D02*
X162120363Y-67522200D01*
X162120363Y-67522200D02*
X161977506Y-67569819D01*
X161977506Y-67569819D02*
X161882268Y-67569819D01*
X161882268Y-67569819D02*
X161739411Y-67522200D01*
X161739411Y-67522200D02*
X161691792Y-67474580D01*
X161691792Y-67474580D02*
X161691792Y-67141247D01*
X161691792Y-67141247D02*
X161882268Y-67141247D01*
X110833332Y-133454819D02*
X110833332Y-132454819D01*
X110833332Y-132454819D02*
X110499999Y-133169104D01*
X110499999Y-133169104D02*
X110166666Y-132454819D01*
X110166666Y-132454819D02*
X110166666Y-133454819D01*
X172491792Y-67474580D02*
X172539411Y-67522200D01*
X172539411Y-67522200D02*
X172682268Y-67569819D01*
X172682268Y-67569819D02*
X172777506Y-67569819D01*
X172777506Y-67569819D02*
X172920363Y-67522200D01*
X172920363Y-67522200D02*
X173015601Y-67426961D01*
X173015601Y-67426961D02*
X173063220Y-67331723D01*
X173063220Y-67331723D02*
X173110839Y-67141247D01*
X173110839Y-67141247D02*
X173110839Y-66998390D01*
X173110839Y-66998390D02*
X173063220Y-66807914D01*
X173063220Y-66807914D02*
X173015601Y-66712676D01*
X173015601Y-66712676D02*
X172920363Y-66617438D01*
X172920363Y-66617438D02*
X172777506Y-66569819D01*
X172777506Y-66569819D02*
X172682268Y-66569819D01*
X172682268Y-66569819D02*
X172539411Y-66617438D01*
X172539411Y-66617438D02*
X172491792Y-66665057D01*
X172063220Y-67569819D02*
X172063220Y-66569819D01*
X172063220Y-66569819D02*
X171825125Y-66569819D01*
X171825125Y-66569819D02*
X171682268Y-66617438D01*
X171682268Y-66617438D02*
X171587030Y-66712676D01*
X171587030Y-66712676D02*
X171539411Y-66807914D01*
X171539411Y-66807914D02*
X171491792Y-66998390D01*
X171491792Y-66998390D02*
X171491792Y-67141247D01*
X171491792Y-67141247D02*
X171539411Y-67331723D01*
X171539411Y-67331723D02*
X171587030Y-67426961D01*
X171587030Y-67426961D02*
X171682268Y-67522200D01*
X171682268Y-67522200D02*
X171825125Y-67569819D01*
X171825125Y-67569819D02*
X172063220Y-67569819D01*
X167380951Y-104573866D02*
X166619047Y-104573866D01*
X166999999Y-104954819D02*
X166999999Y-104192914D01*
X178387030Y-66569819D02*
X178863220Y-66569819D01*
X178863220Y-66569819D02*
X178910839Y-67046009D01*
X178910839Y-67046009D02*
X178863220Y-66998390D01*
X178863220Y-66998390D02*
X178767982Y-66950771D01*
X178767982Y-66950771D02*
X178529887Y-66950771D01*
X178529887Y-66950771D02*
X178434649Y-66998390D01*
X178434649Y-66998390D02*
X178387030Y-67046009D01*
X178387030Y-67046009D02*
X178339411Y-67141247D01*
X178339411Y-67141247D02*
X178339411Y-67379342D01*
X178339411Y-67379342D02*
X178387030Y-67474580D01*
X178387030Y-67474580D02*
X178434649Y-67522200D01*
X178434649Y-67522200D02*
X178529887Y-67569819D01*
X178529887Y-67569819D02*
X178767982Y-67569819D01*
X178767982Y-67569819D02*
X178863220Y-67522200D01*
X178863220Y-67522200D02*
X178910839Y-67474580D01*
G36*
X129155515Y-132906877D02*
G01*
X129185922Y-132937284D01*
X129220180Y-133005800D01*
X129220180Y-133294047D01*
X128846371Y-133294047D01*
X128846371Y-133005800D01*
X128880629Y-132937284D01*
X128911036Y-132906877D01*
X128979552Y-132872619D01*
X129086999Y-132872619D01*
X129155515Y-132906877D01*
G37*
G36*
X129481291Y-133555158D02*
G01*
X128109069Y-133555158D01*
X128109069Y-132795994D01*
X128220198Y-132795994D01*
X128225283Y-132824811D01*
X128241010Y-132849490D01*
X128252170Y-132859061D01*
X128696371Y-133170001D01*
X128696371Y-133294047D01*
X128295180Y-133294047D01*
X128280548Y-133295488D01*
X128253512Y-133306687D01*
X128232820Y-133327379D01*
X128221621Y-133354415D01*
X128221621Y-133383679D01*
X128232820Y-133410715D01*
X128253512Y-133431407D01*
X128280548Y-133442606D01*
X128295180Y-133444047D01*
X129295180Y-133444047D01*
X129309812Y-133442606D01*
X129336848Y-133431407D01*
X129357540Y-133410715D01*
X129368739Y-133383679D01*
X129370180Y-133369047D01*
X129370180Y-132988095D01*
X129368739Y-132973463D01*
X129367708Y-132970974D01*
X129367517Y-132968285D01*
X129362262Y-132954554D01*
X129314643Y-132859316D01*
X129310678Y-132853016D01*
X129309921Y-132851189D01*
X129308232Y-132849132D01*
X129306811Y-132846873D01*
X129305312Y-132845573D01*
X129300594Y-132839824D01*
X129252975Y-132792205D01*
X129247225Y-132787486D01*
X129245926Y-132785988D01*
X129243666Y-132784566D01*
X129241610Y-132782878D01*
X129239782Y-132782120D01*
X129233483Y-132778156D01*
X129138245Y-132730537D01*
X129124513Y-132725282D01*
X129121825Y-132725091D01*
X129119336Y-132724060D01*
X129104704Y-132722619D01*
X128961847Y-132722619D01*
X128947215Y-132724060D01*
X128944726Y-132725090D01*
X128942037Y-132725282D01*
X128928306Y-132730537D01*
X128833068Y-132778156D01*
X128826768Y-132782120D01*
X128824941Y-132782878D01*
X128822884Y-132784566D01*
X128820625Y-132785988D01*
X128819325Y-132787486D01*
X128813576Y-132792205D01*
X128765957Y-132839824D01*
X128761238Y-132845573D01*
X128759740Y-132846873D01*
X128758318Y-132849132D01*
X128756630Y-132851189D01*
X128755872Y-132853016D01*
X128751908Y-132859316D01*
X128704289Y-132954554D01*
X128699034Y-132968286D01*
X128698843Y-132970973D01*
X128697812Y-132973463D01*
X128696480Y-132986980D01*
X128338190Y-132736177D01*
X128325376Y-132728966D01*
X128296805Y-132722637D01*
X128267988Y-132727722D01*
X128243309Y-132743449D01*
X128226527Y-132767423D01*
X128220198Y-132795994D01*
X128109069Y-132795994D01*
X128109069Y-132035714D01*
X128220180Y-132035714D01*
X128220180Y-132273809D01*
X128220909Y-132281214D01*
X128220769Y-132283190D01*
X128221359Y-132285787D01*
X128221621Y-132288441D01*
X128222379Y-132290271D01*
X128224029Y-132297527D01*
X128271649Y-132440384D01*
X128277643Y-132453809D01*
X128296817Y-132475916D01*
X128322991Y-132489003D01*
X128352181Y-132491077D01*
X128379943Y-132481823D01*
X128402050Y-132462649D01*
X128415137Y-132436475D01*
X128417211Y-132407285D01*
X128413951Y-132392949D01*
X128370180Y-132261637D01*
X128370180Y-132053420D01*
X128404438Y-131984903D01*
X128434846Y-131954496D01*
X128503362Y-131920238D01*
X128563190Y-131920238D01*
X128631706Y-131954496D01*
X128662113Y-131984903D01*
X128700606Y-132061890D01*
X128746229Y-132244380D01*
X128746614Y-132245459D01*
X128746653Y-132245999D01*
X128748980Y-132252080D01*
X128751176Y-132258226D01*
X128751498Y-132258661D01*
X128751908Y-132259731D01*
X128799527Y-132354969D01*
X128803491Y-132361268D01*
X128804249Y-132363096D01*
X128805937Y-132365152D01*
X128807359Y-132367412D01*
X128808857Y-132368711D01*
X128813576Y-132374461D01*
X128861195Y-132422080D01*
X128866944Y-132426798D01*
X128868244Y-132428297D01*
X128870503Y-132429718D01*
X128872560Y-132431407D01*
X128874387Y-132432164D01*
X128880687Y-132436129D01*
X128975925Y-132483748D01*
X128989656Y-132489003D01*
X128992345Y-132489194D01*
X128994834Y-132490225D01*
X129009466Y-132491666D01*
X129104704Y-132491666D01*
X129119336Y-132490225D01*
X129121825Y-132489193D01*
X129124513Y-132489003D01*
X129138245Y-132483748D01*
X129233483Y-132436129D01*
X129239782Y-132432164D01*
X129241610Y-132431407D01*
X129243666Y-132429718D01*
X129245926Y-132428297D01*
X129247225Y-132426798D01*
X129252975Y-132422080D01*
X129300594Y-132374461D01*
X129305312Y-132368711D01*
X129306811Y-132367412D01*
X129308232Y-132365152D01*
X129309921Y-132363096D01*
X129310678Y-132361268D01*
X129314643Y-132354969D01*
X129362262Y-132259731D01*
X129367517Y-132246000D01*
X129367708Y-132243310D01*
X129368739Y-132240822D01*
X129370180Y-132226190D01*
X129370180Y-131988095D01*
X129369450Y-131980688D01*
X129369591Y-131978714D01*
X129369000Y-131976116D01*
X129368739Y-131973463D01*
X129367980Y-131971632D01*
X129366331Y-131964377D01*
X129318712Y-131821521D01*
X129312718Y-131808095D01*
X129293544Y-131785988D01*
X129267371Y-131772902D01*
X129238181Y-131770827D01*
X129210418Y-131780081D01*
X129188311Y-131799255D01*
X129175225Y-131825428D01*
X129173150Y-131854618D01*
X129176410Y-131868955D01*
X129220180Y-132000265D01*
X129220180Y-132208485D01*
X129185922Y-132277001D01*
X129155515Y-132307408D01*
X129086999Y-132341666D01*
X129027171Y-132341666D01*
X128958655Y-132307408D01*
X128928248Y-132277001D01*
X128889754Y-132200014D01*
X128844132Y-132017524D01*
X128843746Y-132016444D01*
X128843708Y-132015904D01*
X128841377Y-132009814D01*
X128839185Y-132003678D01*
X128838862Y-132003242D01*
X128838453Y-132002173D01*
X128790834Y-131906935D01*
X128786869Y-131900635D01*
X128786112Y-131898808D01*
X128784423Y-131896751D01*
X128783002Y-131894492D01*
X128781503Y-131893192D01*
X128776785Y-131887443D01*
X128729166Y-131839824D01*
X128723416Y-131835105D01*
X128722117Y-131833607D01*
X128719857Y-131832185D01*
X128717801Y-131830497D01*
X128715973Y-131829739D01*
X128709674Y-131825775D01*
X128614436Y-131778156D01*
X128600704Y-131772901D01*
X128598016Y-131772710D01*
X128595527Y-131771679D01*
X128580895Y-131770238D01*
X128485657Y-131770238D01*
X128471025Y-131771679D01*
X128468536Y-131772709D01*
X128465847Y-131772901D01*
X128452116Y-131778156D01*
X128356878Y-131825775D01*
X128350578Y-131829739D01*
X128348751Y-131830497D01*
X128346694Y-131832185D01*
X128344435Y-131833607D01*
X128343135Y-131835105D01*
X128337386Y-131839824D01*
X128289767Y-131887443D01*
X128285049Y-131893191D01*
X128283551Y-131894491D01*
X128282128Y-131896750D01*
X128280440Y-131898808D01*
X128279683Y-131900635D01*
X128275718Y-131906934D01*
X128228098Y-132002172D01*
X128222843Y-132015904D01*
X128222651Y-132018593D01*
X128221621Y-132021082D01*
X128220180Y-132035714D01*
X128109069Y-132035714D01*
X128109069Y-131259177D01*
X128221621Y-131259177D01*
X128221621Y-131288441D01*
X128232820Y-131315477D01*
X128253512Y-131336169D01*
X128280548Y-131347368D01*
X128295180Y-131348809D01*
X129220180Y-131348809D01*
X129220180Y-131559523D01*
X129221621Y-131574155D01*
X129232820Y-131601191D01*
X129253512Y-131621883D01*
X129280548Y-131633082D01*
X129309812Y-131633082D01*
X129336848Y-131621883D01*
X129357540Y-131601191D01*
X129368739Y-131574155D01*
X129370180Y-131559523D01*
X129370180Y-130988095D01*
X129368739Y-130973463D01*
X129357540Y-130946427D01*
X129336848Y-130925735D01*
X129309812Y-130914536D01*
X129280548Y-130914536D01*
X129253512Y-130925735D01*
X129232820Y-130946427D01*
X129221621Y-130973463D01*
X129220180Y-130988095D01*
X129220180Y-131198809D01*
X128295180Y-131198809D01*
X128280548Y-131200250D01*
X128253512Y-131211449D01*
X128232820Y-131232141D01*
X128221621Y-131259177D01*
X128109069Y-131259177D01*
X128109069Y-130803425D01*
X129481291Y-130803425D01*
X129481291Y-133555158D01*
G37*
X167238094Y-95669104D02*
X166761904Y-95669104D01*
X167333332Y-95954819D02*
X166999999Y-94954819D01*
X166999999Y-94954819D02*
X166666666Y-95954819D01*
X110880951Y-119073866D02*
X110119047Y-119073866D01*
X110499999Y-119454819D02*
X110499999Y-118692914D01*
X180339411Y-69187606D02*
X180434649Y-69139987D01*
X180434649Y-69139987D02*
X180577506Y-69139987D01*
X180577506Y-69139987D02*
X180720363Y-69187606D01*
X180720363Y-69187606D02*
X180815601Y-69282844D01*
X180815601Y-69282844D02*
X180863220Y-69378082D01*
X180863220Y-69378082D02*
X180910839Y-69568558D01*
X180910839Y-69568558D02*
X180910839Y-69711415D01*
X180910839Y-69711415D02*
X180863220Y-69901891D01*
X180863220Y-69901891D02*
X180815601Y-69997129D01*
X180815601Y-69997129D02*
X180720363Y-70092368D01*
X180720363Y-70092368D02*
X180577506Y-70139987D01*
X180577506Y-70139987D02*
X180482268Y-70139987D01*
X180482268Y-70139987D02*
X180339411Y-70092368D01*
X180339411Y-70092368D02*
X180291792Y-70044748D01*
X180291792Y-70044748D02*
X180291792Y-69711415D01*
X180291792Y-69711415D02*
X180482268Y-69711415D01*
X179101315Y-69759034D02*
X178339411Y-69759034D01*
X176577506Y-69187606D02*
X176672744Y-69139987D01*
X176672744Y-69139987D02*
X176815601Y-69139987D01*
X176815601Y-69139987D02*
X176958458Y-69187606D01*
X176958458Y-69187606D02*
X177053696Y-69282844D01*
X177053696Y-69282844D02*
X177101315Y-69378082D01*
X177101315Y-69378082D02*
X177148934Y-69568558D01*
X177148934Y-69568558D02*
X177148934Y-69711415D01*
X177148934Y-69711415D02*
X177101315Y-69901891D01*
X177101315Y-69901891D02*
X177053696Y-69997129D01*
X177053696Y-69997129D02*
X176958458Y-70092368D01*
X176958458Y-70092368D02*
X176815601Y-70139987D01*
X176815601Y-70139987D02*
X176720363Y-70139987D01*
X176720363Y-70139987D02*
X176577506Y-70092368D01*
X176577506Y-70092368D02*
X176529887Y-70044748D01*
X176529887Y-70044748D02*
X176529887Y-69711415D01*
X176529887Y-69711415D02*
X176720363Y-69711415D01*
X176101315Y-70139987D02*
X176101315Y-69473320D01*
X176101315Y-69663796D02*
X176053696Y-69568558D01*
X176053696Y-69568558D02*
X176006077Y-69520939D01*
X176006077Y-69520939D02*
X175910839Y-69473320D01*
X175910839Y-69473320D02*
X175815601Y-69473320D01*
X175339410Y-70139987D02*
X175434648Y-70092368D01*
X175434648Y-70092368D02*
X175482267Y-70044748D01*
X175482267Y-70044748D02*
X175529886Y-69949510D01*
X175529886Y-69949510D02*
X175529886Y-69663796D01*
X175529886Y-69663796D02*
X175482267Y-69568558D01*
X175482267Y-69568558D02*
X175434648Y-69520939D01*
X175434648Y-69520939D02*
X175339410Y-69473320D01*
X175339410Y-69473320D02*
X175196553Y-69473320D01*
X175196553Y-69473320D02*
X175101315Y-69520939D01*
X175101315Y-69520939D02*
X175053696Y-69568558D01*
X175053696Y-69568558D02*
X175006077Y-69663796D01*
X175006077Y-69663796D02*
X175006077Y-69949510D01*
X175006077Y-69949510D02*
X175053696Y-70044748D01*
X175053696Y-70044748D02*
X175101315Y-70092368D01*
X175101315Y-70092368D02*
X175196553Y-70139987D01*
X175196553Y-70139987D02*
X175339410Y-70139987D01*
X174148934Y-69473320D02*
X174148934Y-70139987D01*
X174577505Y-69473320D02*
X174577505Y-69997129D01*
X174577505Y-69997129D02*
X174529886Y-70092368D01*
X174529886Y-70092368D02*
X174434648Y-70139987D01*
X174434648Y-70139987D02*
X174291791Y-70139987D01*
X174291791Y-70139987D02*
X174196553Y-70092368D01*
X174196553Y-70092368D02*
X174148934Y-70044748D01*
X173672743Y-69473320D02*
X173672743Y-70139987D01*
X173672743Y-69568558D02*
X173625124Y-69520939D01*
X173625124Y-69520939D02*
X173529886Y-69473320D01*
X173529886Y-69473320D02*
X173387029Y-69473320D01*
X173387029Y-69473320D02*
X173291791Y-69520939D01*
X173291791Y-69520939D02*
X173244172Y-69616177D01*
X173244172Y-69616177D02*
X173244172Y-70139987D01*
X172339410Y-70139987D02*
X172339410Y-69139987D01*
X172339410Y-70092368D02*
X172434648Y-70139987D01*
X172434648Y-70139987D02*
X172625124Y-70139987D01*
X172625124Y-70139987D02*
X172720362Y-70092368D01*
X172720362Y-70092368D02*
X172767981Y-70044748D01*
X172767981Y-70044748D02*
X172815600Y-69949510D01*
X172815600Y-69949510D02*
X172815600Y-69663796D01*
X172815600Y-69663796D02*
X172767981Y-69568558D01*
X172767981Y-69568558D02*
X172720362Y-69520939D01*
X172720362Y-69520939D02*
X172625124Y-69473320D01*
X172625124Y-69473320D02*
X172434648Y-69473320D01*
X172434648Y-69473320D02*
X172339410Y-69520939D01*
X180387030Y-70749931D02*
X180863220Y-70749931D01*
X180863220Y-70749931D02*
X180910839Y-71226121D01*
X180910839Y-71226121D02*
X180863220Y-71178502D01*
X180863220Y-71178502D02*
X180767982Y-71130883D01*
X180767982Y-71130883D02*
X180529887Y-71130883D01*
X180529887Y-71130883D02*
X180434649Y-71178502D01*
X180434649Y-71178502D02*
X180387030Y-71226121D01*
X180387030Y-71226121D02*
X180339411Y-71321359D01*
X180339411Y-71321359D02*
X180339411Y-71559454D01*
X180339411Y-71559454D02*
X180387030Y-71654692D01*
X180387030Y-71654692D02*
X180434649Y-71702312D01*
X180434649Y-71702312D02*
X180529887Y-71749931D01*
X180529887Y-71749931D02*
X180767982Y-71749931D01*
X180767982Y-71749931D02*
X180863220Y-71702312D01*
X180863220Y-71702312D02*
X180910839Y-71654692D01*
X179148934Y-71368978D02*
X178387030Y-71368978D01*
X177291791Y-70749931D02*
X176958458Y-71749931D01*
X176958458Y-71749931D02*
X176625125Y-70749931D01*
X175720363Y-71654692D02*
X175767982Y-71702312D01*
X175767982Y-71702312D02*
X175910839Y-71749931D01*
X175910839Y-71749931D02*
X176006077Y-71749931D01*
X176006077Y-71749931D02*
X176148934Y-71702312D01*
X176148934Y-71702312D02*
X176244172Y-71607073D01*
X176244172Y-71607073D02*
X176291791Y-71511835D01*
X176291791Y-71511835D02*
X176339410Y-71321359D01*
X176339410Y-71321359D02*
X176339410Y-71178502D01*
X176339410Y-71178502D02*
X176291791Y-70988026D01*
X176291791Y-70988026D02*
X176244172Y-70892788D01*
X176244172Y-70892788D02*
X176148934Y-70797550D01*
X176148934Y-70797550D02*
X176006077Y-70749931D01*
X176006077Y-70749931D02*
X175910839Y-70749931D01*
X175910839Y-70749931D02*
X175767982Y-70797550D01*
X175767982Y-70797550D02*
X175720363Y-70845169D01*
X174720363Y-71654692D02*
X174767982Y-71702312D01*
X174767982Y-71702312D02*
X174910839Y-71749931D01*
X174910839Y-71749931D02*
X175006077Y-71749931D01*
X175006077Y-71749931D02*
X175148934Y-71702312D01*
X175148934Y-71702312D02*
X175244172Y-71607073D01*
X175244172Y-71607073D02*
X175291791Y-71511835D01*
X175291791Y-71511835D02*
X175339410Y-71321359D01*
X175339410Y-71321359D02*
X175339410Y-71178502D01*
X175339410Y-71178502D02*
X175291791Y-70988026D01*
X175291791Y-70988026D02*
X175244172Y-70892788D01*
X175244172Y-70892788D02*
X175148934Y-70797550D01*
X175148934Y-70797550D02*
X175006077Y-70749931D01*
X175006077Y-70749931D02*
X174910839Y-70749931D01*
X174910839Y-70749931D02*
X174767982Y-70797550D01*
X174767982Y-70797550D02*
X174720363Y-70845169D01*
X173053696Y-70749931D02*
X173529886Y-70749931D01*
X173529886Y-70749931D02*
X173577505Y-71226121D01*
X173577505Y-71226121D02*
X173529886Y-71178502D01*
X173529886Y-71178502D02*
X173434648Y-71130883D01*
X173434648Y-71130883D02*
X173196553Y-71130883D01*
X173196553Y-71130883D02*
X173101315Y-71178502D01*
X173101315Y-71178502D02*
X173053696Y-71226121D01*
X173053696Y-71226121D02*
X173006077Y-71321359D01*
X173006077Y-71321359D02*
X173006077Y-71559454D01*
X173006077Y-71559454D02*
X173053696Y-71654692D01*
X173053696Y-71654692D02*
X173101315Y-71702312D01*
X173101315Y-71702312D02*
X173196553Y-71749931D01*
X173196553Y-71749931D02*
X173434648Y-71749931D01*
X173434648Y-71749931D02*
X173529886Y-71702312D01*
X173529886Y-71702312D02*
X173577505Y-71654692D01*
X172720362Y-70749931D02*
X172387029Y-71749931D01*
X172387029Y-71749931D02*
X172053696Y-70749931D01*
X180863220Y-73359875D02*
X180863220Y-72359875D01*
X180863220Y-72359875D02*
X180625125Y-72359875D01*
X180625125Y-72359875D02*
X180482268Y-72407494D01*
X180482268Y-72407494D02*
X180387030Y-72502732D01*
X180387030Y-72502732D02*
X180339411Y-72597970D01*
X180339411Y-72597970D02*
X180291792Y-72788446D01*
X180291792Y-72788446D02*
X180291792Y-72931303D01*
X180291792Y-72931303D02*
X180339411Y-73121779D01*
X180339411Y-73121779D02*
X180387030Y-73217017D01*
X180387030Y-73217017D02*
X180482268Y-73312256D01*
X180482268Y-73312256D02*
X180625125Y-73359875D01*
X180625125Y-73359875D02*
X180863220Y-73359875D01*
X179101315Y-72978922D02*
X178339411Y-72978922D01*
X177148934Y-73312256D02*
X177006077Y-73359875D01*
X177006077Y-73359875D02*
X176767982Y-73359875D01*
X176767982Y-73359875D02*
X176672744Y-73312256D01*
X176672744Y-73312256D02*
X176625125Y-73264636D01*
X176625125Y-73264636D02*
X176577506Y-73169398D01*
X176577506Y-73169398D02*
X176577506Y-73074160D01*
X176577506Y-73074160D02*
X176625125Y-72978922D01*
X176625125Y-72978922D02*
X176672744Y-72931303D01*
X176672744Y-72931303D02*
X176767982Y-72883684D01*
X176767982Y-72883684D02*
X176958458Y-72836065D01*
X176958458Y-72836065D02*
X177053696Y-72788446D01*
X177053696Y-72788446D02*
X177101315Y-72740827D01*
X177101315Y-72740827D02*
X177148934Y-72645589D01*
X177148934Y-72645589D02*
X177148934Y-72550351D01*
X177148934Y-72550351D02*
X177101315Y-72455113D01*
X177101315Y-72455113D02*
X177053696Y-72407494D01*
X177053696Y-72407494D02*
X176958458Y-72359875D01*
X176958458Y-72359875D02*
X176720363Y-72359875D01*
X176720363Y-72359875D02*
X176577506Y-72407494D01*
X176148934Y-73359875D02*
X176148934Y-72359875D01*
X176148934Y-72359875D02*
X175910839Y-72359875D01*
X175910839Y-72359875D02*
X175767982Y-72407494D01*
X175767982Y-72407494D02*
X175672744Y-72502732D01*
X175672744Y-72502732D02*
X175625125Y-72597970D01*
X175625125Y-72597970D02*
X175577506Y-72788446D01*
X175577506Y-72788446D02*
X175577506Y-72931303D01*
X175577506Y-72931303D02*
X175625125Y-73121779D01*
X175625125Y-73121779D02*
X175672744Y-73217017D01*
X175672744Y-73217017D02*
X175767982Y-73312256D01*
X175767982Y-73312256D02*
X175910839Y-73359875D01*
X175910839Y-73359875D02*
X176148934Y-73359875D01*
X175196553Y-73074160D02*
X174720363Y-73074160D01*
X175291791Y-73359875D02*
X174958458Y-72359875D01*
X174958458Y-72359875D02*
X174625125Y-73359875D01*
X180291792Y-74874580D02*
X180339411Y-74922200D01*
X180339411Y-74922200D02*
X180482268Y-74969819D01*
X180482268Y-74969819D02*
X180577506Y-74969819D01*
X180577506Y-74969819D02*
X180720363Y-74922200D01*
X180720363Y-74922200D02*
X180815601Y-74826961D01*
X180815601Y-74826961D02*
X180863220Y-74731723D01*
X180863220Y-74731723D02*
X180910839Y-74541247D01*
X180910839Y-74541247D02*
X180910839Y-74398390D01*
X180910839Y-74398390D02*
X180863220Y-74207914D01*
X180863220Y-74207914D02*
X180815601Y-74112676D01*
X180815601Y-74112676D02*
X180720363Y-74017438D01*
X180720363Y-74017438D02*
X180577506Y-73969819D01*
X180577506Y-73969819D02*
X180482268Y-73969819D01*
X180482268Y-73969819D02*
X180339411Y-74017438D01*
X180339411Y-74017438D02*
X180291792Y-74065057D01*
X179101315Y-74588866D02*
X178339411Y-74588866D01*
X177148934Y-74922200D02*
X177006077Y-74969819D01*
X177006077Y-74969819D02*
X176767982Y-74969819D01*
X176767982Y-74969819D02*
X176672744Y-74922200D01*
X176672744Y-74922200D02*
X176625125Y-74874580D01*
X176625125Y-74874580D02*
X176577506Y-74779342D01*
X176577506Y-74779342D02*
X176577506Y-74684104D01*
X176577506Y-74684104D02*
X176625125Y-74588866D01*
X176625125Y-74588866D02*
X176672744Y-74541247D01*
X176672744Y-74541247D02*
X176767982Y-74493628D01*
X176767982Y-74493628D02*
X176958458Y-74446009D01*
X176958458Y-74446009D02*
X177053696Y-74398390D01*
X177053696Y-74398390D02*
X177101315Y-74350771D01*
X177101315Y-74350771D02*
X177148934Y-74255533D01*
X177148934Y-74255533D02*
X177148934Y-74160295D01*
X177148934Y-74160295D02*
X177101315Y-74065057D01*
X177101315Y-74065057D02*
X177053696Y-74017438D01*
X177053696Y-74017438D02*
X176958458Y-73969819D01*
X176958458Y-73969819D02*
X176720363Y-73969819D01*
X176720363Y-73969819D02*
X176577506Y-74017438D01*
X175577506Y-74874580D02*
X175625125Y-74922200D01*
X175625125Y-74922200D02*
X175767982Y-74969819D01*
X175767982Y-74969819D02*
X175863220Y-74969819D01*
X175863220Y-74969819D02*
X176006077Y-74922200D01*
X176006077Y-74922200D02*
X176101315Y-74826961D01*
X176101315Y-74826961D02*
X176148934Y-74731723D01*
X176148934Y-74731723D02*
X176196553Y-74541247D01*
X176196553Y-74541247D02*
X176196553Y-74398390D01*
X176196553Y-74398390D02*
X176148934Y-74207914D01*
X176148934Y-74207914D02*
X176101315Y-74112676D01*
X176101315Y-74112676D02*
X176006077Y-74017438D01*
X176006077Y-74017438D02*
X175863220Y-73969819D01*
X175863220Y-73969819D02*
X175767982Y-73969819D01*
X175767982Y-73969819D02*
X175625125Y-74017438D01*
X175625125Y-74017438D02*
X175577506Y-74065057D01*
X174672744Y-74969819D02*
X175148934Y-74969819D01*
X175148934Y-74969819D02*
X175148934Y-73969819D01*
X110190476Y-123454819D02*
X110523809Y-122978628D01*
X110761904Y-123454819D02*
X110761904Y-122454819D01*
X110761904Y-122454819D02*
X110380952Y-122454819D01*
X110380952Y-122454819D02*
X110285714Y-122502438D01*
X110285714Y-122502438D02*
X110238095Y-122550057D01*
X110238095Y-122550057D02*
X110190476Y-122645295D01*
X110190476Y-122645295D02*
X110190476Y-122788152D01*
X110190476Y-122788152D02*
X110238095Y-122883390D01*
X110238095Y-122883390D02*
X110285714Y-122931009D01*
X110285714Y-122931009D02*
X110380952Y-122978628D01*
X110380952Y-122978628D02*
X110761904Y-122978628D01*
X110428571Y-128931009D02*
X110285714Y-128978628D01*
X110285714Y-128978628D02*
X110238095Y-129026247D01*
X110238095Y-129026247D02*
X110190476Y-129121485D01*
X110190476Y-129121485D02*
X110190476Y-129264342D01*
X110190476Y-129264342D02*
X110238095Y-129359580D01*
X110238095Y-129359580D02*
X110285714Y-129407200D01*
X110285714Y-129407200D02*
X110380952Y-129454819D01*
X110380952Y-129454819D02*
X110761904Y-129454819D01*
X110761904Y-129454819D02*
X110761904Y-128454819D01*
X110761904Y-128454819D02*
X110428571Y-128454819D01*
X110428571Y-128454819D02*
X110333333Y-128502438D01*
X110333333Y-128502438D02*
X110285714Y-128550057D01*
X110285714Y-128550057D02*
X110238095Y-128645295D01*
X110238095Y-128645295D02*
X110238095Y-128740533D01*
X110238095Y-128740533D02*
X110285714Y-128835771D01*
X110285714Y-128835771D02*
X110333333Y-128883390D01*
X110333333Y-128883390D02*
X110428571Y-128931009D01*
X110428571Y-128931009D02*
X110761904Y-128931009D01*
X165238094Y-95669104D02*
X164761904Y-95669104D01*
X165333332Y-95954819D02*
X164999999Y-94954819D01*
X164999999Y-94954819D02*
X164666666Y-95954819D01*
X162787030Y-66569819D02*
X163263220Y-66569819D01*
X163263220Y-66569819D02*
X163310839Y-67046009D01*
X163310839Y-67046009D02*
X163263220Y-66998390D01*
X163263220Y-66998390D02*
X163167982Y-66950771D01*
X163167982Y-66950771D02*
X162929887Y-66950771D01*
X162929887Y-66950771D02*
X162834649Y-66998390D01*
X162834649Y-66998390D02*
X162787030Y-67046009D01*
X162787030Y-67046009D02*
X162739411Y-67141247D01*
X162739411Y-67141247D02*
X162739411Y-67379342D01*
X162739411Y-67379342D02*
X162787030Y-67474580D01*
X162787030Y-67474580D02*
X162834649Y-67522200D01*
X162834649Y-67522200D02*
X162929887Y-67569819D01*
X162929887Y-67569819D02*
X163167982Y-67569819D01*
X163167982Y-67569819D02*
X163263220Y-67522200D01*
X163263220Y-67522200D02*
X163310839Y-67474580D01*
X165380951Y-104573866D02*
X164619047Y-104573866D01*
X110761904Y-127454819D02*
X110761904Y-126454819D01*
X110761904Y-126454819D02*
X110523809Y-126454819D01*
X110523809Y-126454819D02*
X110380952Y-126502438D01*
X110380952Y-126502438D02*
X110285714Y-126597676D01*
X110285714Y-126597676D02*
X110238095Y-126692914D01*
X110238095Y-126692914D02*
X110190476Y-126883390D01*
X110190476Y-126883390D02*
X110190476Y-127026247D01*
X110190476Y-127026247D02*
X110238095Y-127216723D01*
X110238095Y-127216723D02*
X110285714Y-127311961D01*
X110285714Y-127311961D02*
X110380952Y-127407200D01*
X110380952Y-127407200D02*
X110523809Y-127454819D01*
X110523809Y-127454819D02*
X110761904Y-127454819D01*
X180291792Y-67474580D02*
X180339411Y-67522200D01*
X180339411Y-67522200D02*
X180482268Y-67569819D01*
X180482268Y-67569819D02*
X180577506Y-67569819D01*
X180577506Y-67569819D02*
X180720363Y-67522200D01*
X180720363Y-67522200D02*
X180815601Y-67426961D01*
X180815601Y-67426961D02*
X180863220Y-67331723D01*
X180863220Y-67331723D02*
X180910839Y-67141247D01*
X180910839Y-67141247D02*
X180910839Y-66998390D01*
X180910839Y-66998390D02*
X180863220Y-66807914D01*
X180863220Y-66807914D02*
X180815601Y-66712676D01*
X180815601Y-66712676D02*
X180720363Y-66617438D01*
X180720363Y-66617438D02*
X180577506Y-66569819D01*
X180577506Y-66569819D02*
X180482268Y-66569819D01*
X180482268Y-66569819D02*
X180339411Y-66617438D01*
X180339411Y-66617438D02*
X180291792Y-66665057D01*
X110880951Y-121073866D02*
X110119047Y-121073866D01*
X177339411Y-66617438D02*
X177434649Y-66569819D01*
X177434649Y-66569819D02*
X177577506Y-66569819D01*
X177577506Y-66569819D02*
X177720363Y-66617438D01*
X177720363Y-66617438D02*
X177815601Y-66712676D01*
X177815601Y-66712676D02*
X177863220Y-66807914D01*
X177863220Y-66807914D02*
X177910839Y-66998390D01*
X177910839Y-66998390D02*
X177910839Y-67141247D01*
X177910839Y-67141247D02*
X177863220Y-67331723D01*
X177863220Y-67331723D02*
X177815601Y-67426961D01*
X177815601Y-67426961D02*
X177720363Y-67522200D01*
X177720363Y-67522200D02*
X177577506Y-67569819D01*
X177577506Y-67569819D02*
X177482268Y-67569819D01*
X177482268Y-67569819D02*
X177339411Y-67522200D01*
X177339411Y-67522200D02*
X177291792Y-67474580D01*
X177291792Y-67474580D02*
X177291792Y-67141247D01*
X177291792Y-67141247D02*
X177482268Y-67141247D01*
D13*
X126937966Y-75213769D02*
X126803279Y-75483143D01*
X126803279Y-75483143D02*
X126466561Y-75819860D01*
X126466561Y-75819860D02*
X126264531Y-75887204D01*
X126264531Y-75887204D02*
X126129844Y-75887204D01*
X126129844Y-75887204D02*
X125927813Y-75819860D01*
X125927813Y-75819860D02*
X125793126Y-75685173D01*
X125793126Y-75685173D02*
X125725783Y-75483143D01*
X125725783Y-75483143D02*
X125725783Y-75348456D01*
X125725783Y-75348456D02*
X125793126Y-75146425D01*
X125793126Y-75146425D02*
X125995157Y-74809708D01*
X125995157Y-74809708D02*
X126062500Y-74607677D01*
X126062500Y-74607677D02*
X126062500Y-74472990D01*
X126062500Y-74472990D02*
X125995157Y-74270960D01*
X125995157Y-74270960D02*
X125860470Y-74136273D01*
X125860470Y-74136273D02*
X125658439Y-74068929D01*
X125658439Y-74068929D02*
X125523752Y-74068929D01*
X125523752Y-74068929D02*
X125321722Y-74136273D01*
X125321722Y-74136273D02*
X124985004Y-74472990D01*
X124985004Y-74472990D02*
X124850317Y-74742364D01*
X124850317Y-75550486D02*
X124311569Y-76089234D01*
X124176882Y-75281112D02*
X125389065Y-76493295D01*
X125389065Y-76493295D02*
X125456409Y-76695326D01*
X125456409Y-76695326D02*
X125389065Y-76897356D01*
X125389065Y-76897356D02*
X125254378Y-77032043D01*
X124782974Y-77503448D02*
X123840165Y-76560639D01*
X124109539Y-76830013D02*
X123907508Y-76762669D01*
X123907508Y-76762669D02*
X123772821Y-76762669D01*
X123772821Y-76762669D02*
X123570791Y-76830013D01*
X123570791Y-76830013D02*
X123436104Y-76964700D01*
X123301417Y-78985005D02*
X122560638Y-78244226D01*
X122560638Y-78244226D02*
X122493295Y-78042196D01*
X122493295Y-78042196D02*
X122560638Y-77840165D01*
X122560638Y-77840165D02*
X122830012Y-77570791D01*
X122830012Y-77570791D02*
X123032043Y-77503448D01*
X123234073Y-78917661D02*
X123436104Y-78850318D01*
X123436104Y-78850318D02*
X123772821Y-78513600D01*
X123772821Y-78513600D02*
X123840165Y-78311570D01*
X123840165Y-78311570D02*
X123772821Y-78109539D01*
X123772821Y-78109539D02*
X123638134Y-77974852D01*
X123638134Y-77974852D02*
X123436104Y-77907509D01*
X123436104Y-77907509D02*
X123234073Y-77974852D01*
X123234073Y-77974852D02*
X122897356Y-78311570D01*
X122897356Y-78311570D02*
X122695325Y-78378913D01*
X122627982Y-79658440D02*
X121685173Y-78715631D01*
X121213768Y-78244226D02*
X121348455Y-78244226D01*
X121348455Y-78244226D02*
X121348455Y-78378913D01*
X121348455Y-78378913D02*
X121213768Y-78378913D01*
X121213768Y-78378913D02*
X121213768Y-78244226D01*
X121213768Y-78244226D02*
X121348455Y-78378913D01*
X121011738Y-79389066D02*
X121954547Y-80331875D01*
X121146425Y-79523753D02*
X121011738Y-79523753D01*
X121011738Y-79523753D02*
X120809707Y-79591096D01*
X120809707Y-79591096D02*
X120607677Y-79793127D01*
X120607677Y-79793127D02*
X120540333Y-79995157D01*
X120540333Y-79995157D02*
X120607677Y-80197188D01*
X120607677Y-80197188D02*
X121348455Y-80937966D01*
D12*
X179863220Y-67569819D02*
X179863220Y-66569819D01*
X179863220Y-66569819D02*
X179625125Y-66569819D01*
X179625125Y-66569819D02*
X179482268Y-66617438D01*
X179482268Y-66617438D02*
X179387030Y-66712676D01*
X179387030Y-66712676D02*
X179339411Y-66807914D01*
X179339411Y-66807914D02*
X179291792Y-66998390D01*
X179291792Y-66998390D02*
X179291792Y-67141247D01*
X179291792Y-67141247D02*
X179339411Y-67331723D01*
X179339411Y-67331723D02*
X179387030Y-67426961D01*
X179387030Y-67426961D02*
X179482268Y-67522200D01*
X179482268Y-67522200D02*
X179625125Y-67569819D01*
X179625125Y-67569819D02*
X179863220Y-67569819D01*
X170587030Y-66569819D02*
X171063220Y-66569819D01*
X171063220Y-66569819D02*
X171110839Y-67046009D01*
X171110839Y-67046009D02*
X171063220Y-66998390D01*
X171063220Y-66998390D02*
X170967982Y-66950771D01*
X170967982Y-66950771D02*
X170729887Y-66950771D01*
X170729887Y-66950771D02*
X170634649Y-66998390D01*
X170634649Y-66998390D02*
X170587030Y-67046009D01*
X170587030Y-67046009D02*
X170539411Y-67141247D01*
X170539411Y-67141247D02*
X170539411Y-67379342D01*
X170539411Y-67379342D02*
X170587030Y-67474580D01*
X170587030Y-67474580D02*
X170634649Y-67522200D01*
X170634649Y-67522200D02*
X170729887Y-67569819D01*
X170729887Y-67569819D02*
X170967982Y-67569819D01*
X170967982Y-67569819D02*
X171063220Y-67522200D01*
X171063220Y-67522200D02*
X171110839Y-67474580D01*
X164691792Y-67474580D02*
X164739411Y-67522200D01*
X164739411Y-67522200D02*
X164882268Y-67569819D01*
X164882268Y-67569819D02*
X164977506Y-67569819D01*
X164977506Y-67569819D02*
X165120363Y-67522200D01*
X165120363Y-67522200D02*
X165215601Y-67426961D01*
X165215601Y-67426961D02*
X165263220Y-67331723D01*
X165263220Y-67331723D02*
X165310839Y-67141247D01*
X165310839Y-67141247D02*
X165310839Y-66998390D01*
X165310839Y-66998390D02*
X165263220Y-66807914D01*
X165263220Y-66807914D02*
X165215601Y-66712676D01*
X165215601Y-66712676D02*
X165120363Y-66617438D01*
X165120363Y-66617438D02*
X164977506Y-66569819D01*
X164977506Y-66569819D02*
X164882268Y-66569819D01*
X164882268Y-66569819D02*
X164739411Y-66617438D01*
X164739411Y-66617438D02*
X164691792Y-66665057D01*
D11*
X155500000Y-93500000D02*
X142000000Y-93500000D01*
D12*
X128105953Y-76769235D02*
X127769236Y-77105953D01*
X128375327Y-76903922D02*
X127432518Y-76432518D01*
X127432518Y-76432518D02*
X127903923Y-77375327D01*
X129553838Y-75186664D02*
X129015090Y-75725412D01*
X126725411Y-78015091D02*
X126186663Y-78553839D01*
X126725411Y-78553839D02*
X126186663Y-78015091D01*
X122547155Y-81819742D02*
X122479812Y-81954429D01*
X122479812Y-81954429D02*
X122479812Y-82021773D01*
X122479812Y-82021773D02*
X122513483Y-82122788D01*
X122513483Y-82122788D02*
X122614499Y-82223804D01*
X122614499Y-82223804D02*
X122715514Y-82257475D01*
X122715514Y-82257475D02*
X122782857Y-82257475D01*
X122782857Y-82257475D02*
X122883873Y-82223804D01*
X122883873Y-82223804D02*
X123153247Y-81954429D01*
X123153247Y-81954429D02*
X122446140Y-81247323D01*
X122446140Y-81247323D02*
X122210438Y-81483025D01*
X122210438Y-81483025D02*
X122176766Y-81584040D01*
X122176766Y-81584040D02*
X122176766Y-81651384D01*
X122176766Y-81651384D02*
X122210438Y-81752399D01*
X122210438Y-81752399D02*
X122277781Y-81819742D01*
X122277781Y-81819742D02*
X122378796Y-81853414D01*
X122378796Y-81853414D02*
X122446140Y-81853414D01*
X122446140Y-81853414D02*
X122547155Y-81819742D01*
X122547155Y-81819742D02*
X122782857Y-81584040D01*
X124382265Y-80186664D02*
X123843517Y-80725412D01*
X121553838Y-83015091D02*
X121015090Y-83553839D01*
X121553838Y-83553839D02*
X121015090Y-83015091D01*
X177795180Y-136190476D02*
X177795180Y-136666666D01*
X177795180Y-136666666D02*
X177318990Y-136714285D01*
X177318990Y-136714285D02*
X177366609Y-136666666D01*
X177366609Y-136666666D02*
X177414228Y-136571428D01*
X177414228Y-136571428D02*
X177414228Y-136333333D01*
X177414228Y-136333333D02*
X177366609Y-136238095D01*
X177366609Y-136238095D02*
X177318990Y-136190476D01*
X177318990Y-136190476D02*
X177223752Y-136142857D01*
X177223752Y-136142857D02*
X176985657Y-136142857D01*
X176985657Y-136142857D02*
X176890419Y-136190476D01*
X176890419Y-136190476D02*
X176842800Y-136238095D01*
X176842800Y-136238095D02*
X176795180Y-136333333D01*
X176795180Y-136333333D02*
X176795180Y-136571428D01*
X176795180Y-136571428D02*
X176842800Y-136666666D01*
X176842800Y-136666666D02*
X176890419Y-136714285D01*
X177795180Y-135857142D02*
X176795180Y-135523809D01*
X176795180Y-135523809D02*
X177795180Y-135190476D01*
X183795180Y-136738094D02*
X183795180Y-136119047D01*
X183795180Y-136119047D02*
X183414228Y-136452380D01*
X183414228Y-136452380D02*
X183414228Y-136309523D01*
X183414228Y-136309523D02*
X183366609Y-136214285D01*
X183366609Y-136214285D02*
X183318990Y-136166666D01*
X183318990Y-136166666D02*
X183223752Y-136119047D01*
X183223752Y-136119047D02*
X182985657Y-136119047D01*
X182985657Y-136119047D02*
X182890419Y-136166666D01*
X182890419Y-136166666D02*
X182842800Y-136214285D01*
X182842800Y-136214285D02*
X182795180Y-136309523D01*
X182795180Y-136309523D02*
X182795180Y-136595237D01*
X182795180Y-136595237D02*
X182842800Y-136690475D01*
X182842800Y-136690475D02*
X182890419Y-136738094D01*
X183795180Y-135833332D02*
X182795180Y-135499999D01*
X182795180Y-135499999D02*
X183795180Y-135166666D01*
X183795180Y-134928570D02*
X183795180Y-134309523D01*
X183795180Y-134309523D02*
X183414228Y-134642856D01*
X183414228Y-134642856D02*
X183414228Y-134499999D01*
X183414228Y-134499999D02*
X183366609Y-134404761D01*
X183366609Y-134404761D02*
X183318990Y-134357142D01*
X183318990Y-134357142D02*
X183223752Y-134309523D01*
X183223752Y-134309523D02*
X182985657Y-134309523D01*
X182985657Y-134309523D02*
X182890419Y-134357142D01*
X182890419Y-134357142D02*
X182842800Y-134404761D01*
X182842800Y-134404761D02*
X182795180Y-134499999D01*
X182795180Y-134499999D02*
X182795180Y-134785713D01*
X182795180Y-134785713D02*
X182842800Y-134880951D01*
X182842800Y-134880951D02*
X182890419Y-134928570D01*
X180747561Y-136011904D02*
X180795180Y-136107142D01*
X180795180Y-136107142D02*
X180795180Y-136249999D01*
X180795180Y-136249999D02*
X180747561Y-136392856D01*
X180747561Y-136392856D02*
X180652323Y-136488094D01*
X180652323Y-136488094D02*
X180557085Y-136535713D01*
X180557085Y-136535713D02*
X180366609Y-136583332D01*
X180366609Y-136583332D02*
X180223752Y-136583332D01*
X180223752Y-136583332D02*
X180033276Y-136535713D01*
X180033276Y-136535713D02*
X179938038Y-136488094D01*
X179938038Y-136488094D02*
X179842800Y-136392856D01*
X179842800Y-136392856D02*
X179795180Y-136249999D01*
X179795180Y-136249999D02*
X179795180Y-136154761D01*
X179795180Y-136154761D02*
X179842800Y-136011904D01*
X179842800Y-136011904D02*
X179890419Y-135964285D01*
X179890419Y-135964285D02*
X180223752Y-135964285D01*
X180223752Y-135964285D02*
X180223752Y-136154761D01*
X179795180Y-135535713D02*
X180795180Y-135535713D01*
X180795180Y-135535713D02*
X179795180Y-134964285D01*
X179795180Y-134964285D02*
X180795180Y-134964285D01*
X179795180Y-134488094D02*
X180795180Y-134488094D01*
X180795180Y-134488094D02*
X180795180Y-134249999D01*
X180795180Y-134249999D02*
X180747561Y-134107142D01*
X180747561Y-134107142D02*
X180652323Y-134011904D01*
X180652323Y-134011904D02*
X180557085Y-133964285D01*
X180557085Y-133964285D02*
X180366609Y-133916666D01*
X180366609Y-133916666D02*
X180223752Y-133916666D01*
X180223752Y-133916666D02*
X180033276Y-133964285D01*
X180033276Y-133964285D02*
X179938038Y-134011904D01*
X179938038Y-134011904D02*
X179842800Y-134107142D01*
X179842800Y-134107142D02*
X179795180Y-134249999D01*
X179795180Y-134249999D02*
X179795180Y-134488094D01*
X139214285Y-64657200D02*
X139071428Y-64704819D01*
X139071428Y-64704819D02*
X138833333Y-64704819D01*
X138833333Y-64704819D02*
X138738095Y-64657200D01*
X138738095Y-64657200D02*
X138690476Y-64609580D01*
X138690476Y-64609580D02*
X138642857Y-64514342D01*
X138642857Y-64514342D02*
X138642857Y-64419104D01*
X138642857Y-64419104D02*
X138690476Y-64323866D01*
X138690476Y-64323866D02*
X138738095Y-64276247D01*
X138738095Y-64276247D02*
X138833333Y-64228628D01*
X138833333Y-64228628D02*
X139023809Y-64181009D01*
X139023809Y-64181009D02*
X139119047Y-64133390D01*
X139119047Y-64133390D02*
X139166666Y-64085771D01*
X139166666Y-64085771D02*
X139214285Y-63990533D01*
X139214285Y-63990533D02*
X139214285Y-63895295D01*
X139214285Y-63895295D02*
X139166666Y-63800057D01*
X139166666Y-63800057D02*
X139119047Y-63752438D01*
X139119047Y-63752438D02*
X139023809Y-63704819D01*
X139023809Y-63704819D02*
X138785714Y-63704819D01*
X138785714Y-63704819D02*
X138642857Y-63752438D01*
X138214285Y-64704819D02*
X138214285Y-63704819D01*
X138214285Y-63704819D02*
X137976190Y-63704819D01*
X137976190Y-63704819D02*
X137833333Y-63752438D01*
X137833333Y-63752438D02*
X137738095Y-63847676D01*
X137738095Y-63847676D02*
X137690476Y-63942914D01*
X137690476Y-63942914D02*
X137642857Y-64133390D01*
X137642857Y-64133390D02*
X137642857Y-64276247D01*
X137642857Y-64276247D02*
X137690476Y-64466723D01*
X137690476Y-64466723D02*
X137738095Y-64561961D01*
X137738095Y-64561961D02*
X137833333Y-64657200D01*
X137833333Y-64657200D02*
X137976190Y-64704819D01*
X137976190Y-64704819D02*
X138214285Y-64704819D01*
X137261904Y-64419104D02*
X136785714Y-64419104D01*
X137357142Y-64704819D02*
X137023809Y-63704819D01*
X137023809Y-63704819D02*
X136690476Y-64704819D01*
X135190475Y-64657200D02*
X135047618Y-64704819D01*
X135047618Y-64704819D02*
X134809523Y-64704819D01*
X134809523Y-64704819D02*
X134714285Y-64657200D01*
X134714285Y-64657200D02*
X134666666Y-64609580D01*
X134666666Y-64609580D02*
X134619047Y-64514342D01*
X134619047Y-64514342D02*
X134619047Y-64419104D01*
X134619047Y-64419104D02*
X134666666Y-64323866D01*
X134666666Y-64323866D02*
X134714285Y-64276247D01*
X134714285Y-64276247D02*
X134809523Y-64228628D01*
X134809523Y-64228628D02*
X134999999Y-64181009D01*
X134999999Y-64181009D02*
X135095237Y-64133390D01*
X135095237Y-64133390D02*
X135142856Y-64085771D01*
X135142856Y-64085771D02*
X135190475Y-63990533D01*
X135190475Y-63990533D02*
X135190475Y-63895295D01*
X135190475Y-63895295D02*
X135142856Y-63800057D01*
X135142856Y-63800057D02*
X135095237Y-63752438D01*
X135095237Y-63752438D02*
X134999999Y-63704819D01*
X134999999Y-63704819D02*
X134761904Y-63704819D01*
X134761904Y-63704819D02*
X134619047Y-63752438D01*
X133619047Y-64609580D02*
X133666666Y-64657200D01*
X133666666Y-64657200D02*
X133809523Y-64704819D01*
X133809523Y-64704819D02*
X133904761Y-64704819D01*
X133904761Y-64704819D02*
X134047618Y-64657200D01*
X134047618Y-64657200D02*
X134142856Y-64561961D01*
X134142856Y-64561961D02*
X134190475Y-64466723D01*
X134190475Y-64466723D02*
X134238094Y-64276247D01*
X134238094Y-64276247D02*
X134238094Y-64133390D01*
X134238094Y-64133390D02*
X134190475Y-63942914D01*
X134190475Y-63942914D02*
X134142856Y-63847676D01*
X134142856Y-63847676D02*
X134047618Y-63752438D01*
X134047618Y-63752438D02*
X133904761Y-63704819D01*
X133904761Y-63704819D02*
X133809523Y-63704819D01*
X133809523Y-63704819D02*
X133666666Y-63752438D01*
X133666666Y-63752438D02*
X133619047Y-63800057D01*
X132714285Y-64704819D02*
X133190475Y-64704819D01*
X133190475Y-64704819D02*
X133190475Y-63704819D01*
X171035713Y-117454819D02*
X171035713Y-118264342D01*
X171035713Y-118264342D02*
X170988094Y-118359580D01*
X170988094Y-118359580D02*
X170940475Y-118407200D01*
X170940475Y-118407200D02*
X170845237Y-118454819D01*
X170845237Y-118454819D02*
X170654761Y-118454819D01*
X170654761Y-118454819D02*
X170559523Y-118407200D01*
X170559523Y-118407200D02*
X170511904Y-118359580D01*
X170511904Y-118359580D02*
X170464285Y-118264342D01*
X170464285Y-118264342D02*
X170464285Y-117454819D01*
X168333332Y-119954819D02*
X167999999Y-120954819D01*
X167999999Y-120954819D02*
X167666666Y-119954819D01*
X165928570Y-122704819D02*
X165690475Y-123704819D01*
X165690475Y-123704819D02*
X165499999Y-122990533D01*
X165499999Y-122990533D02*
X165309523Y-123704819D01*
X165309523Y-123704819D02*
X165071428Y-122704819D01*
X110940476Y-104859580D02*
X110988095Y-104907200D01*
X110988095Y-104907200D02*
X111130952Y-104954819D01*
X111130952Y-104954819D02*
X111226190Y-104954819D01*
X111226190Y-104954819D02*
X111369047Y-104907200D01*
X111369047Y-104907200D02*
X111464285Y-104811961D01*
X111464285Y-104811961D02*
X111511904Y-104716723D01*
X111511904Y-104716723D02*
X111559523Y-104526247D01*
X111559523Y-104526247D02*
X111559523Y-104383390D01*
X111559523Y-104383390D02*
X111511904Y-104192914D01*
X111511904Y-104192914D02*
X111464285Y-104097676D01*
X111464285Y-104097676D02*
X111369047Y-104002438D01*
X111369047Y-104002438D02*
X111226190Y-103954819D01*
X111226190Y-103954819D02*
X111130952Y-103954819D01*
X111130952Y-103954819D02*
X110988095Y-104002438D01*
X110988095Y-104002438D02*
X110940476Y-104050057D01*
X110559523Y-104907200D02*
X110416666Y-104954819D01*
X110416666Y-104954819D02*
X110178571Y-104954819D01*
X110178571Y-104954819D02*
X110083333Y-104907200D01*
X110083333Y-104907200D02*
X110035714Y-104859580D01*
X110035714Y-104859580D02*
X109988095Y-104764342D01*
X109988095Y-104764342D02*
X109988095Y-104669104D01*
X109988095Y-104669104D02*
X110035714Y-104573866D01*
X110035714Y-104573866D02*
X110083333Y-104526247D01*
X110083333Y-104526247D02*
X110178571Y-104478628D01*
X110178571Y-104478628D02*
X110369047Y-104431009D01*
X110369047Y-104431009D02*
X110464285Y-104383390D01*
X110464285Y-104383390D02*
X110511904Y-104335771D01*
X110511904Y-104335771D02*
X110559523Y-104240533D01*
X110559523Y-104240533D02*
X110559523Y-104145295D01*
X110559523Y-104145295D02*
X110511904Y-104050057D01*
X110511904Y-104050057D02*
X110464285Y-104002438D01*
X110464285Y-104002438D02*
X110369047Y-103954819D01*
X110369047Y-103954819D02*
X110130952Y-103954819D01*
X110130952Y-103954819D02*
X109988095Y-104002438D01*
X109559523Y-104954819D02*
X109559523Y-103954819D01*
X109559523Y-103954819D02*
X108988095Y-104954819D01*
X108988095Y-104954819D02*
X108988095Y-103954819D01*
X111535713Y-112954819D02*
X111535713Y-111954819D01*
X111535713Y-111954819D02*
X111297618Y-111954819D01*
X111297618Y-111954819D02*
X111154761Y-112002438D01*
X111154761Y-112002438D02*
X111059523Y-112097676D01*
X111059523Y-112097676D02*
X111011904Y-112192914D01*
X111011904Y-112192914D02*
X110964285Y-112383390D01*
X110964285Y-112383390D02*
X110964285Y-112526247D01*
X110964285Y-112526247D02*
X111011904Y-112716723D01*
X111011904Y-112716723D02*
X111059523Y-112811961D01*
X111059523Y-112811961D02*
X111154761Y-112907200D01*
X111154761Y-112907200D02*
X111297618Y-112954819D01*
X111297618Y-112954819D02*
X111535713Y-112954819D01*
X110345237Y-111954819D02*
X110154761Y-111954819D01*
X110154761Y-111954819D02*
X110059523Y-112002438D01*
X110059523Y-112002438D02*
X109964285Y-112097676D01*
X109964285Y-112097676D02*
X109916666Y-112288152D01*
X109916666Y-112288152D02*
X109916666Y-112621485D01*
X109916666Y-112621485D02*
X109964285Y-112811961D01*
X109964285Y-112811961D02*
X110059523Y-112907200D01*
X110059523Y-112907200D02*
X110154761Y-112954819D01*
X110154761Y-112954819D02*
X110345237Y-112954819D01*
X110345237Y-112954819D02*
X110440475Y-112907200D01*
X110440475Y-112907200D02*
X110535713Y-112811961D01*
X110535713Y-112811961D02*
X110583332Y-112621485D01*
X110583332Y-112621485D02*
X110583332Y-112288152D01*
X110583332Y-112288152D02*
X110535713Y-112097676D01*
X110535713Y-112097676D02*
X110440475Y-112002438D01*
X110440475Y-112002438D02*
X110345237Y-111954819D01*
X130392857Y-136454819D02*
X130869047Y-136454819D01*
X130869047Y-136454819D02*
X130869047Y-135454819D01*
X130059523Y-135931009D02*
X129726190Y-135931009D01*
X129583333Y-136454819D02*
X130059523Y-136454819D01*
X130059523Y-136454819D02*
X130059523Y-135454819D01*
X130059523Y-135454819D02*
X129583333Y-135454819D01*
X129154761Y-136454819D02*
X129154761Y-135454819D01*
X129154761Y-135454819D02*
X128916666Y-135454819D01*
X128916666Y-135454819D02*
X128773809Y-135502438D01*
X128773809Y-135502438D02*
X128678571Y-135597676D01*
X128678571Y-135597676D02*
X128630952Y-135692914D01*
X128630952Y-135692914D02*
X128583333Y-135883390D01*
X128583333Y-135883390D02*
X128583333Y-136026247D01*
X128583333Y-136026247D02*
X128630952Y-136216723D01*
X128630952Y-136216723D02*
X128678571Y-136311961D01*
X128678571Y-136311961D02*
X128773809Y-136407200D01*
X128773809Y-136407200D02*
X128916666Y-136454819D01*
X128916666Y-136454819D02*
X129154761Y-136454819D01*
X110845238Y-108859580D02*
X110892857Y-108907200D01*
X110892857Y-108907200D02*
X111035714Y-108954819D01*
X111035714Y-108954819D02*
X111130952Y-108954819D01*
X111130952Y-108954819D02*
X111273809Y-108907200D01*
X111273809Y-108907200D02*
X111369047Y-108811961D01*
X111369047Y-108811961D02*
X111416666Y-108716723D01*
X111416666Y-108716723D02*
X111464285Y-108526247D01*
X111464285Y-108526247D02*
X111464285Y-108383390D01*
X111464285Y-108383390D02*
X111416666Y-108192914D01*
X111416666Y-108192914D02*
X111369047Y-108097676D01*
X111369047Y-108097676D02*
X111273809Y-108002438D01*
X111273809Y-108002438D02*
X111130952Y-107954819D01*
X111130952Y-107954819D02*
X111035714Y-107954819D01*
X111035714Y-107954819D02*
X110892857Y-108002438D01*
X110892857Y-108002438D02*
X110845238Y-108050057D01*
X109940476Y-108954819D02*
X110416666Y-108954819D01*
X110416666Y-108954819D02*
X110416666Y-107954819D01*
X109607142Y-108954819D02*
X109607142Y-107954819D01*
X109035714Y-108954819D02*
X109464285Y-108383390D01*
X109035714Y-107954819D02*
X109607142Y-108526247D01*
X114511904Y-135454819D02*
X113940476Y-135454819D01*
X114226190Y-136454819D02*
X114226190Y-135454819D01*
X113702380Y-135454819D02*
X113035714Y-136454819D01*
X113035714Y-135454819D02*
X113702380Y-136454819D01*
X117916666Y-136454819D02*
X118249999Y-135978628D01*
X118488094Y-136454819D02*
X118488094Y-135454819D01*
X118488094Y-135454819D02*
X118107142Y-135454819D01*
X118107142Y-135454819D02*
X118011904Y-135502438D01*
X118011904Y-135502438D02*
X117964285Y-135550057D01*
X117964285Y-135550057D02*
X117916666Y-135645295D01*
X117916666Y-135645295D02*
X117916666Y-135788152D01*
X117916666Y-135788152D02*
X117964285Y-135883390D01*
X117964285Y-135883390D02*
X118011904Y-135931009D01*
X118011904Y-135931009D02*
X118107142Y-135978628D01*
X118107142Y-135978628D02*
X118488094Y-135978628D01*
X117583332Y-135454819D02*
X116916666Y-136454819D01*
X116916666Y-135454819D02*
X117583332Y-136454819D01*
X161795180Y-136726189D02*
X162795180Y-136726189D01*
X162795180Y-136059523D02*
X162795180Y-135869047D01*
X162795180Y-135869047D02*
X162747561Y-135773809D01*
X162747561Y-135773809D02*
X162652323Y-135678571D01*
X162652323Y-135678571D02*
X162461847Y-135630952D01*
X162461847Y-135630952D02*
X162128514Y-135630952D01*
X162128514Y-135630952D02*
X161938038Y-135678571D01*
X161938038Y-135678571D02*
X161842800Y-135773809D01*
X161842800Y-135773809D02*
X161795180Y-135869047D01*
X161795180Y-135869047D02*
X161795180Y-136059523D01*
X161795180Y-136059523D02*
X161842800Y-136154761D01*
X161842800Y-136154761D02*
X161938038Y-136249999D01*
X161938038Y-136249999D02*
X162128514Y-136297618D01*
X162128514Y-136297618D02*
X162461847Y-136297618D01*
X162461847Y-136297618D02*
X162652323Y-136249999D01*
X162652323Y-136249999D02*
X162747561Y-136154761D01*
X162747561Y-136154761D02*
X162795180Y-136059523D01*
X162461847Y-134773809D02*
X161795180Y-134773809D01*
X162842800Y-135011904D02*
X162128514Y-135249999D01*
X162128514Y-135249999D02*
X162128514Y-134630952D01*
X162795180Y-134059523D02*
X162795180Y-133964285D01*
X162795180Y-133964285D02*
X162747561Y-133869047D01*
X162747561Y-133869047D02*
X162699942Y-133821428D01*
X162699942Y-133821428D02*
X162604704Y-133773809D01*
X162604704Y-133773809D02*
X162414228Y-133726190D01*
X162414228Y-133726190D02*
X162176133Y-133726190D01*
X162176133Y-133726190D02*
X161985657Y-133773809D01*
X161985657Y-133773809D02*
X161890419Y-133821428D01*
X161890419Y-133821428D02*
X161842800Y-133869047D01*
X161842800Y-133869047D02*
X161795180Y-133964285D01*
X161795180Y-133964285D02*
X161795180Y-134059523D01*
X161795180Y-134059523D02*
X161842800Y-134154761D01*
X161842800Y-134154761D02*
X161890419Y-134202380D01*
X161890419Y-134202380D02*
X161985657Y-134249999D01*
X161985657Y-134249999D02*
X162176133Y-134297618D01*
X162176133Y-134297618D02*
X162414228Y-134297618D01*
X162414228Y-134297618D02*
X162604704Y-134249999D01*
X162604704Y-134249999D02*
X162699942Y-134202380D01*
X162699942Y-134202380D02*
X162747561Y-134154761D01*
X162747561Y-134154761D02*
X162795180Y-134059523D01*
X126488094Y-135931009D02*
X126154761Y-135931009D01*
X126011904Y-136454819D02*
X126488094Y-136454819D01*
X126488094Y-136454819D02*
X126488094Y-135454819D01*
X126488094Y-135454819D02*
X126011904Y-135454819D01*
X125583332Y-136454819D02*
X125583332Y-135454819D01*
X125583332Y-135454819D02*
X125011904Y-136454819D01*
X125011904Y-136454819D02*
X125011904Y-135454819D01*
X155795180Y-136726189D02*
X156795180Y-136726189D01*
X156795180Y-136059523D02*
X156795180Y-135869047D01*
X156795180Y-135869047D02*
X156747561Y-135773809D01*
X156747561Y-135773809D02*
X156652323Y-135678571D01*
X156652323Y-135678571D02*
X156461847Y-135630952D01*
X156461847Y-135630952D02*
X156128514Y-135630952D01*
X156128514Y-135630952D02*
X155938038Y-135678571D01*
X155938038Y-135678571D02*
X155842800Y-135773809D01*
X155842800Y-135773809D02*
X155795180Y-135869047D01*
X155795180Y-135869047D02*
X155795180Y-136059523D01*
X155795180Y-136059523D02*
X155842800Y-136154761D01*
X155842800Y-136154761D02*
X155938038Y-136249999D01*
X155938038Y-136249999D02*
X156128514Y-136297618D01*
X156128514Y-136297618D02*
X156461847Y-136297618D01*
X156461847Y-136297618D02*
X156652323Y-136249999D01*
X156652323Y-136249999D02*
X156747561Y-136154761D01*
X156747561Y-136154761D02*
X156795180Y-136059523D01*
X156461847Y-134773809D02*
X155795180Y-134773809D01*
X156842800Y-135011904D02*
X156128514Y-135249999D01*
X156128514Y-135249999D02*
X156128514Y-134630952D01*
X156699942Y-134297618D02*
X156747561Y-134249999D01*
X156747561Y-134249999D02*
X156795180Y-134154761D01*
X156795180Y-134154761D02*
X156795180Y-133916666D01*
X156795180Y-133916666D02*
X156747561Y-133821428D01*
X156747561Y-133821428D02*
X156699942Y-133773809D01*
X156699942Y-133773809D02*
X156604704Y-133726190D01*
X156604704Y-133726190D02*
X156509466Y-133726190D01*
X156509466Y-133726190D02*
X156366609Y-133773809D01*
X156366609Y-133773809D02*
X155795180Y-134345237D01*
X155795180Y-134345237D02*
X155795180Y-133726190D01*
X170795180Y-136726189D02*
X171795180Y-136726189D01*
X171795180Y-136059523D02*
X171795180Y-135869047D01*
X171795180Y-135869047D02*
X171747561Y-135773809D01*
X171747561Y-135773809D02*
X171652323Y-135678571D01*
X171652323Y-135678571D02*
X171461847Y-135630952D01*
X171461847Y-135630952D02*
X171128514Y-135630952D01*
X171128514Y-135630952D02*
X170938038Y-135678571D01*
X170938038Y-135678571D02*
X170842800Y-135773809D01*
X170842800Y-135773809D02*
X170795180Y-135869047D01*
X170795180Y-135869047D02*
X170795180Y-136059523D01*
X170795180Y-136059523D02*
X170842800Y-136154761D01*
X170842800Y-136154761D02*
X170938038Y-136249999D01*
X170938038Y-136249999D02*
X171128514Y-136297618D01*
X171128514Y-136297618D02*
X171461847Y-136297618D01*
X171461847Y-136297618D02*
X171652323Y-136249999D01*
X171652323Y-136249999D02*
X171747561Y-136154761D01*
X171747561Y-136154761D02*
X171795180Y-136059523D01*
X171461847Y-134773809D02*
X170795180Y-134773809D01*
X171842800Y-135011904D02*
X171128514Y-135249999D01*
X171128514Y-135249999D02*
X171128514Y-134630952D01*
X171795180Y-134345237D02*
X171795180Y-133678571D01*
X171795180Y-133678571D02*
X170795180Y-134107142D01*
X167795180Y-136726189D02*
X168795180Y-136726189D01*
X168795180Y-136059523D02*
X168795180Y-135869047D01*
X168795180Y-135869047D02*
X168747561Y-135773809D01*
X168747561Y-135773809D02*
X168652323Y-135678571D01*
X168652323Y-135678571D02*
X168461847Y-135630952D01*
X168461847Y-135630952D02*
X168128514Y-135630952D01*
X168128514Y-135630952D02*
X167938038Y-135678571D01*
X167938038Y-135678571D02*
X167842800Y-135773809D01*
X167842800Y-135773809D02*
X167795180Y-135869047D01*
X167795180Y-135869047D02*
X167795180Y-136059523D01*
X167795180Y-136059523D02*
X167842800Y-136154761D01*
X167842800Y-136154761D02*
X167938038Y-136249999D01*
X167938038Y-136249999D02*
X168128514Y-136297618D01*
X168128514Y-136297618D02*
X168461847Y-136297618D01*
X168461847Y-136297618D02*
X168652323Y-136249999D01*
X168652323Y-136249999D02*
X168747561Y-136154761D01*
X168747561Y-136154761D02*
X168795180Y-136059523D01*
X168461847Y-134773809D02*
X167795180Y-134773809D01*
X168842800Y-135011904D02*
X168128514Y-135249999D01*
X168128514Y-135249999D02*
X168128514Y-134630952D01*
X168366609Y-134107142D02*
X168414228Y-134202380D01*
X168414228Y-134202380D02*
X168461847Y-134249999D01*
X168461847Y-134249999D02*
X168557085Y-134297618D01*
X168557085Y-134297618D02*
X168604704Y-134297618D01*
X168604704Y-134297618D02*
X168699942Y-134249999D01*
X168699942Y-134249999D02*
X168747561Y-134202380D01*
X168747561Y-134202380D02*
X168795180Y-134107142D01*
X168795180Y-134107142D02*
X168795180Y-133916666D01*
X168795180Y-133916666D02*
X168747561Y-133821428D01*
X168747561Y-133821428D02*
X168699942Y-133773809D01*
X168699942Y-133773809D02*
X168604704Y-133726190D01*
X168604704Y-133726190D02*
X168557085Y-133726190D01*
X168557085Y-133726190D02*
X168461847Y-133773809D01*
X168461847Y-133773809D02*
X168414228Y-133821428D01*
X168414228Y-133821428D02*
X168366609Y-133916666D01*
X168366609Y-133916666D02*
X168366609Y-134107142D01*
X168366609Y-134107142D02*
X168318990Y-134202380D01*
X168318990Y-134202380D02*
X168271371Y-134249999D01*
X168271371Y-134249999D02*
X168176133Y-134297618D01*
X168176133Y-134297618D02*
X167985657Y-134297618D01*
X167985657Y-134297618D02*
X167890419Y-134249999D01*
X167890419Y-134249999D02*
X167842800Y-134202380D01*
X167842800Y-134202380D02*
X167795180Y-134107142D01*
X167795180Y-134107142D02*
X167795180Y-133916666D01*
X167795180Y-133916666D02*
X167842800Y-133821428D01*
X167842800Y-133821428D02*
X167890419Y-133773809D01*
X167890419Y-133773809D02*
X167985657Y-133726190D01*
X167985657Y-133726190D02*
X168176133Y-133726190D01*
X168176133Y-133726190D02*
X168271371Y-133773809D01*
X168271371Y-133773809D02*
X168318990Y-133821428D01*
X168318990Y-133821428D02*
X168366609Y-133916666D01*
X123207142Y-135931009D02*
X123064285Y-135978628D01*
X123064285Y-135978628D02*
X123016666Y-136026247D01*
X123016666Y-136026247D02*
X122969047Y-136121485D01*
X122969047Y-136121485D02*
X122969047Y-136264342D01*
X122969047Y-136264342D02*
X123016666Y-136359580D01*
X123016666Y-136359580D02*
X123064285Y-136407200D01*
X123064285Y-136407200D02*
X123159523Y-136454819D01*
X123159523Y-136454819D02*
X123540475Y-136454819D01*
X123540475Y-136454819D02*
X123540475Y-135454819D01*
X123540475Y-135454819D02*
X123207142Y-135454819D01*
X123207142Y-135454819D02*
X123111904Y-135502438D01*
X123111904Y-135502438D02*
X123064285Y-135550057D01*
X123064285Y-135550057D02*
X123016666Y-135645295D01*
X123016666Y-135645295D02*
X123016666Y-135740533D01*
X123016666Y-135740533D02*
X123064285Y-135835771D01*
X123064285Y-135835771D02*
X123111904Y-135883390D01*
X123111904Y-135883390D02*
X123207142Y-135931009D01*
X123207142Y-135931009D02*
X123540475Y-135931009D01*
X122349999Y-135454819D02*
X122159523Y-135454819D01*
X122159523Y-135454819D02*
X122064285Y-135502438D01*
X122064285Y-135502438D02*
X121969047Y-135597676D01*
X121969047Y-135597676D02*
X121921428Y-135788152D01*
X121921428Y-135788152D02*
X121921428Y-136121485D01*
X121921428Y-136121485D02*
X121969047Y-136311961D01*
X121969047Y-136311961D02*
X122064285Y-136407200D01*
X122064285Y-136407200D02*
X122159523Y-136454819D01*
X122159523Y-136454819D02*
X122349999Y-136454819D01*
X122349999Y-136454819D02*
X122445237Y-136407200D01*
X122445237Y-136407200D02*
X122540475Y-136311961D01*
X122540475Y-136311961D02*
X122588094Y-136121485D01*
X122588094Y-136121485D02*
X122588094Y-135788152D01*
X122588094Y-135788152D02*
X122540475Y-135597676D01*
X122540475Y-135597676D02*
X122445237Y-135502438D01*
X122445237Y-135502438D02*
X122349999Y-135454819D01*
X121302380Y-135454819D02*
X121111904Y-135454819D01*
X121111904Y-135454819D02*
X121016666Y-135502438D01*
X121016666Y-135502438D02*
X120921428Y-135597676D01*
X120921428Y-135597676D02*
X120873809Y-135788152D01*
X120873809Y-135788152D02*
X120873809Y-136121485D01*
X120873809Y-136121485D02*
X120921428Y-136311961D01*
X120921428Y-136311961D02*
X121016666Y-136407200D01*
X121016666Y-136407200D02*
X121111904Y-136454819D01*
X121111904Y-136454819D02*
X121302380Y-136454819D01*
X121302380Y-136454819D02*
X121397618Y-136407200D01*
X121397618Y-136407200D02*
X121492856Y-136311961D01*
X121492856Y-136311961D02*
X121540475Y-136121485D01*
X121540475Y-136121485D02*
X121540475Y-135788152D01*
X121540475Y-135788152D02*
X121492856Y-135597676D01*
X121492856Y-135597676D02*
X121397618Y-135502438D01*
X121397618Y-135502438D02*
X121302380Y-135454819D01*
X120588094Y-135454819D02*
X120016666Y-135454819D01*
X120302380Y-136454819D02*
X120302380Y-135454819D01*
X158795180Y-136726189D02*
X159795180Y-136726189D01*
X159795180Y-136059523D02*
X159795180Y-135869047D01*
X159795180Y-135869047D02*
X159747561Y-135773809D01*
X159747561Y-135773809D02*
X159652323Y-135678571D01*
X159652323Y-135678571D02*
X159461847Y-135630952D01*
X159461847Y-135630952D02*
X159128514Y-135630952D01*
X159128514Y-135630952D02*
X158938038Y-135678571D01*
X158938038Y-135678571D02*
X158842800Y-135773809D01*
X158842800Y-135773809D02*
X158795180Y-135869047D01*
X158795180Y-135869047D02*
X158795180Y-136059523D01*
X158795180Y-136059523D02*
X158842800Y-136154761D01*
X158842800Y-136154761D02*
X158938038Y-136249999D01*
X158938038Y-136249999D02*
X159128514Y-136297618D01*
X159128514Y-136297618D02*
X159461847Y-136297618D01*
X159461847Y-136297618D02*
X159652323Y-136249999D01*
X159652323Y-136249999D02*
X159747561Y-136154761D01*
X159747561Y-136154761D02*
X159795180Y-136059523D01*
X159461847Y-134773809D02*
X158795180Y-134773809D01*
X159842800Y-135011904D02*
X159128514Y-135249999D01*
X159128514Y-135249999D02*
X159128514Y-134630952D01*
X158795180Y-133726190D02*
X158795180Y-134297618D01*
X158795180Y-134011904D02*
X159795180Y-134011904D01*
X159795180Y-134011904D02*
X159652323Y-134107142D01*
X159652323Y-134107142D02*
X159557085Y-134202380D01*
X159557085Y-134202380D02*
X159509466Y-134297618D01*
X164795180Y-136726189D02*
X165795180Y-136726189D01*
X165795180Y-136059523D02*
X165795180Y-135869047D01*
X165795180Y-135869047D02*
X165747561Y-135773809D01*
X165747561Y-135773809D02*
X165652323Y-135678571D01*
X165652323Y-135678571D02*
X165461847Y-135630952D01*
X165461847Y-135630952D02*
X165128514Y-135630952D01*
X165128514Y-135630952D02*
X164938038Y-135678571D01*
X164938038Y-135678571D02*
X164842800Y-135773809D01*
X164842800Y-135773809D02*
X164795180Y-135869047D01*
X164795180Y-135869047D02*
X164795180Y-136059523D01*
X164795180Y-136059523D02*
X164842800Y-136154761D01*
X164842800Y-136154761D02*
X164938038Y-136249999D01*
X164938038Y-136249999D02*
X165128514Y-136297618D01*
X165128514Y-136297618D02*
X165461847Y-136297618D01*
X165461847Y-136297618D02*
X165652323Y-136249999D01*
X165652323Y-136249999D02*
X165747561Y-136154761D01*
X165747561Y-136154761D02*
X165795180Y-136059523D01*
X165461847Y-134773809D02*
X164795180Y-134773809D01*
X165842800Y-135011904D02*
X165128514Y-135249999D01*
X165128514Y-135249999D02*
X165128514Y-134630952D01*
X165795180Y-133773809D02*
X165795180Y-134249999D01*
X165795180Y-134249999D02*
X165318990Y-134297618D01*
X165318990Y-134297618D02*
X165366609Y-134249999D01*
X165366609Y-134249999D02*
X165414228Y-134154761D01*
X165414228Y-134154761D02*
X165414228Y-133916666D01*
X165414228Y-133916666D02*
X165366609Y-133821428D01*
X165366609Y-133821428D02*
X165318990Y-133773809D01*
X165318990Y-133773809D02*
X165223752Y-133726190D01*
X165223752Y-133726190D02*
X164985657Y-133726190D01*
X164985657Y-133726190D02*
X164890419Y-133773809D01*
X164890419Y-133773809D02*
X164842800Y-133821428D01*
X164842800Y-133821428D02*
X164795180Y-133916666D01*
X164795180Y-133916666D02*
X164795180Y-134154761D01*
X164795180Y-134154761D02*
X164842800Y-134249999D01*
X164842800Y-134249999D02*
X164890419Y-134297618D01*
X173795180Y-136726189D02*
X174795180Y-136726189D01*
X174795180Y-136059523D02*
X174795180Y-135869047D01*
X174795180Y-135869047D02*
X174747561Y-135773809D01*
X174747561Y-135773809D02*
X174652323Y-135678571D01*
X174652323Y-135678571D02*
X174461847Y-135630952D01*
X174461847Y-135630952D02*
X174128514Y-135630952D01*
X174128514Y-135630952D02*
X173938038Y-135678571D01*
X173938038Y-135678571D02*
X173842800Y-135773809D01*
X173842800Y-135773809D02*
X173795180Y-135869047D01*
X173795180Y-135869047D02*
X173795180Y-136059523D01*
X173795180Y-136059523D02*
X173842800Y-136154761D01*
X173842800Y-136154761D02*
X173938038Y-136249999D01*
X173938038Y-136249999D02*
X174128514Y-136297618D01*
X174128514Y-136297618D02*
X174461847Y-136297618D01*
X174461847Y-136297618D02*
X174652323Y-136249999D01*
X174652323Y-136249999D02*
X174747561Y-136154761D01*
X174747561Y-136154761D02*
X174795180Y-136059523D01*
X174461847Y-134773809D02*
X173795180Y-134773809D01*
X174842800Y-135011904D02*
X174128514Y-135249999D01*
X174128514Y-135249999D02*
X174128514Y-134630952D01*
X174795180Y-133821428D02*
X174795180Y-134011904D01*
X174795180Y-134011904D02*
X174747561Y-134107142D01*
X174747561Y-134107142D02*
X174699942Y-134154761D01*
X174699942Y-134154761D02*
X174557085Y-134249999D01*
X174557085Y-134249999D02*
X174366609Y-134297618D01*
X174366609Y-134297618D02*
X173985657Y-134297618D01*
X173985657Y-134297618D02*
X173890419Y-134249999D01*
X173890419Y-134249999D02*
X173842800Y-134202380D01*
X173842800Y-134202380D02*
X173795180Y-134107142D01*
X173795180Y-134107142D02*
X173795180Y-133916666D01*
X173795180Y-133916666D02*
X173842800Y-133821428D01*
X173842800Y-133821428D02*
X173890419Y-133773809D01*
X173890419Y-133773809D02*
X173985657Y-133726190D01*
X173985657Y-133726190D02*
X174223752Y-133726190D01*
X174223752Y-133726190D02*
X174318990Y-133773809D01*
X174318990Y-133773809D02*
X174366609Y-133821428D01*
X174366609Y-133821428D02*
X174414228Y-133916666D01*
X174414228Y-133916666D02*
X174414228Y-134107142D01*
X174414228Y-134107142D02*
X174366609Y-134202380D01*
X174366609Y-134202380D02*
X174318990Y-134249999D01*
X174318990Y-134249999D02*
X174223752Y-134297618D01*
%TO.C,J4*%
X112000000Y-118000000D02*
X112500000Y-118000000D01*
X112000000Y-118500000D02*
X112000000Y-118000000D01*
%TO.C,J2*%
X128525126Y-81767767D02*
X128171573Y-81414214D01*
X128878680Y-81414214D02*
X128525126Y-81767767D01*
%TO.C,U3*%
X142600000Y-62950000D02*
X142600000Y-61950000D01*
X142600000Y-62950000D02*
X143600000Y-62950000D01*
X148400000Y-59950000D02*
X149400000Y-59950000D01*
X149400000Y-59950000D02*
X149400000Y-61000000D01*
%TO.C,J3*%
X123353553Y-86767767D02*
X123000000Y-86414214D01*
X123707107Y-86414214D02*
X123353553Y-86767767D01*
D10*
%TO.C,R3*%
X171677064Y-98290000D02*
X167322936Y-98290000D01*
X171677064Y-101710000D02*
X167322936Y-101710000D01*
%TO.C,R7*%
X120322936Y-98290000D02*
X124677064Y-98290000D01*
X120322936Y-101710000D02*
X124677064Y-101710000D01*
%TO.C,R4*%
X163777064Y-98290000D02*
X159422936Y-98290000D01*
X163777064Y-101710000D02*
X159422936Y-101710000D01*
%TO.C,R6*%
X128222936Y-98290000D02*
X132577064Y-98290000D01*
X128222936Y-101710000D02*
X132577064Y-101710000D01*
%TD*%
%LPC*%
D14*
%TO.C,H4*%
X151125427Y-91122500D03*
%TD*%
%TO.C,H1*%
X151125427Y-108877499D03*
%TD*%
%TO.C,H2*%
X135749146Y-100000000D03*
%TD*%
D15*
%TO.C,H3*%
X116200000Y-100000000D03*
%TD*%
%TO.C,H5*%
X146000000Y-70200000D03*
%TD*%
%TO.C,H6*%
X175800000Y-100000000D03*
%TD*%
D16*
%TO.C,J1*%
X140380000Y-135000000D03*
D17*
X140380000Y-139000000D03*
D16*
X151620000Y-135000000D03*
D17*
X151620000Y-139000000D03*
%TD*%
D15*
%TO.C,H7*%
X181000000Y-100000000D03*
%TD*%
%TO.C,H8*%
X111000000Y-100000000D03*
%TD*%
D18*
%TO.C,J4*%
X113500000Y-119000000D03*
X113500000Y-121000000D03*
X113500000Y-123000000D03*
X113500000Y-125000000D03*
X113500000Y-127000000D03*
X113500000Y-129000000D03*
X113500000Y-131000000D03*
X113500000Y-133000000D03*
%TD*%
D19*
%TO.C,J2*%
X128171573Y-80000000D03*
X129585787Y-78585786D03*
X131000000Y-77171573D03*
%TD*%
D20*
%TO.C,U3*%
X147905000Y-62350000D03*
X146635000Y-62350000D03*
X145365000Y-62350000D03*
X144095000Y-62350000D03*
%TD*%
D19*
%TO.C,J3*%
X123000000Y-85000000D03*
X124414214Y-83585786D03*
X125828427Y-82171573D03*
%TD*%
D21*
%TO.C,J6*%
X158962269Y-118336513D03*
X164336280Y-112962502D03*
D22*
X162816000Y-118584000D03*
X163699883Y-117700117D03*
X164583767Y-116816233D03*
%TD*%
D23*
%TO.C,TP1*%
X177250000Y-138250000D03*
%TD*%
%TO.C,TP3*%
X183250000Y-138250000D03*
%TD*%
%TO.C,TP2*%
X180250000Y-138250000D03*
%TD*%
%TO.C,TP8*%
X138000000Y-62000000D03*
%TD*%
%TO.C,TP9*%
X134000000Y-62000000D03*
%TD*%
%TO.C,TP14*%
X169000000Y-116500000D03*
%TD*%
%TO.C,TP15*%
X166500000Y-119000000D03*
%TD*%
%TO.C,TP16*%
X164000000Y-121500000D03*
%TD*%
%TO.C,TP5*%
X113500000Y-104500000D03*
%TD*%
%TO.C,TP7*%
X113500000Y-112500000D03*
%TD*%
%TO.C,TP4*%
X129750000Y-138250000D03*
%TD*%
%TO.C,TP6*%
X113500000Y-108500000D03*
%TD*%
%TO.C,TP13*%
X113750000Y-138250000D03*
%TD*%
%TO.C,TP12*%
X117750000Y-138250000D03*
%TD*%
D24*
%TO.C,R3*%
X172462500Y-100000000D03*
X166537500Y-100000000D03*
%TD*%
D25*
%TO.C,SW1*%
X126825000Y-134325000D03*
X126825000Y-130175000D03*
X124675000Y-134325000D03*
X124675000Y-130175000D03*
%TD*%
D23*
%TO.C,TP17*%
X162250000Y-138250000D03*
%TD*%
D26*
%TO.C,J7*%
X162100000Y-64875000D03*
X163100000Y-64875000D03*
X164100000Y-64875000D03*
X165100000Y-64875000D03*
D27*
X160800000Y-61000000D03*
X166400000Y-61000000D03*
%TD*%
D28*
%TO.C,R7*%
X119537500Y-100000000D03*
X125462500Y-100000000D03*
%TD*%
D23*
%TO.C,TP10*%
X125750000Y-138250000D03*
%TD*%
%TO.C,TP19*%
X156250000Y-138250000D03*
%TD*%
%TO.C,TP22*%
X171250000Y-138250000D03*
%TD*%
%TO.C,TP23*%
X168250000Y-138250000D03*
%TD*%
D26*
%TO.C,J9*%
X169900000Y-64875000D03*
X170900000Y-64875000D03*
X171900000Y-64875000D03*
X172900000Y-64875000D03*
D27*
X168600000Y-61000000D03*
X174200000Y-61000000D03*
%TD*%
D26*
%TO.C,J8*%
X177700000Y-64875000D03*
X178700000Y-64875000D03*
X179700000Y-64875000D03*
X180700000Y-64875000D03*
D27*
X176400000Y-61000000D03*
X182000000Y-61000000D03*
%TD*%
D24*
%TO.C,R4*%
X164562500Y-100000000D03*
X158637500Y-100000000D03*
%TD*%
D25*
%TO.C,SW2*%
X120675000Y-130175000D03*
X120675000Y-134325000D03*
X122825000Y-130175000D03*
X122825000Y-134325000D03*
%TD*%
D23*
%TO.C,TP11*%
X121750000Y-138250000D03*
%TD*%
D29*
%TO.C,J5*%
X127248750Y-116408960D03*
X127602303Y-116762514D03*
X127955857Y-117116067D03*
X128309410Y-117469620D03*
X128662964Y-117823174D03*
X129016517Y-118176727D03*
X129370070Y-118530281D03*
X129723624Y-118883834D03*
D30*
X127496237Y-114429061D03*
X131703523Y-118636347D03*
%TD*%
D23*
%TO.C,TP18*%
X159250000Y-138250000D03*
%TD*%
D28*
%TO.C,R6*%
X127437500Y-100000000D03*
X133362500Y-100000000D03*
%TD*%
D23*
%TO.C,TP20*%
X165250000Y-138250000D03*
%TD*%
%TO.C,TP21*%
X174250000Y-138250000D03*
%TD*%
%LPD*%
M02*
