%TF.GenerationSoftware,KiCad,Pcbnew,9.0.1*%
%TF.CreationDate,2025-04-25T15:08:37+02:00*%
%TF.ProjectId,view_base,76696577-5f62-4617-9365-2e6b69636164,0.1.0*%
%TF.SameCoordinates,Original*%
%TF.FileFunction,Profile,NP*%
%FSLAX46Y46*%
G04 Gerber Fmt 4.6, Leading zero omitted, Abs format (unit mm)*
G04 Created by KiCad (PCBNEW 9.0.1) date 2025-04-25 15:08:37*
%MOMM*%
%LPD*%
G01*
G04 APERTURE LIST*
%TA.AperFunction,Profile*%
%ADD10C,0.200000*%
%TD*%
%TA.AperFunction,Profile*%
%ADD11C,0.050000*%
%TD*%
G04 APERTURE END LIST*
D10*
X130793094Y-102499999D02*
X122709801Y-102499999D01*
X142500000Y-116007810D02*
X142500000Y-123290199D01*
X143500000Y-123290199D02*
X143500001Y-115206906D01*
X149499999Y-116007810D02*
G75*
G02*
X149878784Y-115522715I500001J10D01*
G01*
X143500000Y-123290199D02*
G75*
G02*
X142500000Y-123290199I-500000J0D01*
G01*
X160716360Y-102903226D02*
G75*
G02*
X148903225Y-114716360I-14716360J2903226D01*
G01*
X160716361Y-102903226D02*
G75*
G02*
X161206906Y-102500006I490539J-96774D01*
G01*
X161522725Y-103878788D02*
G75*
G02*
X149878787Y-115522725I-15522725J3878788D01*
G01*
X156499999Y-102750000D02*
G75*
G02*
X155749999Y-103499999I-749999J0D01*
G01*
X161522726Y-103878787D02*
G75*
G02*
X162007810Y-103500011I485074J-121213D01*
G01*
X156499999Y-102750000D02*
X156499999Y-97250001D01*
X169290199Y-96500001D02*
G75*
G02*
X169290199Y-97499999I1J-499999D01*
G01*
X149499999Y-123290199D02*
G75*
G02*
X148499999Y-123290199I-500000J0D01*
G01*
X149499999Y-123290199D02*
X149499999Y-116007810D01*
X155749999Y-96500001D02*
G75*
G02*
X156499999Y-97250001I1J-749999D01*
G01*
X155749999Y-96500001D02*
X153749999Y-96500001D01*
X152999999Y-97250001D02*
G75*
G02*
X153749999Y-96499999I750001J1D01*
G01*
X152999999Y-97250001D02*
X152999999Y-102750000D01*
X162007810Y-103500000D02*
X169290199Y-103500000D01*
X153749999Y-103500000D02*
G75*
G02*
X153000000Y-102750000I1J750000D01*
G01*
X148903226Y-85283640D02*
G75*
G02*
X160716360Y-97096775I-2903226J-14716360D01*
G01*
X161206906Y-97500001D02*
X169290199Y-97500001D01*
X142121212Y-115522725D02*
G75*
G02*
X130477275Y-103878787I3878788J15522725D01*
G01*
X161206906Y-97500002D02*
G75*
G02*
X160716353Y-97096776I-6J500002D01*
G01*
X148499998Y-115206906D02*
G75*
G02*
X148903224Y-114716353I500002J6D01*
G01*
X186600000Y-136599999D02*
G75*
G02*
X182600000Y-140600000I-4000000J-1D01*
G01*
X169290199Y-102500000D02*
X161206906Y-102500000D01*
X122709801Y-103499999D02*
G75*
G02*
X122709801Y-102500001I-1J499999D01*
G01*
X143096774Y-114716360D02*
G75*
G02*
X131283640Y-102903225I2903226J14716360D01*
G01*
X129992190Y-103499999D02*
G75*
G02*
X130477285Y-103878784I10J-500001D01*
G01*
X143096774Y-114716360D02*
G75*
G02*
X143499995Y-115206906I-96774J-490540D01*
G01*
X122709801Y-103499999D02*
X129992190Y-103499999D01*
X148499999Y-115206906D02*
X148499999Y-123290199D01*
X130793094Y-102499998D02*
G75*
G02*
X131283647Y-102903224I6J-500002D01*
G01*
X153749999Y-103500000D02*
X155749999Y-103500000D01*
X148903226Y-85283639D02*
G75*
G02*
X148500006Y-84793094I96774J490539D01*
G01*
X169290199Y-96500001D02*
X162007810Y-96500001D01*
X169290199Y-102500000D02*
G75*
G02*
X169290199Y-103500000I1J-500000D01*
G01*
X142121213Y-115522726D02*
G75*
G02*
X142499989Y-116007810I-121213J-485074D01*
G01*
X105400001Y-63400000D02*
G75*
G02*
X109400001Y-59400001I3999999J0D01*
G01*
X182600000Y-59400000D02*
G75*
G02*
X186600000Y-63400000I0J-4000000D01*
G01*
X105400001Y-136599999D02*
X105400001Y-63400000D01*
X182600000Y-140599999D02*
X150620000Y-140600000D01*
X141380000Y-140600000D02*
X109400001Y-140599999D01*
X109400001Y-140599999D02*
G75*
G02*
X105400001Y-136599999I-1J3999999D01*
G01*
X186600000Y-63400000D02*
X186600000Y-136599999D01*
X109400001Y-59400000D02*
X182600000Y-59400000D01*
X143500002Y-84793094D02*
G75*
G02*
X143096776Y-85283647I-500002J-6D01*
G01*
X149878788Y-84477275D02*
G75*
G02*
X161522725Y-96121213I-3878788J-15522725D01*
G01*
X149878787Y-84477274D02*
G75*
G02*
X149500011Y-83992190I121213J485074D01*
G01*
X148500000Y-76709801D02*
G75*
G02*
X149500000Y-76709801I500000J0D01*
G01*
X129992190Y-96500000D02*
X122709801Y-96500000D01*
X148500000Y-76709801D02*
X148500000Y-84793094D01*
X162007810Y-96500001D02*
G75*
G02*
X161522715Y-96121216I-10J500001D01*
G01*
X131283640Y-97096774D02*
G75*
G02*
X143096775Y-85283640I14716360J-2903226D01*
G01*
X142500001Y-76709801D02*
X142500001Y-83992190D01*
X149500000Y-83992190D02*
X149500000Y-76709801D01*
X122709801Y-97500000D02*
X130793094Y-97500000D01*
X142500001Y-83992190D02*
G75*
G02*
X142121216Y-84477285I-500001J-10D01*
G01*
X130477275Y-96121212D02*
G75*
G02*
X142121213Y-84477275I15522725J-3878788D01*
G01*
X122709801Y-97500000D02*
G75*
G02*
X122709801Y-96500000I-1J500000D01*
G01*
X131283638Y-97096775D02*
G75*
G02*
X130793094Y-97499993I-490538J96775D01*
G01*
X143500001Y-84793094D02*
X143500001Y-76709801D01*
X142500001Y-76709801D02*
G75*
G02*
X143500001Y-76709801I500000J0D01*
G01*
X130477274Y-96121213D02*
G75*
G02*
X129992190Y-96499989I-485074J121213D01*
G01*
%TO.C,J1*%
X141380000Y-140600000D02*
X141380000Y-134900000D01*
X141880000Y-134400000D02*
X150120000Y-134400000D01*
X150620000Y-140600000D02*
X150620000Y-134900000D01*
X141380000Y-134900000D02*
G75*
G02*
X141880000Y-134400000I500001J-1D01*
G01*
X150120000Y-134400000D02*
G75*
G02*
X150620000Y-134900000I0J-500000D01*
G01*
D11*
%TO.C,REF\u002A\u002A*%
X139360913Y-102396447D02*
X141482233Y-100275126D01*
X142896447Y-106639087D02*
X139360913Y-103103553D01*
X143603553Y-106639087D02*
X145724874Y-104517767D01*
X145724874Y-103810660D02*
X142189340Y-100275126D01*
X139360913Y-103103553D02*
G75*
G02*
X139360913Y-102396447I353553J353553D01*
G01*
X141482233Y-100275126D02*
G75*
G02*
X142189340Y-100275126I353553J-353554D01*
G01*
X143603553Y-106639087D02*
G75*
G02*
X142896447Y-106639087I-353553J353555D01*
G01*
X145724874Y-103810660D02*
G75*
G02*
X145724875Y-104517768I-353548J-353554D01*
G01*
%TD*%
M02*
