%TF.GenerationSoftware,KiCad,Pcbnew,9.0.1*%
%TF.CreationDate,2025-04-25T15:08:37+02:00*%
%TF.ProjectId,view_base,76696577-5f62-4617-9365-2e6b69636164,0.1.0*%
%TF.SameCoordinates,Original*%
%TF.FileFunction,Legend,Top*%
%TF.FilePolarity,Positive*%
%FSLAX46Y46*%
G04 Gerber Fmt 4.6, Leading zero omitted, Abs format (unit mm)*
G04 Created by KiCad (PCBNEW 9.0.1) date 2025-04-25 15:08:37*
%MOMM*%
%LPD*%
G01*
G04 APERTURE LIST*
G04 Aperture macros list*
%AMRoundRect*
0 Rectangle with rounded corners*
0 $1 Rounding radius*
0 $2 $3 $4 $5 $6 $7 $8 $9 X,Y pos of 4 corners*
0 Add a 4 corners polygon primitive as box body*
4,1,4,$2,$3,$4,$5,$6,$7,$8,$9,$2,$3,0*
0 Add four circle primitives for the rounded corners*
1,1,$1+$1,$2,$3*
1,1,$1+$1,$4,$5*
1,1,$1+$1,$6,$7*
1,1,$1+$1,$8,$9*
0 Add four rect primitives between the rounded corners*
20,1,$1+$1,$2,$3,$4,$5,0*
20,1,$1+$1,$4,$5,$6,$7,0*
20,1,$1+$1,$6,$7,$8,$9,0*
20,1,$1+$1,$8,$9,$2,$3,0*%
%AMRotRect*
0 Rectangle, with rotation*
0 The origin of the aperture is its center*
0 $1 length*
0 $2 width*
0 $3 Rotation angle, in degrees counterclockwise*
0 Add horizontal line*
21,1,$1,$2,0,0,$3*%
G04 Aperture macros list end*
%ADD10C,1.500000*%
%ADD11C,0.755000*%
%ADD12C,0.120000*%
%ADD13C,0.175000*%
%ADD14C,0.300000*%
%ADD15C,0.250001*%
%ADD16C,0.100000*%
%ADD17C,0.250000*%
%ADD18C,0.249999*%
%ADD19C,0.200000*%
%ADD20C,0.127000*%
%ADD21C,0.000000*%
%ADD22C,2.400000*%
%ADD23C,3.500000*%
%ADD24R,0.600000X1.090000*%
%ADD25R,0.300000X1.090000*%
%ADD26O,1.000000X1.800000*%
%ADD27O,1.000000X2.200000*%
%ADD28RoundRect,0.200000X0.200000X0.275000X-0.200000X0.275000X-0.200000X-0.275000X0.200000X-0.275000X0*%
%ADD29RoundRect,0.200000X-0.200000X-0.275000X0.200000X-0.275000X0.200000X0.275000X-0.200000X0.275000X0*%
%ADD30RoundRect,0.250000X-0.475000X0.250000X-0.475000X-0.250000X0.475000X-0.250000X0.475000X0.250000X0*%
%ADD31RoundRect,0.225000X-0.250000X0.225000X-0.250000X-0.225000X0.250000X-0.225000X0.250000X0.225000X0*%
%ADD32RoundRect,0.225000X-0.225000X-0.250000X0.225000X-0.250000X0.225000X0.250000X-0.225000X0.250000X0*%
%ADD33RoundRect,0.250000X0.475000X-0.250000X0.475000X0.250000X-0.475000X0.250000X-0.475000X-0.250000X0*%
%ADD34RoundRect,0.225000X0.225000X0.250000X-0.225000X0.250000X-0.225000X-0.250000X0.225000X-0.250000X0*%
%ADD35RoundRect,0.150000X-0.587500X-0.150000X0.587500X-0.150000X0.587500X0.150000X-0.587500X0.150000X0*%
%ADD36RoundRect,0.250000X0.250000X0.475000X-0.250000X0.475000X-0.250000X-0.475000X0.250000X-0.475000X0*%
%ADD37RoundRect,0.150000X-0.512500X-0.150000X0.512500X-0.150000X0.512500X0.150000X-0.512500X0.150000X0*%
%ADD38RoundRect,0.218750X-0.381250X0.218750X-0.381250X-0.218750X0.381250X-0.218750X0.381250X0.218750X0*%
%ADD39RoundRect,0.050000X0.050000X-0.300000X0.050000X0.300000X-0.050000X0.300000X-0.050000X-0.300000X0*%
%ADD40RoundRect,0.050000X0.300000X-0.050000X0.300000X0.050000X-0.300000X0.050000X-0.300000X-0.050000X0*%
%ADD41R,1.500000X1.500000*%
%ADD42RoundRect,0.200000X0.275000X-0.200000X0.275000X0.200000X-0.275000X0.200000X-0.275000X-0.200000X0*%
%ADD43RoundRect,0.150000X0.689429X-0.477297X-0.477297X0.689429X-0.689429X0.477297X0.477297X-0.689429X0*%
%ADD44RoundRect,0.225000X-0.335876X-0.017678X-0.017678X-0.335876X0.335876X0.017678X0.017678X0.335876X0*%
%ADD45RoundRect,0.200000X-0.275000X0.200000X-0.275000X-0.200000X0.275000X-0.200000X0.275000X0.200000X0*%
%ADD46RoundRect,0.150000X0.825000X0.150000X-0.825000X0.150000X-0.825000X-0.150000X0.825000X-0.150000X0*%
%ADD47RoundRect,0.225000X0.250000X-0.225000X0.250000X0.225000X-0.250000X0.225000X-0.250000X-0.225000X0*%
%ADD48RoundRect,0.140000X-0.219557X0.017173X-0.058955X-0.212189X0.219557X-0.017173X0.058955X0.212189X0*%
%ADD49RoundRect,0.150000X0.512500X0.150000X-0.512500X0.150000X-0.512500X-0.150000X0.512500X-0.150000X0*%
%ADD50RotRect,0.500000X0.500000X280.000000*%
%ADD51RoundRect,0.140000X-0.219203X-0.021213X-0.021213X-0.219203X0.219203X0.021213X0.021213X0.219203X0*%
%ADD52RotRect,0.500000X0.500000X230.000000*%
%ADD53R,0.500000X0.500000*%
%ADD54RotRect,0.500000X0.500000X85.000000*%
%ADD55RotRect,0.500000X0.500000X220.000000*%
%ADD56RotRect,0.500000X0.500000X30.000000*%
%ADD57RotRect,0.500000X0.500000X290.000000*%
%ADD58RoundRect,0.140000X0.073414X0.207631X-0.189700X0.111865X-0.073414X-0.207631X0.189700X-0.111865X0*%
%ADD59RotRect,0.500000X0.500000X145.000000*%
%ADD60RoundRect,0.140000X-0.200442X0.091230X-0.127973X-0.179229X0.200442X-0.091230X0.127973X0.179229X0*%
%ADD61RoundRect,0.140000X-0.207631X0.073414X-0.111865X-0.189700X0.207631X-0.073414X0.111865X0.189700X0*%
%ADD62RotRect,0.500000X0.500000X100.000000*%
%ADD63RotRect,0.500000X0.500000X165.000000*%
%ADD64RotRect,0.500000X0.500000X195.000000*%
%ADD65RoundRect,0.140000X-0.198728X-0.094906X0.055038X-0.213239X0.198728X0.094906X-0.055038X0.213239X0*%
%ADD66RoundRect,0.140000X0.220218X0.002028X0.040237X0.216520X-0.220218X-0.002028X-0.040237X-0.216520X0*%
%ADD67RoundRect,0.140000X-0.021213X0.219203X-0.219203X0.021213X0.021213X-0.219203X0.219203X-0.021213X0*%
%ADD68RoundRect,0.140000X0.198728X0.094906X-0.055038X0.213239X-0.198728X-0.094906X0.055038X-0.213239X0*%
%ADD69RotRect,0.500000X0.500000X205.000000*%
%ADD70RotRect,0.500000X0.500000X350.000000*%
%ADD71RoundRect,0.140000X0.206244X0.077224X-0.036244X0.217224X-0.206244X-0.077224X0.036244X-0.217224X0*%
%ADD72RotRect,0.500000X0.500000X25.000000*%
%ADD73RoundRect,0.140000X-0.017173X-0.219557X0.212189X-0.058955X0.017173X0.219557X-0.212189X0.058955X0*%
%ADD74RoundRect,0.140000X-0.127973X0.179229X-0.200442X-0.091230X0.127973X-0.179229X0.200442X0.091230X0*%
%ADD75RotRect,0.500000X0.500000X255.000000*%
%ADD76RoundRect,0.140000X0.167393X0.143107X-0.108353X0.191728X-0.167393X-0.143107X0.108353X-0.191728X0*%
%ADD77RoundRect,0.140000X-0.216520X-0.040237X-0.002028X-0.220218X0.216520X0.040237X0.002028X0.220218X0*%
%ADD78RotRect,0.500000X0.500000X215.000000*%
%ADD79RoundRect,0.140000X-0.124651X-0.181555X0.154284X-0.157151X0.124651X0.181555X-0.154284X0.157151X0*%
%ADD80RoundRect,0.140000X0.157151X-0.154284X0.181555X0.124651X-0.157151X0.154284X-0.181555X-0.124651X0*%
%ADD81RotRect,0.500000X0.500000X55.000000*%
%ADD82RotRect,0.500000X0.500000X50.000000*%
%ADD83RotRect,0.500000X0.500000X170.000000*%
%ADD84RoundRect,0.140000X0.216520X0.040237X0.002028X0.220218X-0.216520X-0.040237X-0.002028X-0.220218X0*%
%ADD85RoundRect,0.140000X0.189700X0.111865X-0.073414X0.207631X-0.189700X-0.111865X0.073414X-0.207631X0*%
%ADD86RotRect,0.500000X0.500000X75.000000*%
%ADD87RoundRect,0.140000X-0.181555X0.124651X-0.157151X-0.154284X0.181555X-0.124651X0.157151X0.154284X0*%
%ADD88RotRect,0.500000X0.500000X140.000000*%
%ADD89RotRect,0.500000X0.500000X355.000000*%
%ADD90RotRect,0.500000X0.500000X60.000000*%
%ADD91RoundRect,0.140000X0.002028X-0.220218X0.216520X-0.040237X-0.002028X0.220218X-0.216520X0.040237X0*%
%ADD92RoundRect,0.140000X-0.167393X-0.143107X0.108353X-0.191728X0.167393X0.143107X-0.108353X0.191728X0*%
%ADD93RotRect,0.500000X0.500000X245.000000*%
%ADD94RoundRect,0.140000X0.217224X-0.036244X0.077224X0.206244X-0.217224X0.036244X-0.077224X-0.206244X0*%
%ADD95RotRect,0.500000X0.500000X35.000000*%
%ADD96RotRect,0.500000X0.500000X15.000000*%
%ADD97RotRect,0.500000X0.500000X235.000000*%
%ADD98RoundRect,0.140000X-0.157151X0.154284X-0.181555X-0.124651X0.157151X-0.154284X0.181555X0.124651X0*%
%ADD99RotRect,0.500000X0.500000X225.000000*%
%ADD100RotRect,0.500000X0.500000X130.000000*%
%ADD101R,0.500000X1.150000*%
%ADD102R,1.150000X0.500000*%
%ADD103RotRect,0.500000X0.500000X210.000000*%
%ADD104RoundRect,0.140000X-0.073414X-0.207631X0.189700X-0.111865X0.073414X0.207631X-0.189700X0.111865X0*%
%ADD105RoundRect,0.140000X-0.077224X0.206244X-0.217224X-0.036244X0.077224X-0.206244X0.217224X0.036244X0*%
%ADD106RoundRect,0.140000X-0.143107X0.167393X-0.191728X-0.108353X0.143107X-0.167393X0.191728X0.108353X0*%
%ADD107RotRect,0.500000X0.500000X120.000000*%
%ADD108RotRect,0.500000X0.500000X20.000000*%
%ADD109RotRect,0.500000X0.500000X95.000000*%
%ADD110RotRect,0.500000X0.500000X65.000000*%
%ADD111RotRect,0.500000X0.500000X325.000000*%
%ADD112RoundRect,0.140000X-0.094906X0.198728X-0.213239X-0.055038X0.094906X-0.198728X0.213239X0.055038X0*%
%ADD113RoundRect,0.140000X0.213239X-0.055038X0.094906X0.198728X-0.213239X0.055038X-0.094906X-0.198728X0*%
%ADD114R,1.500000X2.000000*%
%ADD115R,3.800000X2.000000*%
%ADD116RoundRect,0.140000X-0.191728X0.108353X-0.143107X-0.167393X0.191728X-0.108353X0.143107X0.167393X0*%
%ADD117RoundRect,0.140000X0.219557X-0.017173X0.058955X0.212189X-0.219557X0.017173X-0.058955X-0.212189X0*%
%ADD118RoundRect,0.140000X0.181555X-0.124651X0.157151X0.154284X-0.181555X0.124651X-0.157151X-0.154284X0*%
%ADD119RotRect,0.500000X0.500000X320.000000*%
%ADD120RotRect,0.500000X0.500000X330.000000*%
%ADD121RoundRect,0.140000X-0.212189X-0.058955X0.017173X-0.219557X0.212189X0.058955X-0.017173X0.219557X0*%
%ADD122RoundRect,0.140000X0.108353X0.191728X-0.167393X0.143107X-0.108353X-0.191728X0.167393X-0.143107X0*%
%ADD123RoundRect,0.140000X-0.002028X0.220218X-0.216520X0.040237X0.002028X-0.220218X0.216520X-0.040237X0*%
%ADD124RotRect,0.500000X0.500000X150.000000*%
%ADD125RoundRect,0.140000X-0.170000X0.140000X-0.170000X-0.140000X0.170000X-0.140000X0.170000X0.140000X0*%
%ADD126RotRect,0.500000X0.500000X295.000000*%
%ADD127RotRect,0.500000X0.500000X160.000000*%
%ADD128RoundRect,0.140000X-0.055038X-0.213239X0.198728X-0.094906X0.055038X0.213239X-0.198728X0.094906X0*%
%ADD129RoundRect,0.140000X-0.213239X0.055038X-0.094906X-0.198728X0.213239X-0.055038X0.094906X0.198728X0*%
%ADD130RotRect,0.500000X0.500000X135.000000*%
%ADD131RoundRect,0.140000X0.143107X-0.167393X0.191728X0.108353X-0.143107X0.167393X-0.191728X-0.108353X0*%
%ADD132RoundRect,0.140000X0.094906X-0.198728X0.213239X0.055038X-0.094906X0.198728X-0.213239X-0.055038X0*%
%ADD133RotRect,0.500000X0.500000X250.000000*%
%ADD134RotRect,0.500000X0.500000X315.000000*%
%ADD135RoundRect,0.140000X-0.206244X-0.077224X0.036244X-0.217224X0.206244X0.077224X-0.036244X0.217224X0*%
%ADD136RoundRect,0.225000X-0.225000X-0.250000X0.225000X-0.250000X0.225000X0.250000X-0.225000X0.250000X0*%
%ADD137RoundRect,0.140000X0.040237X-0.216520X0.220218X-0.002028X-0.040237X0.216520X-0.220218X0.002028X0*%
%ADD138RotRect,0.500000X0.500000X80.000000*%
%ADD139RotRect,0.500000X0.500000X240.000000*%
%ADD140RotRect,0.500000X0.500000X10.000000*%
%ADD141RotRect,0.500000X0.500000X115.000000*%
%ADD142RotRect,0.500000X0.500000X335.000000*%
%ADD143RoundRect,0.140000X0.191728X-0.108353X0.143107X0.167393X-0.191728X0.108353X-0.143107X-0.167393X0*%
%ADD144RoundRect,0.140000X0.140000X0.170000X-0.140000X0.170000X-0.140000X-0.170000X0.140000X-0.170000X0*%
%ADD145RoundRect,0.140000X0.207631X-0.073414X0.111865X0.189700X-0.207631X0.073414X-0.111865X-0.189700X0*%
%ADD146RoundRect,0.140000X0.179229X0.127973X-0.091230X0.200442X-0.179229X-0.127973X0.091230X-0.200442X0*%
%ADD147RoundRect,0.140000X0.058955X-0.212189X0.219557X0.017173X-0.058955X0.212189X-0.219557X-0.017173X0*%
%ADD148RoundRect,0.140000X0.212189X0.058955X-0.017173X0.219557X-0.212189X-0.058955X0.017173X-0.219557X0*%
%ADD149RoundRect,0.140000X-0.154284X-0.157151X0.124651X-0.181555X0.154284X0.157151X-0.124651X0.181555X0*%
%ADD150RotRect,0.500000X0.500000X175.000000*%
%ADD151RotRect,0.500000X0.500000X300.000000*%
%ADD152RotRect,0.500000X0.500000X260.000000*%
%ADD153RoundRect,0.140000X-0.220218X-0.002028X-0.040237X-0.216520X0.220218X0.002028X0.040237X0.216520X0*%
%ADD154RoundRect,0.140000X0.021213X-0.219203X0.219203X-0.021213X-0.021213X0.219203X-0.219203X0.021213X0*%
%ADD155RotRect,0.500000X0.500000X310.000000*%
%ADD156RoundRect,0.140000X0.111865X-0.189700X0.207631X0.073414X-0.111865X0.189700X-0.207631X-0.073414X0*%
%ADD157RotRect,0.500000X0.500000X340.000000*%
%ADD158RotRect,0.500000X0.500000X110.000000*%
%ADD159RoundRect,0.140000X0.154284X0.157151X-0.124651X0.181555X-0.154284X-0.157151X0.124651X-0.181555X0*%
%ADD160RotRect,0.500000X0.500000X265.000000*%
%ADD161RoundRect,0.140000X0.077224X-0.206244X0.217224X0.036244X-0.077224X0.206244X-0.217224X-0.036244X0*%
%ADD162RotRect,0.500000X0.500000X200.000000*%
%ADD163RoundRect,0.140000X0.127973X-0.179229X0.200442X0.091230X-0.127973X0.179229X-0.200442X-0.091230X0*%
%ADD164RotRect,0.500000X0.500000X45.000000*%
%ADD165RoundRect,0.140000X0.200442X-0.091230X0.127973X0.179229X-0.200442X0.091230X-0.127973X-0.179229X0*%
%ADD166RoundRect,0.140000X0.170000X-0.140000X0.170000X0.140000X-0.170000X0.140000X-0.170000X-0.140000X0*%
%ADD167RotRect,0.500000X0.500000X70.000000*%
%ADD168RoundRect,0.140000X-0.111865X0.189700X-0.207631X-0.073414X0.111865X-0.189700X0.207631X0.073414X0*%
%ADD169RotRect,0.500000X0.500000X105.000000*%
%ADD170RoundRect,0.140000X-0.040237X0.216520X-0.220218X0.002028X0.040237X-0.216520X0.220218X-0.002028X0*%
%ADD171RotRect,0.500000X0.500000X5.000000*%
%ADD172RoundRect,0.140000X-0.189700X-0.111865X0.073414X-0.207631X0.189700X0.111865X-0.073414X0.207631X0*%
%ADD173RotRect,0.500000X0.500000X305.000000*%
%ADD174RoundRect,0.140000X0.124651X0.181555X-0.154284X0.157151X-0.124651X-0.181555X0.154284X-0.157151X0*%
%ADD175RoundRect,0.140000X-0.108353X-0.191728X0.167393X-0.143107X0.108353X0.191728X-0.167393X0.143107X0*%
%ADD176RoundRect,0.140000X-0.217224X0.036244X-0.077224X-0.206244X0.217224X-0.036244X0.077224X0.206244X0*%
%ADD177RoundRect,0.102000X0.750000X0.450000X-0.750000X0.450000X-0.750000X-0.450000X0.750000X-0.450000X0*%
%ADD178RoundRect,0.102000X0.450000X0.750000X-0.450000X0.750000X-0.450000X-0.750000X0.450000X-0.750000X0*%
%ADD179RoundRect,0.102000X0.450000X0.450000X-0.450000X0.450000X-0.450000X-0.450000X0.450000X-0.450000X0*%
%ADD180RoundRect,0.140000X0.219203X0.021213X0.021213X0.219203X-0.219203X-0.021213X-0.021213X-0.219203X0*%
%ADD181RotRect,0.500000X0.500000X125.000000*%
%ADD182RotRect,0.500000X0.500000X155.000000*%
%ADD183RoundRect,0.140000X-0.091230X-0.200442X0.179229X-0.127973X0.091230X0.200442X-0.179229X0.127973X0*%
%ADD184RotRect,0.500000X0.500000X345.000000*%
%ADD185RotRect,0.500000X0.500000X285.000000*%
%ADD186RoundRect,0.140000X-0.179229X-0.127973X0.091230X-0.200442X0.179229X0.127973X-0.091230X0.200442X0*%
%ADD187RoundRect,0.140000X-0.036244X-0.217224X0.206244X-0.077224X0.036244X0.217224X-0.206244X0.077224X0*%
%ADD188RoundRect,0.140000X0.017173X0.219557X-0.212189X0.058955X-0.017173X-0.219557X0.212189X-0.058955X0*%
%ADD189RotRect,0.500000X0.500000X185.000000*%
%ADD190RoundRect,0.140000X0.055038X0.213239X-0.198728X0.094906X-0.055038X-0.213239X0.198728X-0.094906X0*%
%ADD191RoundRect,0.140000X-0.140000X-0.170000X0.140000X-0.170000X0.140000X0.170000X-0.140000X0.170000X0*%
%ADD192RoundRect,0.140000X0.036244X0.217224X-0.206244X0.077224X-0.036244X-0.217224X0.206244X-0.077224X0*%
%ADD193RotRect,0.500000X0.500000X40.000000*%
%ADD194RotRect,0.500000X0.500000X275.000000*%
%ADD195RotRect,0.500000X0.500000X190.000000*%
%ADD196RoundRect,0.140000X-0.058955X0.212189X-0.219557X-0.017173X0.058955X-0.212189X0.219557X0.017173X0*%
%ADD197RoundRect,0.140000X0.091230X0.200442X-0.179229X0.127973X-0.091230X-0.200442X0.179229X-0.127973X0*%
G04 APERTURE END LIST*
D10*
X165558787Y-105352933D02*
G75*
G02*
X151199998Y-119600001I-19558787J5352933D01*
G01*
X140647070Y-119558787D02*
G75*
G02*
X126400000Y-105200002I5352930J19558787D01*
G01*
D11*
X154377500Y-93600000D02*
G75*
G02*
X153622500Y-93600000I-377500J0D01*
G01*
X153622500Y-93600000D02*
G75*
G02*
X154377500Y-93600000I377500J0D01*
G01*
X154577500Y-106200000D02*
G75*
G02*
X153822500Y-106200000I-377500J0D01*
G01*
X153822500Y-106200000D02*
G75*
G02*
X154577500Y-106200000I377500J0D01*
G01*
D10*
X151352932Y-80441214D02*
G75*
G02*
X165600000Y-94800001I-5352932J-19558786D01*
G01*
X126441214Y-94647069D02*
G75*
G02*
X140800000Y-80400001I19558786J-5352931D01*
G01*
X147800000Y-110199999D02*
G75*
G02*
X136259955Y-103522995I-1800000J10199999D01*
G01*
X136400000Y-96400000D02*
G75*
G02*
X141653425Y-90714135I9600000J-3600000D01*
G01*
D12*
%TO.C,U8*%
X175525000Y-123400000D02*
X175525000Y-122950000D01*
X175540000Y-120190000D02*
X175990000Y-120190000D01*
X175540000Y-120640000D02*
X175540000Y-120190000D01*
X175975000Y-123400000D02*
X175525000Y-123400000D01*
X178760000Y-120190000D02*
X178310000Y-120190000D01*
X178760000Y-120640000D02*
X178760000Y-120190000D01*
X178760000Y-122960000D02*
X178760000Y-123410000D01*
X178760000Y-123410000D02*
X178310000Y-123410000D01*
D13*
X176437500Y-124200000D02*
G75*
G02*
X176262500Y-124200000I-87500J0D01*
G01*
X176262500Y-124200000D02*
G75*
G02*
X176437500Y-124200000I87500J0D01*
G01*
%TO.C,U2*%
D14*
X145372183Y-101909188D02*
G75*
G02*
X145072183Y-101909188I-150000J0D01*
G01*
X145072183Y-101909188D02*
G75*
G02*
X145372183Y-101909188I150000J0D01*
G01*
%TO.C,U6*%
X113125000Y-74650000D02*
G75*
G02*
X112825000Y-74650000I-150000J0D01*
G01*
X112825000Y-74650000D02*
G75*
G02*
X113125000Y-74650000I150000J0D01*
G01*
%TO.C,D23*%
D15*
X142641448Y-73910843D02*
G75*
G02*
X142391448Y-73910843I-125000J0D01*
G01*
X142391448Y-73910843D02*
G75*
G02*
X142641448Y-73910843I125000J0D01*
G01*
D16*
X141818402Y-73729300D02*
X141569346Y-73468587D01*
X141963269Y-73399128D01*
X141818402Y-73729300D01*
G36*
X141818402Y-73729300D02*
G01*
X141569346Y-73468587D01*
X141963269Y-73399128D01*
X141818402Y-73729300D01*
G37*
%TO.C,D42*%
D17*
X163878394Y-80561786D02*
G75*
G02*
X163628394Y-80561786I-125000J0D01*
G01*
X163628394Y-80561786D02*
G75*
G02*
X163878394Y-80561786I125000J0D01*
G01*
D16*
X163789814Y-79809102D02*
X163443769Y-79910358D01*
X163483397Y-79551987D01*
X163789814Y-79809102D01*
G36*
X163789814Y-79809102D02*
G01*
X163443769Y-79910358D01*
X163483397Y-79551987D01*
X163789814Y-79809102D01*
G37*
%TO.C,D41*%
D17*
X147224997Y-73699997D02*
G75*
G02*
X146974997Y-73699997I-125000J0D01*
G01*
X146974997Y-73699997D02*
G75*
G02*
X147224997Y-73699997I125000J0D01*
G01*
D16*
X146444080Y-73399997D02*
X146244080Y-73099997D01*
X146644080Y-73099997D01*
X146444080Y-73399997D01*
G36*
X146444080Y-73399997D02*
G01*
X146244080Y-73099997D01*
X146644080Y-73099997D01*
X146444080Y-73399997D01*
G37*
%TO.C,D10*%
D17*
X142718407Y-126106723D02*
G75*
G02*
X142468407Y-126106723I-125000J0D01*
G01*
X142468407Y-126106723D02*
G75*
G02*
X142718407Y-126106723I125000J0D01*
G01*
D16*
X143393773Y-126779038D02*
X142995296Y-126744176D01*
X143220681Y-126462748D01*
X143393773Y-126779038D01*
G36*
X143393773Y-126779038D02*
G01*
X142995296Y-126744176D01*
X143220681Y-126462748D01*
X143393773Y-126779038D01*
G37*
%TO.C,D60*%
D17*
X166977346Y-83931903D02*
G75*
G02*
X166727346Y-83931903I-125000J0D01*
G01*
X166727346Y-83931903D02*
G75*
G02*
X166977346Y-83931903I125000J0D01*
G01*
D16*
X167018915Y-83196978D02*
X166660544Y-83236605D01*
X166761800Y-82890560D01*
X167018915Y-83196978D01*
G36*
X167018915Y-83196978D02*
G01*
X166660544Y-83236605D01*
X166761800Y-82890560D01*
X167018915Y-83196978D01*
G37*
%TO.C,D38*%
D15*
X122803861Y-112196521D02*
G75*
G02*
X122553861Y-112196521I-125000J0D01*
G01*
X122553861Y-112196521D02*
G75*
G02*
X122803861Y-112196521I125000J0D01*
G01*
D16*
X122747012Y-112914562D02*
X122587205Y-113237767D01*
X122387205Y-112891357D01*
X122747012Y-112914562D01*
G36*
X122747012Y-112914562D02*
G01*
X122587205Y-113237767D01*
X122387205Y-112891357D01*
X122747012Y-112914562D01*
G37*
%TO.C,D5*%
D18*
X138161518Y-74909868D02*
G75*
G02*
X137911520Y-74909868I-124999J0D01*
G01*
X137911520Y-74909868D02*
G75*
G02*
X138161518Y-74909868I124999J0D01*
G01*
D16*
X137317553Y-74852298D02*
X137027008Y-74638793D01*
X137402885Y-74501985D01*
X137317553Y-74852298D01*
G36*
X137317553Y-74852298D02*
G01*
X137027008Y-74638793D01*
X137402885Y-74501985D01*
X137317553Y-74852298D01*
G37*
%TO.C,D53*%
D17*
X167035448Y-115982958D02*
G75*
G02*
X166785448Y-115982958I-125000J0D01*
G01*
X166785448Y-115982958D02*
G75*
G02*
X167035448Y-115982958I125000J0D01*
G01*
D16*
X167892873Y-115625978D02*
X167663442Y-115953638D01*
X167532412Y-115617735D01*
X167892873Y-115625978D01*
G36*
X167892873Y-115625978D02*
G01*
X167663442Y-115953638D01*
X167532412Y-115617735D01*
X167892873Y-115625978D01*
G37*
%TO.C,D63*%
D15*
X149613570Y-126087850D02*
G75*
G02*
X149363570Y-126087850I-125000J0D01*
G01*
X149363570Y-126087850D02*
G75*
G02*
X149613570Y-126087850I125000J0D01*
G01*
D16*
X150435672Y-126530106D02*
X150041749Y-126599565D01*
X150186616Y-126269393D01*
X150435672Y-126530106D01*
G36*
X150435672Y-126530106D02*
G01*
X150041749Y-126599565D01*
X150186616Y-126269393D01*
X150435672Y-126530106D01*
G37*
%TO.C,D17*%
D17*
X171245632Y-107866050D02*
G75*
G02*
X170995632Y-107866050I-125000J0D01*
G01*
X170995632Y-107866050D02*
G75*
G02*
X171245632Y-107866050I125000J0D01*
G01*
D16*
X171818188Y-107580959D02*
X171580174Y-107310128D01*
X171921716Y-107194589D01*
X171818188Y-107580959D01*
G36*
X171818188Y-107580959D02*
G01*
X171580174Y-107310128D01*
X171921716Y-107194589D01*
X171818188Y-107580959D01*
G37*
%TO.C,D34*%
D17*
X171807420Y-94253798D02*
G75*
G02*
X171557420Y-94253798I-125000J0D01*
G01*
X171557420Y-94253798D02*
G75*
G02*
X171807420Y-94253798I125000J0D01*
G01*
D16*
X172143976Y-93658125D02*
X171802434Y-93542585D01*
X172040448Y-93271754D01*
X172143976Y-93658125D01*
G36*
X172143976Y-93658125D02*
G01*
X171802434Y-93542585D01*
X172040448Y-93271754D01*
X172143976Y-93658125D01*
G37*
%TO.C,D16*%
D17*
X170425306Y-89878981D02*
G75*
G02*
X170175306Y-89878981I-125000J0D01*
G01*
X170175306Y-89878981D02*
G75*
G02*
X170425306Y-89878981I125000J0D01*
G01*
D16*
X170651411Y-89212209D02*
X170294995Y-89157733D01*
X170482364Y-88849686D01*
X170651411Y-89212209D01*
G36*
X170651411Y-89212209D02*
G01*
X170294995Y-89157733D01*
X170482364Y-88849686D01*
X170651411Y-89212209D01*
G37*
%TO.C,D39*%
D15*
X120412859Y-94347112D02*
G75*
G02*
X120162859Y-94347112I-125000J0D01*
G01*
X120162859Y-94347112D02*
G75*
G02*
X120412859Y-94347112I125000J0D01*
G01*
D16*
X119878519Y-94940970D02*
X119548347Y-95085837D01*
X119617807Y-94691914D01*
X119878519Y-94940970D01*
G36*
X119878519Y-94940970D02*
G01*
X119548347Y-95085837D01*
X119617807Y-94691914D01*
X119878519Y-94940970D01*
G37*
%TO.C,D47*%
D17*
X121830297Y-110120901D02*
G75*
G02*
X121580297Y-110120901I-125000J0D01*
G01*
X121580297Y-110120901D02*
G75*
G02*
X121830297Y-110120901I125000J0D01*
G01*
D16*
X121710608Y-110842149D02*
X121523239Y-111150196D01*
X121354192Y-110787673D01*
X121710608Y-110842149D01*
G36*
X121710608Y-110842149D02*
G01*
X121523239Y-111150196D01*
X121354192Y-110787673D01*
X121710608Y-110842149D01*
G37*
%TO.C,D68*%
D17*
X153991050Y-74879368D02*
G75*
G02*
X153741050Y-74879368I-125000J0D01*
G01*
X153741050Y-74879368D02*
G75*
G02*
X153991050Y-74879368I125000J0D01*
G01*
D16*
X153580959Y-74181812D02*
X153310128Y-74419826D01*
X153194589Y-74078284D01*
X153580959Y-74181812D01*
G36*
X153580959Y-74181812D02*
G01*
X153310128Y-74419826D01*
X153194589Y-74078284D01*
X153580959Y-74181812D01*
G37*
%TO.C,D69*%
D17*
X168297316Y-85819177D02*
G75*
G02*
X168047316Y-85819177I-125000J0D01*
G01*
X168047316Y-85819177D02*
G75*
G02*
X168297316Y-85819177I125000J0D01*
G01*
D16*
X168402304Y-85101565D02*
X168041843Y-85109808D01*
X168172873Y-84773905D01*
X168402304Y-85101565D01*
G36*
X168402304Y-85101565D02*
G01*
X168041843Y-85109808D01*
X168172873Y-84773905D01*
X168402304Y-85101565D01*
G37*
%TO.C,D64*%
D17*
X130142042Y-120910448D02*
G75*
G02*
X129892042Y-120910448I-125000J0D01*
G01*
X129892042Y-120910448D02*
G75*
G02*
X130142042Y-120910448I125000J0D01*
G01*
D16*
X130374022Y-121892873D02*
X130046362Y-121663442D01*
X130382265Y-121532412D01*
X130374022Y-121892873D01*
G36*
X130374022Y-121892873D02*
G01*
X130046362Y-121663442D01*
X130382265Y-121532412D01*
X130374022Y-121892873D01*
G37*
%TO.C,D21*%
D17*
X119825000Y-98900000D02*
G75*
G02*
X119575000Y-98900000I-125000J0D01*
G01*
X119575000Y-98900000D02*
G75*
G02*
X119825000Y-98900000I125000J0D01*
G01*
D16*
X119400000Y-99555917D02*
X119100000Y-99755917D01*
X119100000Y-99355917D01*
X119400000Y-99555917D01*
G36*
X119400000Y-99555917D02*
G01*
X119100000Y-99755917D01*
X119100000Y-99355917D01*
X119400000Y-99555917D01*
G37*
%TO.C,D2*%
D17*
X128381606Y-119438214D02*
G75*
G02*
X128131606Y-119438214I-125000J0D01*
G01*
X128131606Y-119438214D02*
G75*
G02*
X128381606Y-119438214I125000J0D01*
G01*
D16*
X128526603Y-120448013D02*
X128220186Y-120190898D01*
X128566231Y-120089642D01*
X128526603Y-120448013D01*
G36*
X128526603Y-120448013D02*
G01*
X128220186Y-120190898D01*
X128566231Y-120089642D01*
X128526603Y-120448013D01*
G37*
%TO.C,D8*%
D15*
X171827141Y-105652888D02*
G75*
G02*
X171577141Y-105652888I-125000J0D01*
G01*
X171577141Y-105652888D02*
G75*
G02*
X171827141Y-105652888I125000J0D01*
G01*
D16*
X172372193Y-105308086D02*
X172111481Y-105059030D01*
X172441653Y-104914163D01*
X172372193Y-105308086D01*
G36*
X172372193Y-105308086D02*
G01*
X172111481Y-105059030D01*
X172441653Y-104914163D01*
X172372193Y-105308086D01*
G37*
%TO.C,D28*%
D17*
X138258950Y-125120632D02*
G75*
G02*
X138008950Y-125120632I-125000J0D01*
G01*
X138008950Y-125120632D02*
G75*
G02*
X138258950Y-125120632I125000J0D01*
G01*
D16*
X138805411Y-125921716D02*
X138419041Y-125818188D01*
X138689872Y-125580174D01*
X138805411Y-125921716D01*
G36*
X138805411Y-125921716D02*
G01*
X138419041Y-125818188D01*
X138689872Y-125580174D01*
X138805411Y-125921716D01*
G37*
%TO.C,D62*%
D17*
X165563214Y-117753394D02*
G75*
G02*
X165313214Y-117753394I-125000J0D01*
G01*
X165313214Y-117753394D02*
G75*
G02*
X165563214Y-117753394I125000J0D01*
G01*
D16*
X166448013Y-117483397D02*
X166190898Y-117789814D01*
X166089642Y-117443769D01*
X166448013Y-117483397D01*
G36*
X166448013Y-117483397D02*
G01*
X166190898Y-117789814D01*
X166089642Y-117443769D01*
X166448013Y-117483397D01*
G37*
%TO.C,D30*%
D17*
X120021651Y-96612474D02*
G75*
G02*
X119771651Y-96612474I-125000J0D01*
G01*
X119771651Y-96612474D02*
G75*
G02*
X120021651Y-96612474I125000J0D01*
G01*
D16*
X119540626Y-97239748D02*
X119224336Y-97412840D01*
X119259198Y-97014363D01*
X119540626Y-97239748D01*
G36*
X119540626Y-97239748D02*
G01*
X119224336Y-97412840D01*
X119259198Y-97014363D01*
X119540626Y-97239748D01*
G37*
%TO.C,D55*%
D15*
X132017372Y-122230289D02*
G75*
G02*
X131767372Y-122230289I-125000J0D01*
G01*
X131767372Y-122230289D02*
G75*
G02*
X132017372Y-122230289I125000J0D01*
G01*
D16*
X132333618Y-123177862D02*
X131987208Y-122977862D01*
X132310413Y-122818055D01*
X132333618Y-123177862D01*
G36*
X132333618Y-123177862D02*
G01*
X131987208Y-122977862D01*
X132310413Y-122818055D01*
X132333618Y-123177862D01*
G37*
%TO.C,D15*%
D18*
X158241759Y-76632719D02*
G75*
G02*
X157991761Y-76632719I-124999J0D01*
G01*
X157991761Y-76632719D02*
G75*
G02*
X158241759Y-76632719I124999J0D01*
G01*
D16*
X157957130Y-75896255D02*
X157649083Y-76083624D01*
X157594607Y-75727208D01*
X157957130Y-75896255D01*
G36*
X157957130Y-75896255D02*
G01*
X157649083Y-76083624D01*
X157594607Y-75727208D01*
X157957130Y-75896255D01*
G37*
%TO.C,D29*%
D17*
X123952684Y-114180823D02*
G75*
G02*
X123702684Y-114180823I-125000J0D01*
G01*
X123702684Y-114180823D02*
G75*
G02*
X123952684Y-114180823I125000J0D01*
G01*
D16*
X123827127Y-115226095D02*
X123597696Y-114898435D01*
X123958157Y-114890192D01*
X123827127Y-115226095D01*
G36*
X123827127Y-115226095D02*
G01*
X123597696Y-114898435D01*
X123958157Y-114890192D01*
X123827127Y-115226095D01*
G37*
%TO.C,D65*%
D17*
X120436768Y-105742149D02*
G75*
G02*
X120186768Y-105742149I-125000J0D01*
G01*
X120186768Y-105742149D02*
G75*
G02*
X120436768Y-105742149I125000J0D01*
G01*
D16*
X120191754Y-106453362D02*
X119953740Y-106724193D01*
X119850212Y-106337822D01*
X120191754Y-106453362D01*
G36*
X120191754Y-106453362D02*
G01*
X119953740Y-106724193D01*
X119850212Y-106337822D01*
X120191754Y-106453362D01*
G37*
%TO.C,D33*%
D17*
X162107958Y-79089552D02*
G75*
G02*
X161857958Y-79089552I-125000J0D01*
G01*
X161857958Y-79089552D02*
G75*
G02*
X162107958Y-79089552I125000J0D01*
G01*
D16*
X161953638Y-78336558D02*
X161617735Y-78467588D01*
X161625978Y-78107127D01*
X161953638Y-78336558D01*
G36*
X161953638Y-78336558D02*
G01*
X161617735Y-78467588D01*
X161625978Y-78107127D01*
X161953638Y-78336558D01*
G37*
%TO.C,D51*%
D18*
X165494618Y-82176016D02*
G75*
G02*
X165244620Y-82176016I-124999J0D01*
G01*
X165244620Y-82176016D02*
G75*
G02*
X165494618Y-82176016I124999J0D01*
G01*
D16*
X165471501Y-81429369D02*
X165117948Y-81500080D01*
X165188659Y-81146527D01*
X165471501Y-81429369D01*
G36*
X165471501Y-81429369D02*
G01*
X165117948Y-81500080D01*
X165188659Y-81146527D01*
X165471501Y-81429369D01*
G37*
%TO.C,D9*%
D17*
X162183097Y-120852346D02*
G75*
G02*
X161933097Y-120852346I-125000J0D01*
G01*
X161933097Y-120852346D02*
G75*
G02*
X162183097Y-120852346I125000J0D01*
G01*
D16*
X163099440Y-120761800D02*
X162793022Y-121018915D01*
X162753395Y-120660544D01*
X163099440Y-120761800D01*
G36*
X163099440Y-120761800D02*
G01*
X162793022Y-121018915D01*
X162753395Y-120660544D01*
X163099440Y-120761800D01*
G37*
D19*
%TO.C,U9*%
X143800000Y-65100000D02*
X143800000Y-64300000D01*
X143800000Y-66700000D02*
X143800000Y-65900000D01*
X144000000Y-64300000D02*
X143800000Y-64300000D01*
X144000000Y-66700000D02*
X143800000Y-66700000D01*
X148200000Y-64300000D02*
X148000000Y-64300000D01*
X148200000Y-65100000D02*
X148200000Y-64300000D01*
X148200000Y-66700000D02*
X148000000Y-66700000D01*
X148200000Y-66700000D02*
X148200000Y-65900000D01*
D16*
X143150000Y-65500000D02*
G75*
G02*
X142850000Y-65500000I-150000J0D01*
G01*
X142850000Y-65500000D02*
G75*
G02*
X143150000Y-65500000I150000J0D01*
G01*
D19*
X148123770Y-67048000D02*
G75*
G02*
X148076230Y-67048000I-23770J0D01*
G01*
X148076230Y-67048000D02*
G75*
G02*
X148123770Y-67048000I23770J0D01*
G01*
D16*
X149300000Y-65500000D02*
G75*
G02*
X148700000Y-65500000I-300000J0D01*
G01*
X148700000Y-65500000D02*
G75*
G02*
X149300000Y-65500000I300000J0D01*
G01*
%TO.C,D7*%
D15*
X169450578Y-87802917D02*
G75*
G02*
X169200578Y-87802917I-125000J0D01*
G01*
X169200578Y-87802917D02*
G75*
G02*
X169450578Y-87802917I125000J0D01*
G01*
D16*
X169617234Y-87108081D02*
X169257427Y-87084876D01*
X169417234Y-86761671D01*
X169617234Y-87108081D01*
G36*
X169617234Y-87108081D02*
G01*
X169257427Y-87084876D01*
X169417234Y-86761671D01*
X169617234Y-87108081D01*
G37*
%TO.C,D61*%
D17*
X172415000Y-101100000D02*
G75*
G02*
X172165000Y-101100000I-125000J0D01*
G01*
X172165000Y-101100000D02*
G75*
G02*
X172415000Y-101100000I125000J0D01*
G01*
D16*
X172890000Y-100644083D02*
X172590000Y-100444083D01*
X172890000Y-100244083D01*
X172890000Y-100644083D01*
G36*
X172890000Y-100644083D02*
G01*
X172590000Y-100444083D01*
X172890000Y-100244083D01*
X172890000Y-100644083D01*
G37*
%TO.C,D27*%
D15*
X158321522Y-123321137D02*
G75*
G02*
X158071522Y-123321137I-125000J0D01*
G01*
X158071522Y-123321137D02*
G75*
G02*
X158321522Y-123321137I125000J0D01*
G01*
D16*
X159237768Y-123412793D02*
X158891358Y-123612793D01*
X158914563Y-123252986D01*
X159237768Y-123412793D01*
G36*
X159237768Y-123412793D02*
G01*
X158891358Y-123612793D01*
X158914563Y-123252986D01*
X159237768Y-123412793D01*
G37*
%TO.C,D56*%
D18*
X121041639Y-107962429D02*
G75*
G02*
X120791641Y-107962429I-124999J0D01*
G01*
X120791641Y-107962429D02*
G75*
G02*
X121041639Y-107962429I124999J0D01*
G01*
D16*
X120859070Y-108681395D02*
X120645565Y-108971940D01*
X120508757Y-108596063D01*
X120859070Y-108681395D01*
G36*
X120859070Y-108681395D02*
G01*
X120645565Y-108971940D01*
X120508757Y-108596063D01*
X120859070Y-108681395D01*
G37*
%TO.C,D72*%
D17*
X147319966Y-126297584D02*
G75*
G02*
X147069966Y-126297584I-125000J0D01*
G01*
X147069966Y-126297584D02*
G75*
G02*
X147319966Y-126297584I125000J0D01*
G01*
D16*
X148099919Y-126820702D02*
X147701441Y-126855565D01*
X147874536Y-126539275D01*
X148099919Y-126820702D01*
G36*
X148099919Y-126820702D02*
G01*
X147701441Y-126855565D01*
X147874536Y-126539275D01*
X148099919Y-126820702D01*
G37*
%TO.C,U5*%
D14*
X137100000Y-133400000D02*
G75*
G02*
X136800000Y-133400000I-150000J0D01*
G01*
X136800000Y-133400000D02*
G75*
G02*
X137100000Y-133400000I150000J0D01*
G01*
%TO.C,D46*%
D18*
X134018239Y-123367281D02*
G75*
G02*
X133768241Y-123367281I-124999J0D01*
G01*
X133768241Y-123367281D02*
G75*
G02*
X134018239Y-123367281I124999J0D01*
G01*
D16*
X134415393Y-124272792D02*
X134052870Y-124103745D01*
X134360917Y-123916376D01*
X134415393Y-124272792D01*
G36*
X134415393Y-124272792D02*
G01*
X134052870Y-124103745D01*
X134360917Y-123916376D01*
X134415393Y-124272792D01*
G37*
%TO.C,D13*%
D17*
X125217823Y-84017551D02*
G75*
G02*
X124967823Y-84017551I-125000J0D01*
G01*
X124967823Y-84017551D02*
G75*
G02*
X125217823Y-84017551I125000J0D01*
G01*
D16*
X124470859Y-84382774D02*
X124110398Y-84374531D01*
X124339829Y-84046871D01*
X124470859Y-84382774D01*
G36*
X124470859Y-84382774D02*
G01*
X124110398Y-84374531D01*
X124339829Y-84046871D01*
X124470859Y-84382774D01*
G37*
%TO.C,D22*%
D17*
X126686786Y-82246606D02*
G75*
G02*
X126436786Y-82246606I-125000J0D01*
G01*
X126436786Y-82246606D02*
G75*
G02*
X126686786Y-82246606I125000J0D01*
G01*
D16*
X125910358Y-82556231D02*
X125551987Y-82516603D01*
X125809102Y-82210186D01*
X125910358Y-82556231D01*
G36*
X125910358Y-82556231D02*
G01*
X125551987Y-82516603D01*
X125809102Y-82210186D01*
X125910358Y-82556231D01*
G37*
%TO.C,D4*%
D15*
X123904711Y-85912372D02*
G75*
G02*
X123654711Y-85912372I-125000J0D01*
G01*
X123654711Y-85912372D02*
G75*
G02*
X123904711Y-85912372I125000J0D01*
G01*
D16*
X123191945Y-86330413D02*
X122832138Y-86353618D01*
X123032138Y-86007208D01*
X123191945Y-86330413D01*
G36*
X123191945Y-86330413D02*
G01*
X122832138Y-86353618D01*
X123032138Y-86007208D01*
X123191945Y-86330413D01*
G37*
%TO.C,D44*%
D15*
X168345289Y-114107628D02*
G75*
G02*
X168095289Y-114107628I-125000J0D01*
G01*
X168095289Y-114107628D02*
G75*
G02*
X168345289Y-114107628I125000J0D01*
G01*
D16*
X168967862Y-114012792D02*
X168808055Y-113689587D01*
X169167862Y-113666382D01*
X168967862Y-114012792D01*
G36*
X168967862Y-114012792D02*
G01*
X168808055Y-113689587D01*
X169167862Y-113666382D01*
X168967862Y-114012792D01*
G37*
%TO.C,D67*%
D17*
X136009773Y-75704940D02*
G75*
G02*
X135759773Y-75704940I-125000J0D01*
G01*
X135759773Y-75704940D02*
G75*
G02*
X136009773Y-75704940I125000J0D01*
G01*
D16*
X135163525Y-75710251D02*
X134855478Y-75522882D01*
X135218001Y-75353835D01*
X135163525Y-75710251D01*
G36*
X135163525Y-75710251D02*
G01*
X134855478Y-75522882D01*
X135218001Y-75353835D01*
X135163525Y-75710251D01*
G37*
%TO.C,D26*%
D18*
X170455915Y-110029753D02*
G75*
G02*
X170205917Y-110029753I-124999J0D01*
G01*
X170205917Y-110029753D02*
G75*
G02*
X170455915Y-110029753I124999J0D01*
G01*
D16*
X171050665Y-109806543D02*
X170837161Y-109515998D01*
X171187473Y-109430666D01*
X171050665Y-109806543D01*
G36*
X171050665Y-109806543D02*
G01*
X170837161Y-109515998D01*
X171187473Y-109430666D01*
X171050665Y-109806543D01*
G37*
%TO.C,D71*%
D18*
X163938983Y-119369619D02*
G75*
G02*
X163688985Y-119369619I-124999J0D01*
G01*
X163688985Y-119369619D02*
G75*
G02*
X163938983Y-119369619I124999J0D01*
G01*
D16*
X164843473Y-119188659D02*
X164560631Y-119471501D01*
X164489920Y-119117948D01*
X164843473Y-119188659D01*
G36*
X164843473Y-119188659D02*
G01*
X164560631Y-119471501D01*
X164489920Y-119117948D01*
X164843473Y-119188659D01*
G37*
%TO.C,D6*%
D18*
X156154752Y-75669084D02*
G75*
G02*
X155904754Y-75669084I-124999J0D01*
G01*
X155904754Y-75669084D02*
G75*
G02*
X156154752Y-75669084I124999J0D01*
G01*
D16*
X155806543Y-74949335D02*
X155515998Y-75162839D01*
X155430666Y-74812527D01*
X155806543Y-74949335D01*
G36*
X155806543Y-74949335D02*
G01*
X155515998Y-75162839D01*
X155430666Y-74812527D01*
X155806543Y-74949335D01*
G37*
%TO.C,D31*%
D18*
X128311015Y-80620381D02*
G75*
G02*
X128061017Y-80620381I-124999J0D01*
G01*
X128061017Y-80620381D02*
G75*
G02*
X128311015Y-80620381I124999J0D01*
G01*
D16*
X127510080Y-80872052D02*
X127156527Y-80801341D01*
X127439369Y-80518499D01*
X127510080Y-80872052D01*
G36*
X127510080Y-80872052D02*
G01*
X127156527Y-80801341D01*
X127439369Y-80518499D01*
X127510080Y-80872052D01*
G37*
%TO.C,D1*%
D17*
X145025000Y-126300000D02*
G75*
G02*
X144775000Y-126300000I-125000J0D01*
G01*
X144775000Y-126300000D02*
G75*
G02*
X145025000Y-126300000I125000J0D01*
G01*
D16*
X145755917Y-126900000D02*
X145355917Y-126900000D01*
X145555917Y-126600000D01*
X145755917Y-126900000D01*
G36*
X145755917Y-126900000D02*
G01*
X145355917Y-126900000D01*
X145555917Y-126600000D01*
X145755917Y-126900000D01*
G37*
%TO.C,D19*%
D15*
X140469853Y-125705825D02*
G75*
G02*
X140219853Y-125705825I-125000J0D01*
G01*
X140219853Y-125705825D02*
G75*
G02*
X140469853Y-125705825I125000J0D01*
G01*
D16*
X141083578Y-126445337D02*
X140689655Y-126375877D01*
X140938711Y-126115165D01*
X141083578Y-126445337D01*
G36*
X141083578Y-126445337D02*
G01*
X140689655Y-126375877D01*
X140938711Y-126115165D01*
X141083578Y-126445337D01*
G37*
%TO.C,D24*%
D15*
X160222628Y-77779711D02*
G75*
G02*
X159972628Y-77779711I-125000J0D01*
G01*
X159972628Y-77779711D02*
G75*
G02*
X160222628Y-77779711I125000J0D01*
G01*
D16*
X160002792Y-77032138D02*
X159679587Y-77191945D01*
X159656382Y-76832138D01*
X160002792Y-77032138D01*
G36*
X160002792Y-77032138D02*
G01*
X159679587Y-77191945D01*
X159656382Y-76832138D01*
X160002792Y-77032138D01*
G37*
%TO.C,D3*%
D15*
X120034263Y-103479584D02*
G75*
G02*
X119784263Y-103479584I-125000J0D01*
G01*
X119784263Y-103479584D02*
G75*
G02*
X120034263Y-103479584I125000J0D01*
G01*
D16*
X119727720Y-104177630D02*
X119467007Y-104426686D01*
X119397548Y-104032763D01*
X119727720Y-104177630D01*
G36*
X119727720Y-104177630D02*
G01*
X119467007Y-104426686D01*
X119397548Y-104032763D01*
X119727720Y-104177630D01*
G37*
%TO.C,D36*%
D17*
X156237883Y-124297042D02*
G75*
G02*
X155987883Y-124297042I-125000J0D01*
G01*
X155987883Y-124297042D02*
G75*
G02*
X156237883Y-124297042I125000J0D01*
G01*
D16*
X157142178Y-124479100D02*
X156779655Y-124648147D01*
X156834131Y-124291731D01*
X157142178Y-124479100D01*
G36*
X157142178Y-124479100D02*
G01*
X156779655Y-124648147D01*
X156834131Y-124291731D01*
X157142178Y-124479100D01*
G37*
%TO.C,D66*%
D18*
X122757718Y-87883240D02*
G75*
G02*
X122507720Y-87883240I-124999J0D01*
G01*
X122507720Y-87883240D02*
G75*
G02*
X122757718Y-87883240I124999J0D01*
G01*
D16*
X122083624Y-88350917D02*
X121727208Y-88405393D01*
X121896255Y-88042870D01*
X122083624Y-88350917D01*
G36*
X122083624Y-88350917D02*
G01*
X121727208Y-88405393D01*
X121896255Y-88042870D01*
X122083624Y-88350917D01*
G37*
%TO.C,D70*%
D17*
X172230841Y-103386594D02*
G75*
G02*
X171980841Y-103386594I-125000J0D01*
G01*
X171980841Y-103386594D02*
G75*
G02*
X172230841Y-103386594I125000J0D01*
G01*
D16*
X172743294Y-102984705D02*
X172461866Y-102759320D01*
X172778156Y-102586228D01*
X172743294Y-102984705D01*
G36*
X172743294Y-102984705D02*
G01*
X172461866Y-102759320D01*
X172778156Y-102586228D01*
X172743294Y-102984705D01*
G37*
%TO.C,D58*%
D15*
X133927332Y-76674999D02*
G75*
G02*
X133677332Y-76674999I-125000J0D01*
G01*
X133677332Y-76674999D02*
G75*
G02*
X133927332Y-76674999I125000J0D01*
G01*
D16*
X133084291Y-76743150D02*
X132761086Y-76583343D01*
X133107496Y-76383343D01*
X133084291Y-76743150D01*
G36*
X133084291Y-76743150D02*
G01*
X132761086Y-76583343D01*
X133107496Y-76383343D01*
X133084291Y-76743150D01*
G37*
%TO.C,D59*%
D15*
X151780147Y-74294175D02*
G75*
G02*
X151530147Y-74294175I-125000J0D01*
G01*
X151530147Y-74294175D02*
G75*
G02*
X151780147Y-74294175I125000J0D01*
G01*
D16*
X151310345Y-73624123D02*
X151061289Y-73884835D01*
X150916422Y-73554663D01*
X151310345Y-73624123D01*
G36*
X151310345Y-73624123D02*
G01*
X151061289Y-73884835D01*
X150916422Y-73554663D01*
X151310345Y-73624123D01*
G37*
%TO.C,D40*%
D17*
X130056903Y-79147654D02*
G75*
G02*
X129806903Y-79147654I-125000J0D01*
G01*
X129806903Y-79147654D02*
G75*
G02*
X130056903Y-79147654I125000J0D01*
G01*
D16*
X129236605Y-79339456D02*
X128890560Y-79238200D01*
X129196978Y-78981085D01*
X129236605Y-79339456D01*
G36*
X129236605Y-79339456D02*
G01*
X128890560Y-79238200D01*
X129196978Y-78981085D01*
X129236605Y-79339456D01*
G37*
%TO.C,D57*%
D18*
X121787311Y-89979199D02*
G75*
G02*
X121537313Y-89979199I-124999J0D01*
G01*
X121537313Y-89979199D02*
G75*
G02*
X121787311Y-89979199I124999J0D01*
G01*
D16*
X121156067Y-90492954D02*
X120805755Y-90578286D01*
X120942563Y-90202409D01*
X121156067Y-90492954D01*
G36*
X121156067Y-90492954D02*
G01*
X120805755Y-90578286D01*
X120942563Y-90202409D01*
X121156067Y-90492954D01*
G37*
%TO.C,D45*%
D18*
X154077428Y-125083360D02*
G75*
G02*
X153827430Y-125083360I-124999J0D01*
G01*
X153827430Y-125083360D02*
G75*
G02*
X154077428Y-125083360I124999J0D01*
G01*
D16*
X154961940Y-125354435D02*
X154586063Y-125491243D01*
X154671395Y-125140930D01*
X154961940Y-125354435D01*
G36*
X154961940Y-125354435D02*
G01*
X154586063Y-125491243D01*
X154671395Y-125140930D01*
X154961940Y-125354435D01*
G37*
%TO.C,D50*%
D17*
X149509099Y-73895088D02*
G75*
G02*
X149259099Y-73895088I-125000J0D01*
G01*
X149259099Y-73895088D02*
G75*
G02*
X149509099Y-73895088I125000J0D01*
G01*
D16*
X148982210Y-73257635D02*
X148756825Y-73539063D01*
X148583733Y-73222773D01*
X148982210Y-73257635D01*
G36*
X148982210Y-73257635D02*
G01*
X148756825Y-73539063D01*
X148583733Y-73222773D01*
X148982210Y-73257635D01*
G37*
%TO.C,D25*%
D18*
X171208237Y-92039629D02*
G75*
G02*
X170958239Y-92039629I-124999J0D01*
G01*
X170958239Y-92039629D02*
G75*
G02*
X171208237Y-92039629I124999J0D01*
G01*
D16*
X171491121Y-91405995D02*
X171140808Y-91320663D01*
X171354313Y-91030118D01*
X171491121Y-91405995D01*
G36*
X171491121Y-91405995D02*
G01*
X171140808Y-91320663D01*
X171354313Y-91030118D01*
X171491121Y-91405995D01*
G37*
%TO.C,D11*%
D18*
X126755380Y-117813984D02*
G75*
G02*
X126505382Y-117813984I-124999J0D01*
G01*
X126505382Y-117813984D02*
G75*
G02*
X126755380Y-117813984I124999J0D01*
G01*
D16*
X126811341Y-118843473D02*
X126528499Y-118560631D01*
X126882052Y-118489920D01*
X126811341Y-118843473D01*
G36*
X126811341Y-118843473D02*
G01*
X126528499Y-118560631D01*
X126882052Y-118489920D01*
X126811341Y-118843473D01*
G37*
%TO.C,D37*%
D18*
X136095246Y-124330916D02*
G75*
G02*
X135845248Y-124330916I-124999J0D01*
G01*
X135845248Y-124330916D02*
G75*
G02*
X136095246Y-124330916I124999J0D01*
G01*
D16*
X136569334Y-125187473D02*
X136193457Y-125050665D01*
X136484002Y-124837161D01*
X136569334Y-125187473D01*
G36*
X136569334Y-125187473D02*
G01*
X136193457Y-125050665D01*
X136484002Y-124837161D01*
X136569334Y-125187473D01*
G37*
%TO.C,D54*%
D17*
X151866013Y-125680034D02*
G75*
G02*
X151616013Y-125680034I-125000J0D01*
G01*
X151616013Y-125680034D02*
G75*
G02*
X151866013Y-125680034I125000J0D01*
G01*
D16*
X152723057Y-126038062D02*
X152336686Y-126141590D01*
X152452226Y-125800048D01*
X152723057Y-126038062D01*
G36*
X152723057Y-126038062D02*
G01*
X152336686Y-126141590D01*
X152452226Y-125800048D01*
X152723057Y-126038062D01*
G37*
%TO.C,D12*%
D17*
X119837416Y-101194966D02*
G75*
G02*
X119587416Y-101194966I-125000J0D01*
G01*
X119587416Y-101194966D02*
G75*
G02*
X119837416Y-101194966I125000J0D01*
G01*
D16*
X119470725Y-101874536D02*
X119189298Y-102099919D01*
X119154435Y-101701441D01*
X119470725Y-101874536D01*
G36*
X119470725Y-101874536D02*
G01*
X119189298Y-102099919D01*
X119154435Y-101701441D01*
X119470725Y-101874536D01*
G37*
%TO.C,D49*%
D17*
X131944681Y-77830956D02*
G75*
G02*
X131694681Y-77830956I-125000J0D01*
G01*
X131694681Y-77830956D02*
G75*
G02*
X131944681Y-77830956I125000J0D01*
G01*
D16*
X131110312Y-77961429D02*
X130774409Y-77830399D01*
X131102069Y-77600968D01*
X131110312Y-77961429D01*
G36*
X131110312Y-77961429D02*
G01*
X130774409Y-77830399D01*
X131102069Y-77600968D01*
X131110312Y-77961429D01*
G37*
D20*
%TO.C,U11*%
X106230000Y-119250000D02*
X106230000Y-119980000D01*
X106230000Y-119250000D02*
X107475000Y-119250000D01*
X122985000Y-119250000D02*
X124230000Y-119250000D01*
X124230000Y-119250000D02*
X124230000Y-119980000D01*
D19*
X125830000Y-137260000D02*
G75*
G02*
X125630000Y-137260000I-100000J0D01*
G01*
X125630000Y-137260000D02*
G75*
G02*
X125830000Y-137260000I100000J0D01*
G01*
%TO.C,D18*%
D17*
X160305823Y-122172316D02*
G75*
G02*
X160055823Y-122172316I-125000J0D01*
G01*
X160055823Y-122172316D02*
G75*
G02*
X160305823Y-122172316I125000J0D01*
G01*
D16*
X161226095Y-122172873D02*
X160898435Y-122402304D01*
X160890192Y-122041843D01*
X161226095Y-122172873D01*
G36*
X161226095Y-122172873D02*
G01*
X160898435Y-122402304D01*
X160890192Y-122041843D01*
X161226095Y-122172873D01*
G37*
%TO.C,D35*%
D18*
X169492280Y-112106760D02*
G75*
G02*
X169242282Y-112106760I-124999J0D01*
G01*
X169242282Y-112106760D02*
G75*
G02*
X169492280Y-112106760I124999J0D01*
G01*
D16*
X170103745Y-111947130D02*
X169916376Y-111639083D01*
X170272792Y-111584607D01*
X170103745Y-111947130D01*
G36*
X170103745Y-111947130D02*
G01*
X169916376Y-111639083D01*
X170272792Y-111584607D01*
X170103745Y-111947130D01*
G37*
%TO.C,D48*%
D17*
X121004368Y-92133950D02*
G75*
G02*
X120754368Y-92133950I-125000J0D01*
G01*
X120754368Y-92133950D02*
G75*
G02*
X121004368Y-92133950I125000J0D01*
G01*
D16*
X120419826Y-92689872D02*
X120078284Y-92805411D01*
X120181812Y-92419041D01*
X120419826Y-92689872D01*
G36*
X120419826Y-92689872D02*
G01*
X120078284Y-92805411D01*
X120181812Y-92419041D01*
X120419826Y-92689872D01*
G37*
%TO.C,D14*%
D17*
X140382181Y-74308829D02*
G75*
G02*
X140132181Y-74308829I-125000J0D01*
G01*
X140132181Y-74308829D02*
G75*
G02*
X140382181Y-74308829I125000J0D01*
G01*
D16*
X139545968Y-74188815D02*
X139275137Y-73950801D01*
X139661508Y-73847273D01*
X139545968Y-74188815D01*
G36*
X139545968Y-74188815D02*
G01*
X139275137Y-73950801D01*
X139661508Y-73847273D01*
X139545968Y-74188815D01*
G37*
%TO.C,D52*%
D17*
X172412584Y-98805034D02*
G75*
G02*
X172162584Y-98805034I-125000J0D01*
G01*
X172162584Y-98805034D02*
G75*
G02*
X172412584Y-98805034I125000J0D01*
G01*
D16*
X172845565Y-98298559D02*
X172529275Y-98125464D01*
X172810702Y-97900081D01*
X172845565Y-98298559D01*
G36*
X172845565Y-98298559D02*
G01*
X172529275Y-98125464D01*
X172810702Y-97900081D01*
X172845565Y-98298559D01*
G37*
%TO.C,D20*%
D17*
X125268121Y-116064122D02*
G75*
G02*
X125018121Y-116064122I-125000J0D01*
G01*
X125018121Y-116064122D02*
G75*
G02*
X125268121Y-116064122I125000J0D01*
G01*
D16*
X125233667Y-117105465D02*
X124976552Y-116799047D01*
X125334923Y-116759420D01*
X125233667Y-117105465D01*
G36*
X125233667Y-117105465D02*
G01*
X124976552Y-116799047D01*
X125334923Y-116759420D01*
X125233667Y-117105465D01*
G37*
%TO.C,D32*%
D17*
X144929098Y-73704906D02*
G75*
G02*
X144679098Y-73704906I-125000J0D01*
G01*
X144679098Y-73704906D02*
G75*
G02*
X144929098Y-73704906I125000J0D01*
G01*
D16*
X144124528Y-73463215D02*
X143899145Y-73181788D01*
X144297623Y-73146925D01*
X144124528Y-73463215D01*
G36*
X144124528Y-73463215D02*
G01*
X143899145Y-73181788D01*
X144297623Y-73146925D01*
X144124528Y-73463215D01*
G37*
%TO.C,D43*%
D15*
X172212850Y-96521430D02*
G75*
G02*
X171962850Y-96521430I-125000J0D01*
G01*
X171962850Y-96521430D02*
G75*
G02*
X172212850Y-96521430I125000J0D01*
G01*
D16*
X172599565Y-95968251D02*
X172269393Y-95823384D01*
X172530106Y-95574328D01*
X172599565Y-95968251D01*
G36*
X172599565Y-95968251D02*
G01*
X172269393Y-95823384D01*
X172530106Y-95574328D01*
X172599565Y-95968251D01*
G37*
%TD*%
%LPC*%
X105749992Y-64000005D02*
X106250005Y-64866027D01*
X105750007Y-65732045D01*
X104749997Y-65732053D01*
X104249999Y-64866027D01*
X104750002Y-64000004D01*
X105749992Y-64000005D01*
G36*
X105749992Y-64000005D02*
G01*
X106250005Y-64866027D01*
X105750007Y-65732045D01*
X104749997Y-65732053D01*
X104249999Y-64866027D01*
X104750002Y-64000004D01*
X105749992Y-64000005D01*
G37*
X106249996Y-62866020D02*
X105750004Y-63732048D01*
X104749993Y-63732049D01*
X104249997Y-62866025D01*
X104750003Y-62000004D01*
X105749999Y-62000000D01*
X106249996Y-62866020D01*
G36*
X106249996Y-62866020D02*
G01*
X105750004Y-63732048D01*
X104749993Y-63732049D01*
X104249997Y-62866025D01*
X104750003Y-62000004D01*
X105749999Y-62000000D01*
X106249996Y-62866020D01*
G37*
X181249996Y-138499996D02*
X180749994Y-139366019D01*
X179749998Y-139366017D01*
X179249997Y-138499994D01*
X179749995Y-137633968D01*
X180750002Y-137633964D01*
X181249996Y-138499996D01*
G36*
X181249996Y-138499996D02*
G01*
X180749994Y-139366019D01*
X179749998Y-139366017D01*
X179249997Y-138499994D01*
X179749995Y-137633968D01*
X180750002Y-137633964D01*
X181249996Y-138499996D01*
G37*
X107499997Y-63000003D02*
X108000000Y-63866029D01*
X107499998Y-64732051D01*
X106499992Y-64732046D01*
X105999999Y-63866020D01*
X106499998Y-63000000D01*
X107499997Y-63000003D01*
G36*
X107499997Y-63000003D02*
G01*
X108000000Y-63866029D01*
X107499998Y-64732051D01*
X106499992Y-64732046D01*
X105999999Y-63866020D01*
X106499998Y-63000000D01*
X107499997Y-63000003D01*
G37*
X107500003Y-59000004D02*
X107999996Y-59866027D01*
X107500002Y-60732045D01*
X106499995Y-60732046D01*
X105999995Y-59866017D01*
X106499999Y-59000003D01*
X107500003Y-59000004D01*
G36*
X107500003Y-59000004D02*
G01*
X107999996Y-59866027D01*
X107500002Y-60732045D01*
X106499995Y-60732046D01*
X105999995Y-59866017D01*
X106499999Y-59000003D01*
X107500003Y-59000004D01*
G37*
X107499996Y-61000007D02*
X108000003Y-61866031D01*
X107500004Y-62732050D01*
X106499997Y-62732049D01*
X105999995Y-61866020D01*
X106499997Y-61000003D01*
X107499996Y-61000007D01*
G36*
X107499996Y-61000007D02*
G01*
X108000003Y-61866031D01*
X107500004Y-62732050D01*
X106499997Y-62732049D01*
X105999995Y-61866020D01*
X106499997Y-61000003D01*
X107499996Y-61000007D01*
G37*
X109250004Y-60000001D02*
X109749990Y-60866028D01*
X109250007Y-61732055D01*
X108249992Y-61732049D01*
X107749998Y-60866016D01*
X108250002Y-60000000D01*
X109250004Y-60000001D01*
G36*
X109250004Y-60000001D02*
G01*
X109749990Y-60866028D01*
X109250007Y-61732055D01*
X108249992Y-61732049D01*
X107749998Y-60866016D01*
X108250002Y-60000000D01*
X109250004Y-60000001D01*
G37*
X185999998Y-136633972D02*
X186500000Y-137499996D01*
X185999995Y-138366020D01*
X184999995Y-138366017D01*
X184499996Y-137499994D01*
X184999992Y-136633969D01*
X185999998Y-136633972D01*
G36*
X185999998Y-136633972D02*
G01*
X186500000Y-137499996D01*
X185999995Y-138366020D01*
X184999995Y-138366017D01*
X184499996Y-137499994D01*
X184999992Y-136633969D01*
X185999998Y-136633972D01*
G37*
X186499997Y-139500000D02*
X185999998Y-140366016D01*
X184999995Y-140366018D01*
X184499998Y-139499991D01*
X184999989Y-138633967D01*
X186000000Y-138633965D01*
X186499997Y-139500000D01*
G36*
X186499997Y-139500000D02*
G01*
X185999998Y-140366016D01*
X184999995Y-140366018D01*
X184499998Y-139499991D01*
X184999989Y-138633967D01*
X186000000Y-138633965D01*
X186499997Y-139500000D01*
G37*
X184749996Y-136499998D02*
X184249996Y-137366014D01*
X183249999Y-137366013D01*
X182749994Y-136499993D01*
X183249991Y-135633969D01*
X184249998Y-135633969D01*
X184749996Y-136499998D01*
G36*
X184749996Y-136499998D02*
G01*
X184249996Y-137366014D01*
X183249999Y-137366013D01*
X182749994Y-136499993D01*
X183249991Y-135633969D01*
X184249998Y-135633969D01*
X184749996Y-136499998D01*
G37*
X112749997Y-60000002D02*
X113250003Y-60866028D01*
X112750004Y-61732048D01*
X111749999Y-61732050D01*
X111250000Y-60866025D01*
X111749999Y-60000000D01*
X112749997Y-60000002D01*
G36*
X112749997Y-60000002D02*
G01*
X113250003Y-60866028D01*
X112750004Y-61732048D01*
X111749999Y-61732050D01*
X111250000Y-60866025D01*
X111749999Y-60000000D01*
X112749997Y-60000002D01*
G37*
X181250001Y-140499994D02*
X180749995Y-141366017D01*
X179749999Y-141366018D01*
X179249995Y-140499995D01*
X179749992Y-139633971D01*
X180750001Y-139633964D01*
X181250001Y-140499994D01*
G36*
X181250001Y-140499994D02*
G01*
X180749995Y-141366017D01*
X179749999Y-141366018D01*
X179249995Y-140499995D01*
X179749992Y-139633971D01*
X180750001Y-139633964D01*
X181250001Y-140499994D01*
G37*
X186499995Y-135499994D02*
X185999996Y-136366016D01*
X184999997Y-136366013D01*
X184499994Y-135499994D01*
X184999994Y-134633968D01*
X186000000Y-134633966D01*
X186499995Y-135499994D01*
G36*
X186499995Y-135499994D02*
G01*
X185999996Y-136366016D01*
X184999997Y-136366013D01*
X184499994Y-135499994D01*
X184999994Y-134633968D01*
X186000000Y-134633966D01*
X186499995Y-135499994D01*
G37*
X188249999Y-136499993D02*
X187749994Y-137366016D01*
X186749996Y-137366013D01*
X186249999Y-136499994D01*
X186749993Y-135633971D01*
X187749997Y-135633968D01*
X188249999Y-136499993D01*
G36*
X188249999Y-136499993D02*
G01*
X187749994Y-137366016D01*
X186749996Y-137366013D01*
X186249999Y-136499994D01*
X186749993Y-135633971D01*
X187749997Y-135633968D01*
X188249999Y-136499993D01*
G37*
X179499996Y-141499993D02*
X178999992Y-142366016D01*
X177999999Y-142366016D01*
X177499996Y-141499993D01*
X177999990Y-140633971D01*
X179000000Y-140633969D01*
X179499996Y-141499993D01*
G36*
X179499996Y-141499993D02*
G01*
X178999992Y-142366016D01*
X177999999Y-142366016D01*
X177499996Y-141499993D01*
X177999990Y-140633971D01*
X179000000Y-140633969D01*
X179499996Y-141499993D01*
G37*
X182999997Y-141499994D02*
X182499997Y-142366019D01*
X181499996Y-142366017D01*
X180999996Y-141499993D01*
X181499987Y-140633972D01*
X182499998Y-140633967D01*
X182999997Y-141499994D01*
G36*
X182999997Y-141499994D02*
G01*
X182499997Y-142366019D01*
X181499996Y-142366017D01*
X180999996Y-141499993D01*
X181499987Y-140633972D01*
X182499998Y-140633967D01*
X182999997Y-141499994D01*
G37*
X109249994Y-58000003D02*
X109749999Y-58866027D01*
X109249999Y-59732048D01*
X108249995Y-59732048D01*
X107750004Y-58866020D01*
X108249998Y-58000000D01*
X109249994Y-58000003D01*
G36*
X109249994Y-58000003D02*
G01*
X109749999Y-58866027D01*
X109249999Y-59732048D01*
X108249995Y-59732048D01*
X107750004Y-58866020D01*
X108249998Y-58000000D01*
X109249994Y-58000003D01*
G37*
X182999999Y-137499994D02*
X182499996Y-138366017D01*
X181499997Y-138366016D01*
X181000000Y-137499992D01*
X181499991Y-136633969D01*
X182500001Y-136633969D01*
X182999999Y-137499994D01*
G36*
X182999999Y-137499994D02*
G01*
X182499996Y-138366017D01*
X181499997Y-138366016D01*
X181000000Y-137499992D01*
X181499991Y-136633969D01*
X182500001Y-136633969D01*
X182999999Y-137499994D01*
G37*
X111500001Y-59866027D02*
X111000004Y-60732055D01*
X109999998Y-60732054D01*
X109500000Y-59866022D01*
X109999999Y-59000006D01*
X110999997Y-59000005D01*
X111500001Y-59866027D01*
G36*
X111500001Y-59866027D02*
G01*
X111000004Y-60732055D01*
X109999998Y-60732054D01*
X109500000Y-59866022D01*
X109999999Y-59000006D01*
X110999997Y-59000005D01*
X111500001Y-59866027D01*
G37*
X109249999Y-61999998D02*
X109749997Y-62866023D01*
X109250007Y-63732049D01*
X108249994Y-63732047D01*
X107750001Y-62866020D01*
X108250001Y-61999994D01*
X109249999Y-61999998D01*
G36*
X109249999Y-61999998D02*
G01*
X109749997Y-62866023D01*
X109250007Y-63732049D01*
X108249994Y-63732047D01*
X107750001Y-62866020D01*
X108250001Y-61999994D01*
X109249999Y-61999998D01*
G37*
X110999993Y-61000001D02*
X111499993Y-61866026D01*
X111000007Y-62732045D01*
X109999997Y-62732049D01*
X109499997Y-61866019D01*
X109999996Y-60999998D01*
X110999993Y-61000001D01*
G36*
X110999993Y-61000001D02*
G01*
X111499993Y-61866026D01*
X111000007Y-62732045D01*
X109999997Y-62732049D01*
X109499997Y-61866019D01*
X109999996Y-60999998D01*
X110999993Y-61000001D01*
G37*
X112749998Y-58000004D02*
X113250001Y-58866031D01*
X112750005Y-59732049D01*
X111749996Y-59732046D01*
X111249995Y-58866019D01*
X111750000Y-58000003D01*
X112749998Y-58000004D01*
G36*
X112749998Y-58000004D02*
G01*
X113250001Y-58866031D01*
X112750005Y-59732049D01*
X111749996Y-59732046D01*
X111249995Y-58866019D01*
X111750000Y-58000003D01*
X112749998Y-58000004D01*
G37*
X184749996Y-140499993D02*
X184250001Y-141366017D01*
X183250001Y-141366018D01*
X182749999Y-140499993D01*
X183249991Y-139633969D01*
X184250002Y-139633968D01*
X184749996Y-140499993D01*
G36*
X184749996Y-140499993D02*
G01*
X184250001Y-141366017D01*
X183250001Y-141366018D01*
X182749999Y-140499993D01*
X183249991Y-139633969D01*
X184250002Y-139633968D01*
X184749996Y-140499993D01*
G37*
X182999998Y-139499995D02*
X182499991Y-140366019D01*
X181499994Y-140366016D01*
X180999991Y-139499990D01*
X181499992Y-138633967D01*
X182499999Y-138633966D01*
X182999998Y-139499995D01*
G36*
X182999998Y-139499995D02*
G01*
X182499991Y-140366019D01*
X181499994Y-140366016D01*
X180999991Y-139499990D01*
X181499992Y-138633967D01*
X182499999Y-138633966D01*
X182999998Y-139499995D01*
G37*
X105750000Y-60000005D02*
X106249998Y-60866025D01*
X105750002Y-61732050D01*
X104749993Y-61732044D01*
X104250004Y-60866023D01*
X104749998Y-60000003D01*
X105750000Y-60000005D01*
G36*
X105750000Y-60000005D02*
G01*
X106249998Y-60866025D01*
X105750002Y-61732050D01*
X104749993Y-61732044D01*
X104250004Y-60866023D01*
X104749998Y-60000003D01*
X105750000Y-60000005D01*
G37*
X177749993Y-140499993D02*
X177249993Y-141366019D01*
X176249999Y-141366014D01*
X175749996Y-140499993D01*
X176249989Y-139633972D01*
X177249999Y-139633968D01*
X177749993Y-140499993D01*
G36*
X177749993Y-140499993D02*
G01*
X177249993Y-141366019D01*
X176249999Y-141366014D01*
X175749996Y-140499993D01*
X176249989Y-139633972D01*
X177249999Y-139633968D01*
X177749993Y-140499993D01*
G37*
X179500000Y-139499992D02*
X178999995Y-140366018D01*
X177999999Y-140366014D01*
X177499995Y-139499995D01*
X177999996Y-138633969D01*
X179000002Y-138633968D01*
X179500000Y-139499992D01*
G36*
X179500000Y-139499992D02*
G01*
X178999995Y-140366018D01*
X177999999Y-140366014D01*
X177499995Y-139499995D01*
X177999996Y-138633969D01*
X179000002Y-138633968D01*
X179500000Y-139499992D01*
G37*
X116249998Y-58000008D02*
X116750001Y-58866024D01*
X116249998Y-59732050D01*
X115249994Y-59732052D01*
X114749999Y-58866023D01*
X115249999Y-58000002D01*
X116249998Y-58000008D01*
G36*
X116249998Y-58000008D02*
G01*
X116750001Y-58866024D01*
X116249998Y-59732050D01*
X115249994Y-59732052D01*
X114749999Y-58866023D01*
X115249999Y-58000002D01*
X116249998Y-58000008D01*
G37*
X114499994Y-58999997D02*
X115000000Y-59866028D01*
X114500002Y-60732051D01*
X113499996Y-60732045D01*
X113000000Y-59866024D01*
X113499998Y-58999996D01*
X114499994Y-58999997D01*
G36*
X114499994Y-58999997D02*
G01*
X115000000Y-59866028D01*
X114500002Y-60732051D01*
X113499996Y-60732045D01*
X113000000Y-59866024D01*
X113499998Y-58999996D01*
X114499994Y-58999997D01*
G37*
X184749999Y-138499991D02*
X184249993Y-139366020D01*
X183249997Y-139366016D01*
X182749995Y-138499994D01*
X183249991Y-137633969D01*
X184250001Y-137633966D01*
X184749999Y-138499991D01*
G36*
X184749999Y-138499991D02*
G01*
X184249993Y-139366020D01*
X183249997Y-139366016D01*
X182749995Y-138499994D01*
X183249991Y-137633969D01*
X184250001Y-137633966D01*
X184749999Y-138499991D01*
G37*
X188249997Y-134499996D02*
X187749996Y-135366016D01*
X186750001Y-135366019D01*
X186249997Y-134499990D01*
X186749994Y-133633970D01*
X187749999Y-133633968D01*
X188249997Y-134499996D01*
G36*
X188249997Y-134499996D02*
G01*
X187749996Y-135366016D01*
X186750001Y-135366019D01*
X186249997Y-134499990D01*
X186749994Y-133633970D01*
X187749999Y-133633968D01*
X188249997Y-134499996D01*
G37*
D14*
G36*
X144790945Y-131363867D02*
G01*
X144765987Y-131360318D01*
X144743135Y-131349671D01*
X144724397Y-131333418D01*
X144712543Y-131313767D01*
X144299925Y-130284100D01*
X144336701Y-130273608D01*
X144370908Y-130270270D01*
X144424240Y-130279369D01*
X144461611Y-130304628D01*
X144487046Y-130347756D01*
X144785633Y-131136263D01*
X144756873Y-131214391D01*
X144762002Y-131216406D01*
X145092646Y-130347756D01*
X145110439Y-130313476D01*
X145136793Y-130289687D01*
X145170024Y-130275247D01*
X145208875Y-130270270D01*
X145243018Y-130273582D01*
X145279858Y-130284009D01*
X144867149Y-131313767D01*
X144855567Y-131333496D01*
X144837748Y-131349671D01*
X144815812Y-131360283D01*
X144790945Y-131363867D01*
G37*
G36*
X146161295Y-129856874D02*
G01*
X146254067Y-129876332D01*
X146340849Y-129908302D01*
X146421646Y-129952724D01*
X146488353Y-130005472D01*
X146542624Y-130066755D01*
X146584038Y-130136588D01*
X146608436Y-130209770D01*
X146616630Y-130287855D01*
X146616630Y-130926245D01*
X146608437Y-131004333D01*
X146584041Y-131077546D01*
X146542624Y-131147438D01*
X146488362Y-131208671D01*
X146421656Y-131261420D01*
X146340849Y-131305890D01*
X146254072Y-131337809D01*
X146161299Y-131357237D01*
X146061405Y-131363867D01*
X145962852Y-131357267D01*
X145870699Y-131337868D01*
X145783884Y-131305890D01*
X145703080Y-131261472D01*
X145636012Y-131208724D01*
X145581101Y-131147438D01*
X145539091Y-131077483D01*
X145514380Y-131004278D01*
X145506088Y-130926245D01*
X145506088Y-130289962D01*
X145680020Y-130289962D01*
X145680020Y-130924139D01*
X145685480Y-130976490D01*
X145701603Y-131024568D01*
X145728746Y-131069494D01*
X145785882Y-131125903D01*
X145865125Y-131170427D01*
X145956318Y-131197456D01*
X146061405Y-131206880D01*
X146168256Y-131197412D01*
X146259699Y-131170427D01*
X146338925Y-131125898D01*
X146395987Y-131069494D01*
X146423184Y-131024562D01*
X146439335Y-130976485D01*
X146444805Y-130924139D01*
X146444805Y-130289962D01*
X146439337Y-130237677D01*
X146423188Y-130189628D01*
X146395987Y-130144699D01*
X146338914Y-130088240D01*
X146259699Y-130043765D01*
X146168256Y-130016780D01*
X146061405Y-130007312D01*
X145956318Y-130016736D01*
X145865125Y-130043765D01*
X145785893Y-130088235D01*
X145728746Y-130144699D01*
X145701599Y-130189622D01*
X145685478Y-130237671D01*
X145680020Y-130289962D01*
X145506088Y-130289962D01*
X145506088Y-130287855D01*
X145514282Y-130209770D01*
X145538680Y-130136588D01*
X145580094Y-130066755D01*
X145634361Y-130005466D01*
X145701040Y-129952719D01*
X145781777Y-129908302D01*
X145868619Y-129876332D01*
X145961453Y-129856874D01*
X146061405Y-129850233D01*
X146161295Y-129856874D01*
G37*
G36*
X146977957Y-131363867D02*
G01*
X146926250Y-131354396D01*
X146883526Y-131326315D01*
X146854628Y-131284401D01*
X146844875Y-131232892D01*
X146854588Y-131181272D01*
X146883526Y-131138462D01*
X146926343Y-131109452D01*
X146977957Y-131099719D01*
X147029570Y-131109452D01*
X147072387Y-131138462D01*
X147101397Y-131181279D01*
X147111130Y-131232892D01*
X147101357Y-131284394D01*
X147072387Y-131326315D01*
X147029663Y-131354396D01*
X146977957Y-131363867D01*
G37*
G36*
X147392589Y-130021967D02*
G01*
X147267476Y-130021967D01*
X147224952Y-130017141D01*
X147191691Y-130003735D01*
X147165535Y-129982216D01*
X147139710Y-129936421D01*
X147130089Y-129869101D01*
X147485829Y-129869101D01*
X147517918Y-129874953D01*
X147543531Y-129892090D01*
X147560762Y-129917411D01*
X147566521Y-129947686D01*
X147566521Y-131213933D01*
X147561173Y-131260513D01*
X147546322Y-131296836D01*
X147522465Y-131325307D01*
X147490890Y-131345642D01*
X147448661Y-131358938D01*
X147392589Y-131363867D01*
X147392589Y-130021967D01*
G37*
D21*
%TO.C,G\u002A\u002A\u002A*%
G36*
X174480816Y-72761940D02*
G01*
X174478847Y-72771212D01*
X174475012Y-72790247D01*
X174469658Y-72817296D01*
X174463128Y-72850612D01*
X174455768Y-72888445D01*
X174450197Y-72917247D01*
X174422772Y-73059367D01*
X174300380Y-73059367D01*
X174263935Y-73059167D01*
X174231812Y-73058608D01*
X174205727Y-73057751D01*
X174187397Y-73056657D01*
X174178539Y-73055390D01*
X174177985Y-73054972D01*
X174179089Y-73048264D01*
X174182203Y-73031626D01*
X174187022Y-73006615D01*
X174193245Y-72974793D01*
X174200567Y-72937719D01*
X174208145Y-72899665D01*
X174238308Y-72748754D01*
X174361160Y-72748754D01*
X174484011Y-72748754D01*
X174480816Y-72761940D01*
G37*
G36*
X175119311Y-72764870D02*
G01*
X175117310Y-72775030D01*
X175113398Y-72794875D01*
X175107933Y-72822588D01*
X175101275Y-72856355D01*
X175093780Y-72894361D01*
X175088688Y-72920177D01*
X175061235Y-73059367D01*
X174939016Y-73059367D01*
X174902599Y-73059167D01*
X174870504Y-73058607D01*
X174844449Y-73057748D01*
X174826154Y-73056654D01*
X174817335Y-73055385D01*
X174816794Y-73054972D01*
X174817899Y-73048264D01*
X174821012Y-73031626D01*
X174825832Y-73006615D01*
X174832054Y-72974793D01*
X174839377Y-72937719D01*
X174846954Y-72899665D01*
X174877117Y-72748754D01*
X174999799Y-72748754D01*
X175122481Y-72748754D01*
X175119311Y-72764870D01*
G37*
G36*
X177374693Y-72748901D02*
G01*
X177406771Y-72749389D01*
X177429441Y-72750288D01*
X177443860Y-72751669D01*
X177451183Y-72753602D01*
X177452596Y-72756079D01*
X177450778Y-72763628D01*
X177447085Y-72781068D01*
X177441844Y-72806777D01*
X177435384Y-72839133D01*
X177428031Y-72876514D01*
X177421255Y-72911386D01*
X177392655Y-73059367D01*
X177269080Y-73059367D01*
X177145506Y-73059367D01*
X177170922Y-72934829D01*
X177178846Y-72895988D01*
X177186369Y-72859086D01*
X177193034Y-72826364D01*
X177198386Y-72800061D01*
X177201967Y-72782418D01*
X177202553Y-72779522D01*
X177208768Y-72748754D01*
X177332053Y-72748754D01*
X177374693Y-72748901D01*
G37*
G36*
X177217381Y-73534256D02*
G01*
X177248126Y-73534839D01*
X177269510Y-73535902D01*
X177282712Y-73537523D01*
X177288911Y-73539777D01*
X177289762Y-73541405D01*
X177288618Y-73547922D01*
X177285325Y-73565281D01*
X177280013Y-73592824D01*
X177272810Y-73629894D01*
X177263845Y-73675835D01*
X177253247Y-73729991D01*
X177241145Y-73791703D01*
X177227668Y-73860316D01*
X177212945Y-73935173D01*
X177197104Y-74015617D01*
X177180274Y-74100990D01*
X177162585Y-74190637D01*
X177144164Y-74283901D01*
X177129617Y-74357498D01*
X176969696Y-75166266D01*
X176851027Y-75167854D01*
X176810910Y-75168333D01*
X176781062Y-75168471D01*
X176760033Y-75168158D01*
X176746371Y-75167284D01*
X176738628Y-75165740D01*
X176735353Y-75163413D01*
X176735095Y-75160196D01*
X176735383Y-75159063D01*
X176736870Y-75152173D01*
X176740514Y-75134452D01*
X176746179Y-75106564D01*
X176753733Y-75069176D01*
X176763043Y-75022952D01*
X176773975Y-74968557D01*
X176786396Y-74906655D01*
X176800172Y-74837912D01*
X176815170Y-74762991D01*
X176831258Y-74682560D01*
X176848300Y-74597281D01*
X176866165Y-74507820D01*
X176884718Y-74414842D01*
X176897323Y-74351638D01*
X176916259Y-74256698D01*
X176934594Y-74164837D01*
X176952194Y-74076719D01*
X176968927Y-73993009D01*
X176984659Y-73914372D01*
X176999257Y-73841471D01*
X177012588Y-73774973D01*
X177024518Y-73715541D01*
X177034913Y-73663840D01*
X177043642Y-73620536D01*
X177050569Y-73586293D01*
X177055563Y-73561775D01*
X177058489Y-73547648D01*
X177059224Y-73544335D01*
X177061172Y-73540785D01*
X177065690Y-73538157D01*
X177074332Y-73536316D01*
X177088652Y-73535123D01*
X177110204Y-73534444D01*
X177140543Y-73534142D01*
X177176098Y-73534079D01*
X177217381Y-73534256D01*
G37*
G36*
X176414685Y-73516758D02*
G01*
X176485052Y-73532172D01*
X176550141Y-73557397D01*
X176609278Y-73592242D01*
X176652356Y-73627388D01*
X176693896Y-73666300D01*
X176598857Y-73751676D01*
X176503817Y-73837051D01*
X176470540Y-73804218D01*
X176426419Y-73767747D01*
X176378608Y-73742021D01*
X176326532Y-73726872D01*
X176269617Y-73722135D01*
X176207291Y-73727643D01*
X176207215Y-73727655D01*
X176143211Y-73743846D01*
X176081676Y-73770724D01*
X176023567Y-73807354D01*
X175969842Y-73852798D01*
X175921457Y-73906120D01*
X175879367Y-73966385D01*
X175844531Y-74032656D01*
X175817904Y-74103998D01*
X175815968Y-74110549D01*
X175813362Y-74121369D01*
X175808686Y-74142801D01*
X175802121Y-74173951D01*
X175793846Y-74213927D01*
X175784044Y-74261838D01*
X175772895Y-74316792D01*
X175760581Y-74377896D01*
X175747282Y-74444259D01*
X175733180Y-74514987D01*
X175718455Y-74589190D01*
X175705337Y-74655588D01*
X175604647Y-75166266D01*
X175485738Y-75167854D01*
X175445577Y-75168332D01*
X175415688Y-75168471D01*
X175394622Y-75168161D01*
X175380931Y-75167292D01*
X175373169Y-75165754D01*
X175369886Y-75163436D01*
X175369635Y-75160230D01*
X175369939Y-75159063D01*
X175371480Y-75152001D01*
X175375116Y-75134288D01*
X175380690Y-75106720D01*
X175388044Y-75070094D01*
X175397021Y-75025206D01*
X175407464Y-74972853D01*
X175419214Y-74913831D01*
X175432115Y-74848936D01*
X175446009Y-74778965D01*
X175460738Y-74704714D01*
X175476146Y-74626980D01*
X175492075Y-74546558D01*
X175508367Y-74464245D01*
X175524865Y-74380838D01*
X175541411Y-74297133D01*
X175557848Y-74213927D01*
X175574020Y-74132015D01*
X175589767Y-74052194D01*
X175604933Y-73975260D01*
X175619360Y-73902011D01*
X175632892Y-73833242D01*
X175645370Y-73769749D01*
X175656636Y-73712329D01*
X175666535Y-73661779D01*
X175674907Y-73618894D01*
X175681597Y-73584471D01*
X175686445Y-73559307D01*
X175689296Y-73544198D01*
X175690032Y-73539877D01*
X175695755Y-73537781D01*
X175712390Y-73536115D01*
X175739133Y-73534920D01*
X175775181Y-73534234D01*
X175807356Y-73534079D01*
X175924681Y-73534079D01*
X175921574Y-73547265D01*
X175918404Y-73561633D01*
X175913970Y-73582908D01*
X175908781Y-73608506D01*
X175903344Y-73635844D01*
X175898170Y-73662337D01*
X175893767Y-73685402D01*
X175890644Y-73702454D01*
X175889309Y-73710908D01*
X175889294Y-73711215D01*
X175893023Y-73709945D01*
X175902973Y-73701763D01*
X175917289Y-73688253D01*
X175923580Y-73681958D01*
X175985119Y-73627495D01*
X176052290Y-73583291D01*
X176124805Y-73549486D01*
X176202379Y-73526221D01*
X176260801Y-73516126D01*
X176339710Y-73511346D01*
X176414685Y-73516758D01*
G37*
G36*
X178469836Y-73529569D02*
G01*
X178534262Y-73538595D01*
X178593396Y-73554679D01*
X178649713Y-73578495D01*
X178705687Y-73610719D01*
X178706552Y-73611280D01*
X178730257Y-73628419D01*
X178757105Y-73650619D01*
X178784823Y-73675696D01*
X178811135Y-73701465D01*
X178833769Y-73725742D01*
X178850451Y-73746343D01*
X178856008Y-73754860D01*
X178866032Y-73772455D01*
X178777210Y-73847629D01*
X178750079Y-73870174D01*
X178726064Y-73889331D01*
X178706534Y-73904076D01*
X178692857Y-73913382D01*
X178686401Y-73916224D01*
X178686103Y-73915947D01*
X178678958Y-73902544D01*
X178665619Y-73883842D01*
X178648400Y-73862607D01*
X178629612Y-73841604D01*
X178611569Y-73823598D01*
X178601876Y-73815237D01*
X178554965Y-73782868D01*
X178507122Y-73759968D01*
X178455800Y-73745695D01*
X178398451Y-73739205D01*
X178370274Y-73738598D01*
X178293990Y-73743735D01*
X178223398Y-73759000D01*
X178157870Y-73784654D01*
X178096776Y-73820953D01*
X178039489Y-73868158D01*
X178028019Y-73879343D01*
X177974773Y-73940009D01*
X177926181Y-74010197D01*
X177883201Y-74088306D01*
X177846791Y-74172734D01*
X177838171Y-74196523D01*
X177819458Y-74257324D01*
X177803409Y-74323551D01*
X177790266Y-74392998D01*
X177780273Y-74463457D01*
X177773671Y-74532724D01*
X177770704Y-74598591D01*
X177771614Y-74658853D01*
X177776645Y-74711302D01*
X177779628Y-74728431D01*
X177797717Y-74791444D01*
X177824887Y-74847412D01*
X177860463Y-74895788D01*
X177903770Y-74936026D01*
X177954135Y-74967578D01*
X178010883Y-74989896D01*
X178073338Y-75002434D01*
X178120744Y-75005099D01*
X178197639Y-74999474D01*
X178271099Y-74982675D01*
X178340848Y-74954818D01*
X178406608Y-74916018D01*
X178468102Y-74866389D01*
X178477645Y-74857336D01*
X178519550Y-74816711D01*
X178587555Y-74900424D01*
X178655560Y-74984138D01*
X178628074Y-75012043D01*
X178577641Y-75056566D01*
X178518084Y-75097831D01*
X178451816Y-75134646D01*
X178381252Y-75165818D01*
X178308805Y-75190154D01*
X178236888Y-75206461D01*
X178233548Y-75207012D01*
X178192613Y-75211853D01*
X178145201Y-75214580D01*
X178095193Y-75215198D01*
X178046470Y-75213711D01*
X178002913Y-75210123D01*
X177979521Y-75206723D01*
X177899393Y-75187011D01*
X177826643Y-75158328D01*
X177761455Y-75120960D01*
X177704016Y-75075192D01*
X177654510Y-75021309D01*
X177613123Y-74959597D01*
X177580041Y-74890340D01*
X177555449Y-74813825D01*
X177539532Y-74730337D01*
X177532477Y-74640160D01*
X177534469Y-74543581D01*
X177535886Y-74524526D01*
X177549935Y-74404656D01*
X177571645Y-74290260D01*
X177600719Y-74181867D01*
X177636857Y-74080005D01*
X177679762Y-73985204D01*
X177729136Y-73897993D01*
X177784681Y-73818900D01*
X177846098Y-73748455D01*
X177913090Y-73687186D01*
X177985359Y-73635622D01*
X178059258Y-73595819D01*
X178129842Y-73567471D01*
X178201948Y-73546991D01*
X178278051Y-73533877D01*
X178360625Y-73527624D01*
X178397646Y-73526923D01*
X178469836Y-73529569D01*
G37*
G36*
X173046800Y-73534125D02*
G01*
X173122415Y-73534258D01*
X173193800Y-73534473D01*
X173260143Y-73534762D01*
X173320634Y-73535118D01*
X173374460Y-73535537D01*
X173420813Y-73536010D01*
X173458879Y-73536532D01*
X173487848Y-73537096D01*
X173506909Y-73537695D01*
X173515251Y-73538323D01*
X173515568Y-73538474D01*
X173514350Y-73545433D01*
X173511094Y-73561811D01*
X173506217Y-73585567D01*
X173500136Y-73614659D01*
X173495913Y-73634625D01*
X173487069Y-73673668D01*
X173478792Y-73705154D01*
X173471467Y-73727753D01*
X173465481Y-73740133D01*
X173465313Y-73740350D01*
X173460143Y-73746375D01*
X173447678Y-73760663D01*
X173428380Y-73782689D01*
X173402711Y-73811928D01*
X173371132Y-73847855D01*
X173334106Y-73889945D01*
X173292095Y-73937673D01*
X173245560Y-73990516D01*
X173194963Y-74047948D01*
X173140767Y-74109444D01*
X173083434Y-74174479D01*
X173023425Y-74242530D01*
X172961202Y-74313070D01*
X172935533Y-74342164D01*
X172872724Y-74413373D01*
X172812064Y-74482191D01*
X172754003Y-74548103D01*
X172698994Y-74610595D01*
X172647487Y-74669153D01*
X172599935Y-74723262D01*
X172556789Y-74772408D01*
X172518500Y-74816076D01*
X172485520Y-74853751D01*
X172458300Y-74884921D01*
X172437293Y-74909069D01*
X172422949Y-74925681D01*
X172415721Y-74934243D01*
X172414913Y-74935321D01*
X172420293Y-74936286D01*
X172436715Y-74937176D01*
X172463501Y-74937984D01*
X172499973Y-74938701D01*
X172545451Y-74939318D01*
X172599257Y-74939827D01*
X172660712Y-74940218D01*
X172729139Y-74940485D01*
X172803857Y-74940618D01*
X172838344Y-74940632D01*
X172907794Y-74940691D01*
X172973720Y-74940861D01*
X173035200Y-74941134D01*
X173091313Y-74941499D01*
X173141137Y-74941947D01*
X173183753Y-74942469D01*
X173218238Y-74943055D01*
X173243672Y-74943695D01*
X173259134Y-74944381D01*
X173263762Y-74945027D01*
X173262710Y-74951905D01*
X173259762Y-74968430D01*
X173255261Y-74992746D01*
X173249551Y-75022995D01*
X173242977Y-75057320D01*
X173242594Y-75059310D01*
X173221391Y-75169197D01*
X172650636Y-75169197D01*
X172569945Y-75169152D01*
X172492659Y-75169024D01*
X172419573Y-75168818D01*
X172351481Y-75168540D01*
X172289176Y-75168196D01*
X172233455Y-75167792D01*
X172185112Y-75167335D01*
X172144940Y-75166831D01*
X172113735Y-75166285D01*
X172092292Y-75165704D01*
X172081404Y-75165094D01*
X172080159Y-75164801D01*
X172081367Y-75157834D01*
X172084527Y-75141426D01*
X172089235Y-75117618D01*
X172095090Y-75088451D01*
X172099206Y-75068146D01*
X172117974Y-74975887D01*
X172315106Y-74751672D01*
X172351070Y-74710766D01*
X172393681Y-74662299D01*
X172441848Y-74607512D01*
X172494479Y-74547647D01*
X172550483Y-74483946D01*
X172608767Y-74417651D01*
X172668240Y-74350003D01*
X172727810Y-74282243D01*
X172786385Y-74215615D01*
X172842874Y-74151359D01*
X172847132Y-74146515D01*
X173182028Y-73765574D01*
X172780400Y-73764068D01*
X172698788Y-73763720D01*
X172628223Y-73763322D01*
X172568029Y-73762857D01*
X172517531Y-73762312D01*
X172476055Y-73761673D01*
X172442924Y-73760923D01*
X172417465Y-73760048D01*
X172399002Y-73759034D01*
X172386859Y-73757866D01*
X172380364Y-73756528D01*
X172378776Y-73755277D01*
X172379851Y-73747421D01*
X172382834Y-73730031D01*
X172387369Y-73705073D01*
X172393099Y-73674515D01*
X172399244Y-73642501D01*
X172405736Y-73608970D01*
X172411384Y-73579676D01*
X172415837Y-73556451D01*
X172418743Y-73541126D01*
X172419753Y-73535544D01*
X172425484Y-73535333D01*
X172442126Y-73535130D01*
X172468866Y-73534940D01*
X172504892Y-73534762D01*
X172549394Y-73534600D01*
X172601559Y-73534456D01*
X172660577Y-73534332D01*
X172725635Y-73534231D01*
X172795921Y-73534153D01*
X172870626Y-73534102D01*
X172948936Y-73534080D01*
X172967766Y-73534079D01*
X173046800Y-73534125D01*
G37*
G36*
X179621203Y-72749032D02*
G01*
X179655270Y-72749880D01*
X179678264Y-72751315D01*
X179690504Y-72753352D01*
X179692847Y-72755077D01*
X179691716Y-72761689D01*
X179688439Y-72778906D01*
X179683193Y-72805844D01*
X179676153Y-72841619D01*
X179667494Y-72885345D01*
X179657393Y-72936141D01*
X179646024Y-72993120D01*
X179633563Y-73055399D01*
X179620186Y-73122093D01*
X179606069Y-73192319D01*
X179602007Y-73212496D01*
X179587715Y-73283544D01*
X179574114Y-73351302D01*
X179561380Y-73414886D01*
X179549688Y-73473414D01*
X179539214Y-73526001D01*
X179530134Y-73571764D01*
X179522622Y-73609819D01*
X179516855Y-73639284D01*
X179513009Y-73659275D01*
X179511258Y-73668908D01*
X179511167Y-73669629D01*
X179515124Y-73668720D01*
X179525722Y-73661219D01*
X179541049Y-73648548D01*
X179549539Y-73641035D01*
X179607750Y-73595741D01*
X179674169Y-73556934D01*
X179746595Y-73525706D01*
X179822830Y-73503149D01*
X179830572Y-73501414D01*
X179866866Y-73495623D01*
X179910170Y-73492030D01*
X179957240Y-73490606D01*
X180004828Y-73491323D01*
X180049690Y-73494153D01*
X180088579Y-73499067D01*
X180110956Y-73503853D01*
X180179881Y-73528248D01*
X180242031Y-73562163D01*
X180297070Y-73605322D01*
X180344657Y-73657446D01*
X180384453Y-73718259D01*
X180392971Y-73734441D01*
X180409304Y-73769515D01*
X180421320Y-73802434D01*
X180429523Y-73835924D01*
X180434414Y-73872713D01*
X180436496Y-73915527D01*
X180436271Y-73967094D01*
X180436224Y-73969289D01*
X180434097Y-74064466D01*
X180322805Y-74616818D01*
X180211513Y-75169170D01*
X180092200Y-75169183D01*
X179972887Y-75169197D01*
X179976077Y-75156010D01*
X179977664Y-75148426D01*
X179981358Y-75130180D01*
X179986993Y-75102109D01*
X179994402Y-75065050D01*
X180003419Y-75019839D01*
X180013876Y-74967314D01*
X180025608Y-74908311D01*
X180038448Y-74843666D01*
X180052229Y-74774217D01*
X180066785Y-74700800D01*
X180081948Y-74624253D01*
X180082271Y-74622621D01*
X180101794Y-74523799D01*
X180119076Y-74435735D01*
X180134232Y-74357703D01*
X180147376Y-74288979D01*
X180158620Y-74228838D01*
X180168079Y-74176553D01*
X180175867Y-74131402D01*
X180182096Y-74092658D01*
X180186882Y-74059596D01*
X180190336Y-74031492D01*
X180192574Y-74007621D01*
X180193708Y-73987257D01*
X180193853Y-73969675D01*
X180193123Y-73954152D01*
X180191629Y-73939960D01*
X180190506Y-73932348D01*
X180176173Y-73876283D01*
X180152405Y-73827135D01*
X180119319Y-73785062D01*
X180077030Y-73750224D01*
X180042596Y-73730511D01*
X180009381Y-73716490D01*
X179975951Y-73707615D01*
X179939198Y-73703430D01*
X179896012Y-73703477D01*
X179869655Y-73705046D01*
X179795870Y-73716215D01*
X179725385Y-73738233D01*
X179659455Y-73770592D01*
X179599331Y-73812784D01*
X179595631Y-73815874D01*
X179555954Y-73854683D01*
X179518096Y-73901607D01*
X179484544Y-73953058D01*
X179457784Y-74005449D01*
X179448942Y-74027492D01*
X179444418Y-74040349D01*
X179439941Y-74054173D01*
X179435343Y-74069739D01*
X179430458Y-74087821D01*
X179425118Y-74109192D01*
X179419155Y-74134626D01*
X179412402Y-74164897D01*
X179404692Y-74200779D01*
X179395858Y-74243046D01*
X179385732Y-74292470D01*
X179374148Y-74349827D01*
X179360937Y-74415890D01*
X179345932Y-74491432D01*
X179328966Y-74577228D01*
X179317396Y-74635879D01*
X179302480Y-74711498D01*
X179288167Y-74783998D01*
X179274623Y-74852532D01*
X179262017Y-74916251D01*
X179250518Y-74974306D01*
X179240293Y-75025848D01*
X179231512Y-75070029D01*
X179224342Y-75106000D01*
X179218952Y-75132912D01*
X179215510Y-75149918D01*
X179214227Y-75156010D01*
X179212865Y-75160463D01*
X179210229Y-75163780D01*
X179204774Y-75166129D01*
X179194956Y-75167677D01*
X179179229Y-75168590D01*
X179156048Y-75169036D01*
X179123867Y-75169183D01*
X179092370Y-75169197D01*
X178973735Y-75169197D01*
X179213019Y-73972161D01*
X179236334Y-73855538D01*
X179259060Y-73741889D01*
X179281087Y-73631756D01*
X179302308Y-73525680D01*
X179322614Y-73424201D01*
X179341897Y-73327860D01*
X179360049Y-73237199D01*
X179376960Y-73152758D01*
X179392523Y-73075079D01*
X179406629Y-73004703D01*
X179419170Y-72942170D01*
X179430038Y-72888021D01*
X179439123Y-72842798D01*
X179446319Y-72807041D01*
X179451515Y-72781291D01*
X179454605Y-72766090D01*
X179455474Y-72761940D01*
X179456829Y-72757462D01*
X179459473Y-72754133D01*
X179464961Y-72751783D01*
X179474849Y-72750242D01*
X179490692Y-72749339D01*
X179514044Y-72748904D01*
X179546462Y-72748765D01*
X179575746Y-72748754D01*
X179621203Y-72749032D01*
G37*
G36*
X174074498Y-73534260D02*
G01*
X174105899Y-73534852D01*
X174127838Y-73535923D01*
X174141441Y-73537544D01*
X174147833Y-73539785D01*
X174148684Y-73541300D01*
X174147560Y-73547996D01*
X174144297Y-73565354D01*
X174139058Y-73592546D01*
X174132006Y-73628742D01*
X174123305Y-73673112D01*
X174113118Y-73724826D01*
X174101610Y-73783056D01*
X174088942Y-73846970D01*
X174075279Y-73915740D01*
X174060784Y-73988536D01*
X174046239Y-74061432D01*
X174026503Y-74160475D01*
X174009028Y-74248767D01*
X173993701Y-74327034D01*
X173980408Y-74396001D01*
X173969036Y-74456396D01*
X173959471Y-74508945D01*
X173951599Y-74554374D01*
X173945306Y-74593409D01*
X173940480Y-74626778D01*
X173937007Y-74655206D01*
X173934772Y-74679420D01*
X173933663Y-74700146D01*
X173933566Y-74718111D01*
X173934368Y-74734041D01*
X173935954Y-74748662D01*
X173937352Y-74757812D01*
X173952099Y-74811576D01*
X173977029Y-74859960D01*
X174011538Y-74902166D01*
X174055021Y-74937398D01*
X174087928Y-74956240D01*
X174133425Y-74978726D01*
X174215778Y-74978669D01*
X174252709Y-74978289D01*
X174281173Y-74976983D01*
X174304410Y-74974416D01*
X174325661Y-74970252D01*
X174343839Y-74965422D01*
X174414828Y-74939146D01*
X174479105Y-74903359D01*
X174536421Y-74858328D01*
X174586529Y-74804320D01*
X174629182Y-74741600D01*
X174664131Y-74670437D01*
X174690900Y-74591924D01*
X174693477Y-74580977D01*
X174698129Y-74559424D01*
X174704676Y-74528158D01*
X174712937Y-74488073D01*
X174722730Y-74440065D01*
X174733875Y-74385028D01*
X174746189Y-74323857D01*
X174759492Y-74257446D01*
X174773603Y-74186690D01*
X174788340Y-74112483D01*
X174801318Y-74046885D01*
X174902013Y-73537009D01*
X175020573Y-73535423D01*
X175056410Y-73535155D01*
X175087900Y-73535326D01*
X175113299Y-73535892D01*
X175130864Y-73536810D01*
X175138848Y-73538037D01*
X175139146Y-73538353D01*
X175138035Y-73544632D01*
X175134800Y-73561613D01*
X175129600Y-73588501D01*
X175122591Y-73624500D01*
X175113931Y-73668815D01*
X175103776Y-73720650D01*
X175092283Y-73779210D01*
X175079611Y-73843699D01*
X175065915Y-73913322D01*
X175051353Y-73987284D01*
X175036082Y-74064790D01*
X175020259Y-74145043D01*
X175004042Y-74227249D01*
X174987586Y-74310611D01*
X174971050Y-74394335D01*
X174954591Y-74477626D01*
X174938365Y-74559687D01*
X174922529Y-74639723D01*
X174907242Y-74716940D01*
X174892659Y-74790540D01*
X174878938Y-74859730D01*
X174866236Y-74923714D01*
X174854710Y-74981696D01*
X174844518Y-75032881D01*
X174835816Y-75076473D01*
X174828761Y-75111677D01*
X174823510Y-75137698D01*
X174820222Y-75153740D01*
X174819084Y-75158940D01*
X174817102Y-75162491D01*
X174812553Y-75165118D01*
X174803881Y-75166960D01*
X174789531Y-75168152D01*
X174767948Y-75168832D01*
X174737576Y-75169134D01*
X174702120Y-75169197D01*
X174660791Y-75169018D01*
X174630002Y-75168431D01*
X174608576Y-75167361D01*
X174595337Y-75165732D01*
X174589107Y-75163467D01*
X174588241Y-75161871D01*
X174589257Y-75153741D01*
X174591966Y-75136865D01*
X174595876Y-75114015D01*
X174600491Y-75087961D01*
X174605318Y-75061472D01*
X174609863Y-75037319D01*
X174613630Y-75018272D01*
X174615039Y-75011658D01*
X174615228Y-75006082D01*
X174611263Y-75006302D01*
X174601834Y-75013073D01*
X174585633Y-75027147D01*
X174581211Y-75031134D01*
X174515095Y-75083579D01*
X174443382Y-75126052D01*
X174364964Y-75159196D01*
X174353807Y-75162989D01*
X174302394Y-75176465D01*
X174243990Y-75185884D01*
X174182560Y-75190975D01*
X174122069Y-75191472D01*
X174066479Y-75187104D01*
X174046123Y-75183863D01*
X173978544Y-75165394D01*
X173915428Y-75136722D01*
X173857913Y-75098762D01*
X173807136Y-75052429D01*
X173764236Y-74998636D01*
X173730350Y-74938297D01*
X173724817Y-74925673D01*
X173706861Y-74873079D01*
X173696241Y-74817437D01*
X173692558Y-74756096D01*
X173693434Y-74717051D01*
X173694303Y-74702779D01*
X173695682Y-74687143D01*
X173697711Y-74669354D01*
X173700532Y-74648623D01*
X173704287Y-74624161D01*
X173709118Y-74595181D01*
X173715167Y-74560892D01*
X173722574Y-74520506D01*
X173731482Y-74473235D01*
X173742033Y-74418290D01*
X173754367Y-74354882D01*
X173768627Y-74282222D01*
X173784955Y-74199522D01*
X173800276Y-74122197D01*
X173815587Y-74045002D01*
X173830352Y-73970524D01*
X173844397Y-73899643D01*
X173857549Y-73833239D01*
X173869633Y-73772192D01*
X173880476Y-73717381D01*
X173889903Y-73669687D01*
X173897740Y-73629989D01*
X173903813Y-73599167D01*
X173907948Y-73578102D01*
X173909952Y-73567777D01*
X173916328Y-73534079D01*
X174032506Y-73534079D01*
X174074498Y-73534260D01*
G37*
G36*
X170549901Y-73119439D02*
G01*
X170536212Y-73187028D01*
X170522675Y-73253812D01*
X170509561Y-73318465D01*
X170497138Y-73379661D01*
X170485676Y-73436073D01*
X170475445Y-73486374D01*
X170466714Y-73529239D01*
X170459753Y-73563340D01*
X170454831Y-73587352D01*
X170454626Y-73588347D01*
X170434399Y-73686570D01*
X170707257Y-73685048D01*
X170980115Y-73683525D01*
X171074450Y-73217604D01*
X171168786Y-72751684D01*
X171542693Y-72750175D01*
X171618157Y-72749884D01*
X171682735Y-72749679D01*
X171737265Y-72749579D01*
X171782581Y-72749605D01*
X171819519Y-72749777D01*
X171848916Y-72750114D01*
X171871607Y-72750635D01*
X171888427Y-72751362D01*
X171900214Y-72752313D01*
X171907802Y-72753509D01*
X171912028Y-72754969D01*
X171913727Y-72756712D01*
X171913736Y-72758760D01*
X171913680Y-72758966D01*
X171912267Y-72765637D01*
X171908673Y-72783266D01*
X171903006Y-72811312D01*
X171895374Y-72849239D01*
X171885884Y-72896506D01*
X171874645Y-72952575D01*
X171861763Y-73016908D01*
X171847347Y-73088966D01*
X171831505Y-73168210D01*
X171814343Y-73254101D01*
X171795970Y-73346101D01*
X171776494Y-73443671D01*
X171756022Y-73546272D01*
X171734661Y-73653366D01*
X171712520Y-73764414D01*
X171689707Y-73878877D01*
X171671704Y-73969231D01*
X171432646Y-75169197D01*
X171061778Y-75169197D01*
X170983738Y-75169152D01*
X170916708Y-75169009D01*
X170859977Y-75168754D01*
X170812832Y-75168373D01*
X170774562Y-75167852D01*
X170744456Y-75167175D01*
X170721802Y-75166331D01*
X170705889Y-75165304D01*
X170696006Y-75164080D01*
X170691441Y-75162645D01*
X170690929Y-75161871D01*
X170692044Y-75155103D01*
X170695265Y-75137717D01*
X170700424Y-75110591D01*
X170707348Y-75074603D01*
X170715867Y-75030634D01*
X170725810Y-74979561D01*
X170737007Y-74922264D01*
X170749286Y-74859622D01*
X170762476Y-74792512D01*
X170776407Y-74721816D01*
X170781769Y-74694649D01*
X170795915Y-74623000D01*
X170809385Y-74554732D01*
X170822009Y-74490710D01*
X170833618Y-74431798D01*
X170844042Y-74378863D01*
X170853110Y-74332767D01*
X170860652Y-74294376D01*
X170866497Y-74264554D01*
X170870477Y-74244167D01*
X170872419Y-74234079D01*
X170872588Y-74233124D01*
X170866920Y-74232793D01*
X170850682Y-74232485D01*
X170825028Y-74232206D01*
X170791109Y-74231963D01*
X170750078Y-74231764D01*
X170703086Y-74231615D01*
X170651287Y-74231523D01*
X170600830Y-74231495D01*
X170329071Y-74231495D01*
X170236234Y-74700346D01*
X170143397Y-75169197D01*
X169769552Y-75169197D01*
X169704547Y-75169173D01*
X169643129Y-75169107D01*
X169586280Y-75169000D01*
X169534984Y-75168858D01*
X169490221Y-75168684D01*
X169452976Y-75168483D01*
X169424229Y-75168257D01*
X169404964Y-75168013D01*
X169396163Y-75167752D01*
X169395708Y-75167677D01*
X169396837Y-75161860D01*
X169400143Y-75145168D01*
X169405501Y-75118221D01*
X169412789Y-75081635D01*
X169421883Y-75036031D01*
X169432658Y-74982026D01*
X169444993Y-74920239D01*
X169458762Y-74851289D01*
X169473843Y-74775794D01*
X169490112Y-74694373D01*
X169507446Y-74607645D01*
X169525721Y-74516228D01*
X169544814Y-74420741D01*
X169564600Y-74321802D01*
X169574329Y-74273162D01*
X169594392Y-74172726D01*
X169613782Y-74075402D01*
X169632377Y-73981813D01*
X169650056Y-73892581D01*
X169666696Y-73808327D01*
X169682178Y-73729673D01*
X169696378Y-73657240D01*
X169709176Y-73591650D01*
X169720450Y-73533526D01*
X169730079Y-73483489D01*
X169737942Y-73442159D01*
X169743916Y-73410161D01*
X169747880Y-73388114D01*
X169749713Y-73376640D01*
X169749802Y-73375074D01*
X169743507Y-73374099D01*
X169726588Y-73373185D01*
X169700145Y-73372351D01*
X169665274Y-73371613D01*
X169623075Y-73370991D01*
X169574645Y-73370503D01*
X169521083Y-73370165D01*
X169463486Y-73369997D01*
X169439191Y-73369981D01*
X169131728Y-73369981D01*
X169126147Y-73383167D01*
X169124574Y-73389861D01*
X169120862Y-73407290D01*
X169115166Y-73434693D01*
X169107638Y-73471308D01*
X169098430Y-73516377D01*
X169087694Y-73569136D01*
X169075584Y-73628827D01*
X169062253Y-73694689D01*
X169047852Y-73765959D01*
X169032534Y-73841879D01*
X169016452Y-73921686D01*
X168999759Y-74004621D01*
X168982607Y-74089923D01*
X168965148Y-74176831D01*
X168947536Y-74264583D01*
X168929922Y-74352420D01*
X168912460Y-74439581D01*
X168895303Y-74525305D01*
X168878601Y-74608831D01*
X168862509Y-74689399D01*
X168847179Y-74766247D01*
X168832764Y-74838615D01*
X168819415Y-74905743D01*
X168807286Y-74966869D01*
X168796530Y-75021234D01*
X168787298Y-75068075D01*
X168779744Y-75106633D01*
X168774020Y-75136146D01*
X168770278Y-75155854D01*
X168768672Y-75164997D01*
X168768620Y-75165506D01*
X168762923Y-75166149D01*
X168746490Y-75166756D01*
X168720304Y-75167318D01*
X168685351Y-75167825D01*
X168642614Y-75168268D01*
X168593079Y-75168635D01*
X168537729Y-75168918D01*
X168477550Y-75169107D01*
X168413525Y-75169193D01*
X168396358Y-75169197D01*
X168024096Y-75169197D01*
X168027264Y-75156010D01*
X168029134Y-75147270D01*
X168033100Y-75127964D01*
X168039013Y-75098851D01*
X168046721Y-75060690D01*
X168056072Y-75014239D01*
X168066916Y-74960256D01*
X168079102Y-74899500D01*
X168092477Y-74832730D01*
X168106892Y-74760704D01*
X168122194Y-74684181D01*
X168138233Y-74603920D01*
X168154858Y-74520678D01*
X168171916Y-74435214D01*
X168189257Y-74348287D01*
X168206730Y-74260656D01*
X168224184Y-74173079D01*
X168241467Y-74086314D01*
X168258427Y-74001121D01*
X168274915Y-73918257D01*
X168290779Y-73838481D01*
X168305867Y-73762552D01*
X168320028Y-73691228D01*
X168333111Y-73625268D01*
X168344965Y-73565430D01*
X168355439Y-73512474D01*
X168364381Y-73467157D01*
X168371641Y-73430237D01*
X168377066Y-73402475D01*
X168380506Y-73384627D01*
X168381810Y-73377453D01*
X168381818Y-73377362D01*
X168376089Y-73376412D01*
X168359431Y-73375520D01*
X168332634Y-73374685D01*
X168296490Y-73373910D01*
X168251790Y-73373194D01*
X168199325Y-73372538D01*
X168139888Y-73371943D01*
X168074268Y-73371409D01*
X168003259Y-73370937D01*
X167927650Y-73370527D01*
X167848233Y-73370181D01*
X167765799Y-73369898D01*
X167681141Y-73369680D01*
X167595049Y-73369527D01*
X167508314Y-73369440D01*
X167421728Y-73369419D01*
X167336082Y-73369465D01*
X167252168Y-73369578D01*
X167170776Y-73369760D01*
X167092699Y-73370010D01*
X167018727Y-73370330D01*
X166949652Y-73370720D01*
X166886266Y-73371181D01*
X166829358Y-73371713D01*
X166779722Y-73372316D01*
X166738147Y-73372993D01*
X166705426Y-73373742D01*
X166682350Y-73374565D01*
X166669710Y-73375463D01*
X166667477Y-73376011D01*
X166665591Y-73382810D01*
X166661860Y-73399243D01*
X166656663Y-73423436D01*
X166650376Y-73453513D01*
X166643376Y-73487601D01*
X166636039Y-73523823D01*
X166628744Y-73560305D01*
X166621866Y-73595173D01*
X166615783Y-73626552D01*
X166610871Y-73652567D01*
X166607508Y-73671343D01*
X166606071Y-73681005D01*
X166606045Y-73681551D01*
X166611769Y-73682266D01*
X166628394Y-73682950D01*
X166655099Y-73683595D01*
X166691065Y-73684193D01*
X166735472Y-73684738D01*
X166787498Y-73685221D01*
X166846324Y-73685635D01*
X166911129Y-73685973D01*
X166981094Y-73686228D01*
X167055397Y-73686391D01*
X167133219Y-73686455D01*
X167142293Y-73686455D01*
X167236582Y-73686483D01*
X167319768Y-73686571D01*
X167392467Y-73686729D01*
X167455297Y-73686965D01*
X167508876Y-73687287D01*
X167553820Y-73687705D01*
X167590748Y-73688227D01*
X167620276Y-73688861D01*
X167643023Y-73689617D01*
X167659605Y-73690502D01*
X167670640Y-73691527D01*
X167676745Y-73692698D01*
X167678541Y-73693966D01*
X167677422Y-73701095D01*
X167674216Y-73718534D01*
X167669153Y-73745104D01*
X167662464Y-73779626D01*
X167654378Y-73820919D01*
X167645124Y-73867805D01*
X167634932Y-73919102D01*
X167625796Y-73964836D01*
X167615018Y-74018683D01*
X167604981Y-74068898D01*
X167595911Y-74114335D01*
X167588039Y-74153848D01*
X167581590Y-74186292D01*
X167576794Y-74210520D01*
X167573879Y-74225388D01*
X167573050Y-74229814D01*
X167567325Y-74230065D01*
X167550697Y-74230336D01*
X167523981Y-74230622D01*
X167487996Y-74230919D01*
X167443558Y-74231222D01*
X167391484Y-74231525D01*
X167332592Y-74231825D01*
X167267698Y-74232117D01*
X167197620Y-74232395D01*
X167123175Y-74232656D01*
X167045180Y-74232894D01*
X167032680Y-74232929D01*
X166492311Y-74234425D01*
X166461551Y-74386801D01*
X166453343Y-74427573D01*
X166445939Y-74464557D01*
X166439646Y-74496204D01*
X166434772Y-74520962D01*
X166431623Y-74537281D01*
X166430508Y-74543574D01*
X166436191Y-74544212D01*
X166452778Y-74544823D01*
X166479452Y-74545399D01*
X166515397Y-74545934D01*
X166559795Y-74546422D01*
X166611829Y-74546854D01*
X166670683Y-74547226D01*
X166735539Y-74547530D01*
X166805580Y-74547759D01*
X166879990Y-74547907D01*
X166957952Y-74547968D01*
X166970040Y-74547969D01*
X167509854Y-74547969D01*
X167506727Y-74561155D01*
X167505007Y-74569378D01*
X167501264Y-74587945D01*
X167495727Y-74615701D01*
X167488625Y-74651487D01*
X167480187Y-74694146D01*
X167470642Y-74742521D01*
X167460220Y-74795454D01*
X167449150Y-74851788D01*
X167447241Y-74861513D01*
X167436098Y-74918187D01*
X167425564Y-74971556D01*
X167415868Y-75020478D01*
X167407238Y-75063809D01*
X167399903Y-75100409D01*
X167394090Y-75129135D01*
X167390029Y-75148844D01*
X167387946Y-75158394D01*
X167387801Y-75158940D01*
X167386953Y-75160302D01*
X167384905Y-75161538D01*
X167381115Y-75162654D01*
X167375041Y-75163657D01*
X167366142Y-75164552D01*
X167353875Y-75165345D01*
X167337699Y-75166043D01*
X167317073Y-75166652D01*
X167291453Y-75167177D01*
X167260299Y-75167625D01*
X167223068Y-75168002D01*
X167179219Y-75168314D01*
X167128210Y-75168567D01*
X167069498Y-75168767D01*
X167002543Y-75168920D01*
X166926803Y-75169033D01*
X166841735Y-75169110D01*
X166746797Y-75169159D01*
X166641449Y-75169186D01*
X166525147Y-75169196D01*
X166473150Y-75169197D01*
X165561581Y-75169197D01*
X165564778Y-75156010D01*
X165566219Y-75149053D01*
X165569841Y-75131142D01*
X165575535Y-75102817D01*
X165583194Y-75064619D01*
X165592709Y-75017091D01*
X165603972Y-74960772D01*
X165616876Y-74896204D01*
X165631311Y-74823928D01*
X165647172Y-74744485D01*
X165664348Y-74658417D01*
X165682733Y-74566263D01*
X165702217Y-74468567D01*
X165722694Y-74365867D01*
X165744055Y-74258706D01*
X165766192Y-74147625D01*
X165788997Y-74033165D01*
X165806402Y-73945789D01*
X166044830Y-72748754D01*
X168334889Y-72748754D01*
X170624949Y-72748754D01*
X170549901Y-73119439D01*
G37*
G36*
X166493444Y-68256931D02*
G01*
X166711225Y-68351816D01*
X166895413Y-68500383D01*
X166999552Y-68641663D01*
X167072447Y-68841584D01*
X167092242Y-69069426D01*
X167058937Y-69293197D01*
X166999552Y-69438336D01*
X166854423Y-69618900D01*
X166660281Y-69753479D01*
X166437068Y-69834137D01*
X166204724Y-69852937D01*
X166036432Y-69821655D01*
X165824012Y-69717002D01*
X165663423Y-69564574D01*
X165554689Y-69377624D01*
X165497836Y-69169406D01*
X165492888Y-68953173D01*
X165539870Y-68742179D01*
X165638807Y-68549677D01*
X165789722Y-68388922D01*
X165992642Y-68273166D01*
X166033519Y-68258517D01*
X166261174Y-68223306D01*
X166493444Y-68256931D01*
G37*
G36*
X168457627Y-70339441D02*
G01*
X168666446Y-70443493D01*
X168843044Y-70599346D01*
X168973667Y-70793310D01*
X169044562Y-71011697D01*
X169053338Y-71120000D01*
X169016154Y-71336777D01*
X168913936Y-71545847D01*
X168760685Y-71726338D01*
X168570399Y-71857380D01*
X168553340Y-71865400D01*
X168321428Y-71931312D01*
X168085941Y-71918660D01*
X167864287Y-71838675D01*
X167661824Y-71697255D01*
X167517600Y-71511716D01*
X167434791Y-71296051D01*
X167416571Y-71064257D01*
X167466116Y-70830329D01*
X167585511Y-70609729D01*
X167702002Y-70500065D01*
X167867195Y-70402045D01*
X168049736Y-70330684D01*
X168218272Y-70301002D01*
X168230342Y-70300878D01*
X168457627Y-70339441D01*
G37*
G36*
X166447938Y-70324690D02*
G01*
X166559234Y-70344689D01*
X166655976Y-70388887D01*
X166736350Y-70441663D01*
X166924259Y-70612047D01*
X167039662Y-70812561D01*
X167087430Y-71052567D01*
X167089375Y-71120000D01*
X167057134Y-71373228D01*
X166958076Y-71584279D01*
X166788697Y-71760003D01*
X166745994Y-71791568D01*
X166559675Y-71882575D01*
X166343008Y-71927554D01*
X166126919Y-71923034D01*
X165969213Y-71878777D01*
X165752526Y-71741696D01*
X165598814Y-71556130D01*
X165510583Y-71326076D01*
X165488829Y-71111593D01*
X165522650Y-70861895D01*
X165624943Y-70651457D01*
X165799268Y-70473535D01*
X165842513Y-70441663D01*
X165949289Y-70374136D01*
X166046732Y-70337311D01*
X166167500Y-70322296D01*
X166289431Y-70320000D01*
X166447938Y-70324690D01*
G37*
G36*
X166493659Y-66169304D02*
G01*
X166712750Y-66265933D01*
X166740009Y-66284231D01*
X166925289Y-66452701D01*
X167039509Y-66652389D01*
X167087695Y-66893080D01*
X167090034Y-66965479D01*
X167083719Y-67120228D01*
X167055902Y-67235365D01*
X166994791Y-67350691D01*
X166960488Y-67402693D01*
X166851072Y-67534667D01*
X166726932Y-67641980D01*
X166675427Y-67673528D01*
X166495384Y-67736941D01*
X166290884Y-67766012D01*
X166100029Y-67756694D01*
X166036432Y-67741435D01*
X165854197Y-67649148D01*
X165686823Y-67503904D01*
X165563894Y-67331384D01*
X165563775Y-67331151D01*
X165515181Y-67214177D01*
X165493526Y-67090787D01*
X165493558Y-66927613D01*
X165495216Y-66895723D01*
X165510076Y-66734054D01*
X165539230Y-66620677D01*
X165592881Y-66523986D01*
X165631895Y-66472254D01*
X165815810Y-66298074D01*
X166030521Y-66187863D01*
X166261360Y-66144111D01*
X166493659Y-66169304D01*
G37*
G36*
X166482234Y-64089066D02*
G01*
X166696136Y-64174192D01*
X166882879Y-64321880D01*
X167001794Y-64481663D01*
X167054213Y-64588773D01*
X167079457Y-64697852D01*
X167083582Y-64841502D01*
X167081048Y-64908276D01*
X167066183Y-65075517D01*
X167033862Y-65197613D01*
X166973652Y-65309111D01*
X166949260Y-65344713D01*
X166844940Y-65463389D01*
X166722001Y-65564696D01*
X166675427Y-65592752D01*
X166495454Y-65656707D01*
X166290781Y-65686033D01*
X166099570Y-65676630D01*
X166036432Y-65661435D01*
X165854197Y-65569148D01*
X165686823Y-65423904D01*
X165563894Y-65251384D01*
X165563775Y-65251151D01*
X165515181Y-65134177D01*
X165493526Y-65010787D01*
X165493558Y-64847613D01*
X165495216Y-64815723D01*
X165510076Y-64654054D01*
X165539230Y-64540677D01*
X165592881Y-64443986D01*
X165631895Y-64392254D01*
X165816005Y-64218096D01*
X166028327Y-64110115D01*
X166255017Y-64067405D01*
X166482234Y-64089066D01*
G37*
G36*
X171118173Y-64040400D02*
G01*
X171301994Y-64158210D01*
X171449004Y-64335390D01*
X171451483Y-64339570D01*
X171487088Y-64402445D01*
X171513907Y-64461828D01*
X171533411Y-64530132D01*
X171547072Y-64619770D01*
X171556361Y-64743155D01*
X171562748Y-64912702D01*
X171567706Y-65140824D01*
X171571245Y-65350000D01*
X171584761Y-66180000D01*
X171998399Y-66179999D01*
X172405766Y-66196599D01*
X172762372Y-66249628D01*
X173091074Y-66343934D01*
X173400630Y-66477321D01*
X173798888Y-66704521D01*
X174130962Y-66961474D01*
X174408725Y-67259869D01*
X174644049Y-67611392D01*
X174744217Y-67800000D01*
X174881386Y-68107357D01*
X174971602Y-68391370D01*
X175022134Y-68683426D01*
X175040252Y-69014914D01*
X175040631Y-69080000D01*
X175030372Y-69389740D01*
X174995177Y-69659714D01*
X174928423Y-69917279D01*
X174823486Y-70189792D01*
X174716386Y-70419130D01*
X174612120Y-70618104D01*
X174509496Y-70778661D01*
X174387819Y-70929122D01*
X174226394Y-71097809D01*
X174204880Y-71119130D01*
X173937162Y-71363155D01*
X173676368Y-71553222D01*
X173394388Y-71707325D01*
X173086755Y-71834778D01*
X172759621Y-71955693D01*
X171697949Y-71967912D01*
X171376898Y-71971294D01*
X171125627Y-71972774D01*
X170933800Y-71971767D01*
X170791080Y-71967685D01*
X170687132Y-71959941D01*
X170611619Y-71947947D01*
X170554206Y-71931117D01*
X170504557Y-71908863D01*
X170485942Y-71899059D01*
X170309982Y-71762792D01*
X170189321Y-71584091D01*
X170124679Y-71379095D01*
X170116778Y-71163942D01*
X170166338Y-70954770D01*
X170274079Y-70767717D01*
X170429117Y-70626430D01*
X170481172Y-70593071D01*
X170531057Y-70567314D01*
X170589777Y-70547924D01*
X170668335Y-70533664D01*
X170777735Y-70523298D01*
X170928980Y-70515590D01*
X171133075Y-70509305D01*
X171401024Y-70503205D01*
X171554638Y-70500000D01*
X171858373Y-70493407D01*
X172093681Y-70486989D01*
X172272249Y-70479518D01*
X172405764Y-70469767D01*
X172505913Y-70456509D01*
X172584383Y-70438519D01*
X172652862Y-70414569D01*
X172723036Y-70383432D01*
X172739589Y-70375625D01*
X173012426Y-70205696D01*
X173239553Y-69982329D01*
X173413497Y-69718502D01*
X173526787Y-69427191D01*
X173571950Y-69121374D01*
X173564121Y-68943625D01*
X173490457Y-68632809D01*
X173351267Y-68346226D01*
X173156691Y-68096417D01*
X172916865Y-67895923D01*
X172641927Y-67757283D01*
X172591433Y-67740461D01*
X172492676Y-67712529D01*
X172393759Y-67691763D01*
X172281023Y-67677204D01*
X172140806Y-67667895D01*
X171959448Y-67662876D01*
X171723288Y-67661189D01*
X171468359Y-67661664D01*
X171185274Y-67662559D01*
X170970238Y-67661888D01*
X170811178Y-67658495D01*
X170696018Y-67651227D01*
X170612682Y-67638929D01*
X170549097Y-67620446D01*
X170493186Y-67594624D01*
X170437684Y-67563122D01*
X170275298Y-67432149D01*
X170169383Y-67270565D01*
X170143415Y-67215972D01*
X170122731Y-67162754D01*
X170106732Y-67101505D01*
X170094817Y-67022815D01*
X170086383Y-66917277D01*
X170080829Y-66775484D01*
X170077555Y-66588027D01*
X170075959Y-66345498D01*
X170075439Y-66038491D01*
X170075393Y-65800000D01*
X170075393Y-64520000D01*
X170175665Y-64341208D01*
X170316927Y-64162463D01*
X170496917Y-64042991D01*
X170700526Y-63982810D01*
X170912647Y-63981939D01*
X171118173Y-64040400D01*
G37*
G36*
X176428171Y-64033144D02*
G01*
X176637966Y-64106787D01*
X176824692Y-64243252D01*
X176966245Y-64424240D01*
X176993197Y-64476564D01*
X177013767Y-64537926D01*
X177029057Y-64619991D01*
X177040171Y-64734425D01*
X177048210Y-64892892D01*
X177054276Y-65107058D01*
X177059473Y-65388587D01*
X177059900Y-65415419D01*
X177073429Y-66270838D01*
X177414083Y-66249619D01*
X177910806Y-66254729D01*
X178377397Y-66333954D01*
X178814310Y-66487475D01*
X179221998Y-66715470D01*
X179600915Y-67018119D01*
X179761636Y-67178157D01*
X179980580Y-67433601D01*
X180148631Y-67686192D01*
X180223620Y-67827548D01*
X180344155Y-68093773D01*
X180427420Y-68335761D01*
X180479228Y-68579990D01*
X180505396Y-68852934D01*
X180511829Y-69140000D01*
X180503521Y-69460500D01*
X180474722Y-69728829D01*
X180419618Y-69971464D01*
X180332395Y-70214880D01*
X180223620Y-70452451D01*
X180000277Y-70820322D01*
X179710636Y-71158601D01*
X179366078Y-71457318D01*
X178977984Y-71706501D01*
X178588800Y-71884732D01*
X178498332Y-71918031D01*
X178418056Y-71944138D01*
X178336723Y-71964059D01*
X178243081Y-71978799D01*
X178125878Y-71989364D01*
X177973864Y-71996762D01*
X177775787Y-72001998D01*
X177520397Y-72006077D01*
X177196442Y-72010007D01*
X177186592Y-72010121D01*
X176858479Y-72013585D01*
X176600660Y-72015154D01*
X176403315Y-72014323D01*
X176256625Y-72010586D01*
X176150770Y-72003438D01*
X176075930Y-71992371D01*
X176022285Y-71976881D01*
X175980015Y-71956461D01*
X175964668Y-71947162D01*
X175783995Y-71792747D01*
X175655119Y-71598129D01*
X175589789Y-71383284D01*
X175584069Y-71300000D01*
X175612091Y-71130565D01*
X175685191Y-70949666D01*
X175786918Y-70797084D01*
X175796312Y-70786745D01*
X175861702Y-70721215D01*
X175927568Y-70670517D01*
X176004969Y-70632652D01*
X176104969Y-70605620D01*
X176238628Y-70587421D01*
X176417007Y-70576056D01*
X176651168Y-70569526D01*
X176952173Y-70565831D01*
X177021632Y-70565254D01*
X177319029Y-70562343D01*
X177548669Y-70558247D01*
X177722921Y-70551919D01*
X177854154Y-70542310D01*
X177954738Y-70528372D01*
X178037040Y-70509057D01*
X178113432Y-70483316D01*
X178148106Y-70469785D01*
X178438448Y-70314424D01*
X178675389Y-70108871D01*
X178856740Y-69863830D01*
X178980314Y-69590001D01*
X179043925Y-69298087D01*
X179045383Y-68998788D01*
X178982501Y-68702808D01*
X178853092Y-68420847D01*
X178654968Y-68163607D01*
X178625581Y-68134035D01*
X178377352Y-67930086D01*
X178161232Y-67814378D01*
X178081680Y-67784154D01*
X178005168Y-67761153D01*
X177919379Y-67744338D01*
X177811992Y-67732670D01*
X177670689Y-67725111D01*
X177483150Y-67720621D01*
X177237056Y-67718164D01*
X177006308Y-67717028D01*
X176671677Y-67714586D01*
X176406757Y-67708105D01*
X176201141Y-67694410D01*
X176044417Y-67670326D01*
X175926179Y-67632679D01*
X175836015Y-67578293D01*
X175763517Y-67503994D01*
X175698275Y-67406608D01*
X175638979Y-67300000D01*
X175617947Y-67255261D01*
X175601237Y-67202198D01*
X175588357Y-67131645D01*
X175578818Y-67034433D01*
X175572127Y-66901398D01*
X175567795Y-66723373D01*
X175565331Y-66491191D01*
X175564245Y-66195686D01*
X175564037Y-65900000D01*
X175564970Y-65585518D01*
X175567612Y-65292888D01*
X175571730Y-65032760D01*
X175577090Y-64815785D01*
X175583457Y-64652614D01*
X175590597Y-64553898D01*
X175594073Y-64533082D01*
X175670728Y-64379370D01*
X175802881Y-64229988D01*
X175968399Y-64109079D01*
X175996731Y-64093871D01*
X176209647Y-64027210D01*
X176428171Y-64033144D01*
G37*
%TD*%
D22*
%TO.C,H4*%
X151125427Y-91122500D03*
%TD*%
%TO.C,H1*%
X151125427Y-108877499D03*
%TD*%
%TO.C,H2*%
X135749146Y-100000000D03*
%TD*%
D23*
%TO.C,H3*%
X116200000Y-100000000D03*
%TD*%
%TO.C,H5*%
X146000000Y-70200000D03*
%TD*%
%TO.C,H6*%
X175800000Y-100000000D03*
%TD*%
D24*
%TO.C,J1*%
X142800000Y-133850000D03*
X143600000Y-133850000D03*
D25*
X144750000Y-133850000D03*
X145750000Y-133850000D03*
X146250000Y-133850000D03*
X147250000Y-133850000D03*
D24*
X148400000Y-133850000D03*
X149200000Y-133850000D03*
X149200000Y-133850000D03*
X148400000Y-133850000D03*
D25*
X147750000Y-133850000D03*
X146750000Y-133850000D03*
X145250000Y-133850000D03*
X144250000Y-133850000D03*
D24*
X143600000Y-133850000D03*
X142800000Y-133850000D03*
D26*
X140380000Y-135000000D03*
D27*
X140380000Y-139000000D03*
D26*
X151620000Y-135000000D03*
D27*
X151620000Y-139000000D03*
%TD*%
D28*
%TO.C,R2*%
X143025000Y-130900000D03*
X141375000Y-130900000D03*
%TD*%
D29*
%TO.C,R1*%
X148975000Y-130900000D03*
X150625000Y-130900000D03*
%TD*%
D30*
%TO.C,C86*%
X170150000Y-121350000D03*
X170150000Y-123250000D03*
%TD*%
D31*
%TO.C,C87*%
X172150000Y-121525000D03*
X172150000Y-123075000D03*
%TD*%
D32*
%TO.C,C89*%
X172825000Y-125800000D03*
X174375000Y-125800000D03*
%TD*%
D30*
%TO.C,C44*%
X113175000Y-76300000D03*
X113175000Y-78200000D03*
%TD*%
D32*
%TO.C,C88*%
X178075000Y-117300000D03*
X179625000Y-117300000D03*
%TD*%
D33*
%TO.C,C33*%
X124175000Y-73700000D03*
X124175000Y-71800000D03*
%TD*%
D34*
%TO.C,C56*%
X118450000Y-68750000D03*
X116900000Y-68750000D03*
%TD*%
D35*
%TO.C,Q1*%
X117237500Y-75300000D03*
X117237500Y-77200000D03*
X119112500Y-76250000D03*
%TD*%
D29*
%TO.C,R14*%
X116850000Y-70250000D03*
X118500000Y-70250000D03*
%TD*%
%TO.C,R11*%
X118850000Y-66750000D03*
X120500000Y-66750000D03*
%TD*%
D36*
%TO.C,C75*%
X110450000Y-116750000D03*
X108550000Y-116750000D03*
%TD*%
D31*
%TO.C,C45*%
X115175000Y-76475000D03*
X115175000Y-78025000D03*
%TD*%
D37*
%TO.C,U1*%
X134475000Y-135860000D03*
X134475000Y-136810000D03*
X134475000Y-137760000D03*
X136750000Y-137760000D03*
X136750000Y-135860000D03*
%TD*%
D38*
%TO.C,L1*%
X120425000Y-71687500D03*
X120425000Y-73812500D03*
%TD*%
D39*
%TO.C,U8*%
X176350000Y-123250000D03*
X176750000Y-123250000D03*
X177150000Y-123250000D03*
X177550000Y-123250000D03*
X177950000Y-123250000D03*
D40*
X178600000Y-122600000D03*
X178600000Y-122200000D03*
X178600000Y-121800000D03*
X178600000Y-121400000D03*
X178600000Y-121000000D03*
D39*
X177950000Y-120350000D03*
X177550000Y-120350000D03*
X177150000Y-120350000D03*
X176750000Y-120350000D03*
X176350000Y-120350000D03*
D40*
X175700000Y-121000000D03*
X175700000Y-121400000D03*
X175700000Y-121800000D03*
X175700000Y-122200000D03*
X175700000Y-122600000D03*
D41*
X177150000Y-121800000D03*
%TD*%
D34*
%TO.C,C5*%
X146775000Y-60700000D03*
X145225000Y-60700000D03*
%TD*%
%TO.C,C91*%
X175775000Y-117300000D03*
X174225000Y-117300000D03*
%TD*%
D42*
%TO.C,R8*%
X114750000Y-117075000D03*
X114750000Y-115425000D03*
%TD*%
D43*
%TO.C,U2*%
X146403051Y-103097128D03*
X147301076Y-102199102D03*
X148199102Y-101301076D03*
X149097128Y-100403051D03*
X145596949Y-96902872D03*
X144698924Y-97800898D03*
X143800898Y-98698924D03*
X142902872Y-99596949D03*
%TD*%
D44*
%TO.C,C2*%
X148201992Y-96701992D03*
X149298008Y-97798008D03*
%TD*%
D34*
%TO.C,C3*%
X136387500Y-134300000D03*
X134837500Y-134300000D03*
%TD*%
D45*
%TO.C,R5*%
X113250000Y-115425000D03*
X113250000Y-117075000D03*
%TD*%
D42*
%TO.C,R10*%
X110249997Y-114899999D03*
X110249997Y-113249999D03*
%TD*%
%TO.C,R9*%
X111750000Y-114899998D03*
X111750000Y-113249998D03*
%TD*%
D46*
%TO.C,U6*%
X114650000Y-74695000D03*
X114650000Y-73425000D03*
X114650000Y-72155000D03*
X114650000Y-70885000D03*
X114650000Y-69615000D03*
X114650000Y-68345000D03*
X114650000Y-67075000D03*
X114650000Y-65805000D03*
X109700000Y-65805000D03*
X109700000Y-67075000D03*
X109700000Y-68345000D03*
X109700000Y-69615000D03*
X109700000Y-70885000D03*
X109700000Y-72155000D03*
X109700000Y-73425000D03*
X109700000Y-74695000D03*
%TD*%
D28*
%TO.C,R12*%
X120500000Y-65250000D03*
X118850000Y-65250000D03*
%TD*%
D47*
%TO.C,C43*%
X122175000Y-73525000D03*
X122175000Y-71975000D03*
%TD*%
D28*
%TO.C,R13*%
X118500000Y-71750000D03*
X116850000Y-71750000D03*
%TD*%
D31*
%TO.C,C55*%
X117175000Y-64975000D03*
X117175000Y-66525000D03*
%TD*%
D45*
%TO.C,R15*%
X173600000Y-133975000D03*
X173600000Y-135625000D03*
%TD*%
%TO.C,R16*%
X175200000Y-133975000D03*
X175200000Y-135625000D03*
%TD*%
%TO.C,R20*%
X181600000Y-133975000D03*
X181600000Y-135625000D03*
%TD*%
%TO.C,R17*%
X176800000Y-133975000D03*
X176800000Y-135625000D03*
%TD*%
%TO.C,R18*%
X178400000Y-133975000D03*
X178400000Y-135625000D03*
%TD*%
%TO.C,R19*%
X180000000Y-133975000D03*
X180000000Y-135625000D03*
%TD*%
D42*
%TO.C,R21*%
X128000000Y-134075000D03*
X128000000Y-132425000D03*
%TD*%
D47*
%TO.C,C76*%
X126250000Y-134025000D03*
X126250000Y-132475000D03*
%TD*%
D31*
%TO.C,C92*%
X126250000Y-135975000D03*
X126250000Y-137525000D03*
%TD*%
D33*
%TO.C,C4*%
X163899999Y-135649999D03*
X163899999Y-133749999D03*
%TD*%
D30*
%TO.C,C1*%
X154499999Y-133750001D03*
X154499999Y-135650001D03*
%TD*%
D23*
%TO.C,H7*%
X181000000Y-100000000D03*
%TD*%
%TO.C,H8*%
X111000000Y-100000000D03*
%TD*%
D30*
%TO.C,C90*%
X128250000Y-135800000D03*
X128250000Y-137700000D03*
%TD*%
D48*
%TO.C,C10*%
X125074683Y-114066807D03*
X125625317Y-114853193D03*
%TD*%
D49*
%TO.C,U10*%
X161325000Y-65750000D03*
X161325000Y-64800000D03*
X161325000Y-63850000D03*
X159050000Y-63850000D03*
X159050000Y-65750000D03*
%TD*%
D50*
%TO.C,D23*%
X140833713Y-73293671D03*
X140989996Y-74179998D03*
X141876323Y-74023715D03*
X141720040Y-73137388D03*
%TD*%
D51*
%TO.C,C11*%
X127840589Y-117480589D03*
X128519411Y-118159411D03*
%TD*%
D52*
%TO.C,D42*%
X163144534Y-78876026D03*
X162566026Y-79565466D03*
X163255466Y-80143974D03*
X163833974Y-79454534D03*
%TD*%
D53*
%TO.C,D41*%
X145549997Y-72799997D03*
X145549997Y-73699997D03*
X146449997Y-73699997D03*
X146449997Y-72799997D03*
%TD*%
D54*
%TO.C,D10*%
X144059069Y-127138390D03*
X144137509Y-126241814D03*
X143240933Y-126163374D03*
X143162493Y-127059950D03*
%TD*%
D55*
%TO.C,D60*%
X166545466Y-82166026D03*
X165856026Y-82744534D03*
X166434534Y-83433974D03*
X167123974Y-82855466D03*
%TD*%
D56*
%TO.C,D38*%
X122674439Y-113988860D03*
X123453861Y-113538860D03*
X123003861Y-112759438D03*
X122224439Y-113209438D03*
%TD*%
D57*
%TO.C,D5*%
X136272177Y-74594275D03*
X136579995Y-75439999D03*
X137425719Y-75132181D03*
X137117901Y-74286457D03*
%TD*%
D58*
%TO.C,C61*%
X137821052Y-76145830D03*
X136918948Y-76474170D03*
%TD*%
D59*
%TO.C,D53*%
X168536728Y-115229491D03*
X167799491Y-114713272D03*
X167283272Y-115450509D03*
X168020509Y-115966728D03*
%TD*%
D60*
%TO.C,C8*%
X121515767Y-106066356D03*
X121764233Y-106993644D03*
%TD*%
D61*
%TO.C,C83*%
X122145830Y-108168948D03*
X122474170Y-109071052D03*
%TD*%
D28*
%TO.C,R26*%
X141575000Y-64250000D03*
X139925000Y-64250000D03*
%TD*%
D62*
%TO.C,D63*%
X151171305Y-126705022D03*
X151015022Y-125818695D03*
X150128695Y-125974978D03*
X150284978Y-126861305D03*
%TD*%
D35*
%TO.C,Q3*%
X153250000Y-62850000D03*
X153250000Y-64750000D03*
X155125000Y-63800000D03*
%TD*%
D63*
%TO.C,D17*%
X172391135Y-106601802D03*
X171521802Y-106368865D03*
X171288865Y-107238198D03*
X172158198Y-107471135D03*
%TD*%
D64*
%TO.C,D34*%
X172150584Y-92523676D03*
X171281251Y-92756613D03*
X171514188Y-93625946D03*
X172383521Y-93393009D03*
%TD*%
D65*
%TO.C,C13*%
X134914972Y-122637143D03*
X135785028Y-123042857D03*
%TD*%
D66*
%TO.C,C18*%
X165618538Y-84167701D03*
X165001462Y-83432299D03*
%TD*%
D67*
%TO.C,C72*%
X128519411Y-81850589D03*
X127840589Y-82529411D03*
%TD*%
D68*
%TO.C,C31*%
X157085028Y-77362857D03*
X156214972Y-76957143D03*
%TD*%
D69*
%TO.C,D16*%
X170460924Y-88093847D03*
X169645247Y-88474204D03*
X170025604Y-89289881D03*
X170841281Y-88909524D03*
%TD*%
D70*
%TO.C,D39*%
X119132379Y-95717281D03*
X120018706Y-95873564D03*
X120174989Y-94987237D03*
X119288662Y-94830954D03*
%TD*%
D71*
%TO.C,C60*%
X159015692Y-78410000D03*
X158184308Y-77930000D03*
%TD*%
D72*
%TO.C,D47*%
X121544679Y-111906035D03*
X122360356Y-111525678D03*
X121979999Y-110710001D03*
X121164322Y-111090358D03*
%TD*%
D73*
%TO.C,C25*%
X160076807Y-120935317D03*
X160863193Y-120384683D03*
%TD*%
D74*
%TO.C,C54*%
X121774233Y-93016356D03*
X121525767Y-93943644D03*
%TD*%
D75*
%TO.C,D68*%
X152601802Y-73608865D03*
X152368865Y-74478198D03*
X153238198Y-74711135D03*
X153471135Y-73841802D03*
%TD*%
D76*
%TO.C,C51*%
X150852708Y-75253351D03*
X149907292Y-75086649D03*
%TD*%
D77*
%TO.C,C64*%
X129432299Y-119001462D03*
X130167701Y-119618538D03*
%TD*%
D78*
%TO.C,D69*%
X168020509Y-84033272D03*
X167283272Y-84549491D03*
X167799491Y-85286728D03*
X168536728Y-84770509D03*
%TD*%
D79*
%TO.C,C22*%
X147721827Y-125161835D03*
X148678173Y-125078165D03*
%TD*%
D80*
%TO.C,C16*%
X171068165Y-102678173D03*
X171151835Y-101721827D03*
%TD*%
D81*
%TO.C,D64*%
X130770509Y-122536728D03*
X131286728Y-121799491D03*
X130549491Y-121283272D03*
X130033272Y-122020509D03*
%TD*%
D53*
%TO.C,D21*%
X118800000Y-100450000D03*
X119700000Y-100450000D03*
X119700000Y-99550000D03*
X118800000Y-99550000D03*
%TD*%
D82*
%TO.C,D2*%
X128865466Y-121123974D03*
X129443974Y-120434534D03*
X128754534Y-119856026D03*
X128176026Y-120545466D03*
%TD*%
D83*
%TO.C,D8*%
X172857621Y-104282719D03*
X171971294Y-104126436D03*
X171815011Y-105012763D03*
X172701338Y-105169046D03*
%TD*%
D84*
%TO.C,C37*%
X162567701Y-80998538D03*
X161832299Y-80381462D03*
%TD*%
D34*
%TO.C,C95*%
X161012500Y-68899995D03*
X159462500Y-68899995D03*
%TD*%
D85*
%TO.C,C80*%
X155071052Y-76474170D03*
X154168948Y-76145830D03*
%TD*%
D86*
%TO.C,D28*%
X139398198Y-126391135D03*
X139631135Y-125521802D03*
X138761802Y-125288865D03*
X138528865Y-126158198D03*
%TD*%
D87*
%TO.C,C40*%
X120848165Y-101721827D03*
X120931835Y-102678173D03*
%TD*%
D88*
%TO.C,D62*%
X167123974Y-117144534D03*
X166434534Y-116566026D03*
X165856026Y-117255466D03*
X166545466Y-117833974D03*
%TD*%
D89*
%TO.C,D30*%
X118864984Y-98078136D03*
X119761560Y-98156576D03*
X119840000Y-97260000D03*
X118943424Y-97181560D03*
%TD*%
D90*
%TO.C,D55*%
X132784711Y-123784711D03*
X133234711Y-123005289D03*
X132455289Y-122555289D03*
X132005289Y-123334711D03*
%TD*%
D91*
%TO.C,C57*%
X161834598Y-119617076D03*
X162570000Y-119000000D03*
%TD*%
D92*
%TO.C,C42*%
X141147292Y-124736649D03*
X142092708Y-124903351D03*
%TD*%
D93*
%TO.C,D15*%
X157092340Y-75161983D03*
X156711983Y-75977660D03*
X157527660Y-76358017D03*
X157908017Y-75542340D03*
%TD*%
D42*
%TO.C,R24*%
X151450000Y-68075000D03*
X151450000Y-66425000D03*
%TD*%
D94*
%TO.C,C19*%
X168060000Y-87815692D03*
X167580000Y-86984308D03*
%TD*%
D95*
%TO.C,D29*%
X123979491Y-115966728D03*
X124716728Y-115450509D03*
X124200509Y-114713272D03*
X123463272Y-115229491D03*
%TD*%
D96*
%TO.C,D65*%
X119843604Y-107472271D03*
X120712937Y-107239334D03*
X120480000Y-106370001D03*
X119610667Y-106602938D03*
%TD*%
D97*
%TO.C,D33*%
X161229491Y-77463272D03*
X160713272Y-78200509D03*
X161450509Y-78716728D03*
X161966728Y-77979491D03*
%TD*%
D98*
%TO.C,C21*%
X120941835Y-97331827D03*
X120858165Y-98288173D03*
%TD*%
D99*
%TO.C,D51*%
X164910000Y-80443604D03*
X164273604Y-81080000D03*
X164910000Y-81716396D03*
X165546396Y-81080000D03*
%TD*%
D100*
%TO.C,D9*%
X163823974Y-120545466D03*
X163245466Y-119856026D03*
X162556026Y-120434534D03*
X163134534Y-121123974D03*
%TD*%
D101*
%TO.C,U9*%
X147600000Y-66625000D03*
X146800000Y-66625000D03*
X146000000Y-66625000D03*
X145200000Y-66625000D03*
X144400000Y-66625000D03*
D102*
X144075000Y-65500000D03*
D101*
X144400000Y-64375000D03*
X145200000Y-64375000D03*
X146000000Y-64375000D03*
X146800000Y-64375000D03*
X147600000Y-64375000D03*
D102*
X147925000Y-65500000D03*
%TD*%
D103*
%TO.C,D7*%
X169330000Y-86010578D03*
X168550578Y-86460578D03*
X169000578Y-87240000D03*
X169780000Y-86790000D03*
%TD*%
D53*
%TO.C,D61*%
X173190000Y-99550000D03*
X172290000Y-99550000D03*
X172290000Y-100450000D03*
X173190000Y-100450000D03*
%TD*%
D45*
%TO.C,R28*%
X157150000Y-63175000D03*
X157150000Y-64825000D03*
%TD*%
D104*
%TO.C,C15*%
X154168948Y-123854170D03*
X155071052Y-123525830D03*
%TD*%
D105*
%TO.C,C39*%
X124420000Y-86984308D03*
X123940000Y-87815692D03*
%TD*%
D106*
%TO.C,C74*%
X121253351Y-95147292D03*
X121086649Y-96092708D03*
%TD*%
D107*
%TO.C,D27*%
X159988861Y-123325559D03*
X159538861Y-122546137D03*
X158759439Y-122996137D03*
X159209439Y-123775559D03*
%TD*%
D108*
%TO.C,D56*%
X120601047Y-109726771D03*
X121446771Y-109418953D03*
X121138953Y-108573229D03*
X120293229Y-108881047D03*
%TD*%
D109*
%TO.C,D72*%
X148817508Y-127059068D03*
X148739068Y-126162492D03*
X147842492Y-126240932D03*
X147920932Y-127137508D03*
%TD*%
D49*
%TO.C,U5*%
X136887500Y-132450000D03*
X136887500Y-131500000D03*
X136887500Y-130550000D03*
X134612500Y-130550000D03*
X134612500Y-131500000D03*
X134612500Y-132450000D03*
%TD*%
D110*
%TO.C,D46*%
X134917660Y-124838017D03*
X135298017Y-124022340D03*
X134482340Y-123641983D03*
X134101983Y-124457660D03*
%TD*%
D111*
%TO.C,D13*%
X123466543Y-84771018D03*
X124203780Y-85287237D03*
X124719999Y-84550000D03*
X123982762Y-84033781D03*
%TD*%
D112*
%TO.C,C32*%
X123362857Y-88914972D03*
X122957143Y-89785028D03*
%TD*%
D113*
%TO.C,C69*%
X169052857Y-89785028D03*
X168647143Y-88914972D03*
%TD*%
D114*
%TO.C,U4*%
X161500002Y-131450000D03*
X159200002Y-131450000D03*
D115*
X159200002Y-137750000D03*
D114*
X156900002Y-131450000D03*
%TD*%
D116*
%TO.C,C7*%
X121090000Y-103900000D03*
X121256702Y-104845416D03*
%TD*%
D117*
%TO.C,C28*%
X166925317Y-85933193D03*
X166374683Y-85146807D03*
%TD*%
D118*
%TO.C,C17*%
X171151835Y-98278173D03*
X171068165Y-97321827D03*
%TD*%
D119*
%TO.C,D22*%
X124876026Y-82855466D03*
X125565466Y-83433974D03*
X126143974Y-82744534D03*
X125454534Y-82166026D03*
%TD*%
D120*
%TO.C,D4*%
X122225289Y-86804711D03*
X123004711Y-87254711D03*
X123454711Y-86475289D03*
X122675289Y-86025289D03*
%TD*%
D121*
%TO.C,C12*%
X131156807Y-120364683D03*
X131943193Y-120915317D03*
%TD*%
D122*
%TO.C,C53*%
X142092708Y-75096649D03*
X141147292Y-75263351D03*
%TD*%
D123*
%TO.C,C82*%
X130177701Y-80401462D03*
X129442299Y-81018538D03*
%TD*%
D124*
%TO.C,D44*%
X169774711Y-113215289D03*
X168995289Y-112765289D03*
X168545289Y-113544711D03*
X169324711Y-113994711D03*
%TD*%
D125*
%TO.C,C63*%
X120800000Y-99520000D03*
X120800000Y-100480000D03*
%TD*%
D126*
%TO.C,D67*%
X134099639Y-75544322D03*
X134479996Y-76359999D03*
X135295673Y-75979642D03*
X134915316Y-75163965D03*
%TD*%
D127*
%TO.C,D26*%
X171706771Y-108881047D03*
X170861047Y-108573229D03*
X170553229Y-109418953D03*
X171398953Y-109726771D03*
%TD*%
D128*
%TO.C,C66*%
X156224972Y-123062857D03*
X157095028Y-122657143D03*
%TD*%
D129*
%TO.C,C9*%
X122957143Y-110214972D03*
X123362857Y-111085028D03*
%TD*%
D34*
%TO.C,C94*%
X161012500Y-67350000D03*
X159462500Y-67350000D03*
%TD*%
D42*
%TO.C,R25*%
X151437500Y-64699998D03*
X151437500Y-63049998D03*
%TD*%
D130*
%TO.C,D71*%
X165546396Y-118910000D03*
X164910000Y-118273604D03*
X164273604Y-118910000D03*
X164910000Y-119546396D03*
%TD*%
D131*
%TO.C,C68*%
X170736649Y-104852708D03*
X170903351Y-103907292D03*
%TD*%
D132*
%TO.C,C26*%
X168637143Y-111085028D03*
X169042857Y-110214972D03*
%TD*%
D133*
%TO.C,D6*%
X154881047Y-74293229D03*
X154573229Y-75138953D03*
X155418953Y-75446771D03*
X155726771Y-74601047D03*
%TD*%
D134*
%TO.C,D31*%
X126453604Y-81080000D03*
X127090000Y-81716396D03*
X127726396Y-81080000D03*
X127090000Y-80443604D03*
%TD*%
D53*
%TO.C,D1*%
X146450000Y-127200000D03*
X146450000Y-126300000D03*
X145550000Y-126300000D03*
X145550000Y-127200000D03*
%TD*%
D135*
%TO.C,C65*%
X132984308Y-121580000D03*
X133815692Y-122060000D03*
%TD*%
D136*
%TO.C,C93*%
X159462501Y-62250000D03*
X161012501Y-62250000D03*
%TD*%
D137*
%TO.C,C77*%
X164991462Y-116567701D03*
X165608538Y-115832299D03*
%TD*%
D138*
%TO.C,D19*%
X141715022Y-126861305D03*
X141871305Y-125974978D03*
X140984978Y-125818695D03*
X140828695Y-126705022D03*
%TD*%
D139*
%TO.C,D24*%
X159205289Y-76225289D03*
X158755289Y-77004711D03*
X159534711Y-77454711D03*
X159984711Y-76675289D03*
%TD*%
D140*
%TO.C,D3*%
X119292091Y-105162319D03*
X120178418Y-105006036D03*
X120022135Y-104119709D03*
X119135808Y-104275992D03*
%TD*%
D141*
%TO.C,D36*%
X157898017Y-124457660D03*
X157517660Y-123641983D03*
X156701983Y-124022340D03*
X157082340Y-124838017D03*
%TD*%
D142*
%TO.C,D66*%
X121161983Y-88907660D03*
X121977660Y-89288017D03*
X122358017Y-88472340D03*
X121542340Y-88091983D03*
%TD*%
D143*
%TO.C,C49*%
X170913351Y-96092708D03*
X170746649Y-95147292D03*
%TD*%
D144*
%TO.C,C79*%
X146480000Y-74790000D03*
X145520000Y-74790000D03*
%TD*%
D145*
%TO.C,C38*%
X169844170Y-91831052D03*
X169515830Y-90928948D03*
%TD*%
D146*
%TO.C,C50*%
X152989999Y-75770001D03*
X152062711Y-75521535D03*
%TD*%
D147*
%TO.C,C67*%
X166374683Y-114853193D03*
X166925317Y-114066807D03*
%TD*%
D148*
%TO.C,C30*%
X160843193Y-79625317D03*
X160056807Y-79074683D03*
%TD*%
D149*
%TO.C,C24*%
X143321827Y-125078165D03*
X144278173Y-125161835D03*
%TD*%
D150*
%TO.C,D70*%
X173137508Y-101920932D03*
X172240932Y-101842492D03*
X172162492Y-102739068D03*
X173059068Y-102817508D03*
%TD*%
D151*
%TO.C,D58*%
X132009993Y-76670577D03*
X132459993Y-77449999D03*
X133239415Y-76999999D03*
X132789415Y-76220577D03*
%TD*%
D152*
%TO.C,D59*%
X150284978Y-73138695D03*
X150128695Y-74025022D03*
X151015022Y-74181305D03*
X151171305Y-73294978D03*
%TD*%
D153*
%TO.C,C85*%
X126391462Y-115832299D03*
X127008538Y-116567701D03*
%TD*%
D154*
%TO.C,C47*%
X163480589Y-118159411D03*
X164159411Y-117480589D03*
%TD*%
D155*
%TO.C,D40*%
X128166026Y-79454534D03*
X128744534Y-80143974D03*
X129433974Y-79565466D03*
X128855466Y-78876026D03*
%TD*%
D156*
%TO.C,C58*%
X169515830Y-109071052D03*
X169844170Y-108168948D03*
%TD*%
D157*
%TO.C,D57*%
X120286457Y-91127905D03*
X121132181Y-91435723D03*
X121439999Y-90589999D03*
X120594275Y-90282181D03*
%TD*%
D158*
%TO.C,D45*%
X155716771Y-125398953D03*
X155408953Y-124553229D03*
X154563229Y-124861047D03*
X154871047Y-125706771D03*
%TD*%
D159*
%TO.C,C59*%
X148678173Y-74921835D03*
X147721827Y-74838165D03*
%TD*%
D160*
%TO.C,D50*%
X147918437Y-72863421D03*
X147839997Y-73759997D03*
X148736573Y-73838437D03*
X148815013Y-72941861D03*
%TD*%
D161*
%TO.C,C78*%
X167590000Y-113015692D03*
X168070000Y-112184308D03*
%TD*%
D162*
%TO.C,D25*%
X171398831Y-90275287D03*
X170553107Y-90583105D03*
X170860925Y-91428829D03*
X171706649Y-91121011D03*
%TD*%
D163*
%TO.C,C48*%
X170215767Y-106983644D03*
X170464233Y-106056356D03*
%TD*%
D164*
%TO.C,D11*%
X127090000Y-119546396D03*
X127726396Y-118910000D03*
X127090000Y-118273604D03*
X126453604Y-118910000D03*
%TD*%
D165*
%TO.C,C27*%
X170474233Y-93943644D03*
X170225767Y-93016356D03*
%TD*%
D166*
%TO.C,C35*%
X171210000Y-100480000D03*
X171210000Y-99520000D03*
%TD*%
D167*
%TO.C,D37*%
X137118953Y-125706771D03*
X137426771Y-124861047D03*
X136581047Y-124553229D03*
X136273229Y-125398953D03*
%TD*%
D168*
%TO.C,C20*%
X122484170Y-90928948D03*
X122155830Y-91831052D03*
%TD*%
D169*
%TO.C,D54*%
X153471135Y-126148198D03*
X153238198Y-125278865D03*
X152368865Y-125511802D03*
X152601802Y-126381135D03*
%TD*%
D170*
%TO.C,C62*%
X127008538Y-83432299D03*
X126391462Y-84167701D03*
%TD*%
D42*
%TO.C,R27*%
X157150000Y-67900000D03*
X157150000Y-66250000D03*
%TD*%
D171*
%TO.C,D12*%
X118950932Y-102817508D03*
X119847508Y-102739068D03*
X119769068Y-101842492D03*
X118872492Y-101920932D03*
%TD*%
D172*
%TO.C,C41*%
X136928948Y-123515830D03*
X137831052Y-123844170D03*
%TD*%
D173*
%TO.C,D49*%
X130033776Y-77982763D03*
X130549995Y-78720000D03*
X131287232Y-78203781D03*
X130771013Y-77466544D03*
%TD*%
D174*
%TO.C,C36*%
X144278173Y-74848165D03*
X143321827Y-74931835D03*
%TD*%
D28*
%TO.C,R23*%
X141575000Y-66750000D03*
X139925000Y-66750000D03*
%TD*%
D175*
%TO.C,C23*%
X149907292Y-124913351D03*
X150852708Y-124746649D03*
%TD*%
D176*
%TO.C,C84*%
X123930000Y-112194308D03*
X124410000Y-113025692D03*
%TD*%
D177*
%TO.C,U11*%
X123980000Y-137260000D03*
X123980000Y-135990000D03*
X123980000Y-134720000D03*
X123980000Y-133450000D03*
X123980000Y-132180000D03*
X123980000Y-130910000D03*
X123980000Y-129640000D03*
X123980000Y-128370000D03*
X123980000Y-127100000D03*
X123980000Y-125830000D03*
X123980000Y-124560000D03*
X123980000Y-123290000D03*
X123980000Y-122020000D03*
X123980000Y-120750000D03*
D178*
X122215000Y-119500000D03*
X120945000Y-119500000D03*
X119675000Y-119500000D03*
X118405000Y-119500000D03*
X117135000Y-119500000D03*
X115865000Y-119500000D03*
X114595000Y-119500000D03*
X113325000Y-119500000D03*
X112055000Y-119500000D03*
X110785000Y-119500000D03*
X109515000Y-119500000D03*
X108245000Y-119500000D03*
D177*
X106480000Y-120750000D03*
X106480000Y-122020000D03*
X106480000Y-123290000D03*
X106480000Y-124560000D03*
X106480000Y-125830000D03*
X106480000Y-127100000D03*
X106480000Y-128370000D03*
X106480000Y-129640000D03*
X106480000Y-130910000D03*
X106480000Y-132180000D03*
X106480000Y-133450000D03*
X106480000Y-134720000D03*
X106480000Y-135990000D03*
X106480000Y-137260000D03*
D179*
X118130000Y-130940000D03*
X116730000Y-130940000D03*
X115330000Y-130940000D03*
X118130000Y-129540000D03*
X116730000Y-129540000D03*
X115330000Y-129540000D03*
X118130000Y-128140000D03*
X116730000Y-128140000D03*
X115330000Y-128140000D03*
%TD*%
D180*
%TO.C,C29*%
X164159411Y-82519411D03*
X163480589Y-81840589D03*
%TD*%
D181*
%TO.C,D18*%
X161966728Y-122020509D03*
X161450509Y-121283272D03*
X160713272Y-121799491D03*
X161229491Y-122536728D03*
%TD*%
D182*
%TO.C,D35*%
X170838017Y-111082340D03*
X170022340Y-110701983D03*
X169641983Y-111517660D03*
X170457660Y-111898017D03*
%TD*%
D183*
%TO.C,C46*%
X152066356Y-124474233D03*
X152993644Y-124225767D03*
%TD*%
D184*
%TO.C,D48*%
X119608865Y-93398198D03*
X120478198Y-93631135D03*
X120711135Y-92761802D03*
X119841802Y-92528865D03*
%TD*%
D185*
%TO.C,D14*%
X138527059Y-73840665D03*
X138759996Y-74709998D03*
X139629329Y-74477061D03*
X139396392Y-73607728D03*
%TD*%
D186*
%TO.C,C14*%
X139016356Y-124225767D03*
X139943644Y-124474233D03*
%TD*%
D187*
%TO.C,C34*%
X158194308Y-122080000D03*
X159025692Y-121600000D03*
%TD*%
D188*
%TO.C,C71*%
X131933193Y-79084683D03*
X131146807Y-79635317D03*
%TD*%
D189*
%TO.C,D52*%
X173049068Y-97182492D03*
X172152492Y-97260932D03*
X172230932Y-98157508D03*
X173127508Y-98079068D03*
%TD*%
D190*
%TO.C,C70*%
X135785028Y-76957143D03*
X134914972Y-77362857D03*
%TD*%
D191*
%TO.C,C6*%
X145520000Y-125210000D03*
X146480000Y-125210000D03*
%TD*%
D45*
%TO.C,R22*%
X130250000Y-135850002D03*
X130250000Y-137500002D03*
%TD*%
D192*
%TO.C,C81*%
X133810000Y-77940000D03*
X132978616Y-78420000D03*
%TD*%
D193*
%TO.C,D20*%
X125450001Y-117829999D03*
X126139441Y-117251491D03*
X125560933Y-116562051D03*
X124871493Y-117140559D03*
%TD*%
D194*
%TO.C,D32*%
X143181556Y-72943422D03*
X143259996Y-73839998D03*
X144156572Y-73761558D03*
X144078132Y-72864982D03*
%TD*%
D195*
%TO.C,D43*%
X172705022Y-94838695D03*
X171818695Y-94994978D03*
X171974978Y-95881305D03*
X172861305Y-95725022D03*
%TD*%
D196*
%TO.C,C73*%
X125635317Y-85156807D03*
X125084683Y-85943193D03*
%TD*%
D35*
%TO.C,Q2*%
X153250000Y-66350000D03*
X153250000Y-68250000D03*
X155125000Y-67300000D03*
%TD*%
D197*
%TO.C,C52*%
X139940000Y-75520001D03*
X139012712Y-75768467D03*
%TD*%
%LPD*%
M02*
