M48
; DRILL file {KiCad 9.0.1} date 2025-04-25T15:08:37+0200
; FORMAT={-:-/ absolute / inch / decimal}
; #@! TF.CreationDate,2025-04-25T15:08:37+02:00
; #@! TF.GenerationSoftware,Kicad,Pcbnew,9.0.1
; #@! TF.FileFunction,Plated,1,4,PTH
FMAT,2
INCH
; #@! TA.AperFunction,Plated,PTH,ViaDrill
T1C0.0118
; #@! TA.AperFunction,Plated,PTH,ComponentDrill
T2C0.0118
; #@! TA.AperFunction,Plated,PTH,ViaDrill
T3C0.0157
; #@! TA.AperFunction,Plated,PTH,ComponentDrill
T4C0.0236
; #@! TA.AperFunction,Plated,PTH,ComponentDrill
T5C0.0669
; #@! TA.AperFunction,Plated,PTH,ComponentDrill
T6C0.0866
%
G90
G05
T1
X4.1929Y-5.4331
X4.2283Y-5.2047
X4.2283Y-5.2539
X4.2283Y-5.3031
X4.2283Y-5.3543
X4.2303Y-4.7539
X4.2303Y-4.9547
X4.2303Y-5.0039
X4.2303Y-5.0551
X4.2303Y-5.1043
X4.2303Y-5.1535
X4.2323Y-5.4035
X4.2323Y-5.4331
X4.2421Y-4.5374
X4.252Y-4.5965
X4.2618Y-4.7421
X4.2677Y-5.3543
X4.3012Y-2.9823
X4.3012Y-3.0217
X4.3406Y-4.4321
X4.3425Y-4.811
X4.3573Y-2.5098
X4.3602Y-3.061
X4.3602Y-3.0906
X4.3622Y-4.7421
X4.3701Y-2.5394
X4.3701Y-4.5276
X4.3701Y-5.4646
X4.3799Y-4.5669
X4.3799Y-4.5965
X4.3898Y-2.5098
X4.3898Y-2.5591
X4.3898Y-2.5886
X4.3898Y-2.6181
X4.3898Y-2.6476
X4.3898Y-2.6772
X4.3898Y-2.7067
X4.3898Y-2.7362
X4.3898Y-2.7657
X4.3898Y-2.7953
X4.3898Y-2.8248
X4.3898Y-5.0
X4.3898Y-5.0787
X4.3996Y-4.4321
X4.4193Y-2.5098
X4.4193Y-3.1201
X4.4193Y-4.9213
X4.4488Y-2.5098
X4.4488Y-3.1201
X4.4567Y-5.126
X4.4587Y-4.5866
X4.4783Y-2.5098
X4.4783Y-3.1201
X4.4783Y-5.5118
X4.5079Y-2.5098
X4.5079Y-3.1201
X4.5177Y-4.5866
X4.5177Y-4.8425
X4.5236Y-3.6339
X4.5276Y-5.2362
X4.5374Y-2.5098
X4.5374Y-3.1201
X4.5433Y-4.4331
X4.5551Y-3.6339
X4.5669Y-2.5098
X4.5669Y-3.1201
X4.5728Y-3.8228
X4.5965Y-2.5098
X4.5965Y-3.1201
X4.6043Y-3.8228
X4.6063Y-5.2264
X4.626Y-2.5098
X4.626Y-3.1201
X4.626Y-5.2461
X4.6358Y-5.5118
X4.6457Y-3.1398
X4.6457Y-5.2657
X4.6555Y-2.5098
X4.6614Y-4.7421
X4.6654Y-3.1594
X4.6654Y-4.2264
X4.6654Y-5.2854
X4.685Y-2.5098
X4.685Y-3.1791
X4.6949Y-4.3209
X4.7047Y-3.1988
X4.7146Y-2.5098
X4.7146Y-4.7441
X4.7283Y-5.2913
X4.7323Y-3.4646
X4.7323Y-4.4114
X4.7343Y-3.189
X4.7441Y-2.5098
X4.7449Y-4.0957
X4.7512Y-3.7425
X4.752Y-3.8976
X4.7539Y-3.1693
X4.7598Y-4.7421
X4.7626Y-4.1823
X4.772Y-3.6563
X4.7736Y-2.5098
X4.7736Y-3.1496
X4.7736Y-3.2776
X4.7756Y-4.498
X4.7776Y-3.376
X4.7835Y-5.3051
X4.7874Y-4.2665
X4.7933Y-3.1299
X4.7933Y-5.5118
X4.7953Y-4.7992
X4.8008Y-3.5732
X4.8031Y-2.5098
X4.8031Y-4.7343
X4.8051Y-3.1969
X4.811Y-5.0315
X4.813Y-3.1102
X4.813Y-5.2539
X4.815Y-4.7795
X4.8205Y-4.3496
X4.8268Y-5.0079
X4.8327Y-3.0906
X4.8358Y-3.4913
X4.8425Y-2.5394
X4.8425Y-3.9606
X4.8425Y-5.2047
X4.8524Y-3.0709
X4.8543Y-3.7402
X4.8594Y-4.4283
X4.8622Y-2.5591
X4.872Y-3.0512
X4.878Y-3.9646
X4.8787Y-3.4142
X4.8819Y-2.5787
X4.8898Y-4.1673
X4.8917Y-3.0315
X4.9016Y-2.5984
X4.9063Y-4.5043
X4.9134Y-3.6339
X4.9134Y-4.2421
X4.9213Y-2.6181
X4.9213Y-2.9035
X4.937Y-5.3031
X4.9409Y-2.6378
X4.9409Y-3.563
X4.9429Y-4.315
X4.9508Y-2.9724
X4.9508Y-5.4823
X4.9567Y-5.1043
X4.9567Y-5.1535
X4.9583Y-4.5748
X4.9606Y-2.6575
X4.9622Y-3.3657
X4.9705Y-2.9528
X4.9705Y-5.187
X4.9744Y-3.0768
X4.9783Y-3.4941
X4.9783Y-4.3819
X4.9803Y-2.6772
X4.9862Y-4.8543
X4.9882Y-4.9035
X4.9882Y-4.9547
X4.9882Y-5.0039
X4.9882Y-5.0531
X4.9902Y-2.9331
X5.0Y-2.6969
X5.0138Y-3.2953
X5.0197Y-2.7165
X5.0197Y-3.4272
X5.0394Y-2.7362
X5.0433Y-3.2063
X5.0591Y-2.7559
X5.0689Y-2.8642
X5.0689Y-3.061
X5.0787Y-2.7756
X5.0886Y-4.4783
X5.0984Y-2.7953
X5.1083Y-3.1516
X5.1161Y-4.9311
X5.1181Y-4.5079
X5.122Y-3.3091
X5.1339Y-5.2283
X5.1398Y-4.9311
X5.1417Y-5.1024
X5.1437Y-5.2657
X5.1437Y-5.2953
X5.1437Y-5.3248
X5.1476Y-4.5374
X5.1512Y-4.7579
X5.1634Y-4.9311
X5.1654Y-5.1024
X5.1807Y-3.0957
X5.187Y-2.9665
X5.187Y-4.9311
X5.189Y-5.1024
X5.1969Y-4.5866
X5.2126Y-5.1024
X5.2248Y-4.8071
X5.2362Y-5.3228
X5.2382Y-3.2087
X5.2441Y-5.1024
X5.2559Y-3.0488
X5.2638Y-5.1772
X5.2756Y-2.7874
X5.2756Y-5.1024
X5.3028Y-4.8492
X5.3031Y-3.1673
X5.3051Y-2.7874
X5.3051Y-4.7067
X5.3071Y-5.1024
X5.3346Y-2.7874
X5.335Y-3.0094
X5.3386Y-5.1024
X5.3701Y-5.1024
X5.372Y-3.1319
X5.372Y-4.7421
X5.3839Y-4.8846
X5.4016Y-5.1024
X5.4134Y-5.4236
X5.4169Y-2.9768
X5.4173Y-5.3488
X5.4252Y-5.1398
X5.4252Y-5.1772
X5.4252Y-5.2146
X5.4331Y-5.1024
X5.4429Y-3.1024
X5.4449Y-4.7736
X5.4681Y-4.913
X5.4843Y-2.5295
X5.4843Y-2.628
X5.4961Y-5.1024
X5.5031Y-2.952
X5.5177Y-3.0787
X5.5177Y-4.7972
X5.5535Y-4.9335
X5.5866Y-5.2165
X5.5898Y-2.9343
X5.5906Y-3.8858
X5.6102Y-2.4902
X5.6102Y-5.2165
X5.626Y-3.8504
X5.6594Y-2.5787
X5.6614Y-3.815
X5.6732Y-2.4154
X5.6791Y-4.8031
X5.685Y-3.0591
X5.7165Y-2.5787
X5.7165Y-5.2283
X5.7185Y-4.7244
X5.7224Y-2.4154
X5.748Y-2.5787
X5.748Y-4.8031
X5.7579Y-5.2362
X5.7736Y-2.4154
X5.7913Y-2.5787
X5.7953Y-5.0709
X5.7972Y-5.2303
X5.7992Y-4.0945
X5.8031Y-3.0394
X5.8031Y-3.0787
X5.811Y-2.6555
X5.813Y-2.5118
X5.815Y-3.7874
X5.8169Y-4.8031
X5.8228Y-2.4154
X5.8346Y-4.0591
X5.8543Y-2.9268
X5.8839Y-4.9213
X5.8917Y-2.939
X5.9055Y-3.9882
X5.9114Y-5.2264
X5.935Y-5.2264
X5.9429Y-2.8327
X5.9437Y-2.9406
X5.9626Y-2.4587
X5.9626Y-2.5906
X5.9783Y-3.0787
X5.9783Y-4.7953
X5.9823Y-4.878
X6.0291Y-2.9614
X6.0374Y-2.8543
X6.0512Y-3.1043
X6.0512Y-4.7717
X6.0689Y-2.6122
X6.0709Y-2.4744
X6.0783Y-4.8969
X6.0866Y-2.5098
X6.0886Y-2.6496
X6.113Y-2.989
X6.122Y-4.7441
X6.124Y-3.1319
X6.1319Y-2.8839
X6.1606Y-4.865
X6.1693Y-5.2244
X6.1693Y-5.2638
X6.1909Y-3.1693
X6.1949Y-3.0256
X6.2126Y-2.5531
X6.2126Y-2.6083
X6.2224Y-2.9213
X6.2394Y-4.8256
X6.252Y-2.6516
X6.252Y-2.7126
X6.2559Y-3.2106
X6.2618Y-2.5709
X6.272Y-3.0681
X6.3071Y-4.9075
X6.3091Y-2.9665
X6.315Y-4.7795
X6.3189Y-2.5138
X6.3189Y-2.5886
X6.3189Y-3.2579
X6.3386Y-2.626
X6.3449Y-3.1161
X6.3504Y-4.5866
X6.3563Y-5.2638
X6.3563Y-5.2244
X6.374Y-3.3091
X6.3858Y-4.7264
X6.3898Y-4.8543
X6.3917Y-3.0197
X6.415Y-3.1713
X6.4213Y-4.5236
X6.4291Y-3.3681
X6.4606Y-2.3937
X6.4606Y-2.4803
X6.4665Y-3.0787
X6.4764Y-3.4291
X6.4795Y-3.2331
X6.5Y-2.4173
X6.5177Y-3.4941
X6.5382Y-3.2996
X6.5394Y-3.1437
X6.5531Y-3.563
X6.5531Y-4.313
X6.5591Y-2.4567
X6.563Y-4.7953
X6.5689Y-4.5335
X6.5827Y-2.4567
X6.5827Y-3.6358
X6.5827Y-4.2421
X6.5846Y-4.7736
X6.5902Y-3.3701
X6.6063Y-2.4567
X6.6063Y-3.2165
X6.6063Y-4.1673
X6.6083Y-3.7087
X6.6173Y-4.4598
X6.6366Y-3.4461
X6.6594Y-4.3831
X6.6654Y-3.2953
X6.6756Y-3.5248
X6.6949Y-4.3012
X6.7047Y-2.3661
X6.7083Y-3.6071
X6.7165Y-3.378
X6.7185Y-4.498
X6.7236Y-4.2177
X6.7327Y-3.6925
X6.7382Y-4.7756
X6.7402Y-3.9764
X6.7421Y-4.8465
X6.7441Y-4.1315
X6.7461Y-4.7283
X6.7516Y-3.7787
X6.7575Y-4.0445
X6.7598Y-3.8563
X6.7638Y-3.4646
X6.7638Y-4.4094
X6.7677Y-2.3937
X6.7756Y-4.9528
X6.8012Y-3.5531
X6.8012Y-4.3209
X6.8071Y-2.4173
X6.8091Y-4.6732
X6.8307Y-3.6457
X6.8307Y-4.2264
X6.8346Y-4.8937
X6.8346Y-5.0
X6.8346Y-5.248
X6.8524Y-3.7421
X6.8524Y-4.1319
X6.8642Y-4.0354
X6.8752Y-3.8079
X6.8799Y-4.5551
X6.8976Y-5.0295
X6.8976Y-5.248
X6.9193Y-4.5551
X6.9606Y-5.0591
X6.9606Y-5.248
X6.9783Y-5.4862
X7.0217Y-4.6614
X7.0236Y-5.0886
X7.0236Y-5.248
X7.0748Y-2.3937
X7.0866Y-5.1181
X7.0866Y-5.248
X7.0965Y-5.4862
X7.1142Y-2.3701
X7.1142Y-2.4173
X7.128Y-4.6181
X7.1496Y-5.1476
X7.1496Y-5.248
X7.1673Y-4.6181
X7.185Y-2.8937
X7.185Y-2.9232
X7.185Y-2.9528
X7.2008Y-5.1713
X7.2146Y-5.4862
X7.2933Y-2.5689
X7.2933Y-2.5925
X7.2933Y-2.6161
X7.2933Y-2.6398
X7.2933Y-2.6634
X7.2933Y-2.687
X7.2933Y-2.7106
X7.2933Y-2.7343
X7.2933Y-2.7579
X7.2933Y-2.7815
X7.2933Y-2.8051
X7.2933Y-2.8287
X7.2933Y-4.6457
X7.2933Y-4.685
X7.2933Y-4.7244
X7.2933Y-4.7638
X7.2933Y-4.8031
X7.2933Y-4.8425
X7.2933Y-4.8819
X7.2933Y-4.9213
X7.2933Y-4.9606
X7.2933Y-5.0
X7.2933Y-5.0394
X7.2933Y-5.0787
X7.2933Y-5.1181
X7.2933Y-5.1575
X7.2933Y-5.1969
T2
X6.9547Y-4.7756
X6.9547Y-4.815
X6.9941Y-4.7756
X6.9941Y-4.815
T3
X6.2087Y-5.4016
X6.2087Y-5.3622
X6.3268Y-5.4016
X6.3268Y-5.3622
T5
X5.3445Y-3.937
X5.9498Y-3.5875
X5.9498Y-4.2865
T6
X4.3701Y-3.937
X4.5748Y-3.937
X5.748Y-2.7638
X6.9213Y-3.937
X7.126Y-3.937
T4
G00X5.5268Y-5.2992
M15
G01X5.5268Y-5.3307
M16
G05
G00X5.5268Y-5.4488
M15
G01X5.5268Y-5.4961
M16
G05
G00X5.9693Y-5.2992
M15
G01X5.9693Y-5.3307
M16
G05
G00X5.9693Y-5.4488
M15
G01X5.9693Y-5.4961
M16
G05
M30
