<?xml version="1.0" standalone="no"?>
 <!DOCTYPE svg PUBLIC "-//W3C//DTD SVG 1.1//EN" 
 "http://www.w3.org/Graphics/SVG/1.1/DTD/svg11.dtd"> 
<svg
  xmlns:svg="http://www.w3.org/2000/svg"
  xmlns="http://www.w3.org/2000/svg"
  xmlns:xlink="http://www.w3.org/1999/xlink"
  version="1.1"
  width="297.002200mm" height="210.007200mm" viewBox="0.000000 0.000000 297.002200 210.007200">
<title>SVG Image created as view_screen-Edge_Cuts.svg date 2025/06/30 18:51:57 </title>
  <desc>Image generated by PCBNEW </desc>
<g style="fill:#000000; fill-opacity:1.000000;stroke:#000000; stroke-opacity:1.000000;
stroke-linecap:round; stroke-linejoin:round;"
 transform="translate(0 0) scale(1 1)">
</g>
<g style="fill:none; 
stroke:#000000; stroke-width:0.050000; stroke-opacity:1; 
stroke-linecap:round; stroke-linejoin:round;">
<path d="M97.493261 78.962095 A21.192701 21.192701 0.0 0 0 78.983946 97.305549" />
<path d="M98.061684 79.382196 A0.503517 0.503517 0.0 0 0 97.494519 78.963170" />
<path d="M93.503948 114.005548 A0.499952 0.499952 0.0 0 0 93.003948 114.505550" />
<path d="M92.281730 119.741215 A0.506941 0.506941 0.0 0 0 93.010941 119.285549" />
<path d="M107.003949 114.505549 A0.500049 0.500049 0.0 0 0 106.503945 114.005551" />
<path d="M107.008042 119.285549 A0.496758 0.496758 0.0 0 0 107.723340 119.731704" />
<path d="M107.723339 119.731702 A21.182777 21.182777 0.0 0 0 121.013948 102.705556" />
<path d="M102.511734 78.971776 A0.503519 0.503519 0.0 0 0 101.944511 79.390812" />
<path d="M93.003948 114.505550
L93.010941 119.285549
" />
<path d="M107.003945 114.505549
L107.008060 119.285549
" />
<path d="M121.013941 97.305550 A21.182779 21.182779 0.0 0 0 102.511739 78.971742" />
<path d="M98.062345 79.382040 A1.998296 1.998296 0.0 0 0 101.944510 79.390812" />
<path d="M78.983941 102.705556 A21.192685 21.192685 0.0 0 0 92.281715 119.741246" />
</g>
<g style="fill:none; 
stroke:#000000; stroke-width:0.200000; stroke-opacity:1; 
stroke-linecap:round; stroke-linejoin:round;">
<circle cx="100.000000" cy="100.000000" r="4.050000" /> 
</g>
<g style="fill:none; 
stroke:#000000; stroke-width:0.050000; stroke-opacity:1; 
stroke-linecap:round; stroke-linejoin:round;">
<path d="M93.503948 114.005550
L106.503945 114.005551
" />
<path d="M121.012540 102.705375 A21.185984 21.185984 0.0 0 0 121.013944 97.305549" />
<path d="M78.983947 97.305549 A21.188076 21.188076 0.0 0 0 78.985350 102.705375" />
<path d="M103.325126 92.432233
L108.274874 87.482486
" />
<path d="M103.325126 93.139340
L106.860660 96.674874
" />
<path d="M107.567767 96.674874
L112.517514 91.725126
" />
<path d="M108.981981 87.482486
L112.517514 91.018019
" />
<path d="M103.325125 92.432232 A0.499999 0.499999 0.0 0 0 103.325126 93.139340" />
<path d="M106.860660 96.674874 A0.500000 0.500000 0.0 0 0 107.567767 96.674874" />
<path d="M108.981981 87.482486 A0.500000 0.500000 0.0 0 0 108.274874 87.482486" />
<path d="M112.517515 91.725127 A0.500000 0.500000 0.0 0 0 112.517514 91.018019" />
</g> 
</svg>
