<?xml version="1.0" standalone="no"?>
 <!DOCTYPE svg PUBLIC "-//W3C//DTD SVG 1.1//EN" 
 "http://www.w3.org/Graphics/SVG/1.1/DTD/svg11.dtd"> 
<svg
  xmlns:svg="http://www.w3.org/2000/svg"
  xmlns="http://www.w3.org/2000/svg"
  xmlns:xlink="http://www.w3.org/1999/xlink"
  version="1.1"
  width="297.002200mm" height="210.007200mm" viewBox="0.000000 0.000000 297.002200 210.007200">
<title>SVG Image created as view_screen-B_Paste.svg date 2025/06/30 18:51:57 </title>
  <desc>Image generated by PCBNEW </desc>
<g style="fill:#000000; fill-opacity:1.000000;stroke:#000000; stroke-opacity:1.000000;
stroke-linecap:round; stroke-linejoin:round;"
 transform="translate(0 0) scale(1 1)">
<path style="fill:#000000; fill-opacity:1.000000; stroke:none;fill-rule:evenodd;"
d="M 103.762500,111.900000
103.729015,111.893339
103.700628,111.874372
103.681661,111.845985
103.675000,111.812500
103.675000,109.987500
103.681661,109.954015
103.700628,109.925628
103.729015,109.906661
103.762500,109.900000
103.937500,109.900000
103.970985,109.906661
103.999372,109.925628
104.018339,109.954015
104.025000,109.987500
104.025000,111.812500
104.018339,111.845985
103.999372,111.874372
103.970985,111.893339
103.937500,111.900000
Z" /> 
<path style="fill:#000000; fill-opacity:1.000000; stroke:none;fill-rule:evenodd;"
d="M 103.062500,111.900000
103.029015,111.893339
103.000628,111.874372
102.981661,111.845985
102.975000,111.812500
102.975000,109.987500
102.981661,109.954015
103.000628,109.925628
103.029015,109.906661
103.062500,109.900000
103.237500,109.900000
103.270985,109.906661
103.299372,109.925628
103.318339,109.954015
103.325000,109.987500
103.325000,111.812500
103.318339,111.845985
103.299372,111.874372
103.270985,111.893339
103.237500,111.900000
Z" /> 
<path style="fill:#000000; fill-opacity:1.000000; stroke:none;fill-rule:evenodd;"
d="M 102.362500,111.900000
102.329015,111.893339
102.300628,111.874372
102.281661,111.845985
102.275000,111.812500
102.275000,109.987500
102.281661,109.954015
102.300628,109.925628
102.329015,109.906661
102.362500,109.900000
102.537500,109.900000
102.570985,109.906661
102.599372,109.925628
102.618339,109.954015
102.625000,109.987500
102.625000,111.812500
102.618339,111.845985
102.599372,111.874372
102.570985,111.893339
102.537500,111.900000
Z" /> 
<path style="fill:#000000; fill-opacity:1.000000; stroke:none;fill-rule:evenodd;"
d="M 101.662500,111.900000
101.629015,111.893339
101.600628,111.874372
101.581661,111.845985
101.575000,111.812500
101.575000,109.987500
101.581661,109.954015
101.600628,109.925628
101.629015,109.906661
101.662500,109.900000
101.837500,109.900000
101.870985,109.906661
101.899372,109.925628
101.918339,109.954015
101.925000,109.987500
101.925000,111.812500
101.918339,111.845985
101.899372,111.874372
101.870985,111.893339
101.837500,111.900000
Z" /> 
<path style="fill:#000000; fill-opacity:1.000000; stroke:none;fill-rule:evenodd;"
d="M 100.962500,111.900000
100.929015,111.893339
100.900628,111.874372
100.881661,111.845985
100.875000,111.812500
100.875000,109.987500
100.881661,109.954015
100.900628,109.925628
100.929015,109.906661
100.962500,109.900000
101.137500,109.900000
101.170985,109.906661
101.199372,109.925628
101.218339,109.954015
101.225000,109.987500
101.225000,111.812500
101.218339,111.845985
101.199372,111.874372
101.170985,111.893339
101.137500,111.900000
Z" /> 
<path style="fill:#000000; fill-opacity:1.000000; stroke:none;fill-rule:evenodd;"
d="M 100.262500,111.900000
100.229015,111.893339
100.200628,111.874372
100.181661,111.845985
100.175000,111.812500
100.175000,109.987500
100.181661,109.954015
100.200628,109.925628
100.229015,109.906661
100.262500,109.900000
100.437500,109.900000
100.470985,109.906661
100.499372,109.925628
100.518339,109.954015
100.525000,109.987500
100.525000,111.812500
100.518339,111.845985
100.499372,111.874372
100.470985,111.893339
100.437500,111.900000
Z" /> 
<path style="fill:#000000; fill-opacity:1.000000; stroke:none;fill-rule:evenodd;"
d="M 99.562500,111.900000
99.529015,111.893339
99.500628,111.874372
99.481661,111.845985
99.475000,111.812500
99.475000,109.987500
99.481661,109.954015
99.500628,109.925628
99.529015,109.906661
99.562500,109.900000
99.737500,109.900000
99.770985,109.906661
99.799372,109.925628
99.818339,109.954015
99.825000,109.987500
99.825000,111.812500
99.818339,111.845985
99.799372,111.874372
99.770985,111.893339
99.737500,111.900000
Z" /> 
<path style="fill:#000000; fill-opacity:1.000000; stroke:none;fill-rule:evenodd;"
d="M 98.862500,111.900000
98.829015,111.893339
98.800628,111.874372
98.781661,111.845985
98.775000,111.812500
98.775000,109.987500
98.781661,109.954015
98.800628,109.925628
98.829015,109.906661
98.862500,109.900000
99.037500,109.900000
99.070985,109.906661
99.099372,109.925628
99.118339,109.954015
99.125000,109.987500
99.125000,111.812500
99.118339,111.845985
99.099372,111.874372
99.070985,111.893339
99.037500,111.900000
Z" /> 
<path style="fill:#000000; fill-opacity:1.000000; stroke:none;fill-rule:evenodd;"
d="M 98.162500,111.900000
98.129015,111.893339
98.100628,111.874372
98.081661,111.845985
98.075000,111.812500
98.075000,109.987500
98.081661,109.954015
98.100628,109.925628
98.129015,109.906661
98.162500,109.900000
98.337500,109.900000
98.370985,109.906661
98.399372,109.925628
98.418339,109.954015
98.425000,109.987500
98.425000,111.812500
98.418339,111.845985
98.399372,111.874372
98.370985,111.893339
98.337500,111.900000
Z" /> 
<path style="fill:#000000; fill-opacity:1.000000; stroke:none;fill-rule:evenodd;"
d="M 97.462500,111.900000
97.429015,111.893339
97.400628,111.874372
97.381661,111.845985
97.375000,111.812500
97.375000,109.987500
97.381661,109.954015
97.400628,109.925628
97.429015,109.906661
97.462500,109.900000
97.637500,109.900000
97.670985,109.906661
97.699372,109.925628
97.718339,109.954015
97.725000,109.987500
97.725000,111.812500
97.718339,111.845985
97.699372,111.874372
97.670985,111.893339
97.637500,111.900000
Z" /> 
<path style="fill:#000000; fill-opacity:1.000000; stroke:none;fill-rule:evenodd;"
d="M 96.762500,111.900000
96.729015,111.893339
96.700628,111.874372
96.681661,111.845985
96.675000,111.812500
96.675000,109.987500
96.681661,109.954015
96.700628,109.925628
96.729015,109.906661
96.762500,109.900000
96.937500,109.900000
96.970985,109.906661
96.999372,109.925628
97.018339,109.954015
97.025000,109.987500
97.025000,111.812500
97.018339,111.845985
96.999372,111.874372
96.970985,111.893339
96.937500,111.900000
Z" /> 
<path style="fill:#000000; fill-opacity:1.000000; stroke:none;fill-rule:evenodd;"
d="M 96.062500,111.900000
96.029015,111.893339
96.000628,111.874372
95.981661,111.845985
95.975000,111.812500
95.975000,109.987500
95.981661,109.954015
96.000628,109.925628
96.029015,109.906661
96.062500,109.900000
96.237500,109.900000
96.270985,109.906661
96.299372,109.925628
96.318339,109.954015
96.325000,109.987500
96.325000,111.812500
96.318339,111.845985
96.299372,111.874372
96.270985,111.893339
96.237500,111.900000
Z" /> 
<path style="fill:#000000; fill-opacity:1.000000; stroke:none;fill-rule:evenodd;"
d="M 116.850185,108.915039
116.811595,108.959042
116.759104,108.984928
116.700702,108.988756
116.645281,108.969943
115.627701,108.382443
115.583698,108.343853
115.557812,108.291362
115.553984,108.232960
115.572797,108.177539
115.722797,107.917731
115.761387,107.873728
115.813878,107.847842
115.872280,107.844014
115.927701,107.862827
116.945281,108.450327
116.989284,108.488917
117.015170,108.541408
117.018998,108.599810
117.000185,108.655231
Z" /> 
<path style="fill:#000000; fill-opacity:1.000000; stroke:none;fill-rule:evenodd;"
d="M 115.900185,110.560487
115.861595,110.604490
115.809104,110.630376
115.750702,110.634204
115.695281,110.615391
114.677701,110.027891
114.633698,109.989301
114.607812,109.936810
114.603984,109.878408
114.622797,109.822987
114.772797,109.563179
114.811387,109.519176
114.863878,109.493290
114.922280,109.489462
114.977701,109.508275
115.995281,110.095775
116.039284,110.134365
116.065170,110.186856
116.068998,110.245258
116.050185,110.300679
Z" /> 
<path style="fill:#000000; fill-opacity:1.000000; stroke:none;fill-rule:evenodd;"
d="M 114.751387,108.800263
114.712797,108.844266
114.660306,108.870152
114.601904,108.873980
114.546483,108.855167
113.528903,108.267667
113.484900,108.229077
113.459014,108.176586
113.455186,108.118184
113.473999,108.062763
113.623999,107.802955
113.662589,107.758952
113.715080,107.733066
113.773482,107.729238
113.828903,107.748051
114.846483,108.335551
114.890486,108.374141
114.916372,108.426632
114.920200,108.485034
114.901387,108.540455
Z" /> 
<path style="fill:#000000; fill-opacity:1.000000; stroke:none;fill-rule:evenodd;"
d="M 115.996292,103.163430
116.030806,103.093441
116.089477,103.041989
116.163372,103.016904
116.241241,103.022008
116.627611,103.125536
116.697600,103.160051
116.749052,103.218721
116.774137,103.292616
116.769033,103.370485
116.626682,103.901744
116.592168,103.971733
116.533497,104.023185
116.459602,104.048270
116.381733,104.043166
115.995363,103.939638
115.925374,103.905123
115.873922,103.846453
115.848837,103.772558
115.853941,103.694689
Z" /> 
<path style="fill:#000000; fill-opacity:1.000000; stroke:none;fill-rule:evenodd;"
d="M 117.590070,103.590482
117.624584,103.520493
117.683255,103.469041
117.757150,103.443956
117.835019,103.449060
118.221389,103.552588
118.291378,103.587103
118.342830,103.645773
118.367915,103.719668
118.362811,103.797537
118.220460,104.328796
118.185946,104.398785
118.127275,104.450237
118.053380,104.475322
117.975511,104.470218
117.589141,104.366690
117.519152,104.332175
117.467700,104.273505
117.442615,104.199610
117.447719,104.121741
Z" /> 
<path style="fill:#000000; fill-opacity:1.000000; stroke:none;fill-rule:evenodd;"
d="M 112.971751,113.360660
112.906867,113.404015
112.830330,113.419238
112.753793,113.404015
112.688909,113.360660
112.406066,113.077817
112.362711,113.012933
112.347488,112.936396
112.362711,112.859859
112.406066,112.794975
112.794975,112.406066
112.859859,112.362711
112.936396,112.347488
113.012933,112.362711
113.077817,112.406066
113.360660,112.688909
113.404015,112.753793
113.419238,112.830330
113.404015,112.906867
113.360660,112.971751
Z" /> 
<path style="fill:#000000; fill-opacity:1.000000; stroke:none;fill-rule:evenodd;"
d="M 111.805025,112.193934
111.740141,112.237289
111.663604,112.252512
111.587067,112.237289
111.522183,112.193934
111.239340,111.911091
111.195985,111.846207
111.180762,111.769670
111.195985,111.693133
111.239340,111.628249
111.628249,111.239340
111.693133,111.195985
111.769670,111.180762
111.846207,111.195985
111.911091,111.239340
112.193934,111.522183
112.237289,111.587067
112.252512,111.663604
112.237289,111.740141
112.193934,111.805025
Z" /> 
<path style="fill:#000000; fill-opacity:1.000000; stroke:none;fill-rule:evenodd;"
d="M 117.819362,105.858215
117.784848,105.928204
117.726177,105.979656
117.652282,106.004741
117.574413,105.999637
117.188043,105.896109
117.118054,105.861594
117.066602,105.802924
117.041517,105.729029
117.046621,105.651160
117.188972,105.119901
117.223486,105.049912
117.282157,104.998460
117.356052,104.973375
117.433921,104.978479
117.820291,105.082007
117.890280,105.116522
117.941732,105.175192
117.966817,105.249087
117.961713,105.326956
Z" /> 
<path style="fill:#000000; fill-opacity:1.000000; stroke:none;fill-rule:evenodd;"
d="M 116.225584,105.431163
116.191070,105.501152
116.132399,105.552604
116.058504,105.577689
115.980635,105.572585
115.594265,105.469057
115.524276,105.434542
115.472824,105.375872
115.447739,105.301977
115.452843,105.224108
115.595194,104.692849
115.629708,104.622860
115.688379,104.571408
115.762274,104.546323
115.840143,104.551427
116.226513,104.654955
116.296502,104.689470
116.347954,104.748140
116.373039,104.822035
116.367935,104.899904
Z" /> 
<path style="fill:#000000; fill-opacity:1.000000; stroke:none;fill-rule:evenodd;"
d="M 108.802157,113.553144
108.882513,113.517787
108.970282,113.515872
109.052104,113.547690
109.115521,113.608399
109.373630,113.977017
109.408988,114.057373
109.410902,114.145143
109.379084,114.226964
109.318375,114.290381
108.908799,114.577170
108.828443,114.612527
108.740674,114.614442
108.658852,114.582624
108.595435,114.521915
108.337326,114.153297
108.301968,114.072941
108.300054,113.985171
108.331872,113.903350
108.392581,113.839933
Z" /> 
<path style="fill:#000000; fill-opacity:1.000000; stroke:none;fill-rule:evenodd;"
d="M 109.691201,114.822830
109.771557,114.787473
109.859326,114.785558
109.941148,114.817376
110.004565,114.878085
110.262674,115.246703
110.298032,115.327059
110.299946,115.414829
110.268128,115.496650
110.207419,115.560067
109.797843,115.846856
109.717487,115.882213
109.629718,115.884128
109.547896,115.852310
109.484479,115.791601
109.226370,115.422983
109.191012,115.342627
109.189098,115.254857
109.220916,115.173036
109.281625,115.109619
Z" /> 
<path style="fill:#000000; fill-opacity:1.000000; stroke:none;fill-rule:evenodd;"
d="M 110.102157,112.653144
110.182513,112.617787
110.270282,112.615872
110.352104,112.647690
110.415521,112.708399
110.673630,113.077017
110.708988,113.157373
110.710902,113.245143
110.679084,113.326964
110.618375,113.390381
110.208799,113.677170
110.128443,113.712527
110.040674,113.714442
109.958852,113.682624
109.895435,113.621915
109.637326,113.253297
109.601968,113.172941
109.600054,113.085171
109.631872,113.003350
109.692581,112.939933
Z" /> 
<path style="fill:#000000; fill-opacity:1.000000; stroke:none;fill-rule:evenodd;"
d="M 110.991201,113.922830
111.071557,113.887473
111.159326,113.885558
111.241148,113.917376
111.304565,113.978085
111.562674,114.346703
111.598032,114.427059
111.599946,114.514829
111.568128,114.596650
111.507419,114.660067
111.097843,114.946856
111.017487,114.982213
110.929718,114.984128
110.847896,114.952310
110.784479,114.891601
110.526370,114.522983
110.491012,114.442627
110.489098,114.354857
110.520916,114.273036
110.581625,114.209619
Z" /> 
<path style="fill:#000000; fill-opacity:1.000000; stroke:none;fill-rule:evenodd;"
d="M 115.603122,87.080330
114.330330,88.353122
114.118198,88.140990
115.390990,86.868198
Z" /> 
<path style="fill:#000000; fill-opacity:1.000000; stroke:none;fill-rule:evenodd;"
d="M 115.249569,86.726776
113.976777,87.999568
113.764645,87.787436
115.037437,86.514644
Z" /> 
<path style="fill:#000000; fill-opacity:1.000000; stroke:none;fill-rule:evenodd;"
d="M 114.896015,86.373223
113.623223,87.646015
113.411091,87.433883
114.683883,86.161091
Z" /> 
<path style="fill:#000000; fill-opacity:1.000000; stroke:none;fill-rule:evenodd;"
d="M 114.542462,86.019670
113.269670,87.292462
113.057538,87.080330
114.330330,85.807538
Z" /> 
<path style="fill:#000000; fill-opacity:1.000000; stroke:none;fill-rule:evenodd;"
d="M 114.188908,85.666116
112.916116,86.938908
112.703984,86.726776
113.976776,85.453984
Z" /> 
<path style="fill:#000000; fill-opacity:1.000000; stroke:none;fill-rule:evenodd;"
d="M 113.835355,85.312563
112.562563,86.585355
112.350431,86.373223
113.623223,85.100431
Z" /> 
<path style="fill:#000000; fill-opacity:1.000000; stroke:none;fill-rule:evenodd;"
d="M 113.481802,84.959009
112.209010,86.231801
111.996878,86.019669
113.269670,84.746877
Z" /> 
<path style="fill:#000000; fill-opacity:1.000000; stroke:none;fill-rule:evenodd;"
d="M 113.128248,84.605456
111.855456,85.878248
111.643324,85.666116
112.916116,84.393324
Z" /> 
<path style="fill:#000000; fill-opacity:1.000000; stroke:none;fill-rule:evenodd;"
d="M 115.417507,89.634753
114.657367,90.394893
113.808839,89.546365
114.568979,88.786225
Z" /> 
<path style="fill:#000000; fill-opacity:1.000000; stroke:none;fill-rule:evenodd;"
d="M 111.210221,85.427467
110.450081,86.187607
109.601553,85.339079
110.361693,84.578939
Z" /> 
</g> 
</svg>
